<?xml version="1.0" standalone="no"?>
<!DOCTYPE svg PUBLIC "-//W3C//DTD SVG 20010904//EN"
 "http://www.w3.org/TR/2001/REC-SVG-20010904/DTD/svg10.dtd">
<svg version="1.0" xmlns="http://www.w3.org/2000/svg"
 width="124.000000pt" height="166.000000pt" viewBox="0 0 124.000000 166.000000"
 preserveAspectRatio="xMidYMid meet">
<metadata>
Created by potrace 1.16, written by Peter Selinger 2001-2019
</metadata>
<g transform="translate(0.000000,166.000000) scale(0.100000,-0.100000)"
fill="#000000" stroke="none">
<path d="M35 830 c0 -459 1 -647 2 -418 2 230 2 606 0 835 -1 230 -2 42 -2
-417z"/>
<path d="M1175 830 c0 -459 1 -647 2 -418 2 230 2 606 0 835 -1 230 -2 42 -2
-417z"/>
<path d="M402 1350 c-18 -17 -22 -32 -22 -76 0 -74 18 -144 35 -138 11 5 14
-44 17 -258 3 -236 5 -267 22 -298 17 -32 20 -33 27 -15 12 31 10 90 -3 103
-7 7 -14 51 -16 101 l-4 90 28 7 c84 20 225 141 239 205 21 97 -47 210 -167
277 -54 29 -126 30 -156 2z m161 -49 c72 -44 127 -125 127 -187 0 -68 -65
-140 -179 -199 -27 -14 -35 -14 -42 -4 -4 8 -5 81 -2 164 4 117 9 153 20 162
14 11 13 17 -4 52 -11 22 -18 42 -16 45 7 7 61 -11 96 -33z m-123 -48 c-1 -81
-12 -84 -25 -6 -6 37 5 83 20 83 3 0 5 -35 5 -77z"/>
</g>
</svg>
