<?xml version="1.0" standalone="no"?>
<!DOCTYPE svg PUBLIC "-//W3C//DTD SVG 20010904//EN"
 "http://www.w3.org/TR/2001/REC-SVG-20010904/DTD/svg10.dtd">
<svg version="1.0" xmlns="http://www.w3.org/2000/svg"
 width="124.000000pt" height="166.000000pt" viewBox="0 0 124.000000 166.000000"
 preserveAspectRatio="xMidYMid meet">
<metadata>
Created by potrace 1.16, written by Peter Selinger 2001-2019
</metadata>
<g transform="translate(0.000000,166.000000) scale(0.100000,-0.100000)"
fill="#000000" stroke="none">
<path d="M45 830 c0 -459 1 -647 2 -418 2 230 2 606 0 835 -1 230 -2 42 -2
-417z"/>
<path d="M1185 830 c0 -459 1 -647 2 -418 2 230 2 606 0 835 -1 230 -2 42 -2
-417z"/>
<path d="M710 1460 c-113 -24 -250 -126 -250 -186 0 -31 35 -66 176 -179 166
-133 244 -230 244 -303 0 -78 -82 -129 -190 -119 -63 5 -137 41 -163 77 -12
17 -16 18 -31 7 -17 -12 -14 -17 29 -55 153 -135 412 -66 392 105 -10 92 -75
168 -306 360 -108 89 -121 105 -105 131 21 34 108 90 171 111 63 21 176 28
199 13 7 -4 13 -16 15 -27 6 -29 33 -25 37 6 5 42 -29 63 -106 66 -37 1 -87
-2 -112 -7z"/>
</g>
</svg>
