<?xml version="1.0" standalone="no"?>
<!DOCTYPE svg PUBLIC "-//W3C//DTD SVG 20010904//EN"
 "http://www.w3.org/TR/2001/REC-SVG-20010904/DTD/svg10.dtd">
<svg version="1.0" xmlns="http://www.w3.org/2000/svg"
 width="124.000000pt" height="166.000000pt" viewBox="0 0 124.000000 166.000000"
 preserveAspectRatio="xMidYMid meet">
<metadata>
Created by potrace 1.16, written by Peter Selinger 2001-2019
</metadata>
<g transform="translate(0.000000,166.000000) scale(0.100000,-0.100000)"
fill="#000000" stroke="none">
<path d="M35 830 c0 -459 1 -647 2 -418 2 230 2 606 0 835 -1 230 -2 42 -2
-417z"/>
<path d="M1175 830 c0 -459 1 -647 2 -418 2 230 2 606 0 835 -1 230 -2 42 -2
-417z"/>
<path d="M326 1376 c-21 -8 -46 -22 -55 -30 -21 -22 -17 -79 12 -158 40 -105
70 -236 62 -274 -4 -25 -2 -36 9 -40 8 -3 17 -22 21 -42 13 -77 36 -132 55
-132 28 0 39 21 51 104 l12 77 63 29 c35 16 88 51 117 79 52 50 55 51 88 39
51 -17 85 -44 99 -79 13 -29 11 -37 -15 -86 -60 -115 -322 -278 -531 -331 -56
-14 -69 -21 -66 -35 4 -22 42 -16 162 26 106 37 162 65 268 133 157 102 222
181 222 268 0 56 -39 106 -106 133 -36 15 -44 22 -39 38 14 52 16 106 6 138
-16 48 -76 100 -147 127 -76 29 -230 37 -288 16z m244 -42 c135 -40 186 -116
148 -221 -9 -25 -18 -33 -38 -33 -23 0 -127 -21 -176 -36 -21 -6 -22 -2 -29
102 -6 91 -5 109 8 119 12 9 13 15 3 32 -9 19 -13 20 -29 8 -16 -11 -18 -29
-16 -151 1 -133 0 -138 -22 -155 -13 -10 -27 -19 -30 -19 -4 0 -15 33 -24 73
-10 39 -31 109 -47 154 -15 46 -28 89 -28 97 0 41 178 60 280 30z m81 -318
c-23 -24 -130 -86 -149 -86 -5 0 -12 14 -14 31 -4 26 -1 32 21 41 34 14 121
36 145 37 18 1 18 -1 -3 -23z m-201 -75 c0 -23 -5 -30 -25 -33 -33 -7 -34 24
-3 46 29 20 28 21 28 -13z m-1 -98 c-1 -16 -5 -41 -8 -58 l-7 -30 -12 40 c-17
58 -15 75 8 75 15 0 20 -6 19 -27z"/>
</g>
</svg>
