<?xml version="1.0" standalone="no"?>
<!DOCTYPE svg PUBLIC "-//W3C//DTD SVG 20010904//EN"
 "http://www.w3.org/TR/2001/REC-SVG-20010904/DTD/svg10.dtd">
<svg version="1.0" xmlns="http://www.w3.org/2000/svg"
 width="124.000000pt" height="166.000000pt" viewBox="0 0 124.000000 166.000000"
 preserveAspectRatio="xMidYMid meet">
<metadata>
Created by potrace 1.16, written by Peter Selinger 2001-2019
</metadata>
<g transform="translate(0.000000,166.000000) scale(0.100000,-0.100000)"
fill="#000000" stroke="none">
<path d="M35 830 c0 -459 1 -647 2 -418 2 230 2 606 0 835 -1 230 -2 42 -2
-417z"/>
<path d="M1175 830 c0 -459 1 -647 2 -418 2 230 2 606 0 835 -1 230 -2 42 -2
-417z"/>
<path d="M800 1350 c-10 -6 -13 -23 -11 -54 2 -34 -11 -84 -49 -197 -29 -83
-67 -222 -85 -308 -18 -86 -35 -149 -38 -141 -3 8 -13 54 -22 102 -23 128
-101 394 -133 458 -30 60 -65 79 -77 41 -7 -23 20 -71 41 -71 25 0 133 -392
154 -563 22 -175 47 -144 104 129 25 116 60 251 80 304 19 52 42 122 51 155
24 96 18 165 -15 145z"/>
</g>
</svg>
