<?xml version="1.0" standalone="no"?>
<!DOCTYPE svg PUBLIC "-//W3C//DTD SVG 20010904//EN"
 "http://www.w3.org/TR/2001/REC-SVG-20010904/DTD/svg10.dtd">
<svg version="1.0" xmlns="http://www.w3.org/2000/svg"
 width="124.000000pt" height="166.000000pt" viewBox="0 0 124.000000 166.000000"
 preserveAspectRatio="xMidYMid meet">
<metadata>
Created by potrace 1.16, written by Peter Selinger 2001-2019
</metadata>
<g transform="translate(0.000000,166.000000) scale(0.100000,-0.100000)"
fill="#000000" stroke="none">
<path d="M35 830 c0 -459 1 -647 2 -418 2 230 2 606 0 835 -1 230 -2 42 -2
-417z"/>
<path d="M1185 830 c0 -459 1 -647 2 -418 2 230 2 606 0 835 -1 230 -2 42 -2
-417z"/>
<path d="M268 1143 c3 -38 11 -72 18 -78 7 -5 24 -66 38 -135 45 -226 83 -318
122 -294 28 16 44 79 55 214 12 143 30 200 55 180 8 -8 51 -86 94 -174 78
-159 129 -232 157 -221 8 3 18 5 22 5 33 0 113 302 135 508 3 35 1 42 -13 42
-15 0 -20 -16 -29 -92 -21 -160 -93 -418 -117 -418 -20 0 -71 82 -127 206 -57
126 -93 183 -121 193 -50 19 -74 -38 -93 -221 -7 -76 -18 -146 -23 -155 -8
-14 -10 -14 -19 4 -22 40 -74 273 -97 433 -7 50 -20 70 -45 70 -16 0 -17 -8
-12 -67z"/>
</g>
</svg>
