<?xml version="1.0" standalone="no"?>
<!DOCTYPE svg PUBLIC "-//W3C//DTD SVG 20010904//EN"
 "http://www.w3.org/TR/2001/REC-SVG-20010904/DTD/svg10.dtd">
<svg version="1.0" xmlns="http://www.w3.org/2000/svg"
 width="124.000000pt" height="166.000000pt" viewBox="0 0 124.000000 166.000000"
 preserveAspectRatio="xMidYMid meet">
<metadata>
Created by potrace 1.16, written by Peter Selinger 2001-2019
</metadata>
<g transform="translate(0.000000,166.000000) scale(0.100000,-0.100000)"
fill="#000000" stroke="none">
<path d="M45 830 c0 -459 1 -647 2 -418 2 230 2 606 0 835 -1 230 -2 42 -2
-417z"/>
<path d="M1185 830 c0 -459 1 -647 2 -418 2 230 2 606 0 835 -1 230 -2 42 -2
-417z"/>
<path d="M834 1203 c-12 -10 -45 -49 -74 -86 -30 -37 -70 -80 -88 -94 -35 -26
-35 -26 -69 -8 -43 23 -110 96 -128 138 -17 42 -25 49 -41 36 -31 -26 50 -141
142 -201 l64 -42 3 -76 c1 -41 2 -120 2 -174 0 -67 4 -100 12 -103 20 -7 26
38 27 212 l1 171 65 74 c36 40 79 88 97 106 27 27 30 34 20 49 -12 15 -14 15
-33 -2z"/>
</g>
</svg>
