<?xml version="1.0" standalone="no"?>
<!DOCTYPE svg PUBLIC "-//W3C//DTD SVG 20010904//EN"
 "http://www.w3.org/TR/2001/REC-SVG-20010904/DTD/svg10.dtd">
<svg version="1.0" xmlns="http://www.w3.org/2000/svg"
 width="124.000000pt" height="166.000000pt" viewBox="0 0 124.000000 166.000000"
 preserveAspectRatio="xMidYMid meet">
<metadata>
Created by potrace 1.16, written by Peter Selinger 2001-2019
</metadata>
<g transform="translate(0.000000,166.000000) scale(0.100000,-0.100000)"
fill="#000000" stroke="none">
<path d="M35 830 c0 -459 1 -647 2 -418 2 230 2 606 0 835 -1 230 -2 42 -2
-417z"/>
<path d="M1185 830 c0 -459 1 -647 2 -418 2 230 2 606 0 835 -1 230 -2 42 -2
-417z"/>
<path d="M491 1304 c-11 -14 -24 -42 -28 -63 -16 -76 -2 -691 16 -691 20 1 32
24 40 81 16 111 70 191 113 168 11 -6 29 -31 40 -56 17 -39 19 -52 9 -83 -15
-50 -44 -85 -96 -116 -42 -24 -98 -35 -112 -21 -3 4 -9 24 -12 44 -9 57 -36
51 -35 -6 2 -103 118 -111 224 -15 53 48 71 84 72 143 0 68 -40 135 -93 154
-26 9 -77 -23 -101 -62 l-23 -36 -7 50 c-8 65 -10 369 -2 418 5 27 11 37 25
37 23 0 27 51 5 69 -11 9 -18 6 -35 -15z"/>
</g>
</svg>
