<?xml version="1.0" standalone="no"?>
<!DOCTYPE svg PUBLIC "-//W3C//DTD SVG 20010904//EN"
 "http://www.w3.org/TR/2001/REC-SVG-20010904/DTD/svg10.dtd">
<svg version="1.0" xmlns="http://www.w3.org/2000/svg"
 width="124.000000pt" height="166.000000pt" viewBox="0 0 124.000000 166.000000"
 preserveAspectRatio="xMidYMid meet">
<metadata>
Created by potrace 1.16, written by Peter Selinger 2001-2019
</metadata>
<g transform="translate(0.000000,166.000000) scale(0.100000,-0.100000)"
fill="#000000" stroke="none">
<path d="M35 830 c0 -459 1 -647 2 -418 2 230 2 606 0 835 -1 230 -2 42 -2
-417z"/>
<path d="M1185 830 c0 -459 1 -647 2 -418 2 230 2 606 0 835 -1 230 -2 42 -2
-417z"/>
<path d="M595 1128 c-106 -59 -145 -217 -68 -278 67 -52 188 1 265 117 13 20
14 6 16 -140 2 -252 -22 -355 -101 -422 -71 -61 -130 -42 -192 64 -32 55 -33
55 -55 41 -12 -7 -6 -21 32 -77 89 -130 169 -138 266 -28 67 76 73 106 83 400
5 143 7 271 4 283 -5 20 -8 22 -21 11 -9 -7 -27 -36 -41 -63 -39 -77 -76 -119
-133 -150 -45 -24 -55 -26 -79 -16 -29 11 -51 46 -51 79 0 9 12 41 26 70 34
67 77 91 129 72 61 -22 78 9 19 34 -43 18 -71 19 -99 3z"/>
</g>
</svg>
