<?xml version="1.0" standalone="no"?>
<!DOCTYPE svg PUBLIC "-//W3C//DTD SVG 20010904//EN"
 "http://www.w3.org/TR/2001/REC-SVG-20010904/DTD/svg10.dtd">
<svg version="1.0" xmlns="http://www.w3.org/2000/svg"
 width="124.000000pt" height="166.000000pt" viewBox="0 0 124.000000 166.000000"
 preserveAspectRatio="xMidYMid meet">
<metadata>
Created by potrace 1.16, written by Peter Selinger 2001-2019
</metadata>
<g transform="translate(0.000000,166.000000) scale(0.100000,-0.100000)"
fill="#000000" stroke="none">
<path d="M45 830 c0 -459 1 -647 2 -418 2 230 2 606 0 835 -1 230 -2 42 -2
-417z"/>
<path d="M1185 830 c0 -459 1 -647 2 -418 2 230 2 606 0 835 -1 230 -2 42 -2
-417z"/>
<path d="M602 1222 c-8 -5 8 -14 49 -26 56 -17 62 -17 77 -3 9 9 13 19 10 23
-11 10 -122 16 -136 6z"/>
<path d="M686 981 c-3 -9 -14 -65 -25 -126 -11 -60 -23 -120 -27 -132 -5 -19
-2 -23 14 -23 22 0 32 30 56 175 7 44 16 87 20 96 5 11 1 18 -13 22 -13 3 -22
-1 -25 -12z"/>
</g>
</svg>
