<?xml version="1.0" standalone="no"?>
<!DOCTYPE svg PUBLIC "-//W3C//DTD SVG 20010904//EN"
 "http://www.w3.org/TR/2001/REC-SVG-20010904/DTD/svg10.dtd">
<svg version="1.0" xmlns="http://www.w3.org/2000/svg"
 width="124.000000pt" height="166.000000pt" viewBox="0 0 124.000000 166.000000"
 preserveAspectRatio="xMidYMid meet">
<metadata>
Created by potrace 1.16, written by Peter Selinger 2001-2019
</metadata>
<g transform="translate(0.000000,166.000000) scale(0.100000,-0.100000)"
fill="#000000" stroke="none">
<path d="M35 830 c0 -459 1 -647 2 -418 2 230 2 606 0 835 -1 230 -2 42 -2
-417z"/>
<path d="M1175 830 c0 -459 1 -647 2 -418 2 230 2 606 0 835 -1 230 -2 42 -2
-417z"/>
<path d="M540 1378 c0 -32 14 -50 32 -43 20 8 29 40 15 54 -20 20 -47 13 -47
-11z"/>
<path d="M600 1111 c0 -15 9 -75 21 -132 33 -160 16 -231 -68 -289 -28 -19
-38 -21 -58 -12 -25 11 -62 76 -85 145 -8 27 -17 37 -28 35 -21 -5 -19 -28 9
-102 25 -67 78 -126 115 -126 34 0 72 21 111 62 67 69 78 146 43 309 -11 52
-20 104 -20 117 0 15 -6 22 -20 22 -15 0 -20 -7 -20 -29z"/>
</g>
</svg>
