<?xml version="1.0" standalone="no"?>
<!DOCTYPE svg PUBLIC "-//W3C//DTD SVG 20010904//EN"
 "http://www.w3.org/TR/2001/REC-SVG-20010904/DTD/svg10.dtd">
<svg version="1.0" xmlns="http://www.w3.org/2000/svg"
 width="124.000000pt" height="166.000000pt" viewBox="0 0 124.000000 166.000000"
 preserveAspectRatio="xMidYMid meet">
<metadata>
Created by potrace 1.16, written by Peter Selinger 2001-2019
</metadata>
<g transform="translate(0.000000,166.000000) scale(0.100000,-0.100000)"
fill="#000000" stroke="none">
<path d="M35 830 c0 -459 1 -647 2 -418 2 230 2 606 0 835 -1 230 -2 42 -2
-417z"/>
<path d="M1175 830 c0 -459 1 -647 2 -418 2 230 2 606 0 835 -1 230 -2 42 -2
-417z"/>
<path d="M598 1374 c-10 -32 -19 -113 -22 -179 -3 -66 -12 -165 -21 -220 -22
-133 -24 -227 -6 -249 12 -14 16 -15 28 -3 10 10 11 20 4 40 -16 43 -5 58 38
52 174 -29 263 -56 302 -91 14 -13 18 -13 29 1 30 36 -57 80 -215 110 -50 9
-100 18 -112 21 -13 2 -23 9 -23 14 0 6 51 44 113 84 97 63 117 80 134 117 31
67 36 89 21 89 -21 0 -32 -12 -55 -61 -17 -37 -34 -54 -85 -84 -35 -21 -78
-49 -96 -63 -18 -13 -36 -22 -38 -19 -3 3 0 31 6 64 15 82 31 373 22 407 -7
27 -9 26 -24 -30z"/>
</g>
</svg>
