<?xml version="1.0" standalone="no"?>
<!DOCTYPE svg PUBLIC "-//W3C//DTD SVG 20010904//EN"
 "http://www.w3.org/TR/2001/REC-SVG-20010904/DTD/svg10.dtd">
<svg version="1.0" xmlns="http://www.w3.org/2000/svg"
 width="124.000000pt" height="166.000000pt" viewBox="0 0 124.000000 166.000000"
 preserveAspectRatio="xMidYMid meet">
<metadata>
Created by potrace 1.16, written by Peter Selinger 2001-2019
</metadata>
<g transform="translate(0.000000,166.000000) scale(0.100000,-0.100000)"
fill="#000000" stroke="none">
<path d="M45 830 c0 -459 1 -647 2 -418 2 230 2 606 0 835 -1 230 -2 42 -2
-417z"/>
<path d="M1185 830 c0 -459 1 -647 2 -418 2 230 2 606 0 835 -1 230 -2 42 -2
-417z"/>
<path d="M389 1084 c-9 -11 -8 -18 5 -32 21 -24 22 -172 1 -257 -18 -76 -18
-72 5 -78 17 -4 24 9 55 103 40 121 92 196 117 172 18 -18 13 -129 -8 -181 -8
-21 -14 -56 -12 -76 l3 -37 39 74 c49 93 86 139 130 163 45 24 58 14 101 -80
39 -85 108 -156 131 -133 12 12 7 21 -35 65 -31 32 -54 68 -65 100 -37 112
-111 132 -195 54 l-29 -27 -5 38 c-13 95 -65 114 -128 48 -21 -22 -41 -40 -44
-40 -3 0 -5 21 -5 46 0 69 -33 112 -61 78z"/>
</g>
</svg>
