<?xml version="1.0" standalone="no"?>
<!DOCTYPE svg PUBLIC "-//W3C//DTD SVG 20010904//EN"
 "http://www.w3.org/TR/2001/REC-SVG-20010904/DTD/svg10.dtd">
<svg version="1.0" xmlns="http://www.w3.org/2000/svg"
 width="124.000000pt" height="166.000000pt" viewBox="0 0 124.000000 166.000000"
 preserveAspectRatio="xMidYMid meet">
<metadata>
Created by potrace 1.16, written by Peter Selinger 2001-2019
</metadata>
<g transform="translate(0.000000,166.000000) scale(0.100000,-0.100000)"
fill="#000000" stroke="none">
<path d="M45 830 c0 -459 1 -647 2 -418 2 230 2 606 0 835 -1 230 -2 42 -2
-417z"/>
<path d="M1185 830 c0 -459 1 -647 2 -418 2 230 2 606 0 835 -1 230 -2 42 -2
-417z"/>
<path d="M446 1052 c-10 -20 -16 -57 -17 -104 0 -40 -4 -120 -8 -178 -7 -87
-5 -114 9 -160 l17 -55 7 90 c13 183 66 358 115 384 76 41 161 -96 161 -260 0
-64 2 -69 21 -69 21 0 21 3 17 93 -8 151 -59 255 -139 279 -55 16 -100 -6
-131 -64 -20 -39 -23 -41 -26 -19 -2 13 2 27 8 31 9 6 8 14 -3 36 l-15 28 -16
-32z"/>
</g>
</svg>
