<?xml version="1.0" standalone="no"?>
<!DOCTYPE svg PUBLIC "-//W3C//DTD SVG 20010904//EN"
 "http://www.w3.org/TR/2001/REC-SVG-20010904/DTD/svg10.dtd">
<svg version="1.0" xmlns="http://www.w3.org/2000/svg"
 width="124.000000pt" height="166.000000pt" viewBox="0 0 124.000000 166.000000"
 preserveAspectRatio="xMidYMid meet">
<metadata>
Created by potrace 1.16, written by Peter Selinger 2001-2019
</metadata>
<g transform="translate(0.000000,166.000000) scale(0.100000,-0.100000)"
fill="#000000" stroke="none">
<path d="M45 830 c0 -459 1 -647 2 -418 2 230 2 606 0 835 -1 230 -2 42 -2
-417z"/>
<path d="M1185 830 c0 -459 1 -647 2 -418 2 230 2 606 0 835 -1 230 -2 42 -2
-417z"/>
<path d="M252 1203 c28 -27 35 -28 138 -12 136 21 357 -23 455 -89 22 -15 53
-47 70 -71 114 -163 -96 -453 -437 -604 -90 -39 -92 -40 -122 -23 -37 21 -58
6 -32 -23 31 -35 61 -34 152 3 222 91 425 268 484 424 26 70 27 169 1 220 -41
80 -110 128 -246 173 -63 20 -91 23 -278 24 l-208 2 23 -24z"/>
<path d="M484 1053 c13 -172 18 -312 12 -337 -4 -17 -13 -26 -26 -26 -17 0
-20 -7 -20 -43 0 -24 6 -51 13 -61 12 -16 16 -12 42 41 27 53 30 67 30 163 0
58 -4 158 -9 223 -8 107 -11 117 -29 117 -18 0 -19 -5 -13 -77z"/>
</g>
</svg>
