<?xml version="1.0" standalone="no"?>
<!DOCTYPE svg PUBLIC "-//W3C//DTD SVG 20010904//EN"
 "http://www.w3.org/TR/2001/REC-SVG-20010904/DTD/svg10.dtd">
<svg version="1.0" xmlns="http://www.w3.org/2000/svg"
 width="124.000000pt" height="166.000000pt" viewBox="0 0 124.000000 166.000000"
 preserveAspectRatio="xMidYMid meet">
<metadata>
Created by potrace 1.16, written by Peter Selinger 2001-2019
</metadata>
<g transform="translate(0.000000,166.000000) scale(0.100000,-0.100000)"
fill="#000000" stroke="none">
<path d="M35 830 c0 -459 1 -647 2 -418 2 230 2 606 0 835 -1 230 -2 42 -2
-417z"/>
<path d="M1185 830 c0 -459 1 -647 2 -418 2 230 2 606 0 835 -1 230 -2 42 -2
-417z"/>
<path d="M539 1251 c-63 -21 -151 -86 -173 -129 -26 -52 -27 -88 -3 -124 45
-67 132 -85 235 -49 l54 18 -6 -21 c-41 -162 -52 -429 -22 -502 16 -38 56 -71
70 -57 12 13 5 35 -16 53 -22 18 -23 24 -22 187 1 201 26 350 70 417 28 42 44
128 26 139 -15 10 -41 -26 -67 -90 -26 -64 -61 -96 -129 -114 -120 -32 -206
46 -145 132 27 38 94 84 146 99 56 17 73 4 73 -56 0 -37 3 -44 20 -44 18 0 20
7 20 53 0 28 -7 60 -15 70 -15 21 -77 31 -116 18z"/>
</g>
</svg>
