<?xml version="1.0" standalone="no"?>
<!DOCTYPE svg PUBLIC "-//W3C//DTD SVG 20010904//EN"
 "http://www.w3.org/TR/2001/REC-SVG-20010904/DTD/svg10.dtd">
<svg version="1.0" xmlns="http://www.w3.org/2000/svg"
 width="124.000000pt" height="166.000000pt" viewBox="0 0 124.000000 166.000000"
 preserveAspectRatio="xMidYMid meet">
<metadata>
Created by potrace 1.16, written by Peter Selinger 2001-2019
</metadata>
<g transform="translate(0.000000,166.000000) scale(0.100000,-0.100000)"
fill="#000000" stroke="none">
<path d="M35 830 c0 -459 1 -647 2 -418 2 230 2 606 0 835 -1 230 -2 42 -2
-417z"/>
<path d="M1185 830 c0 -459 1 -647 2 -418 2 230 2 606 0 835 -1 230 -2 42 -2
-417z"/>
<path d="M435 1275 c-23 -241 43 -543 128 -583 40 -19 89 -1 119 46 46 70 176
372 211 489 12 40 13 55 3 68 -18 24 -49 9 -42 -21 8 -30 -64 -223 -149 -399
-48 -100 -69 -134 -89 -143 -24 -11 -29 -9 -50 13 -54 58 -102 289 -94 445 4
66 1 94 -12 125 l-17 40 -8 -80z"/>
</g>
</svg>
