<?xml version="1.0" standalone="no"?>
<!DOCTYPE svg PUBLIC "-//W3C//DTD SVG 20010904//EN"
 "http://www.w3.org/TR/2001/REC-SVG-20010904/DTD/svg10.dtd">
<svg version="1.0" xmlns="http://www.w3.org/2000/svg"
 width="124.000000pt" height="166.000000pt" viewBox="0 0 124.000000 166.000000"
 preserveAspectRatio="xMidYMid meet">
<metadata>
Created by potrace 1.16, written by Peter Selinger 2001-2019
</metadata>
<g transform="translate(0.000000,166.000000) scale(0.100000,-0.100000)"
fill="#000000" stroke="none">
<path d="M45 830 c0 -459 1 -647 2 -418 2 230 2 606 0 835 -1 230 -2 42 -2
-417z"/>
<path d="M1185 830 c0 -459 1 -647 2 -418 2 230 2 606 0 835 -1 230 -2 42 -2
-417z"/>
<path d="M276 1225 c10 -177 15 -222 38 -324 31 -135 60 -212 90 -233 22 -16
25 -16 56 0 45 23 73 81 110 226 32 126 56 180 70 155 4 -8 20 -57 35 -109 69
-240 165 -362 229 -291 38 42 118 345 120 456 1 54 -1 60 -19 60 -16 0 -20 -6
-18 -30 6 -70 -78 -407 -112 -450 -15 -20 -16 -19 -49 18 -39 44 -72 119 -116
264 -17 57 -39 112 -48 123 -15 17 -20 18 -41 7 -37 -18 -58 -63 -91 -191 -30
-115 -59 -188 -81 -202 -6 -3 -20 2 -30 13 -25 24 -83 255 -97 383 -6 52 -20
120 -31 150 l-20 55 5 -80z"/>
</g>
</svg>
