<?xml version="1.0" standalone="no"?>
<!DOCTYPE svg PUBLIC "-//W3C//DTD SVG 20010904//EN"
 "http://www.w3.org/TR/2001/REC-SVG-20010904/DTD/svg10.dtd">
<svg version="1.0" xmlns="http://www.w3.org/2000/svg"
 width="124.000000pt" height="166.000000pt" viewBox="0 0 124.000000 166.000000"
 preserveAspectRatio="xMidYMid meet">
<metadata>
Created by potrace 1.16, written by Peter Selinger 2001-2019
</metadata>
<g transform="translate(0.000000,166.000000) scale(0.100000,-0.100000)"
fill="#000000" stroke="none">
<path d="M35 830 c0 -459 1 -647 2 -418 2 230 2 606 0 835 -1 230 -2 42 -2
-417z"/>
<path d="M1175 830 c0 -459 1 -647 2 -418 2 230 2 606 0 835 -1 230 -2 42 -2
-417z"/>
<path d="M490 1088 c0 -25 23 -28 162 -26 121 3 127 2 152 -21 33 -31 35 -95
4 -160 -28 -62 -207 -237 -278 -275 -70 -37 -90 -54 -90 -79 0 -16 5 -18 28
-14 15 3 90 17 167 31 77 14 184 34 239 46 108 22 156 25 156 10 0 -5 7 -10
15 -10 17 0 51 48 40 58 -13 14 -121 3 -270 -27 -82 -16 -170 -32 -195 -36
l-45 -6 35 27 c19 15 74 67 123 115 101 101 137 165 137 246 0 70 -15 99 -64
123 -36 17 -59 19 -179 17 -121 -2 -137 -4 -137 -19z"/>
</g>
</svg>
