<?xml version="1.0" standalone="no"?>
<!DOCTYPE svg PUBLIC "-//W3C//DTD SVG 20010904//EN"
 "http://www.w3.org/TR/2001/REC-SVG-20010904/DTD/svg10.dtd">
<svg version="1.0" xmlns="http://www.w3.org/2000/svg"
 width="124.000000pt" height="166.000000pt" viewBox="0 0 124.000000 166.000000"
 preserveAspectRatio="xMidYMid meet">
<metadata>
Created by potrace 1.16, written by Peter Selinger 2001-2019
</metadata>
<g transform="translate(0.000000,166.000000) scale(0.100000,-0.100000)"
fill="#000000" stroke="none">
<path d="M35 830 c0 -459 1 -647 2 -418 2 230 2 606 0 835 -1 230 -2 42 -2
-417z"/>
<path d="M1175 830 c0 -459 1 -647 2 -418 2 230 2 606 0 835 -1 230 -2 42 -2
-417z"/>
<path d="M450 1346 c0 -2 13 -20 29 -40 20 -25 58 -51 118 -80 132 -65 169
-121 124 -189 -25 -38 -102 -92 -160 -112 -25 -9 -57 -22 -71 -31 -23 -13 -8
-14 141 -8 161 6 168 6 214 -17 51 -26 85 -65 85 -99 0 -33 -35 -84 -77 -113
-97 -67 -296 -137 -390 -137 -36 0 -43 -3 -43 -20 0 -17 7 -20 48 -20 97 0
290 64 396 133 91 58 130 156 88 220 -42 63 -120 100 -214 101 l-57 1 40 38
c63 61 76 123 39 184 -20 33 -94 93 -115 93 -6 0 -38 16 -71 36 -56 34 -124
67 -124 60z"/>
</g>
</svg>
