<?xml version="1.0" standalone="no"?>
<!DOCTYPE svg PUBLIC "-//W3C//DTD SVG 20010904//EN"
 "http://www.w3.org/TR/2001/REC-SVG-20010904/DTD/svg10.dtd">
<svg version="1.0" xmlns="http://www.w3.org/2000/svg"
 width="124.000000pt" height="166.000000pt" viewBox="0 0 124.000000 166.000000"
 preserveAspectRatio="xMidYMid meet">
<metadata>
Created by potrace 1.16, written by Peter Selinger 2001-2019
</metadata>
<g transform="translate(0.000000,166.000000) scale(0.100000,-0.100000)"
fill="#000000" stroke="none">
<path d="M35 830 c0 -459 1 -647 2 -418 2 230 2 606 0 835 -1 230 -2 42 -2
-417z"/>
<path d="M1175 830 c0 -459 1 -647 2 -418 2 230 2 606 0 835 -1 230 -2 42 -2
-417z"/>
<path d="M763 1268 c-29 -35 -86 -104 -127 -154 -42 -50 -127 -148 -191 -218
-91 -100 -115 -132 -115 -155 0 -48 19 -56 113 -43 45 6 126 14 181 18 l99 6
-7 -28 c-3 -16 -9 -61 -12 -101 -6 -58 -4 -77 10 -98 22 -33 60 -35 51 -2 -4
12 -11 26 -16 31 -12 13 -11 56 2 131 l12 62 87 5 c93 6 133 19 124 43 -4 10
-17 13 -47 10 -23 -2 -69 -7 -101 -10 l-59 -6 6 188 c3 104 7 195 8 203 3 9
-4 16 -17 18 -30 4 -34 -17 -34 -213 0 -93 -4 -175 -8 -182 -4 -7 -54 -14
-127 -18 -66 -4 -140 -11 -165 -15 -25 -5 -49 -5 -54 0 -5 5 46 69 117 147 69
76 153 172 187 213 34 41 71 86 82 99 16 19 63 131 55 131 -2 0 -26 -28 -54
-62z"/>
</g>
</svg>
