<?xml version="1.0" standalone="no"?>
<!DOCTYPE svg PUBLIC "-//W3C//DTD SVG 20010904//EN"
 "http://www.w3.org/TR/2001/REC-SVG-20010904/DTD/svg10.dtd">
<svg version="1.0" xmlns="http://www.w3.org/2000/svg"
 width="124.000000pt" height="166.000000pt" viewBox="0 0 124.000000 166.000000"
 preserveAspectRatio="xMidYMid meet">
<metadata>
Created by potrace 1.16, written by Peter Selinger 2001-2019
</metadata>
<g transform="translate(0.000000,166.000000) scale(0.100000,-0.100000)"
fill="#000000" stroke="none">
<path d="M35 830 c0 -459 1 -647 2 -418 2 230 2 606 0 835 -1 230 -2 42 -2
-417z"/>
<path d="M1185 830 c0 -459 1 -647 2 -418 2 230 2 606 0 835 -1 230 -2 42 -2
-417z"/>
<path d="M547 1262 c-10 -11 -24 -60 -34 -123 -9 -58 -23 -109 -30 -114 -14
-11 -7 -49 7 -40 4 2 10 -33 13 -78 6 -100 29 -162 100 -276 71 -113 78 -127
71 -145 -17 -45 -163 -46 -239 -2 -44 26 -95 89 -109 134 -8 24 -14 26 -35 13
-11 -7 -10 -16 6 -52 45 -102 129 -158 246 -167 49 -3 79 0 112 13 81 31 83
79 8 191 -82 122 -113 199 -120 297 l-6 87 29 1 c40 2 93 0 132 -7 27 -4 32
-2 32 15 0 28 -8 31 -100 36 -46 2 -84 5 -85 7 -9 9 26 173 39 187 9 10 16 23
16 29 0 18 -35 14 -53 -6z"/>
</g>
</svg>
