<?xml version="1.0" standalone="no"?>
<!DOCTYPE svg PUBLIC "-//W3C//DTD SVG 20010904//EN"
 "http://www.w3.org/TR/2001/REC-SVG-20010904/DTD/svg10.dtd">
<svg version="1.0" xmlns="http://www.w3.org/2000/svg"
 width="124.000000pt" height="166.000000pt" viewBox="0 0 124.000000 166.000000"
 preserveAspectRatio="xMidYMid meet">
<metadata>
Created by potrace 1.16, written by Peter Selinger 2001-2019
</metadata>
<g transform="translate(0.000000,166.000000) scale(0.100000,-0.100000)"
fill="#000000" stroke="none">
<path d="M35 830 c0 -459 1 -647 2 -418 2 230 2 606 0 835 -1 230 -2 42 -2
-417z"/>
<path d="M1175 830 c0 -459 1 -647 2 -418 2 230 2 606 0 835 -1 230 -2 42 -2
-417z"/>
<path d="M485 1370 c-38 -11 -80 -20 -91 -20 -25 0 -37 -23 -21 -39 12 -12 44
-15 49 -3 5 12 132 42 178 42 31 0 47 -6 67 -26 31 -32 58 -26 42 9 -26 58
-102 70 -224 37z"/>
<path d="M416 1238 c-3 -24 -13 -95 -22 -158 -22 -155 -22 -300 0 -367 15 -47
20 -52 36 -43 18 10 18 12 3 48 -21 51 -26 179 -11 287 l13 90 103 7 c99 6
123 3 218 -27 15 -5 23 -2 28 10 12 31 -56 50 -189 52 -66 0 -127 2 -136 2
-14 1 -16 11 -11 71 4 59 2 70 -11 70 -11 0 -17 -13 -21 -42z"/>
</g>
</svg>
