<?xml version="1.0" standalone="no"?>
<!DOCTYPE svg PUBLIC "-//W3C//DTD SVG 20010904//EN"
 "http://www.w3.org/TR/2001/REC-SVG-20010904/DTD/svg10.dtd">
<svg version="1.0" xmlns="http://www.w3.org/2000/svg"
 width="124.000000pt" height="166.000000pt" viewBox="0 0 124.000000 166.000000"
 preserveAspectRatio="xMidYMid meet">
<metadata>
Created by potrace 1.16, written by Peter Selinger 2001-2019
</metadata>
<g transform="translate(0.000000,166.000000) scale(0.100000,-0.100000)"
fill="#000000" stroke="none">
<path d="M45 830 c0 -459 1 -647 2 -418 2 230 2 606 0 835 -1 230 -2 42 -2
-417z"/>
<path d="M1185 830 c0 -459 1 -647 2 -418 2 230 2 606 0 835 -1 230 -2 42 -2
-417z"/>
<path d="M558 1234 c-69 -37 -139 -176 -139 -273 0 -38 -7 -64 -23 -90 -75
-121 -86 -232 -23 -230 12 0 60 19 106 43 l84 43 44 -25 c24 -13 76 -32 114
-42 61 -16 71 -16 76 -3 8 21 -5 29 -75 47 -63 16 -112 41 -112 57 0 5 4 9 8
9 13 0 39 54 35 72 -4 18 -30 31 -43 23 -4 -3 -6 -13 -3 -24 3 -11 -4 -27 -18
-40 l-23 -21 -34 32 c-18 18 -40 46 -48 61 -15 28 -14 30 52 110 67 82 124
184 124 223 0 43 -49 57 -102 28z m53 -52 c-14 -47 -38 -86 -96 -157 -53 -65
-55 -67 -55 -37 0 46 69 172 109 199 44 30 51 29 42 -5z m-107 -402 l27 -24
-73 -38 c-40 -20 -76 -37 -80 -38 -16 -1 -7 47 18 100 37 81 44 86 64 53 10
-16 29 -39 44 -53z"/>
</g>
</svg>
