<?xml version="1.0" standalone="no"?>
<!DOCTYPE svg PUBLIC "-//W3C//DTD SVG 20010904//EN"
 "http://www.w3.org/TR/2001/REC-SVG-20010904/DTD/svg10.dtd">
<svg version="1.0" xmlns="http://www.w3.org/2000/svg"
 width="124.000000pt" height="166.000000pt" viewBox="0 0 124.000000 166.000000"
 preserveAspectRatio="xMidYMid meet">
<metadata>
Created by potrace 1.16, written by Peter Selinger 2001-2019
</metadata>
<g transform="translate(0.000000,166.000000) scale(0.100000,-0.100000)"
fill="#000000" stroke="none">
<path d="M35 830 c0 -459 1 -647 2 -418 2 230 2 606 0 835 -1 230 -2 42 -2
-417z"/>
<path d="M1185 830 c0 -459 1 -647 2 -418 2 230 2 606 0 835 -1 230 -2 42 -2
-417z"/>
<path d="M565 1089 c-4 -6 3 -21 15 -34 30 -32 20 -55 -25 -55 -39 0 -45 -13
-16 -32 18 -11 18 -14 4 -41 -12 -25 -13 -31 -1 -38 20 -13 21 -12 46 31 12
22 26 40 30 40 4 0 14 -13 24 -29 9 -16 26 -34 37 -41 31 -16 40 14 12 44 -26
28 -27 43 0 51 29 10 20 41 -11 37 -23 -2 -23 -1 7 19 20 12 30 26 26 35 -7
18 -17 18 -53 -1 -28 -14 -30 -14 -42 5 -14 22 -43 27 -53 9z"/>
</g>
</svg>
