<?xml version="1.0" standalone="no"?>
<!DOCTYPE svg PUBLIC "-//W3C//DTD SVG 20010904//EN"
 "http://www.w3.org/TR/2001/REC-SVG-20010904/DTD/svg10.dtd">
<svg version="1.0" xmlns="http://www.w3.org/2000/svg"
 width="124.000000pt" height="166.000000pt" viewBox="0 0 124.000000 166.000000"
 preserveAspectRatio="xMidYMid meet">
<metadata>
Created by potrace 1.16, written by Peter Selinger 2001-2019
</metadata>
<g transform="translate(0.000000,166.000000) scale(0.100000,-0.100000)"
fill="#000000" stroke="none">
<path d="M45 830 c0 -459 1 -647 2 -418 2 230 2 606 0 835 -1 230 -2 42 -2
-417z"/>
<path d="M1185 830 c0 -459 1 -647 2 -418 2 230 2 606 0 835 -1 230 -2 42 -2
-417z"/>
<path d="M672 1164 c-16 -11 -22 -25 -22 -55 0 -35 3 -39 25 -39 22 0 25 4 25
35 0 32 2 35 31 35 45 0 98 -28 105 -56 10 -41 -4 -71 -66 -138 -64 -68 -72
-89 -39 -106 24 -13 27 -11 32 17 1 11 26 46 55 78 73 79 84 143 35 198 -40
45 -138 62 -181 31z"/>
<path d="M707 674 c-12 -12 25 -74 43 -74 17 0 19 33 4 56 -16 23 -34 30 -47
18z"/>
</g>
</svg>
