<?xml version="1.0" standalone="no"?>
<!DOCTYPE svg PUBLIC "-//W3C//DTD SVG 20010904//EN"
 "http://www.w3.org/TR/2001/REC-SVG-20010904/DTD/svg10.dtd">
<svg version="1.0" xmlns="http://www.w3.org/2000/svg"
 width="124.000000pt" height="166.000000pt" viewBox="0 0 124.000000 166.000000"
 preserveAspectRatio="xMidYMid meet">
<metadata>
Created by potrace 1.16, written by Peter Selinger 2001-2019
</metadata>
<g transform="translate(0.000000,166.000000) scale(0.100000,-0.100000)"
fill="#000000" stroke="none">
<path d="M45 830 c0 -459 1 -647 2 -418 2 230 2 606 0 835 -1 230 -2 42 -2
-417z"/>
<path d="M1185 830 c0 -459 1 -647 2 -418 2 230 2 606 0 835 -1 230 -2 42 -2
-417z"/>
<path d="M625 1174 c-69 -36 -79 -47 -108 -112 -113 -252 -47 -451 135 -410
84 18 193 109 237 197 57 111 -3 273 -123 330 -56 27 -81 26 -141 -5z m89 -49
c11 -12 20 -13 34 -6 27 14 56 -9 92 -72 51 -89 39 -160 -42 -252 -83 -94
-193 -131 -251 -84 -63 49 -57 199 14 352 10 22 18 28 36 24 14 -3 23 1 23 9
0 16 39 44 62 44 9 0 24 -7 32 -15z"/>
<path d="M608 995 c-43 -24 -74 -87 -69 -142 2 -22 40 -53 66 -53 13 0 40 14
60 31 19 17 35 26 35 20 0 -9 50 -41 65 -41 14 0 3 38 -16 54 -19 16 -21 25
-16 73 5 46 3 54 -9 49 -9 -3 -22 1 -30 9 -19 19 -51 19 -86 0z m61 -37 c19
-12 19 -13 1 -47 -37 -74 -90 -93 -90 -32 0 20 10 40 31 60 35 35 33 35 58 19z"/>
</g>
</svg>
