<?xml version="1.0" standalone="no"?>
<!DOCTYPE svg PUBLIC "-//W3C//DTD SVG 20010904//EN"
 "http://www.w3.org/TR/2001/REC-SVG-20010904/DTD/svg10.dtd">
<svg version="1.0" xmlns="http://www.w3.org/2000/svg"
 width="124.000000pt" height="166.000000pt" viewBox="0 0 124.000000 166.000000"
 preserveAspectRatio="xMidYMid meet">
<metadata>
Created by potrace 1.16, written by Peter Selinger 2001-2019
</metadata>
<g transform="translate(0.000000,166.000000) scale(0.100000,-0.100000)"
fill="#000000" stroke="none">
<path d="M35 830 c0 -459 1 -647 2 -418 2 230 2 606 0 835 -1 230 -2 42 -2
-417z"/>
<path d="M1175 830 c0 -459 1 -647 2 -418 2 230 2 606 0 835 -1 230 -2 42 -2
-417z"/>
<path d="M633 1188 c-38 -15 -53 -26 -53 -39 0 -23 10 -24 57 -4 19 8 44 15
55 15 14 0 19 6 16 22 -4 29 -14 30 -75 6z"/>
<path d="M528 1013 c4 -243 14 -271 93 -280 56 -6 151 29 131 49 -8 8 -25 8
-65 -1 -36 -8 -62 -9 -79 -2 -23 9 -25 16 -31 93 -4 45 -7 125 -7 176 0 89 -1
92 -22 92 -23 0 -23 -1 -20 -127z"/>
</g>
</svg>
