<?xml version="1.0" standalone="no"?>
<!DOCTYPE svg PUBLIC "-//W3C//DTD SVG 20010904//EN"
 "http://www.w3.org/TR/2001/REC-SVG-20010904/DTD/svg10.dtd">
<svg version="1.0" xmlns="http://www.w3.org/2000/svg"
 width="124.000000pt" height="166.000000pt" viewBox="0 0 124.000000 166.000000"
 preserveAspectRatio="xMidYMid meet">
<metadata>
Created by potrace 1.16, written by Peter Selinger 2001-2019
</metadata>
<g transform="translate(0.000000,166.000000) scale(0.100000,-0.100000)"
fill="#000000" stroke="none">
<path d="M35 830 c0 -459 1 -647 2 -418 2 230 2 606 0 835 -1 230 -2 42 -2
-417z"/>
<path d="M1175 830 c0 -459 1 -647 2 -418 2 230 2 606 0 835 -1 230 -2 42 -2
-417z"/>
<path d="M588 1312 c-22 -4 -23 -30 -4 -114 30 -134 28 -182 -4 -143 -16 19
-54 19 -70 0 -7 -8 -10 -25 -6 -39 7 -30 53 -86 71 -86 8 0 14 -22 17 -69 6
-80 28 -125 78 -159 32 -22 35 -22 47 -6 11 15 9 20 -17 35 -16 10 -36 29 -44
42 -24 35 -31 137 -16 218 12 62 11 80 -7 172 -11 56 -19 104 -17 106 2 2 9
-1 17 -7 16 -14 42 1 34 21 -6 17 -54 35 -79 29z m-8 -324 c0 -6 -7 -5 -15 2
-8 7 -15 17 -15 22 0 6 7 5 15 -2 8 -7 15 -17 15 -22z"/>
</g>
</svg>
