<?xml version="1.0" standalone="no"?>
<!DOCTYPE svg PUBLIC "-//W3C//DTD SVG 20010904//EN"
 "http://www.w3.org/TR/2001/REC-SVG-20010904/DTD/svg10.dtd">
<svg version="1.0" xmlns="http://www.w3.org/2000/svg"
 width="124.000000pt" height="166.000000pt" viewBox="0 0 124.000000 166.000000"
 preserveAspectRatio="xMidYMid meet">
<metadata>
Created by potrace 1.16, written by Peter Selinger 2001-2019
</metadata>
<g transform="translate(0.000000,166.000000) scale(0.100000,-0.100000)"
fill="#000000" stroke="none">
<path d="M45 830 c0 -459 1 -647 2 -418 2 230 2 606 0 835 -1 230 -2 42 -2
-417z"/>
<path d="M1185 830 c0 -459 1 -647 2 -418 2 230 2 606 0 835 -1 230 -2 42 -2
-417z"/>
<path d="M601 1316 c-10 -11 -5 -20 24 -41 50 -39 53 -63 16 -141 -17 -36 -31
-72 -31 -79 0 -8 13 -16 29 -20 34 -7 37 -22 47 -212 7 -121 7 -123 -14 -123
-15 0 -22 -6 -22 -20 0 -26 22 -35 49 -21 33 18 44 79 32 184 -6 51 -12 117
-15 147 -5 70 -14 90 -37 90 -17 0 -16 4 6 53 37 79 34 112 -17 159 -46 42
-51 44 -67 24z"/>
</g>
</svg>
