<?xml version="1.0" standalone="no"?>
<!DOCTYPE svg PUBLIC "-//W3C//DTD SVG 20010904//EN"
 "http://www.w3.org/TR/2001/REC-SVG-20010904/DTD/svg10.dtd">
<svg version="1.0" xmlns="http://www.w3.org/2000/svg"
 width="124.000000pt" height="166.000000pt" viewBox="0 0 124.000000 166.000000"
 preserveAspectRatio="xMidYMid meet">
<metadata>
Created by potrace 1.16, written by Peter Selinger 2001-2019
</metadata>
<g transform="translate(0.000000,166.000000) scale(0.100000,-0.100000)"
fill="#000000" stroke="none">
<path d="M35 830 c0 -459 1 -647 2 -418 2 230 2 606 0 835 -1 230 -2 42 -2
-417z"/>
<path d="M1175 830 c0 -459 1 -647 2 -418 2 230 2 606 0 835 -1 230 -2 42 -2
-417z"/>
<path d="M521 1349 c-6 -18 -11 -43 -11 -55 0 -31 -4 -30 -53 9 l-41 32 43
-58 43 -58 -21 -98 c-26 -119 -67 -243 -124 -373 -34 -80 -46 -97 -62 -95 -13
1 -22 -7 -29 -26 -14 -38 4 -55 39 -39 19 9 39 40 76 118 27 59 52 118 55 131
4 14 13 27 20 30 8 3 21 20 30 38 17 37 59 61 129 74 l47 9 23 -52 c24 -54 40
-120 50 -201 9 -70 14 -85 31 -85 13 0 14 10 9 58 -12 103 -26 174 -46 224
-10 27 -19 50 -19 52 0 2 14 6 30 10 48 9 39 36 -12 36 -42 1 -44 3 -86 68
-23 37 -56 84 -74 104 -30 36 -30 39 -19 80 9 31 9 51 2 71 -13 34 -17 34 -30
-4z m69 -241 c27 -39 50 -75 50 -79 0 -4 -19 -10 -42 -14 -24 -4 -56 -14 -71
-22 -16 -8 -31 -13 -33 -10 -4 4 37 197 42 197 2 0 26 -32 54 -72z"/>
</g>
</svg>
