<?xml version="1.0" standalone="no"?>
<!DOCTYPE svg PUBLIC "-//W3C//DTD SVG 20010904//EN"
 "http://www.w3.org/TR/2001/REC-SVG-20010904/DTD/svg10.dtd">
<svg version="1.0" xmlns="http://www.w3.org/2000/svg"
 width="124.000000pt" height="166.000000pt" viewBox="0 0 124.000000 166.000000"
 preserveAspectRatio="xMidYMid meet">
<metadata>
Created by potrace 1.16, written by Peter Selinger 2001-2019
</metadata>
<g transform="translate(0.000000,166.000000) scale(0.100000,-0.100000)"
fill="#000000" stroke="none">
<path d="M35 830 c0 -459 1 -647 2 -418 2 230 2 606 0 835 -1 230 -2 42 -2
-417z"/>
<path d="M1175 830 c0 -459 1 -647 2 -418 2 230 2 606 0 835 -1 230 -2 42 -2
-417z"/>
<path d="M452 1397 c-10 -12 -62 -406 -62 -468 0 -15 -8 -19 -37 -20 -37 -1
-37 -2 -8 -8 l30 -6 0 -104 c0 -87 3 -105 17 -115 22 -13 43 6 53 47 6 23 4
27 -15 27 -21 0 -22 3 -18 60 2 33 7 63 11 66 4 4 53 -5 109 -20 110 -28 251
-90 300 -131 25 -21 33 -23 45 -13 13 11 11 16 -17 39 -45 38 -138 86 -217
113 l-66 22 46 18 c51 19 124 91 156 154 22 43 51 150 51 190 0 15 -6 22 -19
22 -15 0 -20 -10 -25 -58 -12 -107 -83 -225 -157 -263 -34 -17 -195 -47 -203
-38 -2 3 34 313 51 431 6 46 -8 76 -25 55z"/>
</g>
</svg>
