<?xml version="1.0" standalone="no"?>
<!DOCTYPE svg PUBLIC "-//W3C//DTD SVG 20010904//EN"
 "http://www.w3.org/TR/2001/REC-SVG-20010904/DTD/svg10.dtd">
<svg version="1.0" xmlns="http://www.w3.org/2000/svg"
 width="124.000000pt" height="166.000000pt" viewBox="0 0 124.000000 166.000000"
 preserveAspectRatio="xMidYMid meet">
<metadata>
Created by potrace 1.16, written by Peter Selinger 2001-2019
</metadata>
<g transform="translate(0.000000,166.000000) scale(0.100000,-0.100000)"
fill="#000000" stroke="none">
<path d="M35 830 c0 -459 1 -647 2 -418 2 230 2 606 0 835 -1 230 -2 42 -2
-417z"/>
<path d="M1175 830 c0 -459 1 -647 2 -418 2 230 2 606 0 835 -1 230 -2 42 -2
-417z"/>
<path d="M493 1291 c-6 -10 -12 -52 -11 -92 0 -41 -7 -124 -16 -184 -9 -61
-21 -149 -26 -195 -4 -47 -11 -96 -15 -110 -4 -15 0 -33 9 -45 14 -19 15 -19
30 18 15 34 19 37 59 37 23 0 80 -7 127 -15 47 -8 110 -15 141 -15 48 0 57 3
62 20 5 19 0 20 -61 20 -37 0 -107 7 -157 15 -49 8 -106 15 -126 15 l-35 0 8
83 c4 45 15 128 23 183 16 108 20 251 7 271 -6 9 -11 7 -19 -6z"/>
</g>
</svg>
