<?xml version="1.0" standalone="no"?>
<!DOCTYPE svg PUBLIC "-//W3C//DTD SVG 20010904//EN"
 "http://www.w3.org/TR/2001/REC-SVG-20010904/DTD/svg10.dtd">
<svg version="1.0" xmlns="http://www.w3.org/2000/svg"
 width="124.000000pt" height="166.000000pt" viewBox="0 0 124.000000 166.000000"
 preserveAspectRatio="xMidYMid meet">
<metadata>
Created by potrace 1.16, written by Peter Selinger 2001-2019
</metadata>
<g transform="translate(0.000000,166.000000) scale(0.100000,-0.100000)"
fill="#000000" stroke="none">
<path d="M35 830 c0 -459 1 -647 2 -418 2 230 2 606 0 835 -1 230 -2 42 -2
-417z"/>
<path d="M1185 830 c0 -459 1 -647 2 -418 2 230 2 606 0 835 -1 230 -2 42 -2
-417z"/>
<path d="M436 1253 c-4 -21 -21 -57 -37 -80 -44 -63 -156 -299 -174 -368 -21
-81 -20 -174 1 -182 11 -4 23 2 34 16 29 39 171 402 177 453 6 51 23 66 23 21
1 -63 21 -332 30 -387 16 -100 63 -124 119 -61 37 43 64 95 121 238 44 111
111 227 131 227 9 0 9 -37 3 -142 -13 -213 -10 -355 10 -408 17 -47 61 -100
82 -100 22 0 24 29 3 41 -30 16 -59 88 -66 164 -3 37 0 154 7 261 14 209 11
224 -34 224 -47 0 -101 -80 -175 -260 -58 -138 -102 -223 -122 -235 -17 -11
-36 13 -43 54 -3 21 -10 106 -16 187 -16 231 -20 255 -46 279 -19 18 -22 28
-17 58 3 20 3 37 0 37 -2 0 -8 -17 -11 -37z m-42 -190 c-16 -64 -143 -356
-144 -330 0 39 31 128 89 251 49 104 68 132 55 79z"/>
</g>
</svg>
