<?xml version="1.0" standalone="no"?>
<!DOCTYPE svg PUBLIC "-//W3C//DTD SVG 20010904//EN"
 "http://www.w3.org/TR/2001/REC-SVG-20010904/DTD/svg10.dtd">
<svg version="1.0" xmlns="http://www.w3.org/2000/svg"
 width="124.000000pt" height="166.000000pt" viewBox="0 0 124.000000 166.000000"
 preserveAspectRatio="xMidYMid meet">
<metadata>
Created by potrace 1.16, written by Peter Selinger 2001-2019
</metadata>
<g transform="translate(0.000000,166.000000) scale(0.100000,-0.100000)"
fill="#000000" stroke="none">
<path d="M45 830 c0 -459 1 -647 2 -418 2 230 2 606 0 835 -1 230 -2 42 -2
-417z"/>
<path d="M1185 830 c0 -459 1 -647 2 -418 2 230 2 606 0 835 -1 230 -2 42 -2
-417z"/>
<path d="M526 1161 l-18 -38 -23 23 c-13 13 -28 24 -33 24 -15 0 -38 -24 -50
-53 -10 -23 -9 -29 3 -33 18 -7 35 3 35 22 0 21 18 17 31 -7 16 -31 5 -71 -55
-195 -45 -94 -121 -203 -132 -191 -2 2 10 36 26 76 35 86 36 91 11 91 -13 0
-24 -13 -34 -42 -9 -24 -27 -71 -42 -105 -20 -50 -23 -67 -15 -83 9 -17 14
-19 33 -8 54 28 128 121 176 219 l50 101 6 -38 c27 -159 76 -308 105 -324 71
-38 141 43 285 329 29 58 67 126 83 151 31 45 32 60 7 60 -19 0 -51 -51 -152
-243 -97 -185 -136 -244 -170 -260 -21 -9 -27 -8 -38 6 -30 42 -95 307 -95
387 0 14 14 52 30 85 35 70 37 85 12 85 -12 0 -25 -14 -36 -39z"/>
</g>
</svg>
