<?xml version="1.0" standalone="no"?>
<!DOCTYPE svg PUBLIC "-//W3C//DTD SVG 20010904//EN"
 "http://www.w3.org/TR/2001/REC-SVG-20010904/DTD/svg10.dtd">
<svg version="1.0" xmlns="http://www.w3.org/2000/svg"
 width="124.000000pt" height="166.000000pt" viewBox="0 0 124.000000 166.000000"
 preserveAspectRatio="xMidYMid meet">
<metadata>
Created by potrace 1.16, written by Peter Selinger 2001-2019
</metadata>
<g transform="translate(0.000000,166.000000) scale(0.100000,-0.100000)"
fill="#000000" stroke="none">
<path d="M35 830 c0 -459 1 -647 2 -418 2 230 2 606 0 835 -1 230 -2 42 -2
-417z"/>
<path d="M1175 830 c0 -459 1 -647 2 -418 2 230 2 606 0 835 -1 230 -2 42 -2
-417z"/>
<path d="M592 1391 c-39 -40 -59 -53 -100 -62 -54 -13 -57 -15 -43 -38 5 -8
16 -11 31 -6 28 9 30 14 -59 -133 -115 -192 -142 -296 -105 -405 20 -58 87
-122 146 -138 92 -24 239 11 315 76 23 19 44 35 48 35 4 0 23 -14 42 -31 19
-16 40 -28 46 -26 23 7 16 26 -22 56 l-40 32 29 46 c90 141 86 329 -10 468
-37 54 -76 80 -129 89 -33 5 -38 9 -34 28 5 30 -6 45 -39 53 -24 6 -34 0 -76
-44z m78 -10 c0 -11 -9 -21 -22 -25 -39 -10 -42 -7 -18 19 28 30 40 32 40 6z
m-30 -71 c0 -6 -8 -22 -17 -36 -14 -22 -14 -27 -2 -35 22 -14 24 -12 47 36 24
49 40 55 95 31 83 -34 141 -152 142 -287 0 -79 -3 -91 -38 -162 -21 -42 -41
-77 -45 -77 -4 0 -29 23 -56 51 -26 27 -50 48 -52 46 -11 -11 21 -80 48 -102
30 -25 30 -26 12 -46 -34 -37 -139 -81 -208 -86 -152 -13 -236 72 -223 223 6
77 55 184 156 336 57 87 75 107 98 111 15 2 31 5 36 6 4 0 7 -4 7 -9z"/>
</g>
</svg>
