<?xml version="1.0" standalone="no"?>
<!DOCTYPE svg PUBLIC "-//W3C//DTD SVG 20010904//EN"
 "http://www.w3.org/TR/2001/REC-SVG-20010904/DTD/svg10.dtd">
<svg version="1.0" xmlns="http://www.w3.org/2000/svg"
 width="124.000000pt" height="166.000000pt" viewBox="0 0 124.000000 166.000000"
 preserveAspectRatio="xMidYMid meet">
<metadata>
Created by potrace 1.16, written by Peter Selinger 2001-2019
</metadata>
<g transform="translate(0.000000,166.000000) scale(0.100000,-0.100000)"
fill="#000000" stroke="none">
<path d="M35 830 c0 -459 1 -647 2 -418 2 230 2 606 0 835 -1 230 -2 42 -2
-417z"/>
<path d="M1185 830 c0 -459 1 -647 2 -418 2 230 2 606 0 835 -1 230 -2 42 -2
-417z"/>
<path d="M437 1410 c-14 -11 -30 -35 -37 -54 -20 -63 -29 -189 -19 -291 5 -55
13 -170 18 -255 11 -175 15 -192 44 -188 31 5 36 41 26 220 -12 228 -11 438 1
438 6 0 8 20 4 55 l-7 55 34 0 c45 0 129 -49 168 -99 73 -92 109 -216 87 -300
-22 -85 -61 -110 -176 -112 -75 -1 -95 -9 -77 -32 15 -22 74 -36 147 -37 110
0 342 -56 387 -92 14 -12 33 -2 33 16 0 28 -187 90 -310 103 -33 3 -63 10 -66
14 -3 5 1 9 8 9 21 0 67 48 83 87 33 79 9 224 -55 322 -82 129 -222 196 -293
141z m-8 -262 c0 -67 -3 -96 -9 -83 -17 39 -11 185 7 185 2 0 3 -46 2 -102z"/>
</g>
</svg>
