<?xml version="1.0" standalone="no"?>
<!DOCTYPE svg PUBLIC "-//W3C//DTD SVG 20010904//EN"
 "http://www.w3.org/TR/2001/REC-SVG-20010904/DTD/svg10.dtd">
<svg version="1.0" xmlns="http://www.w3.org/2000/svg"
 width="124.000000pt" height="166.000000pt" viewBox="0 0 124.000000 166.000000"
 preserveAspectRatio="xMidYMid meet">
<metadata>
Created by potrace 1.16, written by Peter Selinger 2001-2019
</metadata>
<g transform="translate(0.000000,166.000000) scale(0.100000,-0.100000)"
fill="#000000" stroke="none">
<path d="M45 830 c0 -459 1 -647 2 -418 2 230 2 606 0 835 -1 230 -2 42 -2
-417z"/>
<path d="M1185 830 c0 -459 1 -647 2 -418 2 230 2 606 0 835 -1 230 -2 42 -2
-417z"/>
<path d="M850 1375 c-52 -8 -171 -21 -265 -30 -93 -8 -188 -20 -209 -26 l-39
-11 29 -19 c34 -22 82 -25 98 -5 10 13 353 56 491 62 35 1 51 6 53 16 3 14
-28 29 -53 27 -5 -1 -53 -7 -105 -14z"/>
<path d="M677 1284 c-3 -4 -1 -16 4 -27 8 -14 8 -74 0 -211 -19 -332 -19 -400
0 -404 15 -3 18 13 23 125 3 70 11 208 16 305 8 128 8 183 0 198 -11 20 -31
26 -43 14z"/>
</g>
</svg>
