<?xml version="1.0" standalone="no"?>
<!DOCTYPE svg PUBLIC "-//W3C//DTD SVG 20010904//EN"
 "http://www.w3.org/TR/2001/REC-SVG-20010904/DTD/svg10.dtd">
<svg version="1.0" xmlns="http://www.w3.org/2000/svg"
 width="124.000000pt" height="166.000000pt" viewBox="0 0 124.000000 166.000000"
 preserveAspectRatio="xMidYMid meet">
<metadata>
Created by potrace 1.16, written by Peter Selinger 2001-2019
</metadata>
<g transform="translate(0.000000,166.000000) scale(0.100000,-0.100000)"
fill="#000000" stroke="none">
<path d="M35 830 c0 -459 1 -647 2 -418 2 230 2 606 0 835 -1 230 -2 42 -2
-417z"/>
<path d="M1175 830 c0 -459 1 -647 2 -418 2 230 2 606 0 835 -1 230 -2 42 -2
-417z"/>
<path d="M371 1249 c-24 -39 -53 -285 -49 -414 5 -136 20 -178 82 -233 115
-101 277 -41 361 133 33 68 42 122 51 308 6 129 4 161 -7 167 -25 16 -29 -1
-29 -108 -1 -225 -25 -334 -95 -426 -30 -40 -115 -86 -157 -86 -70 0 -131 52
-159 135 -16 49 -16 209 0 320 17 115 20 125 37 125 12 0 14 7 9 33 -4 17 -13
40 -19 49 -11 15 -13 15 -25 -3z"/>
</g>
</svg>
