<?xml version="1.0" standalone="no"?>
<!DOCTYPE svg PUBLIC "-//W3C//DTD SVG 20010904//EN"
 "http://www.w3.org/TR/2001/REC-SVG-20010904/DTD/svg10.dtd">
<svg version="1.0" xmlns="http://www.w3.org/2000/svg"
 width="124.000000pt" height="166.000000pt" viewBox="0 0 124.000000 166.000000"
 preserveAspectRatio="xMidYMid meet">
<metadata>
Created by potrace 1.16, written by Peter Selinger 2001-2019
</metadata>
<g transform="translate(0.000000,166.000000) scale(0.100000,-0.100000)"
fill="#000000" stroke="none">
<path d="M45 830 c0 -459 1 -647 2 -418 2 230 2 606 0 835 -1 230 -2 42 -2
-417z"/>
<path d="M1185 830 c0 -459 1 -647 2 -418 2 230 2 606 0 835 -1 230 -2 42 -2
-417z"/>
<path d="M392 1250 c-7 -19 -4 -37 14 -78 30 -68 67 -116 167 -219 l80 -82
-18 -27 c-10 -15 -80 -91 -156 -168 -76 -78 -139 -147 -139 -153 0 -43 74 21
267 231 l81 88 62 -51 c34 -28 84 -74 112 -101 56 -55 101 -67 111 -30 4 16 0
20 -21 20 -17 0 -45 18 -86 58 -34 31 -83 75 -109 97 l-48 40 79 96 c44 53
102 115 131 139 48 41 61 63 43 74 -15 9 -111 -78 -198 -182 l-88 -103 -54 53
c-85 84 -150 170 -186 250 -32 69 -35 72 -44 48z"/>
</g>
</svg>
