<?xml version="1.0" standalone="no"?>
<!DOCTYPE svg PUBLIC "-//W3C//DTD SVG 20010904//EN"
 "http://www.w3.org/TR/2001/REC-SVG-20010904/DTD/svg10.dtd">
<svg version="1.0" xmlns="http://www.w3.org/2000/svg"
 width="124.000000pt" height="166.000000pt" viewBox="0 0 124.000000 166.000000"
 preserveAspectRatio="xMidYMid meet">
<metadata>
Created by potrace 1.16, written by Peter Selinger 2001-2019
</metadata>
<g transform="translate(0.000000,166.000000) scale(0.100000,-0.100000)"
fill="#000000" stroke="none">
<path d="M35 830 c0 -459 1 -647 2 -418 2 230 2 606 0 835 -1 230 -2 42 -2
-417z"/>
<path d="M1175 830 c0 -459 1 -647 2 -418 2 230 2 606 0 835 -1 230 -2 42 -2
-417z"/>
<path d="M523 1261 c-68 -4 -117 -11 -124 -18 -15 -15 -8 -25 17 -23 11 1 85
4 166 6 175 6 193 1 184 -54 -17 -110 -127 -259 -307 -417 -152 -133 -156
-139 -122 -152 17 -7 48 1 162 41 97 35 317 79 357 73 40 -7 61 11 36 29 -9 8
-29 14 -43 14 -41 0 -275 -50 -356 -76 -41 -13 -76 -24 -78 -24 -3 0 14 17 37
37 201 174 308 312 348 449 15 50 0 91 -40 111 -26 13 -45 13 -237 4z"/>
</g>
</svg>
