<?xml version="1.0" standalone="no"?>
<!DOCTYPE svg PUBLIC "-//W3C//DTD SVG 20010904//EN"
 "http://www.w3.org/TR/2001/REC-SVG-20010904/DTD/svg10.dtd">
<svg version="1.0" xmlns="http://www.w3.org/2000/svg"
 width="124.000000pt" height="166.000000pt" viewBox="0 0 124.000000 166.000000"
 preserveAspectRatio="xMidYMid meet">
<metadata>
Created by potrace 1.16, written by Peter Selinger 2001-2019
</metadata>
<g transform="translate(0.000000,166.000000) scale(0.100000,-0.100000)"
fill="#000000" stroke="none">
<path d="M35 830 c0 -459 1 -647 2 -418 2 230 2 606 0 835 -1 230 -2 42 -2
-417z"/>
<path d="M1175 830 c0 -459 1 -647 2 -418 2 230 2 606 0 835 -1 230 -2 42 -2
-417z"/>
<path d="M580 1125 c-72 -50 -124 -139 -165 -281 -38 -131 -32 -190 24 -219
65 -33 156 -8 258 73 l52 41 22 -36 c34 -55 159 -105 159 -64 0 6 -26 23 -57
38 -42 20 -63 37 -75 63 -17 32 -17 36 0 60 62 92 93 206 61 226 -37 22 -91
-62 -110 -170 -10 -61 -15 -69 -63 -113 -124 -113 -256 -126 -256 -25 0 95 79
289 142 349 67 65 114 63 179 -8 30 -33 38 -37 48 -25 10 11 6 21 -20 51 -62
70 -135 84 -199 40z m235 -214 c-15 -31 -28 -42 -20 -18 19 52 28 70 32 60 2
-6 -3 -25 -12 -42z"/>
</g>
</svg>
