<?xml version="1.0" standalone="no"?>
<!DOCTYPE svg PUBLIC "-//W3C//DTD SVG 20010904//EN"
 "http://www.w3.org/TR/2001/REC-SVG-20010904/DTD/svg10.dtd">
<svg version="1.0" xmlns="http://www.w3.org/2000/svg"
 width="124.000000pt" height="166.000000pt" viewBox="0 0 124.000000 166.000000"
 preserveAspectRatio="xMidYMid meet">
<metadata>
Created by potrace 1.16, written by Peter Selinger 2001-2019
</metadata>
<g transform="translate(0.000000,166.000000) scale(0.100000,-0.100000)"
fill="#000000" stroke="none">
<path d="M45 830 c0 -459 1 -647 2 -418 2 230 2 606 0 835 -1 230 -2 42 -2
-417z"/>
<path d="M1185 830 c0 -459 1 -647 2 -418 2 230 2 606 0 835 -1 230 -2 42 -2
-417z"/>
<path d="M654 1077 c-61 -42 -170 -166 -242 -276 -123 -187 -137 -351 -33
-382 71 -21 274 36 459 130 42 22 85 46 95 53 17 13 17 15 3 27 -11 9 -20 10
-28 3 -7 -5 -58 -32 -113 -60 -115 -57 -272 -110 -353 -118 -50 -5 -59 -3 -76
15 -30 33 -18 131 28 223 60 123 213 312 288 358 45 27 84 26 99 -2 16 -30 14
-29 33 -22 22 8 20 17 -10 53 -36 43 -85 43 -150 -2z"/>
</g>
</svg>
