<?xml version="1.0" standalone="no"?>
<!DOCTYPE svg PUBLIC "-//W3C//DTD SVG 20010904//EN"
 "http://www.w3.org/TR/2001/REC-SVG-20010904/DTD/svg10.dtd">
<svg version="1.0" xmlns="http://www.w3.org/2000/svg"
 width="124.000000pt" height="166.000000pt" viewBox="0 0 124.000000 166.000000"
 preserveAspectRatio="xMidYMid meet">
<metadata>
Created by potrace 1.16, written by Peter Selinger 2001-2019
</metadata>
<g transform="translate(0.000000,166.000000) scale(0.100000,-0.100000)"
fill="#000000" stroke="none">
<path d="M45 830 c0 -459 1 -647 2 -418 2 230 2 606 0 835 -1 230 -2 42 -2
-417z"/>
<path d="M1185 830 c0 -459 1 -647 2 -418 2 230 2 606 0 835 -1 230 -2 42 -2
-417z"/>
<path d="M861 1134 c-12 -9 -31 -36 -42 -60 -19 -45 -46 -170 -51 -234 -3 -30
-6 -35 -25 -32 -67 9 -176 -64 -229 -154 -52 -88 -14 -170 76 -167 50 2 72 15
135 74 l51 48 22 -74 c26 -89 54 -124 106 -132 33 -5 38 -4 34 13 -1 10 -14
21 -28 24 -35 8 -66 59 -86 143 l-17 73 32 55 c63 113 110 291 97 372 -11 67
-32 81 -75 51z m36 -113 c-7 -99 -68 -278 -90 -264 -23 14 14 227 54 311 30
61 43 44 36 -47z m-140 -263 c22 -28 9 -92 -26 -136 -36 -44 -114 -102 -138
-102 -22 0 -52 19 -63 40 -14 26 14 82 72 139 62 63 131 89 155 59z"/>
</g>
</svg>
