<?xml version="1.0" standalone="no"?>
<!DOCTYPE svg PUBLIC "-//W3C//DTD SVG 20010904//EN"
 "http://www.w3.org/TR/2001/REC-SVG-20010904/DTD/svg10.dtd">
<svg version="1.0" xmlns="http://www.w3.org/2000/svg"
 width="124.000000pt" height="166.000000pt" viewBox="0 0 124.000000 166.000000"
 preserveAspectRatio="xMidYMid meet">
<metadata>
Created by potrace 1.16, written by Peter Selinger 2001-2019
</metadata>
<g transform="translate(0.000000,166.000000) scale(0.100000,-0.100000)"
fill="#000000" stroke="none">
<path d="M35 830 c0 -459 1 -647 2 -418 2 230 2 606 0 835 -1 230 -2 42 -2
-417z"/>
<path d="M1185 830 c0 -459 1 -647 2 -418 2 230 2 606 0 835 -1 230 -2 42 -2
-417z"/>
<path d="M643 1281 c-99 -25 -233 -172 -312 -343 -67 -142 -107 -344 -82 -406
34 -83 163 -82 328 1 28 15 106 63 173 108 104 70 120 83 108 95 -12 12 -30 3
-127 -61 -195 -131 -323 -184 -394 -164 -54 15 -61 29 -54 112 16 195 114 408
245 535 85 81 117 95 221 90 84 -3 97 0 88 25 -4 14 -146 20 -194 8z"/>
</g>
</svg>
