<?xml version="1.0" standalone="no"?>
<!DOCTYPE svg PUBLIC "-//W3C//DTD SVG 20010904//EN"
 "http://www.w3.org/TR/2001/REC-SVG-20010904/DTD/svg10.dtd">
<svg version="1.0" xmlns="http://www.w3.org/2000/svg"
 width="124.000000pt" height="166.000000pt" viewBox="0 0 124.000000 166.000000"
 preserveAspectRatio="xMidYMid meet">
<metadata>
Created by potrace 1.16, written by Peter Selinger 2001-2019
</metadata>
<g transform="translate(0.000000,166.000000) scale(0.100000,-0.100000)"
fill="#000000" stroke="none">
<path d="M35 830 c0 -459 1 -647 2 -418 2 230 2 606 0 835 -1 230 -2 42 -2
-417z"/>
<path d="M1175 830 c0 -459 1 -647 2 -418 2 230 2 606 0 835 -1 230 -2 42 -2
-417z"/>
<path d="M655 1043 c-35 -9 -101 -61 -158 -123 -153 -169 -170 -348 -39 -411
37 -19 55 -21 120 -16 43 3 104 15 137 26 61 21 263 119 270 131 2 3 0 12 -5
20 -7 11 -28 4 -107 -37 -187 -98 -332 -129 -405 -86 -42 24 -58 56 -58 116 0
49 0 49 29 42 89 -19 153 8 240 101 64 68 88 123 77 178 -11 56 -42 74 -101
59z m61 -58 c14 -57 -27 -132 -107 -195 -64 -50 -119 -69 -154 -50 l-25 13 27
50 c15 27 52 75 83 107 93 97 163 127 176 75z"/>
</g>
</svg>
