<?xml version="1.0" standalone="no"?>
<!DOCTYPE svg PUBLIC "-//W3C//DTD SVG 20010904//EN"
 "http://www.w3.org/TR/2001/REC-SVG-20010904/DTD/svg10.dtd">
<svg version="1.0" xmlns="http://www.w3.org/2000/svg"
 width="124.000000pt" height="166.000000pt" viewBox="0 0 124.000000 166.000000"
 preserveAspectRatio="xMidYMid meet">
<metadata>
Created by potrace 1.16, written by Peter Selinger 2001-2019
</metadata>
<g transform="translate(0.000000,166.000000) scale(0.100000,-0.100000)"
fill="#000000" stroke="none">
<path d="M35 830 c0 -459 1 -647 2 -418 2 230 2 606 0 835 -1 230 -2 42 -2
-417z"/>
<path d="M1175 830 c0 -459 1 -647 2 -418 2 230 2 606 0 835 -1 230 -2 42 -2
-417z"/>
<path d="M657 1286 c-15 -16 -37 -138 -37 -210 0 -24 -3 -77 -6 -118 l-7 -76
-78 5 c-87 6 -120 0 -100 -20 7 -7 24 -12 39 -13 15 0 53 -1 86 -2 l59 -2 -6
-162 c-5 -176 -24 -274 -70 -365 -31 -61 -65 -93 -77 -74 -8 14 -40 8 -40 -7
0 -5 9 -17 20 -27 31 -28 65 -12 104 48 69 104 106 275 106 490 l0 94 73 7
c84 8 143 22 153 37 13 22 -13 27 -71 14 -33 -8 -82 -15 -109 -15 l-49 0 7
133 c7 131 18 212 29 224 4 3 13 0 21 -6 12 -10 17 -9 25 7 8 15 5 21 -19 35
-34 21 -35 21 -53 3z"/>
</g>
</svg>
