<?xml version="1.0" standalone="no"?>
<!DOCTYPE svg PUBLIC "-//W3C//DTD SVG 20010904//EN"
 "http://www.w3.org/TR/2001/REC-SVG-20010904/DTD/svg10.dtd">
<svg version="1.0" xmlns="http://www.w3.org/2000/svg"
 width="124.000000pt" height="166.000000pt" viewBox="0 0 124.000000 166.000000"
 preserveAspectRatio="xMidYMid meet">
<metadata>
Created by potrace 1.16, written by Peter Selinger 2001-2019
</metadata>
<g transform="translate(0.000000,166.000000) scale(0.100000,-0.100000)"
fill="#000000" stroke="none">
<path d="M45 830 c0 -459 1 -647 2 -418 2 230 2 606 0 835 -1 230 -2 42 -2
-417z"/>
<path d="M1185 830 c0 -459 1 -647 2 -418 2 230 2 606 0 835 -1 230 -2 42 -2
-417z"/>
<path d="M457 1283 c-4 -3 -7 -27 -7 -52 0 -55 -21 -199 -53 -371 -26 -135
-25 -156 3 -163 24 -6 40 13 80 93 39 79 66 110 96 110 37 0 81 -65 115 -170
18 -52 37 -98 43 -102 6 -4 23 -8 39 -8 20 0 27 5 27 20 0 14 -6 19 -22 17
-19 -2 -25 8 -43 68 -46 148 -97 215 -162 215 -42 0 -74 -31 -121 -116 -17
-33 -32 -54 -32 -49 0 6 9 57 20 115 47 244 61 400 37 400 -8 0 -17 -3 -20 -7z"/>
</g>
</svg>
