<?xml version="1.0" standalone="no"?>
<!DOCTYPE svg PUBLIC "-//W3C//DTD SVG 20010904//EN"
 "http://www.w3.org/TR/2001/REC-SVG-20010904/DTD/svg10.dtd">
<svg version="1.0" xmlns="http://www.w3.org/2000/svg"
 width="124.000000pt" height="166.000000pt" viewBox="0 0 124.000000 166.000000"
 preserveAspectRatio="xMidYMid meet">
<metadata>
Created by potrace 1.16, written by Peter Selinger 2001-2019
</metadata>
<g transform="translate(0.000000,166.000000) scale(0.100000,-0.100000)"
fill="#000000" stroke="none">
<path d="M45 830 c0 -459 1 -647 2 -418 2 230 2 606 0 835 -1 230 -2 42 -2
-417z"/>
<path d="M1185 830 c0 -459 1 -647 2 -418 2 230 2 606 0 835 -1 230 -2 42 -2
-417z"/>
<path d="M556 1125 c-31 -29 -65 -99 -66 -135 -1 -38 -14 -8 -35 78 -14 58
-21 72 -36 72 -16 0 -19 -8 -19 -49 0 -27 5 -51 11 -53 14 -5 67 -228 79 -336
6 -46 16 -95 24 -110 l14 -27 11 28 c14 36 14 55 -4 152 -19 104 -19 177 1
250 15 59 54 115 80 115 7 0 34 -16 60 -36 50 -38 87 -53 117 -46 29 6 15 35
-19 43 -17 3 -53 22 -79 42 -58 45 -100 48 -139 12z"/>
</g>
</svg>
