<?xml version="1.0" standalone="no"?>
<!DOCTYPE svg PUBLIC "-//W3C//DTD SVG 20010904//EN"
 "http://www.w3.org/TR/2001/REC-SVG-20010904/DTD/svg10.dtd">
<svg version="1.0" xmlns="http://www.w3.org/2000/svg"
 width="124.000000pt" height="166.000000pt" viewBox="0 0 124.000000 166.000000"
 preserveAspectRatio="xMidYMid meet">
<metadata>
Created by potrace 1.16, written by Peter Selinger 2001-2019
</metadata>
<g transform="translate(0.000000,166.000000) scale(0.100000,-0.100000)"
fill="#000000" stroke="none">
<path d="M45 830 c0 -459 1 -647 2 -418 2 230 2 606 0 835 -1 230 -2 42 -2
-417z"/>
<path d="M1185 830 c0 -459 1 -647 2 -418 2 230 2 606 0 835 -1 230 -2 42 -2
-417z"/>
<path d="M682 1199 c-135 -68 -189 -297 -94 -402 9 -11 61 -46 115 -80 55 -33
103 -70 109 -82 14 -31 -11 -77 -58 -106 -63 -39 -199 -24 -256 28 -10 9 -21
34 -25 55 -4 29 -10 38 -22 36 -21 -4 -25 -39 -11 -83 9 -29 23 -40 77 -67
129 -63 273 -35 323 62 11 22 20 47 20 57 0 36 -38 79 -105 118 -106 62 -145
93 -161 130 -41 100 11 247 107 295 42 22 86 19 96 -6 9 -24 43 -17 43 9 0 49
-91 70 -158 36z"/>
</g>
</svg>
