<?xml version="1.0" standalone="no"?>
<!DOCTYPE svg PUBLIC "-//W3C//DTD SVG 20010904//EN"
 "http://www.w3.org/TR/2001/REC-SVG-20010904/DTD/svg10.dtd">
<svg version="1.0" xmlns="http://www.w3.org/2000/svg"
 width="124.000000pt" height="166.000000pt" viewBox="0 0 124.000000 166.000000"
 preserveAspectRatio="xMidYMid meet">
<metadata>
Created by potrace 1.16, written by Peter Selinger 2001-2019
</metadata>
<g transform="translate(0.000000,166.000000) scale(0.100000,-0.100000)"
fill="#000000" stroke="none">
<path d="M35 830 c0 -459 1 -647 2 -418 2 230 2 606 0 835 -1 230 -2 42 -2
-417z"/>
<path d="M1175 830 c0 -459 1 -647 2 -418 2 230 2 606 0 835 -1 230 -2 42 -2
-417z"/>
<path d="M635 1161 c-9 -154 3 -141 -129 -141 -90 0 -116 -3 -126 -15 -7 -9
-10 -18 -7 -21 3 -3 60 -5 126 -5 67 1 121 -2 121 -6 0 -4 -7 -55 -16 -113
-20 -124 -14 -171 26 -212 33 -33 74 -36 141 -13 62 22 169 87 169 102 0 28
-29 23 -84 -12 -62 -39 -125 -65 -161 -65 -55 0 -74 74 -51 195 9 44 16 92 16
107 0 23 5 27 43 33 23 3 69 15 102 25 33 10 72 21 88 24 29 7 32 13 18 35 -7
11 -24 9 -97 -12 -49 -14 -102 -28 -118 -32 l-28 -6 7 114 c7 109 6 114 -13
119 -19 5 -20 -1 -27 -101z"/>
</g>
</svg>
