<?xml version="1.0" standalone="no"?>
<!DOCTYPE svg PUBLIC "-//W3C//DTD SVG 20010904//EN"
 "http://www.w3.org/TR/2001/REC-SVG-20010904/DTD/svg10.dtd">
<svg version="1.0" xmlns="http://www.w3.org/2000/svg"
 width="124.000000pt" height="166.000000pt" viewBox="0 0 124.000000 166.000000"
 preserveAspectRatio="xMidYMid meet">
<metadata>
Created by potrace 1.16, written by Peter Selinger 2001-2019
</metadata>
<g transform="translate(0.000000,166.000000) scale(0.100000,-0.100000)"
fill="#000000" stroke="none">
<path d="M35 830 c0 -459 1 -647 2 -418 2 230 2 606 0 835 -1 230 -2 42 -2
-417z"/>
<path d="M1175 830 c0 -459 1 -647 2 -418 2 230 2 606 0 835 -1 230 -2 42 -2
-417z"/>
<path d="M826 1203 c-20 -65 -43 -154 -50 -198 -15 -96 -35 -141 -91 -203 -36
-39 -47 -46 -80 -46 -46 0 -88 42 -105 105 -16 58 -14 198 5 298 14 83 12 100
-17 101 -9 0 -25 -77 -38 -186 -30 -240 57 -399 194 -354 20 6 54 32 79 60
l43 48 12 -42 c14 -53 60 -82 113 -72 47 9 61 19 53 40 -5 12 -12 15 -28 9
-95 -32 -135 58 -92 208 43 149 70 349 48 349 -5 0 -25 -53 -46 -117z"/>
</g>
</svg>
