<?xml version="1.0" standalone="no"?>
<!DOCTYPE svg PUBLIC "-//W3C//DTD SVG 20010904//EN"
 "http://www.w3.org/TR/2001/REC-SVG-20010904/DTD/svg10.dtd">
<svg version="1.0" xmlns="http://www.w3.org/2000/svg"
 width="124.000000pt" height="166.000000pt" viewBox="0 0 124.000000 166.000000"
 preserveAspectRatio="xMidYMid meet">
<metadata>
Created by potrace 1.16, written by Peter Selinger 2001-2019
</metadata>
<g transform="translate(0.000000,166.000000) scale(0.100000,-0.100000)"
fill="#000000" stroke="none">
<path d="M45 830 c0 -459 1 -647 2 -418 2 230 2 606 0 835 -1 230 -2 42 -2
-417z"/>
<path d="M1185 830 c0 -459 1 -647 2 -418 2 230 2 606 0 835 -1 230 -2 42 -2
-417z"/>
<path d="M861 1083 c-42 -89 -148 -263 -160 -263 -3 0 -29 37 -56 83 -59 97
-151 197 -183 197 -22 0 -42 -26 -42 -54 0 -9 9 -16 20 -16 11 0 20 5 20 10 0
39 59 -24 141 -149 50 -77 66 -109 59 -121 -12 -22 -224 -226 -249 -240 -14
-7 -21 -7 -21 0 0 5 -9 10 -20 10 -16 0 -20 -7 -20 -34 0 -19 4 -37 8 -40 21
-13 105 47 217 156 l123 118 37 -49 c47 -65 90 -101 121 -101 19 0 24 5 24 24
0 19 -6 25 -27 28 -19 2 -41 20 -75 63 -26 32 -48 64 -48 71 0 6 16 33 36 59
39 51 158 270 168 309 4 17 1 25 -12 28 -14 4 -27 -15 -61 -89z"/>
</g>
</svg>
