<?xml version="1.0" standalone="no"?>
<!DOCTYPE svg PUBLIC "-//W3C//DTD SVG 20010904//EN"
 "http://www.w3.org/TR/2001/REC-SVG-20010904/DTD/svg10.dtd">
<svg version="1.0" xmlns="http://www.w3.org/2000/svg"
 width="124.000000pt" height="166.000000pt" viewBox="0 0 124.000000 166.000000"
 preserveAspectRatio="xMidYMid meet">
<metadata>
Created by potrace 1.16, written by Peter Selinger 2001-2019
</metadata>
<g transform="translate(0.000000,166.000000) scale(0.100000,-0.100000)"
fill="#000000" stroke="none">
<path d="M45 830 c0 -459 1 -647 2 -418 2 230 2 606 0 835 -1 230 -2 42 -2
-417z"/>
<path d="M1185 830 c0 -459 1 -647 2 -418 2 230 2 606 0 835 -1 230 -2 42 -2
-417z"/>
<path d="M494 1201 c-2 -2 -4 -10 -4 -18 0 -11 27 -13 137 -11 119 3 138 5
141 20 3 15 -11 16 -133 15 -75 -1 -138 -4 -141 -6z"/>
<path d="M450 1030 c0 -66 -1 -70 -25 -76 -32 -8 -32 -24 -1 -24 14 0 28 -4
31 -10 3 -5 1 -64 -6 -129 -14 -139 -6 -187 39 -217 43 -29 128 -24 252 16
111 35 130 45 130 65 0 16 -38 27 -42 13 -6 -16 -208 -77 -256 -77 -33 -1 -49
5 -69 25 -26 26 -26 26 -18 138 4 61 7 123 7 137 -1 29 17 39 73 39 17 0 80
14 140 30 61 16 120 30 133 30 26 0 28 6 7 26 -12 13 -23 13 -82 -1 -37 -8
-88 -22 -113 -30 -25 -8 -71 -17 -102 -21 l-58 -6 0 65 c0 61 -7 77 -36 77 -2
0 -4 -31 -4 -70z"/>
</g>
</svg>
