<?xml version="1.0" standalone="no"?>
<!DOCTYPE svg PUBLIC "-//W3C//DTD SVG 20010904//EN"
 "http://www.w3.org/TR/2001/REC-SVG-20010904/DTD/svg10.dtd">
<svg version="1.0" xmlns="http://www.w3.org/2000/svg"
 width="124.000000pt" height="166.000000pt" viewBox="0 0 124.000000 166.000000"
 preserveAspectRatio="xMidYMid meet">
<metadata>
Created by potrace 1.16, written by Peter Selinger 2001-2019
</metadata>
<g transform="translate(0.000000,166.000000) scale(0.100000,-0.100000)"
fill="#000000" stroke="none">
<path d="M35 830 c0 -459 1 -647 2 -418 2 230 2 606 0 835 -1 230 -2 42 -2
-417z"/>
<path d="M1175 830 c0 -459 1 -647 2 -418 2 230 2 606 0 835 -1 230 -2 42 -2
-417z"/>
<path d="M646 1208 c-3 -7 -7 -32 -10 -55 -8 -58 -48 -146 -93 -205 -43 -56
-55 -61 -42 -16 5 18 9 68 9 110 0 70 -2 78 -19 78 -17 0 -19 -10 -23 -92 -4
-76 -9 -103 -31 -145 -26 -51 -26 -53 -8 -63 16 -8 29 -3 68 27 58 44 78 68
120 142 18 31 33 50 33 43 0 -7 16 -124 36 -260 44 -303 40 -379 -21 -412 -31
-16 -59 -5 -111 42 -37 34 -46 39 -59 28 -14 -12 -11 -18 22 -53 41 -42 88
-67 127 -67 36 0 90 52 104 98 18 60 15 117 -23 382 -19 137 -35 286 -35 338
0 86 -1 92 -20 92 -11 0 -22 -6 -24 -12z"/>
</g>
</svg>
