<?xml version="1.0" standalone="no"?>
<!DOCTYPE svg PUBLIC "-//W3C//DTD SVG 20010904//EN"
 "http://www.w3.org/TR/2001/REC-SVG-20010904/DTD/svg10.dtd">
<svg version="1.0" xmlns="http://www.w3.org/2000/svg"
 width="124.000000pt" height="166.000000pt" viewBox="0 0 124.000000 166.000000"
 preserveAspectRatio="xMidYMid meet">
<metadata>
Created by potrace 1.16, written by Peter Selinger 2001-2019
</metadata>
<g transform="translate(0.000000,166.000000) scale(0.100000,-0.100000)"
fill="#000000" stroke="none">
<path d="M35 830 c0 -459 1 -647 2 -418 2 230 2 606 0 835 -1 230 -2 42 -2
-417z"/>
<path d="M1185 830 c0 -459 1 -647 2 -418 2 230 2 606 0 835 -1 230 -2 42 -2
-417z"/>
<path d="M556 1097 c-25 -11 -43 -24 -40 -31 3 -7 -15 -55 -40 -107 -72 -152
-94 -280 -65 -384 15 -51 74 -111 120 -120 142 -26 264 128 285 358 7 79 -9
186 -33 227 -39 67 -144 93 -227 57z m154 -42 c73 -38 88 -243 29 -400 -27
-72 -89 -139 -146 -155 -37 -11 -45 -10 -74 6 -52 31 -71 64 -76 138 -8 91 17
187 80 316 43 88 52 100 55 78 2 -20 9 -28 23 -28 14 0 19 7 19 30 0 27 3 30
30 30 17 0 44 -7 60 -15z"/>
</g>
</svg>
