<?xml version="1.0" standalone="no"?>
<!DOCTYPE svg PUBLIC "-//W3C//DTD SVG 20010904//EN"
 "http://www.w3.org/TR/2001/REC-SVG-20010904/DTD/svg10.dtd">
<svg version="1.0" xmlns="http://www.w3.org/2000/svg"
 width="124.000000pt" height="166.000000pt" viewBox="0 0 124.000000 166.000000"
 preserveAspectRatio="xMidYMid meet">
<metadata>
Created by potrace 1.16, written by Peter Selinger 2001-2019
</metadata>
<g transform="translate(0.000000,166.000000) scale(0.100000,-0.100000)"
fill="#000000" stroke="none">
<path d="M35 830 c0 -459 1 -647 2 -418 2 230 2 606 0 835 -1 230 -2 42 -2
-417z"/>
<path d="M1175 830 c0 -459 1 -647 2 -418 2 230 2 606 0 835 -1 230 -2 42 -2
-417z"/>
<path d="M655 1309 c-120 -22 -205 -97 -205 -181 0 -50 39 -96 90 -104 27 -4
50 -19 80 -49 l42 -43 -16 -55 c-33 -114 -15 -188 50 -206 128 -35 155 116 45
242 l-29 33 49 117 c56 135 62 181 25 216 -30 28 -79 39 -131 30z m97 -56 c26
-24 22 -55 -18 -146 -20 -45 -40 -93 -45 -106 -9 -23 -10 -23 -67 31 -59 56
-115 92 -126 81 -3 -4 -6 5 -6 20 0 85 199 177 262 120z m-17 -402 c31 -46 43
-105 25 -126 -7 -8 -25 -15 -41 -15 -32 0 -49 23 -49 65 0 38 21 115 31 115 5
0 20 -17 34 -39z"/>
</g>
</svg>
