<?xml version="1.0" standalone="no"?>
<!DOCTYPE svg PUBLIC "-//W3C//DTD SVG 20010904//EN"
 "http://www.w3.org/TR/2001/REC-SVG-20010904/DTD/svg10.dtd">
<svg version="1.0" xmlns="http://www.w3.org/2000/svg"
 width="124.000000pt" height="166.000000pt" viewBox="0 0 124.000000 166.000000"
 preserveAspectRatio="xMidYMid meet">
<metadata>
Created by potrace 1.16, written by Peter Selinger 2001-2019
</metadata>
<g transform="translate(0.000000,166.000000) scale(0.100000,-0.100000)"
fill="#000000" stroke="none">
<path d="M35 830 c0 -459 1 -647 2 -418 2 230 2 606 0 835 -1 230 -2 42 -2
-417z"/>
<path d="M1175 830 c0 -459 1 -647 2 -418 2 230 2 606 0 835 -1 230 -2 42 -2
-417z"/>
<path d="M617 1319 c-67 -44 -119 -119 -125 -180 -5 -58 10 -82 64 -99 45 -15
116 8 186 61 29 21 53 37 56 35 2 -2 -16 -84 -39 -182 -38 -160 -43 -192 -43
-304 -1 -141 11 -188 43 -171 18 10 18 13 4 53 -23 64 -11 204 30 383 70 301
74 332 36 322 -15 -4 -24 4 -39 33 -24 48 -65 80 -100 80 -14 0 -47 -14 -73
-31z m117 -42 c13 -17 29 -44 35 -59 9 -25 7 -31 -24 -61 -42 -41 -115 -78
-155 -79 -65 -2 -78 50 -30 125 28 44 108 107 136 107 7 0 24 -15 38 -33z"/>
</g>
</svg>
