<?xml version="1.0" standalone="no"?>
<!DOCTYPE svg PUBLIC "-//W3C//DTD SVG 20010904//EN"
 "http://www.w3.org/TR/2001/REC-SVG-20010904/DTD/svg10.dtd">
<svg version="1.0" xmlns="http://www.w3.org/2000/svg"
 width="124.000000pt" height="166.000000pt" viewBox="0 0 124.000000 166.000000"
 preserveAspectRatio="xMidYMid meet">
<metadata>
Created by potrace 1.16, written by Peter Selinger 2001-2019
</metadata>
<g transform="translate(0.000000,166.000000) scale(0.100000,-0.100000)"
fill="#000000" stroke="none">
<path d="M45 830 c0 -459 1 -647 2 -418 2 230 2 606 0 835 -1 230 -2 42 -2
-417z"/>
<path d="M1185 830 c0 -459 1 -647 2 -418 2 230 2 606 0 835 -1 230 -2 42 -2
-417z"/>
<path d="M707 1132 c-25 -82 -34 -151 -21 -164 3 -3 13 -4 23 -1 13 3 16 12
13 32 -2 15 8 65 22 111 15 46 25 89 22 97 -13 33 -33 7 -59 -75z"/>
<path d="M596 1133 c-2 -16 -8 -54 -11 -85 -6 -54 -5 -58 14 -58 15 0 21 8 25
33 13 84 13 113 0 125 -19 17 -22 15 -28 -15z"/>
</g>
</svg>
