<?xml version="1.0" standalone="no"?>
<!DOCTYPE svg PUBLIC "-//W3C//DTD SVG 20010904//EN"
 "http://www.w3.org/TR/2001/REC-SVG-20010904/DTD/svg10.dtd">
<svg version="1.0" xmlns="http://www.w3.org/2000/svg"
 width="124.000000pt" height="166.000000pt" viewBox="0 0 124.000000 166.000000"
 preserveAspectRatio="xMidYMid meet">
<metadata>
Created by potrace 1.16, written by Peter Selinger 2001-2019
</metadata>
<g transform="translate(0.000000,166.000000) scale(0.100000,-0.100000)"
fill="#000000" stroke="none">
<path d="M35 830 c0 -459 1 -647 2 -418 2 230 2 606 0 835 -1 230 -2 42 -2
-417z"/>
<path d="M1175 830 c0 -459 1 -647 2 -418 2 230 2 606 0 835 -1 230 -2 42 -2
-417z"/>
<path d="M686 1190 c-20 -22 -36 -47 -36 -56 0 -9 -5 -35 -12 -57 l-12 -40
-75 7 -75 6 27 -28 c22 -23 34 -27 62 -24 39 5 43 -3 24 -56 -10 -30 -13 -32
-50 -26 -43 7 -69 -7 -69 -37 0 -20 20 -25 36 -10 5 5 21 7 37 4 24 -5 27 -10
27 -42 0 -43 5 -51 28 -44 14 3 17 13 14 44 l-4 39 50 0 50 0 -14 -47 c-20
-67 -19 -103 5 -103 14 0 20 10 24 45 13 90 27 108 100 129 59 16 88 38 72 54
-5 6 -69 -8 -107 -23 -16 -7 -16 -4 -2 39 14 40 20 46 44 46 16 0 30 7 34 16
9 23 8 24 -19 24 -25 0 -25 0 -19 70 6 60 5 70 -9 70 -17 0 -21 -11 -32 -75
-12 -75 -12 -75 -66 -75 -48 0 -50 1 -43 23 27 83 52 167 49 167 -1 0 -19 -18
-39 -40z m64 -200 c0 -6 -7 -26 -14 -45 -14 -33 -17 -35 -65 -35 l-49 0 11 36
c6 20 20 40 32 44 29 12 85 12 85 0z"/>
</g>
</svg>
