<?xml version="1.0" standalone="no"?>
<!DOCTYPE svg PUBLIC "-//W3C//DTD SVG 20010904//EN"
 "http://www.w3.org/TR/2001/REC-SVG-20010904/DTD/svg10.dtd">
<svg version="1.0" xmlns="http://www.w3.org/2000/svg"
 width="124.000000pt" height="166.000000pt" viewBox="0 0 124.000000 166.000000"
 preserveAspectRatio="xMidYMid meet">
<metadata>
Created by potrace 1.16, written by Peter Selinger 2001-2019
</metadata>
<g transform="translate(0.000000,166.000000) scale(0.100000,-0.100000)"
fill="#000000" stroke="none">
<path d="M35 830 c0 -459 1 -647 2 -418 2 230 2 606 0 835 -1 230 -2 42 -2
-417z"/>
<path d="M1175 830 c0 -459 1 -647 2 -418 2 230 2 606 0 835 -1 230 -2 42 -2
-417z"/>
<path d="M710 1255 c-10 -13 -10 -19 3 -33 12 -13 14 -28 9 -65 -4 -26 -10
-48 -14 -47 -5 0 -23 0 -42 0 l-34 0 10 36 c7 28 7 39 -4 45 -22 14 -26 11
-38 -38 -11 -44 -16 -50 -63 -73 -66 -32 -88 -66 -67 -106 9 -15 31 -34 53
-42 35 -14 37 -17 36 -61 0 -25 -4 -66 -8 -91 l-7 -45 -40 41 c-35 36 -43 40
-58 28 -16 -11 -15 -15 18 -52 20 -22 47 -43 59 -46 17 -4 26 -18 36 -53 l14
-48 10 38 c8 28 16 37 33 37 19 0 22 -6 26 -60 5 -66 8 -73 31 -64 14 5 15 16
10 65 -5 52 -4 59 13 65 91 31 154 91 154 146 0 37 -35 76 -81 89 -41 13 -43
17 -33 68 5 26 9 29 21 20 26 -22 37 5 18 45 -14 28 -16 50 -10 105 4 38 4 79
0 90 -7 25 -37 28 -55 6z m-4 -197 c6 -7 -22 -113 -29 -110 -4 1 -21 2 -38 2
l-32 0 7 52 c4 28 10 56 13 61 5 8 70 4 79 -5z m-133 -50 c-3 -24 -7 -44 -8
-46 -1 -1 -14 3 -29 9 -32 15 -34 43 -4 63 37 27 47 20 41 -26z m89 -103 c21
-8 -11 -179 -35 -183 -25 -5 -34 27 -29 111 4 73 6 77 27 77 13 0 30 -2 37 -5z
m133 -46 c20 -20 20 -20 -1 -57 -20 -34 -88 -81 -101 -69 -5 6 15 134 24 150
8 13 56 -2 78 -24z"/>
</g>
</svg>
