<?xml version="1.0" standalone="no"?>
<!DOCTYPE svg PUBLIC "-//W3C//DTD SVG 20010904//EN"
 "http://www.w3.org/TR/2001/REC-SVG-20010904/DTD/svg10.dtd">
<svg version="1.0" xmlns="http://www.w3.org/2000/svg"
 width="124.000000pt" height="166.000000pt" viewBox="0 0 124.000000 166.000000"
 preserveAspectRatio="xMidYMid meet">
<metadata>
Created by potrace 1.16, written by Peter Selinger 2001-2019
</metadata>
<g transform="translate(0.000000,166.000000) scale(0.100000,-0.100000)"
fill="#000000" stroke="none">
<path d="M35 830 c0 -459 1 -647 2 -418 2 230 2 606 0 835 -1 230 -2 42 -2
-417z"/>
<path d="M1185 830 c0 -459 1 -647 2 -418 2 230 2 606 0 835 -1 230 -2 42 -2
-417z"/>
<path d="M713 1158 c-6 -7 -31 -53 -55 -103 -24 -49 -80 -142 -125 -205 -45
-63 -86 -128 -92 -143 -14 -36 -14 -74 -1 -82 15 -9 40 13 34 30 -8 19 18 64
107 190 71 101 153 253 161 299 4 23 -15 32 -29 14z"/>
<path d="M424 1131 c-41 -25 -49 -38 -34 -56 10 -12 17 -11 44 10 43 33 56 31
56 -4 0 -20 -9 -37 -31 -55 -33 -28 -65 -35 -56 -12 5 13 -12 26 -33 26 -18 0
-17 -53 2 -72 33 -33 100 -5 146 62 56 83 -9 153 -94 101z"/>
<path d="M734 737 c-3 -9 -3 -21 1 -28 8 -12 -11 -29 -33 -29 -7 0 -17 11 -22
25 -13 35 -40 33 -40 -4 0 -44 26 -64 73 -58 71 10 99 62 50 94 -20 14 -23 14
-29 0z"/>
</g>
</svg>
