<?xml version="1.0" standalone="no"?>
<!DOCTYPE svg PUBLIC "-//W3C//DTD SVG 20010904//EN"
 "http://www.w3.org/TR/2001/REC-SVG-20010904/DTD/svg10.dtd">
<svg version="1.0" xmlns="http://www.w3.org/2000/svg"
 width="124.000000pt" height="166.000000pt" viewBox="0 0 124.000000 166.000000"
 preserveAspectRatio="xMidYMid meet">
<metadata>
Created by potrace 1.16, written by Peter Selinger 2001-2019
</metadata>
<g transform="translate(0.000000,166.000000) scale(0.100000,-0.100000)"
fill="#000000" stroke="none">
<path d="M35 830 c0 -459 1 -647 2 -418 2 230 2 606 0 835 -1 230 -2 42 -2
-417z"/>
<path d="M1175 830 c0 -459 1 -647 2 -418 2 230 2 606 0 835 -1 230 -2 42 -2
-417z"/>
<path d="M595 1341 c-58 -26 -124 -97 -159 -171 -27 -58 -31 -75 -31 -155 0
-74 4 -98 23 -137 30 -60 89 -112 148 -128 55 -16 181 -8 242 14 42 15 43 15
54 -9 11 -25 32 -33 43 -16 3 5 0 21 -6 35 -10 21 -9 29 3 43 43 49 75 145 54
162 -30 25 -68 -20 -96 -116 -15 -48 -46 -65 -151 -82 -112 -18 -199 16 -247
97 -24 42 -27 57 -27 137 0 79 4 97 29 145 52 101 127 160 205 160 31 0 44 -6
60 -26 12 -15 21 -35 21 -45 0 -12 7 -19 20 -19 24 0 25 18 6 65 -26 62 -111
83 -191 46z"/>
</g>
</svg>
