<?xml version="1.0" standalone="no"?>
<!DOCTYPE svg PUBLIC "-//W3C//DTD SVG 20010904//EN"
 "http://www.w3.org/TR/2001/REC-SVG-20010904/DTD/svg10.dtd">
<svg version="1.0" xmlns="http://www.w3.org/2000/svg"
 width="124.000000pt" height="166.000000pt" viewBox="0 0 124.000000 166.000000"
 preserveAspectRatio="xMidYMid meet">
<metadata>
Created by potrace 1.16, written by Peter Selinger 2001-2019
</metadata>
<g transform="translate(0.000000,166.000000) scale(0.100000,-0.100000)"
fill="#000000" stroke="none">
<path d="M45 830 c0 -459 1 -647 2 -418 2 230 2 606 0 835 -1 230 -2 42 -2
-417z"/>
<path d="M1185 830 c0 -459 1 -647 2 -418 2 230 2 606 0 835 -1 230 -2 42 -2
-417z"/>
<path d="M683 1168 c-4 -7 -8 -58 -8 -112 l0 -100 -50 -13 c-28 -8 -74 -12
-102 -9 -57 5 -58 4 -43 -25 13 -23 79 -26 156 -5 l52 14 6 -31 c3 -16 9 -68
13 -114 5 -72 8 -83 24 -83 16 0 19 8 19 51 0 27 -5 82 -11 120 -6 39 -8 73
-6 76 3 3 31 7 63 9 67 5 76 10 49 31 -15 11 -34 13 -71 9 -51 -6 -52 -6 -58
25 -9 47 -7 97 4 104 6 3 10 19 10 36 0 22 -5 29 -19 29 -11 0 -23 -6 -28 -12z"/>
</g>
</svg>
