<?xml version="1.0" standalone="no"?>
<!DOCTYPE svg PUBLIC "-//W3C//DTD SVG 20010904//EN"
 "http://www.w3.org/TR/2001/REC-SVG-20010904/DTD/svg10.dtd">
<svg version="1.0" xmlns="http://www.w3.org/2000/svg"
 width="124.000000pt" height="166.000000pt" viewBox="0 0 124.000000 166.000000"
 preserveAspectRatio="xMidYMid meet">
<metadata>
Created by potrace 1.16, written by Peter Selinger 2001-2019
</metadata>
<g transform="translate(0.000000,166.000000) scale(0.100000,-0.100000)"
fill="#000000" stroke="none">
<path d="M35 830 c0 -459 1 -647 2 -418 2 230 2 606 0 835 -1 230 -2 42 -2
-417z"/>
<path d="M1185 830 c0 -459 1 -647 2 -418 2 230 2 606 0 835 -1 230 -2 42 -2
-417z"/>
<path d="M750 1139 c-28 -55 -79 -142 -114 -193 -43 -62 -65 -106 -70 -135 -4
-24 -5 -45 -3 -47 2 -2 39 51 83 118 88 135 196 336 188 349 -15 25 -38 0 -84
-92z"/>
</g>
</svg>
