<?xml version="1.0" standalone="no"?>
<!DOCTYPE svg PUBLIC "-//W3C//DTD SVG 20010904//EN"
 "http://www.w3.org/TR/2001/REC-SVG-20010904/DTD/svg10.dtd">
<svg version="1.0" xmlns="http://www.w3.org/2000/svg"
 width="124.000000pt" height="166.000000pt" viewBox="0 0 124.000000 166.000000"
 preserveAspectRatio="xMidYMid meet">
<metadata>
Created by potrace 1.16, written by Peter Selinger 2001-2019
</metadata>
<g transform="translate(0.000000,166.000000) scale(0.100000,-0.100000)"
fill="#000000" stroke="none">
<path d="M35 830 c0 -459 1 -647 2 -418 2 230 2 606 0 835 -1 230 -2 42 -2
-417z"/>
<path d="M1185 830 c0 -459 1 -647 2 -418 2 230 2 606 0 835 -1 230 -2 42 -2
-417z"/>
<path d="M492 1423 c-19 -49 -26 -103 -12 -103 14 0 10 -51 -21 -277 -21 -161
-24 -262 -6 -312 14 -40 46 -64 67 -51 12 8 11 13 -9 34 -42 44 -44 100 -15
311 28 203 36 378 18 408 -10 17 -12 17 -22 -10z"/>
<path d="M960 1337 c-1 -42 -34 -277 -41 -294 -24 -63 -124 -79 -264 -43 -115
29 -145 25 -145 -20 0 -14 33 -21 41 -8 6 10 22 9 76 -6 98 -26 200 -32 243
-14 l35 15 0 -126 c0 -103 4 -134 19 -169 20 -45 23 -47 45 -33 11 7 12 13 3
23 -6 8 -19 43 -28 78 -18 70 -15 120 16 305 30 178 34 256 16 280 -8 11 -16
16 -16 12z"/>
</g>
</svg>
