<?xml version="1.0" standalone="no"?>
<!DOCTYPE svg PUBLIC "-//W3C//DTD SVG 20010904//EN"
 "http://www.w3.org/TR/2001/REC-SVG-20010904/DTD/svg10.dtd">
<svg version="1.0" xmlns="http://www.w3.org/2000/svg"
 width="124.000000pt" height="166.000000pt" viewBox="0 0 124.000000 166.000000"
 preserveAspectRatio="xMidYMid meet">
<metadata>
Created by potrace 1.16, written by Peter Selinger 2001-2019
</metadata>
<g transform="translate(0.000000,166.000000) scale(0.100000,-0.100000)"
fill="#000000" stroke="none">
<path d="M35 830 c0 -459 1 -647 2 -418 2 230 2 606 0 835 -1 230 -2 42 -2
-417z"/>
<path d="M1175 830 c0 -459 1 -647 2 -418 2 230 2 606 0 835 -1 230 -2 42 -2
-417z"/>
<path d="M682 993 c-16 -3 -22 -9 -18 -20 3 -8 6 -16 6 -17 0 -1 37 -1 82 0
77 3 105 14 92 36 -5 8 -121 9 -162 1z"/>
<path d="M795 880 c-27 -5 -86 -9 -130 -9 -79 -1 -79 -1 -60 -21 25 -25 40
-26 153 -17 67 6 98 5 108 -4 18 -15 32 16 17 40 -12 19 -24 21 -88 11z"/>
</g>
</svg>
