<?xml version="1.0" standalone="no"?>
<!DOCTYPE svg PUBLIC "-//W3C//DTD SVG 20010904//EN"
 "http://www.w3.org/TR/2001/REC-SVG-20010904/DTD/svg10.dtd">
<svg version="1.0" xmlns="http://www.w3.org/2000/svg"
 width="124.000000pt" height="166.000000pt" viewBox="0 0 124.000000 166.000000"
 preserveAspectRatio="xMidYMid meet">
<metadata>
Created by potrace 1.16, written by Peter Selinger 2001-2019
</metadata>
<g transform="translate(0.000000,166.000000) scale(0.100000,-0.100000)"
fill="#000000" stroke="none">
<path d="M35 830 c0 -459 1 -647 2 -418 2 230 2 606 0 835 -1 230 -2 42 -2
-417z"/>
<path d="M1185 830 c0 -459 1 -647 2 -418 2 230 2 606 0 835 -1 230 -2 42 -2
-417z"/>
<path d="M596 1227 c-14 -10 -17 -21 -12 -41 6 -23 9 -25 26 -16 11 6 20 15
20 20 0 11 59 14 84 4 14 -5 15 -21 10 -113 -6 -96 4 -207 22 -256 3 -8 0 -17
-7 -19 -8 -2 -47 -14 -86 -25 -73 -22 -79 -26 -65 -48 6 -9 24 -8 77 8 124 36
157 58 129 86 -22 22 -37 151 -29 243 9 106 8 141 -4 153 -17 17 -144 20 -165
4z"/>
</g>
</svg>
