<?xml version="1.0" standalone="no"?>
<!DOCTYPE svg PUBLIC "-//W3C//DTD SVG 20010904//EN"
 "http://www.w3.org/TR/2001/REC-SVG-20010904/DTD/svg10.dtd">
<svg version="1.0" xmlns="http://www.w3.org/2000/svg"
 width="124.000000pt" height="166.000000pt" viewBox="0 0 124.000000 166.000000"
 preserveAspectRatio="xMidYMid meet">
<metadata>
Created by potrace 1.16, written by Peter Selinger 2001-2019
</metadata>
<g transform="translate(0.000000,166.000000) scale(0.100000,-0.100000)"
fill="#000000" stroke="none">
<path d="M45 830 c0 -459 1 -647 2 -418 2 230 2 606 0 835 -1 230 -2 42 -2
-417z"/>
<path d="M1185 830 c0 -459 1 -647 2 -418 2 230 2 606 0 835 -1 230 -2 42 -2
-417z"/>
<path d="M482 1316 c-59 -15 -82 -30 -66 -45 5 -6 32 -4 67 6 33 8 62 12 65 8
10 -9 8 -220 -2 -350 -6 -75 -5 -123 3 -150 14 -51 7 -55 -96 -55 -78 0 -83
-1 -83 -21 0 -21 3 -22 93 -16 50 4 156 10 235 14 133 6 142 7 142 26 0 19 -5
20 -119 14 l-118 -7 -13 46 c-9 33 -11 75 -5 152 4 59 9 161 11 227 3 140 7
146 77 123 41 -13 47 -13 52 0 3 9 1 20 -5 26 -16 16 -177 17 -238 2z"/>
</g>
</svg>
