<?xml version="1.0" standalone="no"?>
<!DOCTYPE svg PUBLIC "-//W3C//DTD SVG 20010904//EN"
 "http://www.w3.org/TR/2001/REC-SVG-20010904/DTD/svg10.dtd">
<svg version="1.0" xmlns="http://www.w3.org/2000/svg"
 width="124.000000pt" height="166.000000pt" viewBox="0 0 124.000000 166.000000"
 preserveAspectRatio="xMidYMid meet">
<metadata>
Created by potrace 1.16, written by Peter Selinger 2001-2019
</metadata>
<g transform="translate(0.000000,166.000000) scale(0.100000,-0.100000)"
fill="#000000" stroke="none">
<path d="M45 830 c0 -459 1 -647 2 -418 2 230 2 606 0 835 -1 230 -2 42 -2
-417z"/>
<path d="M1185 830 c0 -459 1 -647 2 -418 2 230 2 606 0 835 -1 230 -2 42 -2
-417z"/>
<path d="M630 1305 c-52 -13 -105 -24 -117 -25 -34 0 -28 -16 9 -26 25 -7 53
-4 118 13 92 25 169 29 202 12 16 -9 24 -8 36 5 14 14 12 17 -21 31 -50 21
-115 18 -227 -10z"/>
<path d="M744 1256 c-3 -8 0 -99 6 -202 12 -185 9 -246 -12 -314 -17 -55 -57
-107 -94 -125 -30 -14 -36 -14 -63 0 -21 10 -34 27 -42 55 -9 28 -18 40 -31
40 -15 0 -17 -5 -12 -27 17 -75 61 -118 120 -116 48 1 101 45 139 114 l30 54
0 260 c0 162 -4 263 -10 267 -15 12 -25 9 -31 -6z"/>
</g>
</svg>
