<?xml version="1.0" standalone="no"?>
<!DOCTYPE svg PUBLIC "-//W3C//DTD SVG 20010904//EN"
 "http://www.w3.org/TR/2001/REC-SVG-20010904/DTD/svg10.dtd">
<svg version="1.0" xmlns="http://www.w3.org/2000/svg"
 width="166.000000pt" height="166.000000pt" viewBox="0 0 166.000000 166.000000"
 preserveAspectRatio="xMidYMid meet">
<metadata>
Created by potrace 1.16, written by Peter Selinger 2001-2019
</metadata>
<g transform="translate(0.000000,166.000000) scale(0.100000,-0.100000)"
fill="#000000" stroke="none">
<path d="M607 1333 c-9 -26 -35 -127 -56 -223 -22 -96 -49 -209 -60 -250 -42
-150 -31 -162 161 -178 73 -6 180 -14 238 -18 58 -3 112 -8 121 -10 8 -2 24 2
35 10 18 14 18 15 -8 25 -15 6 -103 15 -195 21 -244 15 -301 21 -319 35 -18
12 -17 16 97 470 37 148 38 159 19 163 -11 2 -21 -13 -33 -45z"/>
</g>
</svg>
