<?xml version="1.0" standalone="no"?>
<!DOCTYPE svg PUBLIC "-//W3C//DTD SVG 20010904//EN"
 "http://www.w3.org/TR/2001/REC-SVG-20010904/DTD/svg10.dtd">
<svg version="1.0" xmlns="http://www.w3.org/2000/svg"
 width="166.000000pt" height="166.000000pt" viewBox="0 0 166.000000 166.000000"
 preserveAspectRatio="xMidYMid meet">
<metadata>
Created by potrace 1.16, written by Peter Selinger 2001-2019
</metadata>
<g transform="translate(0.000000,166.000000) scale(0.100000,-0.100000)"
fill="#000000" stroke="none">
<path d="M781 1349 c3 -19 -11 -40 -56 -86 -112 -115 -177 -258 -178 -393 -2
-132 44 -180 170 -180 124 0 270 58 362 143 42 40 81 120 81 169 0 89 -67 205
-160 276 -27 20 -49 42 -49 49 -1 20 -31 30 -104 38 -68 7 -69 7 -66 -16z
m166 -83 c139 -102 199 -229 156 -327 -51 -113 -250 -217 -401 -207 -56 4 -68
8 -89 33 -24 27 -25 34 -21 120 3 80 8 100 41 170 21 43 55 101 75 128 44 59
129 127 158 127 12 0 49 -20 81 -44z"/>
</g>
</svg>
