<?xml version="1.0" standalone="no"?>
<!DOCTYPE svg PUBLIC "-//W3C//DTD SVG 20010904//EN"
 "http://www.w3.org/TR/2001/REC-SVG-20010904/DTD/svg10.dtd">
<svg version="1.0" xmlns="http://www.w3.org/2000/svg"
 width="166.000000pt" height="166.000000pt" viewBox="0 0 166.000000 166.000000"
 preserveAspectRatio="xMidYMid meet">
<metadata>
Created by potrace 1.16, written by Peter Selinger 2001-2019
</metadata>
<g transform="translate(0.000000,166.000000) scale(0.100000,-0.100000)"
fill="#000000" stroke="none">
<path d="M1054 1300 c-23 -9 -50 -39 -144 -159 l-64 -83 -22 27 c-12 15 -46
70 -75 121 -51 88 -70 107 -84 84 -7 -12 10 -45 88 -174 l60 -100 -144 -138
c-79 -76 -151 -140 -160 -143 -11 -4 -15 -13 -12 -26 4 -15 11 -18 27 -13 23
8 65 36 66 45 0 3 56 58 124 122 l124 116 77 -94 c83 -100 107 -121 146 -127
19 -2 25 2 27 20 3 17 -2 22 -17 22 -28 0 -148 128 -195 208 -4 7 15 40 51 85
33 39 72 91 89 114 33 48 69 67 106 58 20 -5 26 -2 30 13 4 15 0 22 -16 26
-28 8 -57 6 -82 -4z"/>
</g>
</svg>
