<?xml version="1.0" standalone="no"?>
<!DOCTYPE svg PUBLIC "-//W3C//DTD SVG 20010904//EN"
 "http://www.w3.org/TR/2001/REC-SVG-20010904/DTD/svg10.dtd">
<svg version="1.0" xmlns="http://www.w3.org/2000/svg"
 width="166.000000pt" height="166.000000pt" viewBox="0 0 166.000000 166.000000"
 preserveAspectRatio="xMidYMid meet">
<metadata>
Created by potrace 1.16, written by Peter Selinger 2001-2019
</metadata>
<g transform="translate(0.000000,166.000000) scale(0.100000,-0.100000)"
fill="#000000" stroke="none">
<path d="M1012 1387 c-36 -39 -262 -747 -262 -820 1 -102 124 -102 223 0 79
81 111 198 66 239 -29 26 -93 25 -146 -3 -24 -13 -43 -19 -43 -15 0 15 163
518 177 545 8 16 13 40 11 54 l-3 25 -23 -25z m6 -640 c3 -26 -32 -104 -65
-144 -29 -35 -94 -73 -124 -73 -38 0 -45 29 -25 104 8 32 16 59 18 59 2 1 19
17 39 35 68 63 151 73 157 19z"/>
</g>
</svg>
