<?xml version="1.0" standalone="no"?>
<!DOCTYPE svg PUBLIC "-//W3C//DTD SVG 20010904//EN"
 "http://www.w3.org/TR/2001/REC-SVG-20010904/DTD/svg10.dtd">
<svg version="1.0" xmlns="http://www.w3.org/2000/svg"
 width="166.000000pt" height="166.000000pt" viewBox="0 0 166.000000 166.000000"
 preserveAspectRatio="xMidYMid meet">
<metadata>
Created by potrace 1.16, written by Peter Selinger 2001-2019
</metadata>
<g transform="translate(0.000000,166.000000) scale(0.100000,-0.100000)"
fill="#000000" stroke="none">
<path d="M887 1294 c-4 -4 -7 -42 -7 -83 0 -101 -16 -229 -40 -319 -26 -93
-25 -118 1 -133 30 -15 49 3 31 31 -10 16 -8 33 8 92 23 89 38 203 42 323 2
74 0 90 -13 93 -8 1 -18 0 -22 -4z"/>
<path d="M800 612 c0 -21 18 -42 36 -42 17 0 23 34 8 48 -19 18 -44 15 -44 -6z"/>
</g>
</svg>
