<?xml version="1.0" standalone="no"?>
<!DOCTYPE svg PUBLIC "-//W3C//DTD SVG 20010904//EN"
 "http://www.w3.org/TR/2001/REC-SVG-20010904/DTD/svg10.dtd">
<svg version="1.0" xmlns="http://www.w3.org/2000/svg"
 width="166.000000pt" height="166.000000pt" viewBox="0 0 166.000000 166.000000"
 preserveAspectRatio="xMidYMid meet">
<metadata>
Created by potrace 1.16, written by Peter Selinger 2001-2019
</metadata>
<g transform="translate(0.000000,166.000000) scale(0.100000,-0.100000)"
fill="#000000" stroke="none">
<path d="M706 1238 c-11 -47 -2 -157 13 -163 24 -9 31 17 28 100 -3 64 -7 81
-20 83 -10 2 -18 -5 -21 -20z"/>
<path d="M855 1183 c-4 -27 -10 -60 -15 -75 -7 -23 -5 -30 10 -38 16 -8 20 -5
29 23 6 17 13 56 17 85 6 48 5 52 -14 52 -17 0 -22 -8 -27 -47z"/>
</g>
</svg>
