<?xml version="1.0" standalone="no"?>
<!DOCTYPE svg PUBLIC "-//W3C//DTD SVG 20010904//EN"
 "http://www.w3.org/TR/2001/REC-SVG-20010904/DTD/svg10.dtd">
<svg version="1.0" xmlns="http://www.w3.org/2000/svg"
 width="166.000000pt" height="166.000000pt" viewBox="0 0 166.000000 166.000000"
 preserveAspectRatio="xMidYMid meet">
<metadata>
Created by potrace 1.16, written by Peter Selinger 2001-2019
</metadata>
<g transform="translate(0.000000,166.000000) scale(0.100000,-0.100000)"
fill="#000000" stroke="none">
<path d="M961 1111 c-6 -11 -11 -49 -11 -85 l0 -65 -111 1 c-61 0 -113 -3
-116 -5 -3 -3 0 -13 5 -23 9 -15 23 -17 117 -15 l108 3 -7 -29 c-11 -52 -17
-198 -8 -211 5 -7 16 -10 25 -6 13 5 16 14 11 45 -4 22 -1 73 6 114 12 73 14
75 41 75 41 0 40 35 -1 44 l-30 6 0 79 c0 81 -11 107 -29 72z"/>
</g>
</svg>
