<?xml version="1.0" standalone="no"?>
<!DOCTYPE svg PUBLIC "-//W3C//DTD SVG 20010904//EN"
 "http://www.w3.org/TR/2001/REC-SVG-20010904/DTD/svg10.dtd">
<svg version="1.0" xmlns="http://www.w3.org/2000/svg"
 width="166.000000pt" height="166.000000pt" viewBox="0 0 166.000000 166.000000"
 preserveAspectRatio="xMidYMid meet">
<metadata>
Created by potrace 1.16, written by Peter Selinger 2001-2019
</metadata>
<g transform="translate(0.000000,166.000000) scale(0.100000,-0.100000)"
fill="#000000" stroke="none">
<path d="M883 1164 c-19 -20 -32 -38 -30 -40 5 -5 78 24 95 38 9 8 9 14 1 24
-17 21 -29 17 -66 -22z"/>
<path d="M870 1034 c0 -24 -37 -70 -75 -94 -38 -23 -40 -27 -26 -49 8 -12 17
-10 51 14 74 52 119 145 70 145 -12 0 -20 -7 -20 -16z"/>
</g>
</svg>
