<?xml version="1.0" standalone="no"?>
<!DOCTYPE svg PUBLIC "-//W3C//DTD SVG 20010904//EN"
 "http://www.w3.org/TR/2001/REC-SVG-20010904/DTD/svg10.dtd">
<svg version="1.0" xmlns="http://www.w3.org/2000/svg"
 width="166.000000pt" height="166.000000pt" viewBox="0 0 166.000000 166.000000"
 preserveAspectRatio="xMidYMid meet">
<metadata>
Created by potrace 1.16, written by Peter Selinger 2001-2019
</metadata>
<g transform="translate(0.000000,166.000000) scale(0.100000,-0.100000)"
fill="#000000" stroke="none">
<path d="M650 1248 c0 -35 -3 -114 -7 -176 -6 -106 -7 -112 -26 -106 -17 5
-19 3 -13 -22 4 -16 12 -32 18 -35 6 -4 6 -39 -1 -102 -13 -112 -14 -187 -3
-187 25 1 35 23 38 86 2 38 6 95 10 127 l6 57 76 0 c66 0 125 7 285 35 l27 4
0 -137 c0 -75 5 -153 10 -173 11 -38 39 -56 59 -36 16 16 13 30 -9 50 -19 16
-20 29 -20 338 l0 321 -22 -14 c-22 -15 -23 -19 -19 -162 1 -80 -1 -146 -6
-146 -4 0 -62 -9 -128 -20 -66 -11 -148 -20 -183 -20 l-62 0 2 187 c3 172 2
188 -14 191 -16 3 -18 -5 -18 -60z"/>
</g>
</svg>
