<?xml version="1.0" standalone="no"?>
<!DOCTYPE svg PUBLIC "-//W3C//DTD SVG 20010904//EN"
 "http://www.w3.org/TR/2001/REC-SVG-20010904/DTD/svg10.dtd">
<svg version="1.0" xmlns="http://www.w3.org/2000/svg"
 width="166.000000pt" height="82.000000pt" viewBox="0 0 166.000000 82.000000"
 preserveAspectRatio="xMidYMid meet">
<metadata>
Created by potrace 1.16, written by Peter Selinger 2001-2019
</metadata>
<g transform="translate(0.000000,82.000000) scale(0.100000,-0.100000)"
fill="#000000" stroke="none">
<path d="M175 410 c0 -228 1 -322 2 -208 2 115 2 301 0 415 -1 115 -2 21 -2
-207z"/>
<path d="M736 768 c-9 -29 -29 -116 -46 -193 -17 -77 -49 -219 -71 -315 -49
-210 -46 -194 -35 -200 10 -6 27 46 49 150 60 275 129 584 134 596 3 8 0 14
-6 14 -6 0 -17 -24 -25 -52z"/>
<path d="M1455 410 c0 -228 1 -322 2 -208 2 115 2 301 0 415 -1 115 -2 21 -2
-207z"/>
<path d="M1003 688 c-21 -18 -102 -98 -180 -177 l-143 -144 56 -34 c31 -19 61
-39 68 -46 6 -7 53 -59 105 -117 51 -58 97 -106 102 -108 26 -10 1 31 -57 93
-36 39 -82 90 -102 114 -20 24 -59 56 -87 72 l-52 29 150 151 c98 100 152 148
157 140 5 -8 12 -4 23 13 36 54 16 60 -40 14z"/>
</g>
</svg>
