<?xml version="1.0" standalone="no"?>
<!DOCTYPE svg PUBLIC "-//W3C//DTD SVG 20010904//EN"
 "http://www.w3.org/TR/2001/REC-SVG-20010904/DTD/svg10.dtd">
<svg version="1.0" xmlns="http://www.w3.org/2000/svg"
 width="166.000000pt" height="82.000000pt" viewBox="0 0 166.000000 82.000000"
 preserveAspectRatio="xMidYMid meet">
<metadata>
Created by potrace 1.16, written by Peter Selinger 2001-2019
</metadata>
<g transform="translate(0.000000,82.000000) scale(0.100000,-0.100000)"
fill="#000000" stroke="none">
<path d="M175 410 c0 -228 1 -322 2 -208 2 115 2 301 0 415 -1 115 -2 21 -2
-207z"/>
<path d="M576 788 c-48 -113 -234 -773 -222 -786 4 -3 8 -3 10 -1 2 2 29 98
61 214 59 217 115 408 135 460 l12 30 13 -30 c16 -37 19 -23 5 27 -8 29 -7 45
5 73 17 42 32 42 58 -2 24 -41 41 -129 71 -364 26 -198 42 -269 62 -276 6 -2
28 22 49 54 21 32 81 119 135 193 53 74 113 162 134 195 22 34 36 49 32 35 -3
-14 -9 -157 -13 -317 -5 -220 -3 -293 5 -293 9 0 12 42 12 148 1 171 16 497
26 530 13 46 -15 19 -60 -57 -50 -86 -303 -444 -316 -449 -12 -4 -25 69 -50
263 -38 304 -61 378 -117 383 -29 3 -34 -1 -47 -30z"/>
<path d="M1465 410 c0 -228 1 -322 2 -208 2 115 2 301 0 415 -1 115 -2 21 -2
-207z"/>
</g>
</svg>
