<?xml version="1.0" standalone="no"?>
<!DOCTYPE svg PUBLIC "-//W3C//DTD SVG 20010904//EN"
 "http://www.w3.org/TR/2001/REC-SVG-20010904/DTD/svg10.dtd">
<svg version="1.0" xmlns="http://www.w3.org/2000/svg"
 width="166.000000pt" height="82.000000pt" viewBox="0 0 166.000000 82.000000"
 preserveAspectRatio="xMidYMid meet">
<metadata>
Created by potrace 1.16, written by Peter Selinger 2001-2019
</metadata>
<g transform="translate(0.000000,82.000000) scale(0.100000,-0.100000)"
fill="#000000" stroke="none">
<path d="M175 410 c0 -228 1 -322 2 -208 2 115 2 301 0 415 -1 115 -2 21 -2
-207z"/>
<path d="M796 783 c-3 -21 -8 -65 -12 -98 -10 -96 -52 -372 -79 -519 -27 -149
-29 -166 -16 -166 5 0 11 19 15 43 4 23 14 81 23 129 l16 88 86 51 c258 155
334 233 362 370 12 63 -2 139 -26 139 -12 0 -12 -4 1 -27 46 -89 -17 -238
-140 -329 -75 -56 -268 -176 -273 -170 -2 2 7 80 21 172 13 93 27 198 31 234
3 36 8 77 11 93 3 15 1 27 -4 27 -6 0 -13 -17 -16 -37z"/>
<path d="M870 811 c0 -5 5 -13 10 -16 6 -3 10 -2 10 4 0 5 -4 13 -10 16 -5 3
-10 2 -10 -4z"/>
<path d="M1455 410 c0 -228 1 -322 2 -208 2 115 2 301 0 415 -1 115 -2 21 -2
-207z"/>
</g>
</svg>
