<?xml version="1.0" standalone="no"?>
<!DOCTYPE svg PUBLIC "-//W3C//DTD SVG 20010904//EN"
 "http://www.w3.org/TR/2001/REC-SVG-20010904/DTD/svg10.dtd">
<svg version="1.0" xmlns="http://www.w3.org/2000/svg"
 width="166.000000pt" height="82.000000pt" viewBox="0 0 166.000000 82.000000"
 preserveAspectRatio="xMidYMid meet">
<metadata>
Created by potrace 1.16, written by Peter Selinger 2001-2019
</metadata>
<g transform="translate(0.000000,82.000000) scale(0.100000,-0.100000)"
fill="#000000" stroke="none">
<path d="M175 410 c0 -228 1 -322 2 -208 2 115 2 301 0 415 -1 115 -2 21 -2
-207z"/>
<path d="M945 797 c-70 -51 -154 -179 -207 -311 -64 -164 -57 -331 18 -397 64
-56 193 -83 281 -59 36 10 62 28 104 72 31 32 59 58 62 58 3 0 25 -35 48 -77
49 -91 47 -88 55 -80 4 3 -17 48 -44 100 -29 54 -47 98 -42 103 21 22 90 175
105 234 22 84 17 212 -10 255 -51 82 -76 90 -163 54 -68 -29 -57 -44 13 -17
74 28 97 20 129 -44 21 -42 26 -66 26 -128 0 -42 -7 -101 -16 -131 -18 -61
-90 -209 -102 -209 -13 0 -134 249 -128 265 3 8 1 15 -5 15 -27 0 -15 -41 51
-170 l71 -141 -36 -45 c-20 -24 -53 -56 -72 -72 -34 -25 -44 -27 -127 -27 -81
0 -97 3 -142 28 -97 54 -125 159 -85 317 24 94 93 238 152 318 39 51 95 95
135 105 13 3 9 5 -11 6 -16 0 -43 -10 -60 -22z"/>
<path d="M1070 816 c0 -2 11 -6 25 -8 14 -3 25 -1 25 3 0 5 -11 9 -25 9 -14 0
-25 -2 -25 -4z"/>
<path d="M1455 410 c0 -228 1 -322 2 -208 2 115 2 301 0 415 -1 115 -2 21 -2
-207z"/>
</g>
</svg>
