<?xml version="1.0" standalone="no"?>
<!DOCTYPE svg PUBLIC "-//W3C//DTD SVG 20010904//EN"
 "http://www.w3.org/TR/2001/REC-SVG-20010904/DTD/svg10.dtd">
<svg version="1.0" xmlns="http://www.w3.org/2000/svg"
 width="166.000000pt" height="82.000000pt" viewBox="0 0 166.000000 82.000000"
 preserveAspectRatio="xMidYMid meet">
<metadata>
Created by potrace 1.16, written by Peter Selinger 2001-2019
</metadata>
<g transform="translate(0.000000,82.000000) scale(0.100000,-0.100000)"
fill="#000000" stroke="none">
<path d="M175 410 c0 -228 1 -322 2 -208 2 115 2 301 0 415 -1 115 -2 21 -2
-207z"/>
<path d="M731 768 c-39 -198 -47 -472 -17 -573 31 -105 92 -195 130 -195 11 0
5 10 -18 31 -85 74 -123 219 -112 429 5 114 28 299 42 343 3 9 1 17 -5 17 -5
0 -14 -24 -20 -52z"/>
<path d="M1455 410 c0 -228 1 -322 2 -208 2 115 2 301 0 415 -1 115 -2 21 -2
-207z"/>
<path d="M1276 688 c-50 -321 -159 -618 -245 -671 -24 -15 -25 -16 -5 -17 31
0 81 61 121 147 42 91 104 308 137 481 28 140 31 172 18 172 -4 0 -16 -50 -26
-112z"/>
</g>
</svg>
