<?xml version="1.0" standalone="no"?>
<!DOCTYPE svg PUBLIC "-//W3C//DTD SVG 20010904//EN"
 "http://www.w3.org/TR/2001/REC-SVG-20010904/DTD/svg10.dtd">
<svg version="1.0" xmlns="http://www.w3.org/2000/svg"
 width="166.000000pt" height="82.000000pt" viewBox="0 0 166.000000 82.000000"
 preserveAspectRatio="xMidYMid meet">
<metadata>
Created by potrace 1.16, written by Peter Selinger 2001-2019
</metadata>
<g transform="translate(0.000000,82.000000) scale(0.100000,-0.100000)"
fill="#000000" stroke="none">
<path d="M175 410 c0 -228 1 -322 2 -208 2 115 2 301 0 415 -1 115 -2 21 -2
-207z"/>
<path d="M560 688 c0 -73 -5 -182 -11 -243 -13 -131 -16 -351 -5 -382 9 -29
31 -29 50 0 11 16 172 402 224 539 4 9 6 -90 4 -220 -4 -240 4 -309 35 -319 7
-3 21 14 33 37 31 62 135 363 174 508 19 70 42 146 50 170 12 32 12 42 3 42
-15 0 -27 -31 -62 -165 -51 -195 -173 -546 -192 -552 -7 -3 -14 14 -19 43 -7
49 2 478 12 552 9 61 -11 53 -30 -12 -14 -47 -199 -508 -236 -588 -7 -16 -16
-28 -20 -28 -16 0 -20 111 -10 240 18 233 24 510 11 510 -8 0 -11 -39 -11
-132z"/>
<path d="M1465 410 c0 -228 1 -322 2 -208 2 115 2 301 0 415 -1 115 -2 21 -2
-207z"/>
</g>
</svg>
