<?xml version="1.0" standalone="no"?>
<!DOCTYPE svg PUBLIC "-//W3C//DTD SVG 20010904//EN"
 "http://www.w3.org/TR/2001/REC-SVG-20010904/DTD/svg10.dtd">
<svg version="1.0" xmlns="http://www.w3.org/2000/svg"
 width="166.000000pt" height="82.000000pt" viewBox="0 0 166.000000 82.000000"
 preserveAspectRatio="xMidYMid meet">
<metadata>
Created by potrace 1.16, written by Peter Selinger 2001-2019
</metadata>
<g transform="translate(0.000000,82.000000) scale(0.100000,-0.100000)"
fill="#000000" stroke="none">
<path d="M175 410 c0 -228 1 -322 2 -208 2 115 2 301 0 415 -1 115 -2 21 -2
-207z"/>
<path d="M932 665 l5 -155 -71 0 c-85 0 -204 -24 -225 -45 -19 -19 -5 -19 50
1 64 22 238 31 250 13 19 -31 2 -243 -34 -412 -11 -50 -12 -67 -3 -67 23 0 70
305 64 419 -3 65 -1 71 17 72 57 1 111 12 123 23 10 9 -4 10 -65 5 -43 -4 -79
-6 -81 -5 -6 7 -19 243 -14 274 3 21 0 32 -8 32 -10 0 -12 -35 -8 -155z"/>
<path d="M1455 410 c0 -228 1 -322 2 -208 2 115 2 301 0 415 -1 115 -2 21 -2
-207z"/>
</g>
</svg>
