<?xml version="1.0" standalone="no"?>
<!DOCTYPE svg PUBLIC "-//W3C//DTD SVG 20010904//EN"
 "http://www.w3.org/TR/2001/REC-SVG-20010904/DTD/svg10.dtd">
<svg version="1.0" xmlns="http://www.w3.org/2000/svg"
 width="166.000000pt" height="82.000000pt" viewBox="0 0 166.000000 82.000000"
 preserveAspectRatio="xMidYMid meet">
<metadata>
Created by potrace 1.16, written by Peter Selinger 2001-2019
</metadata>
<g transform="translate(0.000000,82.000000) scale(0.100000,-0.100000)"
fill="#000000" stroke="none">
<path d="M185 410 c0 -228 1 -322 2 -208 2 115 2 301 0 415 -1 115 -2 21 -2
-207z"/>
<path d="M1465 410 c0 -228 1 -322 2 -208 2 115 2 301 0 415 -1 115 -2 21 -2
-207z"/>
<path d="M715 428 c-9 -28 -98 -375 -103 -402 -8 -48 15 -21 27 32 6 26 30
122 55 215 24 92 40 167 35 167 -5 0 -12 -6 -14 -12z"/>
<path d="M822 310 c-34 -24 -52 -52 -96 -143 -30 -61 -58 -125 -62 -141 -11
-45 10 -24 31 31 50 133 113 231 165 258 25 13 30 13 40 -1 16 -19 7 -129 -19
-236 l-18 -78 21 0 c15 1 32 20 63 73 53 90 129 187 147 187 28 0 35 -106 12
-202 -11 -47 -11 -58 -1 -58 18 0 39 123 33 199 -5 73 -24 99 -57 82 -24 -13
-114 -131 -156 -204 -15 -26 -29 -47 -30 -45 -2 2 3 29 10 61 21 91 29 201 16
226 -16 29 -50 26 -99 -9z"/>
</g>
</svg>
