<?xml version="1.0" standalone="no"?>
<!DOCTYPE svg PUBLIC "-//W3C//DTD SVG 20010904//EN"
 "http://www.w3.org/TR/2001/REC-SVG-20010904/DTD/svg10.dtd">
<svg version="1.0" xmlns="http://www.w3.org/2000/svg"
 width="166.000000pt" height="82.000000pt" viewBox="0 0 166.000000 82.000000"
 preserveAspectRatio="xMidYMid meet">
<metadata>
Created by potrace 1.16, written by Peter Selinger 2001-2019
</metadata>
<g transform="translate(0.000000,82.000000) scale(0.100000,-0.100000)"
fill="#000000" stroke="none">
<path d="M185 410 c0 -228 1 -322 2 -208 2 115 2 301 0 415 -1 115 -2 21 -2
-207z"/>
<path d="M683 798 c-15 -16 -23 -37 -23 -60 0 -20 -13 -74 -29 -120 -32 -90
-153 -477 -171 -546 -6 -24 -14 -50 -17 -58 -3 -8 1 -14 10 -14 9 0 17 14 22
36 12 68 159 540 189 608 7 17 22 57 32 90 14 42 25 61 42 67 74 28 269 -16
316 -72 46 -54 28 -148 -64 -335 -94 -190 -183 -275 -365 -348 -112 -45 -115
-47 -67 -42 69 7 222 88 294 155 119 111 248 378 248 512 0 49 -35 90 -102
120 -44 19 -74 24 -173 27 -116 4 -121 3 -142 -20z"/>
<path d="M1465 410 c0 -228 1 -322 2 -208 2 115 2 301 0 415 -1 115 -2 21 -2
-207z"/>
</g>
</svg>
