<?xml version="1.0" standalone="no"?>
<!DOCTYPE svg PUBLIC "-//W3C//DTD SVG 20010904//EN"
 "http://www.w3.org/TR/2001/REC-SVG-20010904/DTD/svg10.dtd">
<svg version="1.0" xmlns="http://www.w3.org/2000/svg"
 width="166.000000pt" height="82.000000pt" viewBox="0 0 166.000000 82.000000"
 preserveAspectRatio="xMidYMid meet">
<metadata>
Created by potrace 1.16, written by Peter Selinger 2001-2019
</metadata>
<g transform="translate(0.000000,82.000000) scale(0.100000,-0.100000)"
fill="#000000" stroke="none">
<path d="M185 410 c0 -228 1 -322 2 -208 2 115 2 301 0 415 -1 115 -2 21 -2
-207z"/>
<path d="M1465 410 c0 -228 1 -322 2 -208 2 115 2 301 0 415 -1 115 -2 21 -2
-207z"/>
<path d="M460 703 c-20 -7 -50 -34 -50 -44 0 -5 15 0 33 11 50 31 114 27 159
-10 68 -56 74 -148 17 -268 -42 -88 -108 -168 -214 -262 -33 -29 -75 -66 -92
-82 -18 -16 -33 -33 -33 -38 0 -6 32 -10 73 -10 61 0 94 7 188 41 63 22 141
46 173 53 33 6 61 17 64 24 7 21 -71 4 -245 -54 -89 -30 -176 -54 -193 -54
-29 0 -23 7 109 137 125 124 143 147 181 224 54 111 62 183 28 249 -31 60 -78
90 -137 89 -25 0 -53 -3 -61 -6z"/>
</g>
</svg>
