<?xml version="1.0" standalone="no"?>
<!DOCTYPE svg PUBLIC "-//W3C//DTD SVG 20010904//EN"
 "http://www.w3.org/TR/2001/REC-SVG-20010904/DTD/svg10.dtd">
<svg version="1.0" xmlns="http://www.w3.org/2000/svg"
 width="166.000000pt" height="82.000000pt" viewBox="0 0 166.000000 82.000000"
 preserveAspectRatio="xMidYMid meet">
<metadata>
Created by potrace 1.16, written by Peter Selinger 2001-2019
</metadata>
<g transform="translate(0.000000,82.000000) scale(0.100000,-0.100000)"
fill="#000000" stroke="none">
<path d="M185 410 c0 -228 1 -322 2 -208 2 115 2 301 0 415 -1 115 -2 21 -2
-207z"/>
<path d="M1465 410 c0 -228 1 -322 2 -208 2 115 2 301 0 415 -1 115 -2 21 -2
-207z"/>
<path d="M730 723 c-57 -65 -123 -207 -151 -323 -30 -126 -34 -331 -6 -373 9
-15 24 -27 33 -27 11 0 10 7 -8 31 -21 29 -23 40 -22 157 2 148 30 275 88 395
40 84 110 169 131 160 8 -3 15 -1 15 5 0 8 -22 22 -35 22 -2 0 -22 -21 -45
-47z"/>
<path d="M681 259 c-60 -21 -91 -44 -91 -67 0 -12 6 -10 24 7 24 23 130 61
170 61 12 0 32 -7 45 -16 18 -13 22 -22 17 -47 -8 -39 -55 -113 -103 -160 -23
-24 -31 -37 -21 -37 39 0 148 159 148 217 0 12 -12 31 -26 42 -34 26 -90 26
-163 0z"/>
</g>
</svg>
