<?xml version="1.0" standalone="no"?>
<!DOCTYPE svg PUBLIC "-//W3C//DTD SVG 20010904//EN"
 "http://www.w3.org/TR/2001/REC-SVG-20010904/DTD/svg10.dtd">
<svg version="1.0" xmlns="http://www.w3.org/2000/svg"
 width="166.000000pt" height="82.000000pt" viewBox="0 0 166.000000 82.000000"
 preserveAspectRatio="xMidYMid meet">
<metadata>
Created by potrace 1.16, written by Peter Selinger 2001-2019
</metadata>
<g transform="translate(0.000000,82.000000) scale(0.100000,-0.100000)"
fill="#000000" stroke="none">
<path d="M175 410 c0 -228 1 -322 2 -208 2 115 2 301 0 415 -1 115 -2 21 -2
-207z"/>
<path d="M1455 410 c0 -228 1 -322 2 -208 2 115 2 301 0 415 -1 115 -2 21 -2
-207z"/>
<path d="M1040 734 c-25 -8 -92 -21 -150 -29 -137 -20 -273 -47 -284 -57 -16
-13 47 -9 116 6 35 8 115 22 178 30 117 15 210 41 210 57 0 12 -15 10 -70 -7z"/>
<path d="M681 478 c-7 -62 -24 -189 -37 -281 -27 -190 -28 -197 -15 -197 5 0
14 38 21 84 l12 84 106 39 c59 22 142 50 185 63 73 22 137 63 123 77 -3 4 -12
-1 -19 -10 -6 -9 -79 -39 -162 -66 -82 -26 -168 -56 -189 -65 l-39 -18 6 59
c4 32 14 116 22 187 8 71 11 135 6 143 -4 8 -13 -32 -20 -99z"/>
</g>
</svg>
