<?xml version="1.0" standalone="no"?>
<!DOCTYPE svg PUBLIC "-//W3C//DTD SVG 20010904//EN"
 "http://www.w3.org/TR/2001/REC-SVG-20010904/DTD/svg10.dtd">
<svg version="1.0" xmlns="http://www.w3.org/2000/svg"
 width="166.000000pt" height="82.000000pt" viewBox="0 0 166.000000 82.000000"
 preserveAspectRatio="xMidYMid meet">
<metadata>
Created by potrace 1.16, written by Peter Selinger 2001-2019
</metadata>
<g transform="translate(0.000000,82.000000) scale(0.100000,-0.100000)"
fill="#000000" stroke="none">
<path d="M185 410 c0 -228 1 -322 2 -208 2 115 2 301 0 415 -1 115 -2 21 -2
-207z"/>
<path d="M662 757 c-11 -35 -29 -103 -41 -153 -12 -49 -28 -113 -37 -142 -9
-30 -13 -56 -11 -59 13 -12 38 52 62 159 14 64 36 148 50 187 18 54 21 71 10
71 -7 0 -22 -27 -33 -63z"/>
<path d="M1465 410 c0 -228 1 -322 2 -208 2 115 2 301 0 415 -1 115 -2 21 -2
-207z"/>
<path d="M618 26 c-28 -21 -22 -26 32 -26 43 0 50 3 50 20 0 16 -7 20 -32 20
-18 0 -41 -7 -50 -14z"/>
</g>
</svg>
