<?xml version="1.0" standalone="no"?>
<!DOCTYPE svg PUBLIC "-//W3C//DTD SVG 20010904//EN"
 "http://www.w3.org/TR/2001/REC-SVG-20010904/DTD/svg10.dtd">
<svg version="1.0" xmlns="http://www.w3.org/2000/svg"
 width="166.000000pt" height="82.000000pt" viewBox="0 0 166.000000 82.000000"
 preserveAspectRatio="xMidYMid meet">
<metadata>
Created by potrace 1.16, written by Peter Selinger 2001-2019
</metadata>
<g transform="translate(0.000000,82.000000) scale(0.100000,-0.100000)"
fill="#000000" stroke="none">
<path d="M175 410 c0 -228 1 -322 2 -208 2 115 2 301 0 415 -1 115 -2 21 -2
-207z"/>
<path d="M705 759 c-67 -63 -149 -175 -160 -220 -3 -13 -2 -37 4 -51 17 -46
60 -60 210 -67 l135 -6 -2 -50 c-8 -172 -26 -351 -36 -357 -6 -4 7 -8 29 -8
60 0 121 33 190 103 72 74 115 153 115 212 0 81 -51 115 -183 123 l-89 5 7
188 c5 126 4 189 -3 189 -6 0 -13 -74 -17 -191 l-7 -192 -132 5 c-144 6 -181
15 -198 52 -9 21 -7 34 15 78 30 61 109 154 180 209 38 30 44 39 28 39 -11 0
-50 -27 -86 -61z m379 -350 c120 -33 113 -151 -19 -284 -52 -53 -161 -123
-173 -111 -4 5 17 348 24 384 4 20 10 22 67 22 34 0 79 -5 101 -11z"/>
<path d="M1455 410 c0 -228 1 -322 2 -208 2 115 2 301 0 415 -1 115 -2 21 -2
-207z"/>
<path d="M685 77 c-23 -43 -17 -71 15 -75 22 -2 23 -1 8 8 -20 12 -23 42 -7
72 6 11 9 22 6 24 -2 2 -12 -11 -22 -29z"/>
</g>
</svg>
