<?xml version="1.0" standalone="no"?>
<!DOCTYPE svg PUBLIC "-//W3C//DTD SVG 20010904//EN"
 "http://www.w3.org/TR/2001/REC-SVG-20010904/DTD/svg10.dtd">
<svg version="1.0" xmlns="http://www.w3.org/2000/svg"
 width="166.000000pt" height="82.000000pt" viewBox="0 0 166.000000 82.000000"
 preserveAspectRatio="xMidYMid meet">
<metadata>
Created by potrace 1.16, written by Peter Selinger 2001-2019
</metadata>
<g transform="translate(0.000000,82.000000) scale(0.100000,-0.100000)"
fill="#000000" stroke="none">
<path d="M175 410 c0 -228 1 -322 2 -208 2 115 2 301 0 415 -1 115 -2 21 -2
-207z"/>
<path d="M1455 410 c0 -228 1 -322 2 -208 2 115 2 301 0 415 -1 115 -2 21 -2
-207z"/>
<path d="M900 773 c-135 -93 -275 -371 -295 -584 -7 -78 8 -189 26 -189 5 0 6
11 2 27 -16 56 -7 215 16 298 58 213 230 455 313 443 21 -3 23 -8 26 -68 2
-74 9 -110 20 -110 11 0 2 173 -10 187 -15 18 -69 16 -98 -4z"/>
<path d="M1065 279 c-49 -22 -127 -53 -173 -69 -88 -30 -108 -40 -75 -40 27 0
117 31 236 82 53 23 99 39 102 36 3 -3 -8 -48 -24 -100 -34 -111 -48 -188 -33
-188 5 0 13 17 16 37 4 21 20 84 37 140 30 101 33 133 14 139 -5 2 -50 -15
-100 -37z"/>
<path d="M989 53 c-16 -33 -21 -53 -14 -53 14 0 48 72 43 91 -1 8 -15 -10 -29
-38z"/>
</g>
</svg>
