<?xml version="1.0" standalone="no"?>
<!DOCTYPE svg PUBLIC "-//W3C//DTD SVG 20010904//EN"
 "http://www.w3.org/TR/2001/REC-SVG-20010904/DTD/svg10.dtd">
<svg version="1.0" xmlns="http://www.w3.org/2000/svg"
 width="166.000000pt" height="82.000000pt" viewBox="0 0 166.000000 82.000000"
 preserveAspectRatio="xMidYMid meet">
<metadata>
Created by potrace 1.16, written by Peter Selinger 2001-2019
</metadata>
<g transform="translate(0.000000,82.000000) scale(0.100000,-0.100000)"
fill="#000000" stroke="none">
<path d="M185 410 c0 -228 1 -322 2 -208 2 115 2 301 0 415 -1 115 -2 21 -2
-207z"/>
<path d="M1465 410 c0 -228 1 -322 2 -208 2 115 2 301 0 415 -1 115 -2 21 -2
-207z"/>
<path d="M737 543 c-4 -3 -7 -32 -7 -63 0 -31 -3 -84 -6 -117 l-7 -61 -59 -6
c-59 -7 -207 -42 -216 -51 -14 -14 12 -12 83 5 44 11 104 23 134 27 l54 6 -6
-74 c-4 -41 -10 -105 -13 -144 -4 -41 -3 -67 2 -62 5 5 16 70 24 145 l15 137
140 6 c77 3 148 9 158 14 30 13 18 24 -15 14 -18 -5 -88 -9 -156 -9 l-124 0 7
120 c7 115 6 128 -8 113z"/>
</g>
</svg>
