<?xml version="1.0" standalone="no"?>
<!DOCTYPE svg PUBLIC "-//W3C//DTD SVG 20010904//EN"
 "http://www.w3.org/TR/2001/REC-SVG-20010904/DTD/svg10.dtd">
<svg version="1.0" xmlns="http://www.w3.org/2000/svg"
 width="166.000000pt" height="82.000000pt" viewBox="0 0 166.000000 82.000000"
 preserveAspectRatio="xMidYMid meet">
<metadata>
Created by potrace 1.16, written by Peter Selinger 2001-2019
</metadata>
<g transform="translate(0.000000,82.000000) scale(0.100000,-0.100000)"
fill="#000000" stroke="none">
<path d="M175 410 c0 -228 1 -322 2 -208 2 115 2 301 0 415 -1 115 -2 21 -2
-207z"/>
<path d="M1455 410 c0 -228 1 -322 2 -208 2 115 2 301 0 415 -1 115 -2 21 -2
-207z"/>
<path d="M1260 667 c-115 -50 -281 -142 -348 -192 -52 -39 -232 -223 -240
-246 -2 -4 7 -10 20 -13 13 -3 37 -8 53 -11 17 -4 99 -40 184 -81 84 -42 155
-73 158 -70 7 7 -16 36 -27 36 -5 0 -71 30 -147 66 -76 36 -153 68 -170 71
-18 3 -33 9 -33 13 0 3 44 52 98 107 113 117 187 168 388 265 79 38 144 74
144 79 0 12 6 14 -80 -24z"/>
</g>
</svg>
