<?xml version="1.0" standalone="no"?>
<!DOCTYPE svg PUBLIC "-//W3C//DTD SVG 20010904//EN"
 "http://www.w3.org/TR/2001/REC-SVG-20010904/DTD/svg10.dtd">
<svg version="1.0" xmlns="http://www.w3.org/2000/svg"
 width="138.000000pt" height="166.000000pt" viewBox="0 0 138.000000 166.000000"
 preserveAspectRatio="xMidYMid meet">
<metadata>
Created by potrace 1.16, written by Peter Selinger 2001-2019
</metadata>
<g transform="translate(0.000000,166.000000) scale(0.100000,-0.100000)"
fill="#000000" stroke="none">
<path d="M342 1273 c192 -2 504 -2 695 0 192 1 35 2 -347 2 -382 0 -539 -1
-348 -2z"/>
<path d="M666 1201 c-12 -13 -23 -55 -32 -118 -22 -148 -50 -256 -84 -323 -17
-34 -28 -65 -25 -70 15 -24 36 -5 65 58 l32 67 53 3 c30 2 68 7 86 12 17 5 36
7 40 4 5 -3 11 -27 15 -54 5 -40 10 -50 25 -50 14 0 19 7 19 29 0 40 -43 174
-91 285 -21 49 -39 91 -39 93 0 2 7 3 15 3 8 0 15 9 15 20 0 11 -7 20 -15 20
-8 0 -23 9 -32 20 -22 25 -26 25 -47 1z m69 -186 c26 -63 45 -120 42 -128 -6
-16 -50 -27 -107 -27 l-37 0 13 58 c7 31 19 92 25 135 6 42 12 77 14 77 1 0
24 -52 50 -115z"/>
<path d="M342 413 c192 -2 504 -2 695 0 192 1 35 2 -347 2 -382 0 -539 -1
-348 -2z"/>
</g>
</svg>
