<?xml version="1.0" standalone="no"?>
<!DOCTYPE svg PUBLIC "-//W3C//DTD SVG 20010904//EN"
 "http://www.w3.org/TR/2001/REC-SVG-20010904/DTD/svg10.dtd">
<svg version="1.0" xmlns="http://www.w3.org/2000/svg"
 width="138.000000pt" height="166.000000pt" viewBox="0 0 138.000000 166.000000"
 preserveAspectRatio="xMidYMid meet">
<metadata>
Created by potrace 1.16, written by Peter Selinger 2001-2019
</metadata>
<g transform="translate(0.000000,166.000000) scale(0.100000,-0.100000)"
fill="#000000" stroke="none">
<path d="M342 1273 c192 -2 504 -2 695 0 192 1 35 2 -347 2 -382 0 -539 -1
-348 -2z"/>
<path d="M439 1192 c-10 -19 -14 -73 -14 -189 0 -89 -3 -165 -7 -168 -8 -8 2
-45 12 -45 5 0 12 -30 15 -67 10 -94 18 -105 44 -63 12 20 17 38 12 44 -5 6
-12 25 -15 43 -6 27 -5 31 11 28 10 -3 56 -11 103 -20 47 -9 114 -25 149 -36
52 -16 66 -18 72 -7 14 21 12 23 -38 41 -39 14 -279 67 -302 67 -3 0 26 15 64
34 78 37 116 73 139 128 19 45 20 114 2 147 -13 23 -14 21 -21 -40 -10 -82
-19 -107 -56 -145 -33 -35 -125 -82 -136 -70 -4 4 -8 66 -8 137 0 106 3 133
15 142 19 15 15 39 -9 54 -16 10 -21 7 -32 -15z"/>
<path d="M342 413 c192 -2 504 -2 695 0 192 1 35 2 -347 2 -382 0 -539 -1
-348 -2z"/>
</g>
</svg>
