<?xml version="1.0" standalone="no"?>
<!DOCTYPE svg PUBLIC "-//W3C//DTD SVG 20010904//EN"
 "http://www.w3.org/TR/2001/REC-SVG-20010904/DTD/svg10.dtd">
<svg version="1.0" xmlns="http://www.w3.org/2000/svg"
 width="138.000000pt" height="166.000000pt" viewBox="0 0 138.000000 166.000000"
 preserveAspectRatio="xMidYMid meet">
<metadata>
Created by potrace 1.16, written by Peter Selinger 2001-2019
</metadata>
<g transform="translate(0.000000,166.000000) scale(0.100000,-0.100000)"
fill="#000000" stroke="none">
<path d="M342 1273 c192 -2 504 -2 695 0 192 1 35 2 -347 2 -382 0 -539 -1
-348 -2z"/>
<path d="M381 1199 c-24 -39 -27 -130 -11 -282 6 -65 6 -94 -3 -108 -9 -15 -8
-21 5 -31 14 -10 19 -37 24 -120 6 -93 9 -108 24 -108 14 0 18 13 23 68 4 37
7 88 7 113 0 45 0 46 43 58 116 34 237 157 237 241 0 55 -189 189 -280 198
-47 4 -50 3 -69 -29z m148 -44 c37 -20 88 -54 114 -78 40 -36 46 -46 40 -70
-9 -45 -87 -123 -159 -158 -35 -18 -67 -29 -71 -25 -4 4 -8 55 -10 114 -1 59
-3 111 -3 116 0 4 -9 6 -20 3 -18 -5 -20 0 -20 38 0 61 15 95 41 95 11 0 51
-16 88 -35z"/>
<path d="M342 403 c192 -2 504 -2 695 0 192 1 35 2 -347 2 -382 0 -539 -1
-348 -2z"/>
</g>
</svg>
