<?xml version="1.0" standalone="no"?>
<!DOCTYPE svg PUBLIC "-//W3C//DTD SVG 20010904//EN"
 "http://www.w3.org/TR/2001/REC-SVG-20010904/DTD/svg10.dtd">
<svg version="1.0" xmlns="http://www.w3.org/2000/svg"
 width="138.000000pt" height="166.000000pt" viewBox="0 0 138.000000 166.000000"
 preserveAspectRatio="xMidYMid meet">
<metadata>
Created by potrace 1.16, written by Peter Selinger 2001-2019
</metadata>
<g transform="translate(0.000000,166.000000) scale(0.100000,-0.100000)"
fill="#000000" stroke="none">
<path d="M342 1273 c192 -2 504 -2 695 0 192 1 35 2 -347 2 -382 0 -539 -1
-348 -2z"/>
<path d="M415 1153 c-11 -11 -15 -26 -11 -44 3 -15 -1 -62 -9 -104 -8 -42 -15
-101 -15 -131 0 -52 -1 -54 -35 -68 -38 -16 -47 -45 -15 -53 14 -4 21 -17 25
-52 7 -51 33 -121 46 -121 19 0 29 42 23 95 -4 30 -3 55 2 55 19 0 171 -31
214 -44 26 -8 66 -24 90 -36 34 -18 44 -19 51 -8 14 22 11 26 -46 52 -54 26
-177 59 -267 72 -55 7 -60 15 -20 30 46 18 147 101 167 137 23 44 17 122 -14
166 -44 61 -149 92 -186 54z m112 -44 c41 -25 63 -66 63 -114 0 -29 -8 -43
-45 -78 -24 -24 -63 -54 -86 -66 l-42 -24 7 79 c3 43 9 90 13 104 7 24 8 23
19 -15 12 -39 12 -38 13 42 1 56 -3 83 -11 86 -7 3 -2 6 11 6 13 1 39 -8 58
-20z"/>
<path d="M342 403 c192 -2 504 -2 695 0 192 1 35 2 -347 2 -382 0 -539 -1
-348 -2z"/>
</g>
</svg>
