<?xml version="1.0" standalone="no"?>
<!DOCTYPE svg PUBLIC "-//W3C//DTD SVG 20010904//EN"
 "http://www.w3.org/TR/2001/REC-SVG-20010904/DTD/svg10.dtd">
<svg version="1.0" xmlns="http://www.w3.org/2000/svg"
 width="138.000000pt" height="166.000000pt" viewBox="0 0 138.000000 166.000000"
 preserveAspectRatio="xMidYMid meet">
<metadata>
Created by potrace 1.16, written by Peter Selinger 2001-2019
</metadata>
<g transform="translate(0.000000,166.000000) scale(0.100000,-0.100000)"
fill="#000000" stroke="none">
<path d="M342 1273 c192 -2 504 -2 695 0 192 1 35 2 -347 2 -382 0 -539 -1
-348 -2z"/>
<path d="M635 1114 c-105 -26 -103 -51 18 -169 112 -109 129 -152 69 -187 -41
-23 -92 -29 -152 -18 -41 8 -56 7 -62 -2 -11 -19 16 -35 73 -43 94 -13 179 19
207 78 10 21 10 36 1 69 -9 34 -30 60 -102 129 -86 83 -89 87 -66 95 13 4 63
7 112 6 71 -2 87 0 87 12 0 8 -3 17 -7 19 -13 8 -156 16 -178 11z"/>
<path d="M342 403 c192 -2 504 -2 695 0 192 1 35 2 -347 2 -382 0 -539 -1
-348 -2z"/>
</g>
</svg>
