<?xml version="1.0" standalone="no"?>
<!DOCTYPE svg PUBLIC "-//W3C//DTD SVG 20010904//EN"
 "http://www.w3.org/TR/2001/REC-SVG-20010904/DTD/svg10.dtd">
<svg version="1.0" xmlns="http://www.w3.org/2000/svg"
 width="138.000000pt" height="166.000000pt" viewBox="0 0 138.000000 166.000000"
 preserveAspectRatio="xMidYMid meet">
<metadata>
Created by potrace 1.16, written by Peter Selinger 2001-2019
</metadata>
<g transform="translate(0.000000,166.000000) scale(0.100000,-0.100000)"
fill="#000000" stroke="none">
<path d="M342 1263 c192 -2 504 -2 695 0 192 1 35 2 -347 2 -382 0 -539 -1
-348 -2z"/>
<path d="M710 1118 c-42 -90 -67 -171 -100 -320 -13 -60 -26 -98 -34 -98 -16
0 -46 55 -86 155 -44 112 -86 186 -121 214 -17 13 -32 21 -35 19 -7 -8 27 -81
51 -110 13 -15 38 -65 55 -110 45 -116 87 -196 109 -208 57 -30 74 -4 110 165
26 118 61 227 97 297 25 49 26 78 4 78 -6 0 -29 -37 -50 -82z"/>
<path d="M342 403 c192 -2 504 -2 695 0 192 1 35 2 -347 2 -382 0 -539 -1
-348 -2z"/>
</g>
</svg>
