<?xml version="1.0" standalone="no"?>
<!DOCTYPE svg PUBLIC "-//W3C//DTD SVG 20010904//EN"
 "http://www.w3.org/TR/2001/REC-SVG-20010904/DTD/svg10.dtd">
<svg version="1.0" xmlns="http://www.w3.org/2000/svg"
 width="138.000000pt" height="166.000000pt" viewBox="0 0 138.000000 166.000000"
 preserveAspectRatio="xMidYMid meet">
<metadata>
Created by potrace 1.16, written by Peter Selinger 2001-2019
</metadata>
<g transform="translate(0.000000,166.000000) scale(0.100000,-0.100000)"
fill="#000000" stroke="none">
<path d="M342 1263 c192 -2 504 -2 695 0 192 1 35 2 -347 2 -382 0 -539 -1
-348 -2z"/>
<path d="M670 1125 c-39 -71 -70 -105 -97 -105 -6 0 -28 16 -49 35 -33 32 -36
38 -30 74 4 27 2 42 -8 50 -36 30 -50 -88 -16 -132 11 -14 36 -35 55 -47 20
-13 32 -26 29 -35 -4 -9 0 -12 13 -9 17 5 18 -3 17 -103 0 -59 -3 -115 -7
-123 -4 -8 -2 -22 3 -30 8 -13 12 -13 27 3 15 15 18 36 18 133 0 99 3 117 18
128 9 8 15 20 12 28 -3 8 15 50 40 92 30 51 44 84 40 97 -10 32 -22 22 -65
-56z"/>
<path d="M342 403 c192 -2 504 -2 695 0 192 1 35 2 -347 2 -382 0 -539 -1
-348 -2z"/>
</g>
</svg>
