<?xml version="1.0" standalone="no"?>
<!DOCTYPE svg PUBLIC "-//W3C//DTD SVG 20010904//EN"
 "http://www.w3.org/TR/2001/REC-SVG-20010904/DTD/svg10.dtd">
<svg version="1.0" xmlns="http://www.w3.org/2000/svg"
 width="138.000000pt" height="166.000000pt" viewBox="0 0 138.000000 166.000000"
 preserveAspectRatio="xMidYMid meet">
<metadata>
Created by potrace 1.16, written by Peter Selinger 2001-2019
</metadata>
<g transform="translate(0.000000,166.000000) scale(0.100000,-0.100000)"
fill="#000000" stroke="none">
<path d="M342 1263 c192 -2 504 -2 695 0 192 1 35 2 -347 2 -382 0 -539 -1
-348 -2z"/>
<path d="M735 995 c-67 -35 -135 -142 -135 -214 0 -57 15 -89 45 -97 34 -8 65
6 119 56 l45 41 36 -39 c37 -42 98 -77 115 -67 19 12 10 33 -20 45 -37 15 -90
74 -90 99 0 10 7 32 15 47 8 16 15 43 15 60 0 62 -83 101 -145 69z m86 -43
c21 -18 22 -20 6 -43 -10 -13 -17 -32 -17 -42 0 -22 -83 -113 -121 -133 -90
-46 -44 150 50 213 41 28 52 28 82 5z"/>
<path d="M342 403 c192 -2 504 -2 695 0 192 1 35 2 -347 2 -382 0 -539 -1
-348 -2z"/>
</g>
</svg>
