<?xml version="1.0" standalone="no"?>
<!DOCTYPE svg PUBLIC "-//W3C//DTD SVG 20010904//EN"
 "http://www.w3.org/TR/2001/REC-SVG-20010904/DTD/svg10.dtd">
<svg version="1.0" xmlns="http://www.w3.org/2000/svg"
 width="138.000000pt" height="166.000000pt" viewBox="0 0 138.000000 166.000000"
 preserveAspectRatio="xMidYMid meet">
<metadata>
Created by potrace 1.16, written by Peter Selinger 2001-2019
</metadata>
<g transform="translate(0.000000,166.000000) scale(0.100000,-0.100000)"
fill="#000000" stroke="none">
<path d="M342 1263 c192 -2 504 -2 695 0 192 1 35 2 -347 2 -382 0 -539 -1
-348 -2z"/>
<path d="M728 1033 c-9 -10 -27 -41 -41 -69 -39 -77 -78 -114 -121 -114 -49 0
-74 36 -56 81 19 44 52 63 100 55 42 -7 59 6 40 29 -15 18 -79 20 -113 4 -31
-14 -77 -86 -77 -120 0 -36 34 -76 75 -88 61 -16 108 6 152 73 l28 42 4 -115
c8 -260 8 -277 -15 -308 -50 -67 -106 -64 -169 10 -22 26 -39 37 -50 34 -8 -4
-15 -11 -15 -17 0 -16 79 -98 103 -107 12 -4 -113 -10 -278 -13 -178 -3 -17
-5 395 -5 382 0 531 1 331 2 l-364 3 34 23 c19 12 45 42 57 67 23 43 23 51 17
175 -4 72 -6 185 -5 253 1 67 -3 122 -8 122 -5 0 -16 -8 -24 -17z"/>
</g>
</svg>
