<?xml version="1.0" standalone="no"?>
<!DOCTYPE svg PUBLIC "-//W3C//DTD SVG 20010904//EN"
 "http://www.w3.org/TR/2001/REC-SVG-20010904/DTD/svg10.dtd">
<svg version="1.0" xmlns="http://www.w3.org/2000/svg"
 width="138.000000pt" height="166.000000pt" viewBox="0 0 138.000000 166.000000"
 preserveAspectRatio="xMidYMid meet">
<metadata>
Created by potrace 1.16, written by Peter Selinger 2001-2019
</metadata>
<g transform="translate(0.000000,166.000000) scale(0.100000,-0.100000)"
fill="#000000" stroke="none">
<path d="M342 1273 c192 -2 504 -2 695 0 192 1 35 2 -347 2 -382 0 -539 -1
-348 -2z"/>
<path d="M540 1177 c0 -20 -11 -22 -27 -6 -16 16 -53 1 -53 -21 0 -19 19 -30
53 -30 20 0 22 -5 22 -67 1 -38 2 -120 4 -183 6 -211 -1 -280 -30 -280 -12 0
-19 -7 -19 -20 0 -17 7 -20 43 -20 33 0 64 12 144 57 218 123 311 228 312 353
1 90 -59 168 -158 206 -41 16 -58 16 -156 6 -98 -10 -111 -9 -122 5 -12 16
-13 15 -13 0z m307 -67 c162 -93 130 -254 -80 -397 -80 -56 -198 -123 -215
-123 -5 0 -8 9 -5 20 3 11 11 20 17 20 19 0 32 122 24 213 -4 45 -9 126 -12
179 l-5 97 57 6 c31 3 64 8 72 9 52 12 98 4 147 -24z"/>
<path d="M342 413 c192 -2 504 -2 695 0 192 1 35 2 -347 2 -382 0 -539 -1
-348 -2z"/>
</g>
</svg>
