<?xml version="1.0" standalone="no"?>
<!DOCTYPE svg PUBLIC "-//W3C//DTD SVG 20010904//EN"
 "http://www.w3.org/TR/2001/REC-SVG-20010904/DTD/svg10.dtd">
<svg version="1.0" xmlns="http://www.w3.org/2000/svg"
 width="138.000000pt" height="166.000000pt" viewBox="0 0 138.000000 166.000000"
 preserveAspectRatio="xMidYMid meet">
<metadata>
Created by potrace 1.16, written by Peter Selinger 2001-2019
</metadata>
<g transform="translate(0.000000,166.000000) scale(0.100000,-0.100000)"
fill="#000000" stroke="none">
<path d="M342 1273 c192 -2 504 -2 695 0 192 1 35 2 -347 2 -382 0 -539 -1
-348 -2z"/>
<path d="M485 1059 c-19 -17 -35 -27 -35 -21 0 16 -31 23 -47 11 -11 -10 -11
-14 2 -29 13 -15 15 -34 9 -117 -6 -84 -4 -105 11 -136 18 -40 51 -50 62 -20
4 9 1 63 -6 120 l-13 104 27 35 c24 31 29 34 37 20 11 -19 35 -21 41 -3 5 14
-29 67 -43 67 -5 0 -25 -14 -45 -31z"/>
<path d="M342 413 c192 -2 504 -2 695 0 192 1 35 2 -347 2 -382 0 -539 -1
-348 -2z"/>
</g>
</svg>
