<?xml version="1.0" standalone="no"?>
<!DOCTYPE svg PUBLIC "-//W3C//DTD SVG 20010904//EN"
 "http://www.w3.org/TR/2001/REC-SVG-20010904/DTD/svg10.dtd">
<svg version="1.0" xmlns="http://www.w3.org/2000/svg"
 width="138.000000pt" height="166.000000pt" viewBox="0 0 138.000000 166.000000"
 preserveAspectRatio="xMidYMid meet">
<metadata>
Created by potrace 1.16, written by Peter Selinger 2001-2019
</metadata>
<g transform="translate(0.000000,166.000000) scale(0.100000,-0.100000)"
fill="#000000" stroke="none">
<path d="M342 1273 c192 -2 504 -2 695 0 192 1 35 2 -347 2 -382 0 -539 -1
-348 -2z"/>
<path d="M610 1109 c-58 -23 -105 -91 -94 -136 9 -39 19 -49 83 -84 102 -58
106 -69 42 -112 -49 -32 -115 -50 -156 -43 -43 8 -83 49 -91 93 -5 24 -11 33
-23 31 -24 -5 -25 -32 -3 -81 27 -60 90 -92 165 -84 97 12 197 80 197 134 0
25 -30 53 -106 97 -76 44 -83 65 -41 113 26 30 36 34 62 30 42 -7 59 4 42 25
-17 22 -47 28 -77 17z"/>
<path d="M342 413 c192 -2 504 -2 695 0 192 1 35 2 -347 2 -382 0 -539 -1
-348 -2z"/>
</g>
</svg>
