<?xml version="1.0" standalone="no"?>
<!DOCTYPE svg PUBLIC "-//W3C//DTD SVG 20010904//EN"
 "http://www.w3.org/TR/2001/REC-SVG-20010904/DTD/svg10.dtd">
<svg version="1.0" xmlns="http://www.w3.org/2000/svg"
 width="138.000000pt" height="166.000000pt" viewBox="0 0 138.000000 166.000000"
 preserveAspectRatio="xMidYMid meet">
<metadata>
Created by potrace 1.16, written by Peter Selinger 2001-2019
</metadata>
<g transform="translate(0.000000,166.000000) scale(0.100000,-0.100000)"
fill="#000000" stroke="none">
<path d="M342 1273 c192 -2 504 -2 695 0 192 1 35 2 -347 2 -382 0 -539 -1
-348 -2z"/>
<path d="M470 1106 c0 -107 94 -216 208 -241 38 -8 38 -12 -10 -114 -23 -47
-38 -66 -59 -74 -36 -14 -40 -47 -5 -47 46 0 101 76 140 197 9 28 24 54 32 57
11 4 12 10 6 23 -7 11 -4 38 9 82 20 69 19 91 -5 91 -9 0 -22 -28 -36 -84 -13
-47 -29 -87 -36 -90 -39 -15 -148 54 -179 115 -8 15 -15 43 -15 62 0 30 -24
67 -43 67 -4 0 -7 -20 -7 -44z"/>
<path d="M342 403 c192 -2 504 -2 695 0 192 1 35 2 -347 2 -382 0 -539 -1
-348 -2z"/>
</g>
</svg>
