<?xml version="1.0" standalone="no"?>
<!DOCTYPE svg PUBLIC "-//W3C//DTD SVG 20010904//EN"
 "http://www.w3.org/TR/2001/REC-SVG-20010904/DTD/svg10.dtd">
<svg version="1.0" xmlns="http://www.w3.org/2000/svg"
 width="138.000000pt" height="166.000000pt" viewBox="0 0 138.000000 166.000000"
 preserveAspectRatio="xMidYMid meet">
<metadata>
Created by potrace 1.16, written by Peter Selinger 2001-2019
</metadata>
<g transform="translate(0.000000,166.000000) scale(0.100000,-0.100000)"
fill="#000000" stroke="none">
<path d="M342 1263 c192 -2 504 -2 695 0 192 1 35 2 -347 2 -382 0 -539 -1
-348 -2z"/>
<path d="M711 1179 c-46 -50 -135 -288 -147 -394 -4 -33 -11 -68 -16 -78 -6
-11 -6 -23 0 -30 5 -7 12 -25 16 -41 12 -49 44 -85 87 -97 36 -11 42 -10 60 8
25 25 28 97 5 141 -20 39 -62 72 -93 72 -22 0 -23 3 -17 38 9 53 72 238 100
294 13 26 33 53 44 61 13 9 18 20 14 31 -8 22 -29 20 -53 -5z m-34 -510 c18
-34 17 -89 -1 -89 -28 0 -47 13 -61 41 -18 34 -19 86 -2 92 17 7 50 -16 64
-44z"/>
<path d="M342 403 c192 -2 504 -2 695 0 192 1 35 2 -347 2 -382 0 -539 -1
-348 -2z"/>
</g>
</svg>
