<?xml version="1.0" standalone="no"?>
<!DOCTYPE svg PUBLIC "-//W3C//DTD SVG 20010904//EN"
 "http://www.w3.org/TR/2001/REC-SVG-20010904/DTD/svg10.dtd">
<svg version="1.0" xmlns="http://www.w3.org/2000/svg"
 width="138.000000pt" height="166.000000pt" viewBox="0 0 138.000000 166.000000"
 preserveAspectRatio="xMidYMid meet">
<metadata>
Created by potrace 1.16, written by Peter Selinger 2001-2019
</metadata>
<g transform="translate(0.000000,166.000000) scale(0.100000,-0.100000)"
fill="#000000" stroke="none">
<path d="M342 1273 c192 -2 504 -2 695 0 192 1 35 2 -347 2 -382 0 -539 -1
-348 -2z"/>
<path d="M495 1162 c-11 -2 -24 -8 -30 -12 -10 -9 -12 -200 -2 -217 3 -5 9
-75 13 -156 6 -135 8 -147 27 -153 27 -9 54 24 33 40 -10 8 -16 50 -20 139
l-7 127 65 0 c89 0 163 18 169 42 6 21 -17 24 -77 7 -22 -6 -63 -8 -97 -4
l-57 7 -4 69 c-3 63 -1 69 17 70 11 1 75 1 143 1 69 -1 123 3 124 9 0 5 1 14
2 21 1 8 -38 12 -139 13 -77 1 -149 0 -160 -3z"/>
<path d="M342 413 c192 -2 504 -2 695 0 192 1 35 2 -347 2 -382 0 -539 -1
-348 -2z"/>
</g>
</svg>
