<?xml version="1.0" standalone="no"?>
<!DOCTYPE svg PUBLIC "-//W3C//DTD SVG 20010904//EN"
 "http://www.w3.org/TR/2001/REC-SVG-20010904/DTD/svg10.dtd">
<svg version="1.0" xmlns="http://www.w3.org/2000/svg"
 width="138.000000pt" height="166.000000pt" viewBox="0 0 138.000000 166.000000"
 preserveAspectRatio="xMidYMid meet">
<metadata>
Created by potrace 1.16, written by Peter Selinger 2001-2019
</metadata>
<g transform="translate(0.000000,166.000000) scale(0.100000,-0.100000)"
fill="#000000" stroke="none">
<path d="M342 1263 c192 -2 504 -2 695 0 192 1 35 2 -347 2 -382 0 -539 -1
-348 -2z"/>
<path d="M583 1221 c-23 -11 -60 -39 -83 -62 -47 -48 -47 -50 -10 -156 14 -40
38 -81 66 -112 43 -48 45 -52 39 -98 -7 -67 12 -112 57 -135 31 -16 43 -18 77
-8 75 20 64 80 -30 164 l-52 47 22 52 c55 125 82 202 84 238 3 81 -75 113
-170 70z m117 -36 c8 -9 11 -30 7 -54 -5 -42 -85 -231 -97 -231 -16 0 -40 38
-34 54 4 10 -4 30 -20 50 -28 38 -32 57 -15 87 7 15 7 24 0 33 -9 10 -5 18 16
32 73 47 120 57 143 29z m35 -485 c-7 -12 -55 -13 -73 -1 -16 9 -30 67 -24 95
4 17 12 12 54 -32 27 -28 46 -56 43 -62z"/>
<path d="M342 403 c192 -2 504 -2 695 0 192 1 35 2 -347 2 -382 0 -539 -1
-348 -2z"/>
</g>
</svg>
