<?xml version="1.0" standalone="no"?>
<!DOCTYPE svg PUBLIC "-//W3C//DTD SVG 20010904//EN"
 "http://www.w3.org/TR/2001/REC-SVG-20010904/DTD/svg10.dtd">
<svg version="1.0" xmlns="http://www.w3.org/2000/svg"
 width="138.000000pt" height="166.000000pt" viewBox="0 0 138.000000 166.000000"
 preserveAspectRatio="xMidYMid meet">
<metadata>
Created by potrace 1.16, written by Peter Selinger 2001-2019
</metadata>
<g transform="translate(0.000000,166.000000) scale(0.100000,-0.100000)"
fill="#000000" stroke="none">
<path d="M342 1263 c192 -2 504 -2 695 0 192 1 35 2 -347 2 -382 0 -539 -1
-348 -2z"/>
<path d="M734 1046 c-4 -15 -15 -27 -32 -31 -15 -3 -36 -9 -47 -12 -18 -5 -18
-4 -6 11 12 15 12 19 -1 32 -13 14 -18 12 -39 -14 -13 -16 -29 -37 -34 -47
-15 -25 -120 -34 -138 -13 -7 9 -20 18 -29 21 -26 9 -23 -28 3 -54 17 -17 30
-20 85 -17 l63 3 -5 -40 c-3 -22 -7 -46 -10 -52 -4 -16 -134 -18 -134 -2 0 6
-12 9 -27 7 -20 -2 -29 -9 -31 -24 -3 -18 5 -23 42 -33 27 -6 69 -8 102 -5
l55 7 -5 -34 c-3 -19 -8 -63 -11 -98 -6 -56 -4 -63 10 -57 9 3 19 6 21 6 3 0
2 5 -1 10 -3 6 -2 10 3 10 5 0 12 37 16 82 4 45 9 84 11 86 6 7 87 23 92 18 2
-2 -1 -41 -8 -85 -8 -55 -9 -85 -2 -92 12 -12 45 -1 37 12 -6 11 15 146 27
169 8 15 94 39 145 40 30 0 51 20 37 34 -9 9 -73 7 -122 -5 -24 -5 -46 -8 -48
-5 -3 2 -1 25 2 51 5 33 11 45 21 41 8 -3 18 3 24 14 8 15 6 21 -10 30 -15 8
-19 17 -14 35 5 21 2 25 -15 25 -13 0 -23 -8 -27 -24z m-19 -118 c-8 -64 -17
-73 -77 -86 -48 -10 -48 -9 -47 17 3 73 11 84 69 103 30 9 57 17 58 17 2 1 1
-23 -3 -51z"/>
<path d="M342 403 c192 -2 504 -2 695 0 192 1 35 2 -347 2 -382 0 -539 -1
-348 -2z"/>
</g>
</svg>
