<?xml version="1.0" standalone="no"?>
<!DOCTYPE svg PUBLIC "-//W3C//DTD SVG 20010904//EN"
 "http://www.w3.org/TR/2001/REC-SVG-20010904/DTD/svg10.dtd">
<svg version="1.0" xmlns="http://www.w3.org/2000/svg"
 width="138.000000pt" height="166.000000pt" viewBox="0 0 138.000000 166.000000"
 preserveAspectRatio="xMidYMid meet">
<metadata>
Created by potrace 1.16, written by Peter Selinger 2001-2019
</metadata>
<g transform="translate(0.000000,166.000000) scale(0.100000,-0.100000)"
fill="#000000" stroke="none">
<path d="M342 1263 c192 -2 504 -2 695 0 192 1 35 2 -347 2 -382 0 -539 -1
-348 -2z"/>
<path d="M578 1132 c-13 -2 -17 -12 -15 -35 1 -23 -3 -32 -16 -35 -15 -3 -18
2 -15 25 2 22 -1 28 -17 28 -15 0 -21 -8 -23 -31 -3 -27 -10 -34 -57 -53 -54
-22 -115 -79 -115 -105 0 -23 57 -64 114 -82 l54 -17 4 -54 c3 -53 -6 -65 -29
-42 -6 6 -16 8 -22 5 -22 -14 -10 -37 27 -52 20 -8 48 -20 61 -27 19 -9 25 -9
28 1 10 29 31 8 43 -43 13 -56 17 -60 43 -49 14 5 14 10 1 46 -20 57 -18 62
20 76 110 40 115 111 9 143 l-42 13 -3 83 c-3 77 7 109 19 63 3 -11 14 -20 25
-20 33 0 19 50 -22 78 -20 14 -39 37 -45 56 -7 22 -15 31 -27 28z m6 -143 c3
-17 6 -53 6 -80 0 -48 -1 -49 -30 -49 l-30 0 0 80 c0 78 1 80 24 80 18 0 25
-7 30 -31z m-98 -106 c-10 -10 -75 8 -98 26 -22 19 -22 20 -4 40 10 11 37 29
60 41 l41 20 3 -61 c2 -34 1 -64 -2 -66z m92 -72 c9 -5 12 -24 10 -52 -2 -36
-7 -45 -24 -47 -24 -3 -34 19 -34 76 0 33 18 42 48 23z m103 -27 c35 -18 28
-35 -22 -53 -29 -10 -29 -10 -29 30 0 43 7 46 51 23z"/>
<path d="M342 403 c192 -2 504 -2 695 0 192 1 35 2 -347 2 -382 0 -539 -1
-348 -2z"/>
</g>
</svg>
