<?xml version="1.0" standalone="no"?>
<!DOCTYPE svg PUBLIC "-//W3C//DTD SVG 20010904//EN"
 "http://www.w3.org/TR/2001/REC-SVG-20010904/DTD/svg10.dtd">
<svg version="1.0" xmlns="http://www.w3.org/2000/svg"
 width="138.000000pt" height="166.000000pt" viewBox="0 0 138.000000 166.000000"
 preserveAspectRatio="xMidYMid meet">
<metadata>
Created by potrace 1.16, written by Peter Selinger 2001-2019
</metadata>
<g transform="translate(0.000000,166.000000) scale(0.100000,-0.100000)"
fill="#000000" stroke="none">
<path d="M342 1273 c192 -2 504 -2 695 0 192 1 35 2 -347 2 -382 0 -539 -1
-348 -2z"/>
<path d="M617 1165 c-75 -39 -151 -131 -194 -235 -33 -80 -38 -195 -10 -247
20 -38 63 -63 107 -63 42 0 133 33 189 70 56 35 61 36 61 11 0 -34 12 -51 35
-51 32 0 41 17 20 40 -15 17 -17 31 -11 94 4 41 4 87 0 101 l-7 27 -18 -29
c-10 -15 -19 -42 -19 -59 0 -37 -43 -80 -119 -119 -79 -40 -133 -50 -169 -31
-38 19 -46 43 -45 125 3 106 84 252 176 314 27 19 44 24 51 17 15 -15 46 -12
46 4 0 20 -28 46 -48 46 -9 0 -30 -7 -45 -15z"/>
<path d="M342 413 c192 -2 504 -2 695 0 192 1 35 2 -347 2 -382 0 -539 -1
-348 -2z"/>
</g>
</svg>
