<?xml version="1.0" standalone="no"?>
<!DOCTYPE svg PUBLIC "-//W3C//DTD SVG 20010904//EN"
 "http://www.w3.org/TR/2001/REC-SVG-20010904/DTD/svg10.dtd">
<svg version="1.0" xmlns="http://www.w3.org/2000/svg"
 width="138.000000pt" height="166.000000pt" viewBox="0 0 138.000000 166.000000"
 preserveAspectRatio="xMidYMid meet">
<metadata>
Created by potrace 1.16, written by Peter Selinger 2001-2019
</metadata>
<g transform="translate(0.000000,166.000000) scale(0.100000,-0.100000)"
fill="#000000" stroke="none">
<path d="M342 1273 c192 -2 504 -2 695 0 192 1 35 2 -347 2 -382 0 -539 -1
-348 -2z"/>
<path d="M590 969 l0 -61 -60 7 c-58 7 -90 -2 -90 -25 0 -13 60 -24 106 -21
41 3 41 2 47 -36 4 -21 7 -53 7 -70 0 -34 6 -39 29 -24 9 6 12 25 10 66 l-4
58 56 19 c48 16 56 22 52 38 -6 24 -1 23 -53 5 -23 -8 -46 -15 -51 -15 -5 0
-9 27 -9 60 0 53 -2 60 -20 60 -18 0 -20 -7 -20 -61z"/>
<path d="M342 413 c192 -2 504 -2 695 0 192 1 35 2 -347 2 -382 0 -539 -1
-348 -2z"/>
</g>
</svg>
