<?xml version="1.0" standalone="no"?>
<!DOCTYPE svg PUBLIC "-//W3C//DTD SVG 20010904//EN"
 "http://www.w3.org/TR/2001/REC-SVG-20010904/DTD/svg10.dtd">
<svg version="1.0" xmlns="http://www.w3.org/2000/svg"
 width="138.000000pt" height="166.000000pt" viewBox="0 0 138.000000 166.000000"
 preserveAspectRatio="xMidYMid meet">
<metadata>
Created by potrace 1.16, written by Peter Selinger 2001-2019
</metadata>
<g transform="translate(0.000000,166.000000) scale(0.100000,-0.100000)"
fill="#000000" stroke="none">
<path d="M342 1273 c192 -2 504 -2 695 0 192 1 35 2 -347 2 -382 0 -539 -1
-348 -2z"/>
<path d="M491 1181 c-14 -24 -15 -487 -2 -495 24 -15 36 5 33 58 -4 53 -3 53
28 60 18 3 56 6 85 6 29 0 82 9 117 20 104 33 102 34 94 -66 -7 -78 -6 -85 10
-82 27 5 35 52 34 194 0 72 3 141 8 154 8 21 -3 128 -14 139 -2 3 -12 -3 -22
-12 -14 -15 -17 -37 -17 -139 l0 -121 -50 -13 c-106 -29 -132 -33 -202 -36
l-73 -4 0 143 c0 89 4 143 10 143 17 0 11 36 -9 54 -19 17 -20 17 -30 -3z"/>
<path d="M342 413 c192 -2 504 -2 695 0 192 1 35 2 -347 2 -382 0 -539 -1
-348 -2z"/>
</g>
</svg>
