<?xml version="1.0" standalone="no"?>
<!DOCTYPE svg PUBLIC "-//W3C//DTD SVG 20010904//EN"
 "http://www.w3.org/TR/2001/REC-SVG-20010904/DTD/svg10.dtd">
<svg version="1.0" xmlns="http://www.w3.org/2000/svg"
 width="138.000000pt" height="166.000000pt" viewBox="0 0 138.000000 166.000000"
 preserveAspectRatio="xMidYMid meet">
<metadata>
Created by potrace 1.16, written by Peter Selinger 2001-2019
</metadata>
<g transform="translate(0.000000,166.000000) scale(0.100000,-0.100000)"
fill="#000000" stroke="none">
<path d="M342 1273 c192 -2 504 -2 695 0 192 1 35 2 -347 2 -382 0 -539 -1
-348 -2z"/>
<path d="M552 1088 c-19 -9 -22 -17 -17 -37 4 -14 10 -30 14 -34 12 -12 43 4
37 19 -8 21 28 17 47 -4 25 -27 21 -44 -15 -74 -27 -21 -31 -29 -20 -39 6 -7
12 -29 12 -49 0 -43 7 -52 29 -40 12 6 16 21 16 52 -1 27 5 52 17 67 36 48 14
111 -48 137 -39 16 -41 16 -72 2z"/>
<path d="M614 725 c-3 -8 -3 -19 1 -25 11 -17 35 -11 35 9 0 23 -29 36 -36 16z"/>
<path d="M342 413 c192 -2 504 -2 695 0 192 1 35 2 -347 2 -382 0 -539 -1
-348 -2z"/>
</g>
</svg>
