<?xml version="1.0" standalone="no"?>
<!DOCTYPE svg PUBLIC "-//W3C//DTD SVG 20010904//EN"
 "http://www.w3.org/TR/2001/REC-SVG-20010904/DTD/svg10.dtd">
<svg version="1.0" xmlns="http://www.w3.org/2000/svg"
 width="138.000000pt" height="166.000000pt" viewBox="0 0 138.000000 166.000000"
 preserveAspectRatio="xMidYMid meet">
<metadata>
Created by potrace 1.16, written by Peter Selinger 2001-2019
</metadata>
<g transform="translate(0.000000,166.000000) scale(0.100000,-0.100000)"
fill="#000000" stroke="none">
<path d="M342 1273 c192 -2 504 -2 695 0 192 1 35 2 -347 2 -382 0 -539 -1
-348 -2z"/>
<path d="M530 1249 c-48 -20 -105 -90 -98 -122 1 -6 -10 -35 -24 -63 -93 -179
-91 -330 4 -381 43 -22 132 -22 179 1 123 59 220 230 204 358 -9 61 -60 145
-110 180 -45 31 -116 44 -155 27z m122 -55 c31 -16 72 -66 88 -109 57 -149
-89 -379 -240 -379 -115 0 -150 93 -95 248 37 105 86 172 135 187 31 9 43 10
52 1 17 -17 48 -15 48 3 0 27 -47 48 -90 41 -48 -8 -51 0 -7 19 34 14 64 11
109 -11z"/>
<path d="M518 1033 c-36 -41 -50 -86 -46 -140 5 -61 5 -59 39 -68 19 -5 31 0
50 19 l26 26 23 -25 c29 -31 70 -34 70 -5 0 11 -7 20 -15 20 -27 0 -46 45 -44
104 1 33 -3 61 -11 70 -17 21 -73 20 -92 -1z m79 -38 c-7 -5 -19 -26 -25 -45
-30 -85 -68 -108 -60 -35 8 64 30 95 68 92 23 -1 27 -5 17 -12z"/>
<path d="M342 413 c192 -2 504 -2 695 0 192 1 35 2 -347 2 -382 0 -539 -1
-348 -2z"/>
</g>
</svg>
