<?xml version="1.0" standalone="no"?>
<!DOCTYPE svg PUBLIC "-//W3C//DTD SVG 20010904//EN"
 "http://www.w3.org/TR/2001/REC-SVG-20010904/DTD/svg10.dtd">
<svg version="1.0" xmlns="http://www.w3.org/2000/svg"
 width="138.000000pt" height="166.000000pt" viewBox="0 0 138.000000 166.000000"
 preserveAspectRatio="xMidYMid meet">
<metadata>
Created by potrace 1.16, written by Peter Selinger 2001-2019
</metadata>
<g transform="translate(0.000000,166.000000) scale(0.100000,-0.100000)"
fill="#000000" stroke="none">
<path d="M342 1273 c192 -2 504 -2 695 0 192 1 35 2 -347 2 -382 0 -539 -1
-348 -2z"/>
<path d="M435 1094 c6 -56 3 -87 -14 -152 -26 -99 -28 -174 -5 -193 19 -15
133 -24 152 -11 7 5 10 16 7 24 -5 12 -16 15 -45 11 -21 -3 -50 -3 -64 1 -22
5 -26 12 -26 44 0 20 9 69 20 107 11 38 20 94 20 122 0 52 1 53 29 53 16 0 41
-4 55 -10 21 -8 27 -6 36 10 14 26 2 31 -79 38 -36 2 -72 9 -79 15 -11 9 -12
-2 -7 -59z"/>
<path d="M342 403 c192 -2 504 -2 695 0 192 1 35 2 -347 2 -382 0 -539 -1
-348 -2z"/>
</g>
</svg>
