<?xml version="1.0" standalone="no"?>
<!DOCTYPE svg PUBLIC "-//W3C//DTD SVG 20010904//EN"
 "http://www.w3.org/TR/2001/REC-SVG-20010904/DTD/svg10.dtd">
<svg version="1.0" xmlns="http://www.w3.org/2000/svg"
 width="138.000000pt" height="166.000000pt" viewBox="0 0 138.000000 166.000000"
 preserveAspectRatio="xMidYMid meet">
<metadata>
Created by potrace 1.16, written by Peter Selinger 2001-2019
</metadata>
<g transform="translate(0.000000,166.000000) scale(0.100000,-0.100000)"
fill="#000000" stroke="none">
<path d="M342 1273 c192 -2 504 -2 695 0 192 1 35 2 -347 2 -382 0 -539 -1
-348 -2z"/>
<path d="M394 869 c-30 -11 -38 -27 -23 -46 11 -13 29 -15 104 -10 106 6 125
12 125 39 0 16 -5 19 -22 14 -13 -3 -53 -9 -90 -12 -54 -6 -67 -4 -70 8 -2 11
-9 13 -24 7z"/>
<path d="M342 403 c192 -2 504 -2 695 0 192 1 35 2 -347 2 -382 0 -539 -1
-348 -2z"/>
</g>
</svg>
