<?xml version="1.0" standalone="no"?>
<!DOCTYPE svg PUBLIC "-//W3C//DTD SVG 20010904//EN"
 "http://www.w3.org/TR/2001/REC-SVG-20010904/DTD/svg10.dtd">
<svg version="1.0" xmlns="http://www.w3.org/2000/svg"
 width="138.000000pt" height="166.000000pt" viewBox="0 0 138.000000 166.000000"
 preserveAspectRatio="xMidYMid meet">
<metadata>
Created by potrace 1.16, written by Peter Selinger 2001-2019
</metadata>
<g transform="translate(0.000000,166.000000) scale(0.100000,-0.100000)"
fill="#000000" stroke="none">
<path d="M342 1273 c192 -2 504 -2 695 0 192 1 35 2 -347 2 -382 0 -539 -1
-348 -2z"/>
<path d="M870 1133 c-47 -10 -74 -11 -98 -4 -25 7 -53 5 -110 -7 l-77 -17 90
-10 90 -10 7 -40 c10 -60 9 -244 -2 -265 -5 -10 -22 -21 -37 -25 -16 -3 -36
-14 -45 -22 -31 -28 4 -42 104 -43 48 0 90 -4 93 -10 8 -13 18 -13 40 4 18 13
17 14 -13 30 -17 9 -49 16 -71 16 l-39 0 10 37 c6 21 9 98 7 173 l-4 135 75
37 c82 40 78 43 -20 21z"/>
<path d="M342 413 c192 -2 504 -2 695 0 192 1 35 2 -347 2 -382 0 -539 -1
-348 -2z"/>
</g>
</svg>
