<?xml version="1.0" standalone="no"?>
<!DOCTYPE svg PUBLIC "-//W3C//DTD SVG 20010904//EN"
 "http://www.w3.org/TR/2001/REC-SVG-20010904/DTD/svg10.dtd">
<svg version="1.0" xmlns="http://www.w3.org/2000/svg"
 width="138.000000pt" height="166.000000pt" viewBox="0 0 138.000000 166.000000"
 preserveAspectRatio="xMidYMid meet">
<metadata>
Created by potrace 1.16, written by Peter Selinger 2001-2019
</metadata>
<g transform="translate(0.000000,166.000000) scale(0.100000,-0.100000)"
fill="#000000" stroke="none">
<path d="M342 1263 c192 -2 504 -2 695 0 192 1 35 2 -347 2 -382 0 -539 -1
-348 -2z"/>
<path d="M497 1193 c-13 -13 -7 -81 13 -143 24 -75 25 -108 4 -138 -17 -25
-44 -30 -44 -8 0 14 -36 46 -52 46 -4 0 -12 -9 -18 -20 -8 -15 -5 -25 19 -52
32 -36 54 -104 71 -213 13 -79 26 -103 46 -83 10 10 10 25 3 63 -17 82 -38
171 -44 188 -4 10 1 17 15 22 31 10 60 63 60 111 0 22 -9 67 -21 100 -11 32
-19 73 -17 91 3 21 -1 34 -10 38 -17 6 -17 6 -25 -2z"/>
<path d="M342 403 c192 -2 504 -2 695 0 192 1 35 2 -347 2 -382 0 -539 -1
-348 -2z"/>
</g>
</svg>
