<?xml version="1.0" standalone="no"?>
<!DOCTYPE svg PUBLIC "-//W3C//DTD SVG 20010904//EN"
 "http://www.w3.org/TR/2001/REC-SVG-20010904/DTD/svg10.dtd">
<svg version="1.0" xmlns="http://www.w3.org/2000/svg"
 width="166.000000pt" height="166.000000pt" viewBox="0 0 166.000000 166.000000"
 preserveAspectRatio="xMidYMid meet">
<metadata>
Created by potrace 1.16, written by Peter Selinger 2001-2019
</metadata>
<g transform="translate(0.000000,166.000000) scale(0.100000,-0.100000)"
fill="#000000" stroke="none">
<path d="M572 1471 c-13 -8 -38 -108 -111 -451 -23 -107 -44 -205 -46 -216 -4
-16 1 -23 17 -27 30 -8 53 7 68 44 11 26 11 32 0 39 -8 5 -18 6 -22 4 -4 -3
-8 -2 -8 3 1 18 38 164 43 169 6 6 72 -38 311 -205 142 -99 161 -110 170 -94
5 10 9 20 8 21 -1 4 -33 26 -285 199 -65 45 -119 84 -120 87 -1 3 26 19 61 36
117 55 242 206 242 291 0 85 -40 100 -114 44 -49 -38 -53 -44 -34 -63 9 -9 21
-3 53 23 24 19 45 31 49 28 25 -26 -24 -129 -96 -201 -59 -60 -155 -112 -206
-112 -30 0 -34 3 -29 23 3 12 19 88 37 170 21 92 38 147 45 147 7 0 15 9 18
20 3 11 1 20 -3 20 -5 0 -14 2 -22 5 -7 3 -19 1 -26 -4z"/>
</g>
</svg>
