<?xml version="1.0" standalone="no"?>
<!DOCTYPE svg PUBLIC "-//W3C//DTD SVG 20010904//EN"
 "http://www.w3.org/TR/2001/REC-SVG-20010904/DTD/svg10.dtd">
<svg version="1.0" xmlns="http://www.w3.org/2000/svg"
 width="166.000000pt" height="166.000000pt" viewBox="0 0 166.000000 166.000000"
 preserveAspectRatio="xMidYMid meet">
<metadata>
Created by potrace 1.16, written by Peter Selinger 2001-2019
</metadata>
<g transform="translate(0.000000,166.000000) scale(0.100000,-0.100000)"
fill="#000000" stroke="none">
<path d="M682 1346 c-66 -60 -116 -206 -128 -371 -5 -70 -1 -117 16 -215 12
-69 26 -161 31 -205 13 -122 22 -143 48 -111 9 10 10 46 5 125 -4 61 -5 111
-2 111 7 0 328 -146 470 -213 109 -52 119 -55 128 -38 8 16 -8 26 -139 89 -81
38 -205 96 -275 128 l-128 57 38 16 c170 70 225 179 179 355 -24 90 -93 261
-114 280 -10 9 -34 19 -54 23 -30 4 -40 0 -75 -31z m101 -30 c26 -28 95 -207
109 -287 16 -83 4 -143 -40 -191 -39 -44 -107 -82 -164 -92 l-37 -7 4 33 c3
18 10 76 15 128 14 126 34 209 65 270 26 52 26 70 -1 70 -37 0 -96 -204 -110
-377 -4 -45 -10 -80 -14 -78 -15 9 -21 153 -10 235 18 130 54 233 99 280 44
47 54 48 84 16z"/>
</g>
</svg>
