<?xml version="1.0" standalone="no"?>
<!DOCTYPE svg PUBLIC "-//W3C//DTD SVG 20010904//EN"
 "http://www.w3.org/TR/2001/REC-SVG-20010904/DTD/svg10.dtd">
<svg version="1.0" xmlns="http://www.w3.org/2000/svg"
 width="166.000000pt" height="166.000000pt" viewBox="0 0 166.000000 166.000000"
 preserveAspectRatio="xMidYMid meet">
<metadata>
Created by potrace 1.16, written by Peter Selinger 2001-2019
</metadata>
<g transform="translate(0.000000,166.000000) scale(0.100000,-0.100000)"
fill="#000000" stroke="none">
<path d="M935 972 c-66 -41 -193 -205 -210 -272 -17 -71 45 -113 195 -131 108
-13 340 0 340 20 -1 28 -18 32 -125 21 -162 -15 -341 10 -366 52 -17 27 65
160 145 238 36 35 53 44 81 44 21 0 37 6 40 15 13 33 -53 42 -100 13z"/>
</g>
</svg>
