<?xml version="1.0" standalone="no"?>
<!DOCTYPE svg PUBLIC "-//W3C//DTD SVG 20010904//EN"
 "http://www.w3.org/TR/2001/REC-SVG-20010904/DTD/svg10.dtd">
<svg version="1.0" xmlns="http://www.w3.org/2000/svg"
 width="166.000000pt" height="166.000000pt" viewBox="0 0 166.000000 166.000000"
 preserveAspectRatio="xMidYMid meet">
<metadata>
Created by potrace 1.16, written by Peter Selinger 2001-2019
</metadata>
<g transform="translate(0.000000,166.000000) scale(0.100000,-0.100000)"
fill="#000000" stroke="none">
<path d="M666 1423 c-10 -30 2 -52 25 -46 10 3 19 9 19 14 0 22 174 -17 252
-57 125 -64 114 -187 -31 -335 -62 -63 -162 -126 -180 -114 -5 2 -15 -2 -22
-11 -10 -13 -10 -17 2 -25 8 -5 21 -9 30 -9 36 0 129 59 194 125 163 162 180
319 42 399 -59 34 -163 64 -250 72 -69 6 -75 5 -81 -13z"/>
<path d="M748 1302 c-6 -15 -13 -70 -16 -122 -2 -52 -7 -98 -11 -103 -4 -4 -1
-30 8 -57 11 -36 20 -50 33 -50 16 0 18 11 15 133 -1 72 2 151 6 173 7 34 5
42 -8 47 -11 5 -19 -2 -27 -21z"/>
</g>
</svg>
