<?xml version="1.0" standalone="no"?>
<!DOCTYPE svg PUBLIC "-//W3C//DTD SVG 20010904//EN"
 "http://www.w3.org/TR/2001/REC-SVG-20010904/DTD/svg10.dtd">
<svg version="1.0" xmlns="http://www.w3.org/2000/svg"
 width="166.000000pt" height="166.000000pt" viewBox="0 0 166.000000 166.000000"
 preserveAspectRatio="xMidYMid meet">
<metadata>
Created by potrace 1.16, written by Peter Selinger 2001-2019
</metadata>
<g transform="translate(0.000000,166.000000) scale(0.100000,-0.100000)"
fill="#000000" stroke="none">
<path d="M796 1115 c-54 -19 -106 -72 -106 -108 0 -44 49 -83 134 -108 121
-35 155 -50 176 -76 28 -36 25 -57 -15 -102 -48 -52 -111 -81 -179 -81 -68 0
-93 9 -132 49 -20 21 -36 29 -47 25 -23 -8 -22 -15 13 -52 90 -99 272 -83 379
33 47 51 53 90 21 142 -26 44 -52 58 -145 84 -92 25 -153 53 -162 75 -9 23 43
70 91 84 44 12 118 1 131 -20 4 -7 13 -6 26 1 17 8 18 13 8 25 -34 41 -123 54
-193 29z"/>
</g>
</svg>
