<?xml version="1.0" standalone="no"?>
<!DOCTYPE svg PUBLIC "-//W3C//DTD SVG 20010904//EN"
 "http://www.w3.org/TR/2001/REC-SVG-20010904/DTD/svg10.dtd">
<svg version="1.0" xmlns="http://www.w3.org/2000/svg"
 width="166.000000pt" height="166.000000pt" viewBox="0 0 166.000000 166.000000"
 preserveAspectRatio="xMidYMid meet">
<metadata>
Created by potrace 1.16, written by Peter Selinger 2001-2019
</metadata>
<g transform="translate(0.000000,166.000000) scale(0.100000,-0.100000)"
fill="#000000" stroke="none">
<path d="M718 1404 c-22 -21 -4 -32 65 -37 39 -4 84 -9 98 -12 39 -10 48 22
11 37 -34 13 -164 23 -174 12z"/>
<path d="M641 1373 c-18 -35 -32 -161 -38 -343 -5 -175 -5 -186 14 -209 26
-32 113 -40 199 -17 34 9 81 16 105 16 51 0 72 11 64 31 -4 12 -19 13 -83 7
-42 -4 -95 -12 -117 -17 -61 -16 -111 -13 -131 6 -15 16 -16 34 -10 183 7 182
21 297 37 317 14 16 4 43 -15 43 -9 0 -19 -8 -25 -17z"/>
<path d="M755 1223 c-74 -4 -101 -14 -89 -35 3 -4 58 -8 123 -8 72 0 121 -4
128 -11 8 -8 14 -6 22 10 9 16 8 22 -6 29 -26 14 -87 19 -178 15z"/>
</g>
</svg>
