<?xml version="1.0" standalone="no"?>
<!DOCTYPE svg PUBLIC "-//W3C//DTD SVG 20010904//EN"
 "http://www.w3.org/TR/2001/REC-SVG-20010904/DTD/svg10.dtd">
<svg version="1.0" xmlns="http://www.w3.org/2000/svg"
 width="166.000000pt" height="166.000000pt" viewBox="0 0 166.000000 166.000000"
 preserveAspectRatio="xMidYMid meet">
<metadata>
Created by potrace 1.16, written by Peter Selinger 2001-2019
</metadata>
<g transform="translate(0.000000,166.000000) scale(0.100000,-0.100000)"
fill="#000000" stroke="none">
<path d="M830 1203 c-39 -16 -56 -83 -21 -83 10 0 21 9 24 20 18 71 159 -51
208 -180 39 -102 6 -196 -93 -269 -38 -28 -49 -31 -117 -31 -110 0 -252 -18
-278 -36 -54 -34 -8 -86 75 -86 60 1 161 24 225 51 60 26 78 26 273 1 88 -11
161 -17 166 -12 23 23 -51 42 -264 67 l-57 6 39 36 c22 19 51 59 66 89 22 45
26 64 22 112 -8 113 -99 257 -192 302 -44 21 -51 22 -76 13z m-42 -589 c-24
-23 -208 -45 -208 -25 0 9 29 14 140 24 67 7 73 7 68 1z"/>
</g>
</svg>
