<?xml version="1.0" standalone="no"?>
<!DOCTYPE svg PUBLIC "-//W3C//DTD SVG 20010904//EN"
 "http://www.w3.org/TR/2001/REC-SVG-20010904/DTD/svg10.dtd">
<svg version="1.0" xmlns="http://www.w3.org/2000/svg"
 width="166.000000pt" height="166.000000pt" viewBox="0 0 166.000000 166.000000"
 preserveAspectRatio="xMidYMid meet">
<metadata>
Created by potrace 1.16, written by Peter Selinger 2001-2019
</metadata>
<g transform="translate(0.000000,166.000000) scale(0.100000,-0.100000)"
fill="#000000" stroke="none">
<path d="M726 1314 c-3 -7 -22 -16 -43 -20 -93 -17 -129 -62 -120 -152 6 -58
29 -92 78 -117 21 -11 25 -19 21 -44 -2 -17 -9 -31 -15 -31 -16 0 -87 79 -87
96 0 20 -34 14 -37 -6 -5 -24 34 -78 76 -107 45 -31 48 -42 25 -104 -8 -24
-19 -65 -23 -91 -8 -46 -7 -48 15 -48 19 0 24 5 24 26 0 14 10 59 23 100 22
74 23 75 51 70 16 -3 43 -6 61 -6 l32 0 -13 -57 c-20 -86 -19 -133 5 -133 15
0 19 10 24 58 10 96 27 135 62 143 47 10 107 38 132 61 48 45 18 77 -74 78
l-63 0 0 95 c0 86 2 95 19 95 10 0 21 9 24 19 3 14 -2 21 -19 25 -19 5 -24 13
-24 36 0 23 -4 30 -20 30 -15 0 -20 -7 -20 -26 0 -20 -4 -25 -16 -20 -9 3 -24
6 -35 6 -10 0 -19 6 -19 14 0 18 -37 27 -44 10z m-19 -78 c-3 -8 -11 -50 -17
-95 -13 -87 -22 -96 -59 -57 -44 47 -36 136 14 157 34 13 68 11 62 -5z m111 8
c21 -6 22 -11 22 -105 l0 -99 -60 0 c-70 0 -67 -7 -45 120 8 47 15 86 15 88 0
4 45 2 68 -4z m7 -256 c10 -10 -7 -59 -21 -65 -8 -3 -34 -2 -59 1 -41 7 -45
10 -45 35 0 15 3 31 8 35 8 8 108 3 117 -6z m155 -7 c0 -9 -90 -51 -110 -51
-7 0 -9 7 -6 16 3 9 6 22 6 30 0 10 14 14 55 14 30 0 55 -4 55 -9z"/>
</g>
</svg>
