<?xml version="1.0" standalone="no"?>
<!DOCTYPE svg PUBLIC "-//W3C//DTD SVG 20010904//EN"
 "http://www.w3.org/TR/2001/REC-SVG-20010904/DTD/svg10.dtd">
<svg version="1.0" xmlns="http://www.w3.org/2000/svg"
 width="166.000000pt" height="166.000000pt" viewBox="0 0 166.000000 166.000000"
 preserveAspectRatio="xMidYMid meet">
<metadata>
Created by potrace 1.16, written by Peter Selinger 2001-2019
</metadata>
<g transform="translate(0.000000,166.000000) scale(0.100000,-0.100000)"
fill="#000000" stroke="none">
<path d="M786 1359 c8 -23 47 -83 87 -133 152 -189 189 -261 188 -365 0 -42
-7 -87 -19 -119 -38 -98 -166 -262 -205 -262 -7 0 -18 5 -23 10 -8 8 -15 6
-24 -5 -18 -22 4 -45 44 -45 84 0 238 210 267 364 22 118 -22 228 -159 404
-48 61 -100 129 -116 152 -40 55 -60 54 -40 -1z"/>
</g>
</svg>
