<?xml version="1.0" standalone="no"?>
<!DOCTYPE svg PUBLIC "-//W3C//DTD SVG 20010904//EN"
 "http://www.w3.org/TR/2001/REC-SVG-20010904/DTD/svg10.dtd">
<svg version="1.0" xmlns="http://www.w3.org/2000/svg"
 width="166.000000pt" height="166.000000pt" viewBox="0 0 166.000000 166.000000"
 preserveAspectRatio="xMidYMid meet">
<metadata>
Created by potrace 1.16, written by Peter Selinger 2001-2019
</metadata>
<g transform="translate(0.000000,166.000000) scale(0.100000,-0.100000)"
fill="#000000" stroke="none">
<path d="M496 1145 c-94 -33 -146 -133 -154 -297 -9 -201 73 -307 238 -308
114 0 200 68 251 199 48 121 22 296 -55 370 -31 30 -43 34 -113 42 -106 11
-122 10 -167 -6z m14 -54 c-16 -31 -12 -51 10 -51 11 0 20 7 20 15 0 27 60 57
105 51 81 -10 114 -32 143 -94 48 -105 30 -249 -43 -345 -82 -107 -233 -118
-312 -23 -39 48 -53 96 -53 182 0 116 33 210 90 258 38 31 55 34 40 7z"/>
<path d="M634 1015 c-71 -31 -132 -146 -121 -226 11 -82 61 -93 131 -29 35 32
45 37 50 25 3 -9 22 -23 42 -31 30 -13 38 -13 45 -2 14 21 11 25 -20 36 -39
14 -53 42 -49 100 3 41 1 47 -17 47 -16 0 -22 -10 -30 -48 -11 -51 -65 -127
-90 -127 -32 0 -29 72 6 142 28 55 66 81 111 75 46 -6 64 10 41 35 -19 21 -55
22 -99 3z"/>
</g>
</svg>
