<?xml version="1.0" standalone="no"?>
<!DOCTYPE svg PUBLIC "-//W3C//DTD SVG 20010904//EN"
 "http://www.w3.org/TR/2001/REC-SVG-20010904/DTD/svg10.dtd">
<svg version="1.0" xmlns="http://www.w3.org/2000/svg"
 width="166.000000pt" height="82.000000pt" viewBox="0 0 166.000000 82.000000"
 preserveAspectRatio="xMidYMid meet">
<metadata>
Created by potrace 1.16, written by Peter Selinger 2001-2019
</metadata>
<g transform="translate(0.000000,82.000000) scale(0.100000,-0.100000)"
fill="#000000" stroke="none">
<path d="M175 410 c0 -228 1 -322 2 -208 2 115 2 301 0 415 -1 115 -2 21 -2
-207z"/>
<path d="M896 765 c4 -33 10 -66 14 -74 10 -19 -1 89 -11 114 -5 12 -6 -4 -3
-40z"/>
<path d="M914 803 c24 -84 37 -142 52 -227 13 -82 61 -254 88 -316 5 -13 -14
-20 -106 -38 -182 -36 -198 -37 -198 -17 0 31 60 380 69 400 5 11 14 43 20 70
6 28 13 60 17 73 4 12 2 22 -4 22 -22 0 -58 -150 -103 -427 -20 -122 -26 -143
-41 -143 -10 0 -27 9 -39 21 -11 11 -24 18 -27 14 -12 -12 15 -40 47 -50 31
-9 32 -12 27 -45 -16 -105 -18 -140 -8 -140 5 0 15 38 22 85 12 83 13 85 40
85 15 0 87 12 160 26 72 14 135 22 139 18 5 -5 25 -55 46 -112 21 -56 42 -102
47 -102 13 0 10 11 -31 121 l-38 104 23 3 c37 5 30 33 -7 30 -30 -3 -32 -1
-60 76 -16 44 -43 147 -59 230 -36 180 -57 256 -71 256 -6 0 -8 -8 -5 -17z"/>
<path d="M1455 410 c0 -228 1 -322 2 -208 2 115 2 301 0 415 -1 115 -2 21 -2
-207z"/>
</g>
</svg>
