<?xml version="1.0" standalone="no"?>
<!DOCTYPE svg PUBLIC "-//W3C//DTD SVG 20010904//EN"
 "http://www.w3.org/TR/2001/REC-SVG-20010904/DTD/svg10.dtd">
<svg version="1.0" xmlns="http://www.w3.org/2000/svg"
 width="166.000000pt" height="82.000000pt" viewBox="0 0 166.000000 82.000000"
 preserveAspectRatio="xMidYMid meet">
<metadata>
Created by potrace 1.16, written by Peter Selinger 2001-2019
</metadata>
<g transform="translate(0.000000,82.000000) scale(0.100000,-0.100000)"
fill="#000000" stroke="none">
<path d="M175 410 c0 -228 1 -322 2 -208 2 115 2 301 0 415 -1 115 -2 21 -2
-207z"/>
<path d="M777 813 c-8 -12 -104 -283 -142 -398 -66 -204 -121 -448 -91 -414 2
2 17 63 34 136 17 72 38 156 47 187 15 50 18 54 31 41 10 -10 35 -15 75 -15
65 0 75 -5 188 -99 51 -43 129 -149 151 -205 9 -25 30 -36 30 -16 0 16 -57
113 -97 165 -22 28 -74 77 -116 108 l-77 58 47 33 c60 41 169 166 206 237 30
57 43 122 33 163 -11 45 -23 28 -18 -24 5 -56 -6 -90 -56 -170 -41 -65 -142
-172 -190 -202 -34 -21 -35 -21 -83 -3 -28 10 -60 14 -74 11 -29 -7 -29 -7
-14 31 39 100 129 369 126 377 -2 6 -6 6 -10 -1z m-37 -433 c11 -7 4 -10 -27
-10 -24 0 -43 5 -43 10 0 13 50 13 70 0z"/>
<path d="M822 800 c0 -14 2 -19 5 -12 2 6 2 18 0 25 -3 6 -5 1 -5 -13z"/>
<path d="M1465 410 c0 -228 1 -322 2 -208 2 115 2 301 0 415 -1 115 -2 21 -2
-207z"/>
</g>
</svg>
