<?xml version="1.0" standalone="no"?>
<!DOCTYPE svg PUBLIC "-//W3C//DTD SVG 20010904//EN"
 "http://www.w3.org/TR/2001/REC-SVG-20010904/DTD/svg10.dtd">
<svg version="1.0" xmlns="http://www.w3.org/2000/svg"
 width="166.000000pt" height="82.000000pt" viewBox="0 0 166.000000 82.000000"
 preserveAspectRatio="xMidYMid meet">
<metadata>
Created by potrace 1.16, written by Peter Selinger 2001-2019
</metadata>
<g transform="translate(0.000000,82.000000) scale(0.100000,-0.100000)"
fill="#000000" stroke="none">
<path d="M185 410 c0 -228 1 -322 2 -208 2 115 2 301 0 415 -1 115 -2 21 -2
-207z"/>
<path d="M818 746 c23 -43 42 -82 42 -87 0 -6 -46 -69 -102 -142 -57 -72 -144
-193 -194 -269 -50 -76 -93 -136 -96 -132 -4 3 -9 -4 -13 -16 -8 -24 -2 -35
15 -25 6 4 54 72 106 151 52 80 114 168 138 197 23 29 68 87 100 130 32 42 60
77 62 77 1 0 30 -57 64 -127 91 -186 128 -286 164 -446 4 -15 11 -25 16 -22
12 7 14 72 3 77 -5 2 -25 55 -45 118 -21 63 -71 184 -113 268 l-75 153 60 79
c33 43 60 81 60 84 0 20 -26 -3 -72 -64 -29 -38 -55 -69 -58 -70 -3 0 -21 30
-40 67 -19 37 -41 69 -49 71 -9 3 3 -26 27 -72z"/>
<path d="M1465 410 c0 -228 1 -322 2 -208 2 115 2 301 0 415 -1 115 -2 21 -2
-207z"/>
</g>
</svg>
