<?xml version="1.0" standalone="no"?>
<!DOCTYPE svg PUBLIC "-//W3C//DTD SVG 20010904//EN"
 "http://www.w3.org/TR/2001/REC-SVG-20010904/DTD/svg10.dtd">
<svg version="1.0" xmlns="http://www.w3.org/2000/svg"
 width="166.000000pt" height="82.000000pt" viewBox="0 0 166.000000 82.000000"
 preserveAspectRatio="xMidYMid meet">
<metadata>
Created by potrace 1.16, written by Peter Selinger 2001-2019
</metadata>
<g transform="translate(0.000000,82.000000) scale(0.100000,-0.100000)"
fill="#000000" stroke="none">
<path d="M185 410 c0 -228 1 -322 2 -208 2 115 2 301 0 415 -1 115 -2 21 -2
-207z"/>
<path d="M675 783 c4 -21 9 -49 12 -63 3 -20 -2 -29 -26 -43 -30 -18 -45 -54
-17 -44 25 10 38 -63 43 -238 3 -93 0 -206 -6 -250 -9 -74 -3 -112 14 -85 4 7
10 107 13 223 4 175 2 227 -12 296 -11 52 -14 87 -8 93 6 6 14 -2 20 -21 6
-17 15 -31 20 -31 18 0 21 13 7 34 -8 11 -15 26 -15 32 0 6 39 37 87 69 49 32
83 60 76 62 -7 3 -46 -18 -87 -46 -41 -28 -77 -51 -80 -51 -2 0 -7 15 -11 33
-11 55 -16 67 -27 67 -6 0 -8 -14 -3 -37z"/>
<path d="M1465 410 c0 -228 1 -322 2 -208 2 115 2 301 0 415 -1 115 -2 21 -2
-207z"/>
</g>
</svg>
