<?xml version="1.0" standalone="no"?>
<!DOCTYPE svg PUBLIC "-//W3C//DTD SVG 20010904//EN"
 "http://www.w3.org/TR/2001/REC-SVG-20010904/DTD/svg10.dtd">
<svg version="1.0" xmlns="http://www.w3.org/2000/svg"
 width="166.000000pt" height="82.000000pt" viewBox="0 0 166.000000 82.000000"
 preserveAspectRatio="xMidYMid meet">
<metadata>
Created by potrace 1.16, written by Peter Selinger 2001-2019
</metadata>
<g transform="translate(0.000000,82.000000) scale(0.100000,-0.100000)"
fill="#000000" stroke="none">
<path d="M175 410 c0 -228 1 -322 2 -208 2 115 2 301 0 415 -1 115 -2 21 -2
-207z"/>
<path d="M1455 410 c0 -228 1 -322 2 -208 2 115 2 301 0 415 -1 115 -2 21 -2
-207z"/>
<path d="M972 400 c-85 -61 -151 -165 -196 -308 -30 -95 -29 -92 -16 -92 5 0
14 19 20 43 16 60 58 166 83 207 30 49 106 129 139 146 48 25 67 18 89 -31 11
-24 24 -70 30 -102 6 -32 14 -62 19 -68 4 -6 -17 -50 -50 -103 -32 -50 -53
-92 -46 -92 6 0 36 40 66 89 30 50 56 88 58 87 1 -2 -2 -41 -7 -87 -10 -76 -9
-100 4 -88 4 5 35 218 35 247 0 23 -17 12 -30 -18 -17 -41 -26 -31 -34 35 -7
62 -28 119 -53 147 -24 26 -64 22 -111 -12z"/>
</g>
</svg>
