<?xml version="1.0" standalone="no"?>
<!DOCTYPE svg PUBLIC "-//W3C//DTD SVG 20010904//EN"
 "http://www.w3.org/TR/2001/REC-SVG-20010904/DTD/svg10.dtd">
<svg version="1.0" xmlns="http://www.w3.org/2000/svg"
 width="166.000000pt" height="82.000000pt" viewBox="0 0 166.000000 82.000000"
 preserveAspectRatio="xMidYMid meet">
<metadata>
Created by potrace 1.16, written by Peter Selinger 2001-2019
</metadata>
<g transform="translate(0.000000,82.000000) scale(0.100000,-0.100000)"
fill="#000000" stroke="none">
<path d="M175 410 c0 -228 1 -322 2 -208 2 115 2 301 0 415 -1 115 -2 21 -2
-207z"/>
<path d="M1455 410 c0 -228 1 -322 2 -208 2 115 2 301 0 415 -1 115 -2 21 -2
-207z"/>
<path d="M788 613 c-41 -32 -53 -67 -94 -266 -24 -121 -49 -335 -39 -345 10
-11 14 5 24 107 6 58 12 105 14 105 1 1 37 18 79 39 143 71 255 175 275 256 9
37 -16 72 -76 103 -72 38 -135 38 -183 1z m195 -29 c23 -16 43 -39 45 -51 4
-28 -20 -74 -64 -122 -38 -43 -167 -131 -228 -156 l-39 -16 5 43 c9 76 51 240
58 228 4 -6 10 6 14 29 10 63 39 84 109 79 43 -3 67 -12 100 -34z"/>
</g>
</svg>
