<?xml version="1.0" standalone="no"?>
<!DOCTYPE svg PUBLIC "-//W3C//DTD SVG 20010904//EN"
 "http://www.w3.org/TR/2001/REC-SVG-20010904/DTD/svg10.dtd">
<svg version="1.0" xmlns="http://www.w3.org/2000/svg"
 width="166.000000pt" height="82.000000pt" viewBox="0 0 166.000000 82.000000"
 preserveAspectRatio="xMidYMid meet">
<metadata>
Created by potrace 1.16, written by Peter Selinger 2001-2019
</metadata>
<g transform="translate(0.000000,82.000000) scale(0.100000,-0.100000)"
fill="#000000" stroke="none">
<path d="M175 410 c0 -228 1 -322 2 -208 2 115 2 301 0 415 -1 115 -2 21 -2
-207z"/>
<path d="M1455 410 c0 -228 1 -322 2 -208 2 115 2 301 0 415 -1 115 -2 21 -2
-207z"/>
<path d="M856 689 c-2 -8 -7 -77 -10 -154 -9 -209 -1 -195 -132 -217 -185 -32
-297 -57 -308 -69 -8 -9 -4 -10 19 -4 17 4 113 21 215 39 l185 32 -4 -158 c-2
-111 0 -158 8 -158 8 0 11 47 11 148 0 81 4 152 8 159 4 6 41 19 82 29 75 16
136 41 127 50 -3 3 -34 -3 -69 -14 -34 -11 -81 -22 -102 -26 l-39 -7 7 48 c3
26 9 101 13 165 3 65 10 115 15 112 14 -9 9 13 -7 26 -12 10 -16 10 -19 -1z"/>
</g>
</svg>
