<?xml version="1.0" standalone="no"?>
<!DOCTYPE svg PUBLIC "-//W3C//DTD SVG 20010904//EN"
 "http://www.w3.org/TR/2001/REC-SVG-20010904/DTD/svg10.dtd">
<svg version="1.0" xmlns="http://www.w3.org/2000/svg"
 width="166.000000pt" height="82.000000pt" viewBox="0 0 166.000000 82.000000"
 preserveAspectRatio="xMidYMid meet">
<metadata>
Created by potrace 1.16, written by Peter Selinger 2001-2019
</metadata>
<g transform="translate(0.000000,82.000000) scale(0.100000,-0.100000)"
fill="#000000" stroke="none">
<path d="M175 410 c0 -228 1 -322 2 -208 2 115 2 301 0 415 -1 115 -2 21 -2
-207z"/>
<path d="M1455 410 c0 -228 1 -322 2 -208 2 115 2 301 0 415 -1 115 -2 21 -2
-207z"/>
<path d="M780 565 c-4 -56 2 -539 7 -550 13 -34 19 -11 12 43 -5 31 -6 154 -4
272 2 125 0 221 -5 230 -5 8 -10 11 -10 5z"/>
<path d="M1124 504 c-26 -71 -169 -424 -185 -456 -19 -38 -19 -62 1 -42 5 5
41 87 79 183 39 96 72 176 74 177 1 1 2 -61 2 -139 0 -122 3 -148 20 -182 11
-23 29 -42 40 -44 19 -3 19 -3 2 17 -50 55 -63 258 -28 407 12 47 16 84 11 89
-6 6 -12 2 -16 -10z"/>
</g>
</svg>
