<?xml version="1.0" standalone="no"?>
<!DOCTYPE svg PUBLIC "-//W3C//DTD SVG 20010904//EN"
 "http://www.w3.org/TR/2001/REC-SVG-20010904/DTD/svg10.dtd">
<svg version="1.0" xmlns="http://www.w3.org/2000/svg"
 width="166.000000pt" height="82.000000pt" viewBox="0 0 166.000000 82.000000"
 preserveAspectRatio="xMidYMid meet">
<metadata>
Created by potrace 1.16, written by Peter Selinger 2001-2019
</metadata>
<g transform="translate(0.000000,82.000000) scale(0.100000,-0.100000)"
fill="#000000" stroke="none">
<path d="M175 410 c0 -228 1 -322 2 -208 2 115 2 301 0 415 -1 115 -2 21 -2
-207z"/>
<path d="M1465 410 c0 -228 1 -322 2 -208 2 115 2 301 0 415 -1 115 -2 21 -2
-207z"/>
<path d="M734 535 c19 -122 26 -186 36 -340 12 -181 14 -195 29 -195 6 0 8 6
6 13 -2 6 -9 84 -15 172 -15 239 -30 358 -48 375 -13 13 -14 10 -8 -25z"/>
<path d="M1079 343 c-62 -120 -127 -246 -146 -281 -24 -44 -29 -62 -19 -62 7
0 32 37 55 83 22 45 86 167 141 272 55 104 100 193 100 197 0 32 -33 -21 -131
-209z"/>
</g>
</svg>
