<?xml version="1.0" standalone="no"?>
<!DOCTYPE svg PUBLIC "-//W3C//DTD SVG 20010904//EN"
 "http://www.w3.org/TR/2001/REC-SVG-20010904/DTD/svg10.dtd">
<svg version="1.0" xmlns="http://www.w3.org/2000/svg"
 width="166.000000pt" height="82.000000pt" viewBox="0 0 166.000000 82.000000"
 preserveAspectRatio="xMidYMid meet">
<metadata>
Created by potrace 1.16, written by Peter Selinger 2001-2019
</metadata>
<g transform="translate(0.000000,82.000000) scale(0.100000,-0.100000)"
fill="#000000" stroke="none">
<path d="M185 410 c0 -228 1 -322 2 -208 2 115 2 301 0 415 -1 115 -2 21 -2
-207z"/>
<path d="M1465 410 c0 -228 1 -322 2 -208 2 115 2 301 0 415 -1 115 -2 21 -2
-207z"/>
<path d="M887 548 c-18 -24 -62 -82 -97 -131 -71 -100 -61 -102 -126 23 -47
89 -57 113 -44 105 6 -3 10 -1 10 5 0 13 -28 25 -37 16 -11 -10 15 -74 69
-169 l49 -89 -27 -36 c-30 -39 -177 -225 -202 -254 -13 -16 -13 -18 0 -18 13
0 217 244 226 271 12 32 33 -7 99 -179 21 -54 41 -92 49 -92 16 0 18 12 5 26
-5 5 -23 47 -41 94 -17 47 -43 108 -56 137 l-25 51 88 121 c51 70 89 115 91
106 6 -25 22 -6 22 26 0 40 -13 37 -53 -13z"/>
</g>
</svg>
