<?xml version="1.0" standalone="no"?>
<!DOCTYPE svg PUBLIC "-//W3C//DTD SVG 20010904//EN"
 "http://www.w3.org/TR/2001/REC-SVG-20010904/DTD/svg10.dtd">
<svg version="1.0" xmlns="http://www.w3.org/2000/svg"
 width="166.000000pt" height="82.000000pt" viewBox="0 0 166.000000 82.000000"
 preserveAspectRatio="xMidYMid meet">
<metadata>
Created by potrace 1.16, written by Peter Selinger 2001-2019
</metadata>
<g transform="translate(0.000000,82.000000) scale(0.100000,-0.100000)"
fill="#000000" stroke="none">
<path d="M175 410 c0 -228 1 -322 2 -208 2 115 2 301 0 415 -1 115 -2 21 -2
-207z"/>
<path d="M1455 410 c0 -228 1 -322 2 -208 2 115 2 301 0 415 -1 115 -2 21 -2
-207z"/>
<path d="M815 270 c-55 -4 -116 -10 -135 -14 -52 -11 -164 -47 -175 -57 -15
-15 13 -10 99 16 55 17 124 28 216 34 74 6 136 8 138 6 5 -4 -23 -58 -71 -137
-36 -58 -47 -69 -77 -74 -19 -4 -51 -15 -70 -26 l-35 -19 35 5 c19 3 46 8 59
12 17 5 22 4 17 -4 -4 -7 -1 -12 9 -12 8 0 18 7 21 15 4 9 26 17 55 21 27 4
46 11 43 16 -4 6 -19 8 -35 6 -16 -3 -29 -2 -29 1 0 3 18 35 39 70 50 80 65
116 57 136 -6 16 -4 16 -161 5z"/>
</g>
</svg>
