<?xml version="1.0" standalone="no"?>
<!DOCTYPE svg PUBLIC "-//W3C//DTD SVG 20010904//EN"
 "http://www.w3.org/TR/2001/REC-SVG-20010904/DTD/svg10.dtd">
<svg version="1.0" xmlns="http://www.w3.org/2000/svg"
 width="166.000000pt" height="82.000000pt" viewBox="0 0 166.000000 82.000000"
 preserveAspectRatio="xMidYMid meet">
<metadata>
Created by potrace 1.16, written by Peter Selinger 2001-2019
</metadata>
<g transform="translate(0.000000,82.000000) scale(0.100000,-0.100000)"
fill="#000000" stroke="none">
<path d="M175 410 c0 -228 1 -322 2 -208 2 115 2 301 0 415 -1 115 -2 21 -2
-207z"/>
<path d="M476 798 c-3 -13 -11 -70 -17 -128 -21 -190 6 -230 220 -324 188 -81
286 -137 286 -161 0 -14 -35 -44 -124 -102 -73 -49 -116 -83 -104 -83 21 0
188 104 231 143 26 25 29 58 5 79 -22 19 -165 91 -296 148 -130 57 -170 87
-193 145 -16 43 -17 57 -5 162 7 64 15 122 18 129 3 8 1 14 -5 14 -5 0 -12
-10 -16 -22z"/>
<path d="M1465 410 c0 -228 1 -322 2 -208 2 115 2 301 0 415 -1 115 -2 21 -2
-207z"/>
<path d="M1060 747 c-33 -21 -46 -22 -200 -20 -191 3 -233 -6 -238 -49 -2 -17
2 -28 8 -28 7 0 10 6 7 14 -13 34 21 41 207 41 188 0 220 6 255 49 18 22 3 19
-39 -7z"/>
</g>
</svg>
