<?xml version="1.0" standalone="no"?>
<!DOCTYPE svg PUBLIC "-//W3C//DTD SVG 20010904//EN"
 "http://www.w3.org/TR/2001/REC-SVG-20010904/DTD/svg10.dtd">
<svg version="1.0" xmlns="http://www.w3.org/2000/svg"
 width="166.000000pt" height="82.000000pt" viewBox="0 0 166.000000 82.000000"
 preserveAspectRatio="xMidYMid meet">
<metadata>
Created by potrace 1.16, written by Peter Selinger 2001-2019
</metadata>
<g transform="translate(0.000000,82.000000) scale(0.100000,-0.100000)"
fill="#000000" stroke="none">
<path d="M185 410 c0 -228 1 -322 2 -208 2 115 2 301 0 415 -1 115 -2 21 -2
-207z"/>
<path d="M1465 410 c0 -228 1 -322 2 -208 2 115 2 301 0 415 -1 115 -2 21 -2
-207z"/>
<path d="M827 603 c-43 -134 -70 -273 -56 -287 10 -12 14 -1 29 94 7 41 28
123 47 182 38 120 38 121 26 125 -5 2 -26 -50 -46 -114z"/>
<path d="M1021 598 c-5 -13 -16 -41 -26 -63 -26 -63 -75 -198 -75 -209 0 -29
29 28 76 151 61 158 57 143 44 143 -6 0 -14 -10 -19 -22z"/>
</g>
</svg>
