<?xml version="1.0" standalone="no"?>
<!DOCTYPE svg PUBLIC "-//W3C//DTD SVG 20010904//EN"
 "http://www.w3.org/TR/2001/REC-SVG-20010904/DTD/svg10.dtd">
<svg version="1.0" xmlns="http://www.w3.org/2000/svg"
 width="166.000000pt" height="82.000000pt" viewBox="0 0 166.000000 82.000000"
 preserveAspectRatio="xMidYMid meet">
<metadata>
Created by potrace 1.16, written by Peter Selinger 2001-2019
</metadata>
<g transform="translate(0.000000,82.000000) scale(0.100000,-0.100000)"
fill="#000000" stroke="none">
<path d="M175 410 c0 -228 1 -322 2 -208 2 115 2 301 0 415 -1 115 -2 21 -2
-207z"/>
<path d="M471 799 c-24 -26 -45 -119 -37 -164 19 -99 154 -86 249 25 36 43 59
106 50 140 -9 32 -25 23 -18 -10 9 -40 -36 -122 -89 -161 -99 -72 -176 -53
-176 43 0 54 19 106 47 128 18 14 21 20 10 20 -9 0 -25 -10 -36 -21z"/>
<path d="M1038 728 c-20 -51 -70 -187 -112 -303 -41 -116 -95 -258 -119 -318
-27 -63 -40 -107 -33 -107 15 0 56 96 146 345 40 110 97 262 125 338 30 79 47
137 41 137 -7 0 -28 -42 -48 -92z"/>
<path d="M1465 410 c0 -228 1 -322 2 -208 2 115 2 301 0 415 -1 115 -2 21 -2
-207z"/>
<path d="M1110 192 c-35 -13 -49 -26 -64 -56 -26 -53 -34 -136 -14 -136 11 0
14 7 11 23 -6 33 14 104 37 127 10 10 38 24 62 31 49 13 85 0 98 -36 10 -27
-12 -90 -41 -121 -19 -20 -20 -24 -6 -24 20 0 62 63 69 104 12 60 -26 107 -85
105 -12 0 -42 -8 -67 -17z"/>
</g>
</svg>
