<?xml version="1.0" standalone="no"?>
<!DOCTYPE svg PUBLIC "-//W3C//DTD SVG 20010904//EN"
 "http://www.w3.org/TR/2001/REC-SVG-20010904/DTD/svg10.dtd">
<svg version="1.0" xmlns="http://www.w3.org/2000/svg"
 width="166.000000pt" height="82.000000pt" viewBox="0 0 166.000000 82.000000"
 preserveAspectRatio="xMidYMid meet">
<metadata>
Created by potrace 1.16, written by Peter Selinger 2001-2019
</metadata>
<g transform="translate(0.000000,82.000000) scale(0.100000,-0.100000)"
fill="#000000" stroke="none">
<path d="M185 410 c0 -228 1 -322 2 -208 2 115 2 301 0 415 -1 115 -2 21 -2
-207z"/>
<path d="M1465 410 c0 -228 1 -322 2 -208 2 115 2 301 0 415 -1 115 -2 21 -2
-207z"/>
<path d="M645 669 c-13 -20 103 -189 130 -189 8 0 -7 28 -37 68 -28 37 -57 82
-65 100 -14 35 -18 38 -28 21z"/>
<path d="M517 116 c-4 -9 3 -16 16 -20 12 -3 45 -26 74 -51 28 -25 59 -45 68
-45 18 0 -84 93 -127 116 -22 11 -27 11 -31 0z"/>
</g>
</svg>
