<?xml version="1.0" standalone="no"?>
<!DOCTYPE svg PUBLIC "-//W3C//DTD SVG 20010904//EN"
 "http://www.w3.org/TR/2001/REC-SVG-20010904/DTD/svg10.dtd">
<svg version="1.0" xmlns="http://www.w3.org/2000/svg"
 width="166.000000pt" height="82.000000pt" viewBox="0 0 166.000000 82.000000"
 preserveAspectRatio="xMidYMid meet">
<metadata>
Created by potrace 1.16, written by Peter Selinger 2001-2019
</metadata>
<g transform="translate(0.000000,82.000000) scale(0.100000,-0.100000)"
fill="#000000" stroke="none">
<path d="M185 410 c0 -228 1 -322 2 -208 2 115 2 301 0 415 -1 115 -2 21 -2
-207z"/>
<path d="M967 798 c-15 -60 -19 -188 -7 -222 24 -75 88 -86 170 -31 29 20 54
34 56 33 1 -2 -9 -30 -24 -63 -22 -52 -26 -77 -30 -195 -4 -124 14 -299 32
-318 15 -14 15 12 1 93 -8 48 -15 140 -15 204 0 100 4 126 26 186 51 137 44
154 -35 94 -62 -46 -93 -56 -127 -40 -38 17 -47 54 -39 159 3 52 9 100 12 108
3 8 1 14 -5 14 -5 0 -12 -10 -15 -22z"/>
<path d="M1465 410 c0 -228 1 -322 2 -208 2 115 2 301 0 415 -1 115 -2 21 -2
-207z"/>
</g>
</svg>
