<?xml version="1.0" standalone="no"?>
<!DOCTYPE svg PUBLIC "-//W3C//DTD SVG 20010904//EN"
 "http://www.w3.org/TR/2001/REC-SVG-20010904/DTD/svg10.dtd">
<svg version="1.0" xmlns="http://www.w3.org/2000/svg"
 width="138.000000pt" height="166.000000pt" viewBox="0 0 138.000000 166.000000"
 preserveAspectRatio="xMidYMid meet">
<metadata>
Created by potrace 1.16, written by Peter Selinger 2001-2019
</metadata>
<g transform="translate(0.000000,166.000000) scale(0.100000,-0.100000)"
fill="#000000" stroke="none">
<path d="M342 1273 c192 -2 504 -2 695 0 192 1 35 2 -347 2 -382 0 -539 -1
-348 -2z"/>
<path d="M376 1003 c7 -153 -4 -225 -51 -316 -14 -27 -25 -55 -25 -63 0 -19
75 -18 155 1 35 9 110 15 178 15 110 0 117 1 117 20 0 19 -7 20 -121 20 -74 0
-147 -6 -190 -16 -39 -9 -72 -14 -75 -11 -2 2 4 24 14 48 30 68 42 141 42 242
0 142 -9 197 -32 197 -17 0 -18 -7 -12 -137z"/>
<path d="M342 413 c192 -2 504 -2 695 0 192 1 35 2 -347 2 -382 0 -539 -1
-348 -2z"/>
</g>
</svg>
