<?xml version="1.0" standalone="no"?>
<!DOCTYPE svg PUBLIC "-//W3C//DTD SVG 20010904//EN"
 "http://www.w3.org/TR/2001/REC-SVG-20010904/DTD/svg10.dtd">
<svg version="1.0" xmlns="http://www.w3.org/2000/svg"
 width="138.000000pt" height="166.000000pt" viewBox="0 0 138.000000 166.000000"
 preserveAspectRatio="xMidYMid meet">
<metadata>
Created by potrace 1.16, written by Peter Selinger 2001-2019
</metadata>
<g transform="translate(0.000000,166.000000) scale(0.100000,-0.100000)"
fill="#000000" stroke="none">
<path d="M342 1273 c192 -2 504 -2 695 0 192 1 35 2 -347 2 -382 0 -539 -1
-348 -2z"/>
<path d="M810 1118 c-24 -40 -45 -134 -65 -292 -8 -65 -18 -122 -21 -127 -19
-31 -49 45 -75 188 -30 171 -56 233 -97 233 -14 0 -29 -11 -42 -32 -37 -62
-120 -340 -120 -404 0 -18 8 -40 17 -50 16 -15 18 -15 39 9 39 45 93 222 111
361 5 33 3 38 -11 33 -18 -7 -20 1 -7 22 5 7 13 11 18 8 14 -9 39 -106 53
-202 15 -98 42 -174 75 -205 54 -50 81 -2 105 187 20 150 44 253 59 253 5 0
19 -37 31 -82 28 -109 108 -322 135 -362 26 -38 75 -50 75 -17 0 12 -7 21 -15
21 -8 0 -21 10 -29 23 -22 34 -93 227 -116 314 -31 117 -49 153 -77 153 -16 0
-30 -11 -43 -32z m-320 -243 c-15 -72 -53 -178 -45 -125 8 54 47 192 52 186 3
-2 -1 -30 -7 -61z"/>
<path d="M342 413 c192 -2 504 -2 695 0 192 1 35 2 -347 2 -382 0 -539 -1
-348 -2z"/>
</g>
</svg>
