<?xml version="1.0" standalone="no"?>
<!DOCTYPE svg PUBLIC "-//W3C//DTD SVG 20010904//EN"
 "http://www.w3.org/TR/2001/REC-SVG-20010904/DTD/svg10.dtd">
<svg version="1.0" xmlns="http://www.w3.org/2000/svg"
 width="138.000000pt" height="166.000000pt" viewBox="0 0 138.000000 166.000000"
 preserveAspectRatio="xMidYMid meet">
<metadata>
Created by potrace 1.16, written by Peter Selinger 2001-2019
</metadata>
<g transform="translate(0.000000,166.000000) scale(0.100000,-0.100000)"
fill="#000000" stroke="none">
<path d="M342 1273 c192 -2 504 -2 695 0 192 1 35 2 -347 2 -382 0 -539 -1
-348 -2z"/>
<path d="M603 1166 c-13 -16 -23 -34 -23 -40 0 -6 -5 -27 -10 -47 -9 -31 -13
-35 -38 -31 -38 5 -74 -26 -116 -101 -95 -170 -115 -319 -38 -278 26 14 136
159 168 222 13 27 26 49 28 49 2 0 18 -37 36 -82 18 -46 51 -118 72 -160 74
-144 98 -119 187 189 22 78 52 165 66 193 26 50 26 70 1 70 -18 0 -70 -118
-101 -230 -40 -142 -64 -215 -79 -235 -13 -18 -15 -16 -34 21 -12 23 -37 81
-58 130 -20 49 -45 105 -55 125 -15 30 -16 42 -7 80 6 24 15 47 20 50 5 3 8
28 6 55 l-3 49 -22 -29z m-67 -170 c8 -20 -36 -105 -99 -193 -81 -114 -87 -94
-16 57 59 125 101 174 115 136z"/>
<path d="M342 413 c192 -2 504 -2 695 0 192 1 35 2 -347 2 -382 0 -539 -1
-348 -2z"/>
</g>
</svg>
