<?xml version="1.0" standalone="no"?>
<!DOCTYPE svg PUBLIC "-//W3C//DTD SVG 20010904//EN"
 "http://www.w3.org/TR/2001/REC-SVG-20010904/DTD/svg10.dtd">
<svg version="1.0" xmlns="http://www.w3.org/2000/svg"
 width="138.000000pt" height="166.000000pt" viewBox="0 0 138.000000 166.000000"
 preserveAspectRatio="xMidYMid meet">
<metadata>
Created by potrace 1.16, written by Peter Selinger 2001-2019
</metadata>
<g transform="translate(0.000000,166.000000) scale(0.100000,-0.100000)"
fill="#000000" stroke="none">
<path d="M342 1273 c192 -2 504 -2 695 0 192 1 35 2 -347 2 -382 0 -539 -1
-348 -2z"/>
<path d="M727 1165 c-21 -8 -50 -23 -65 -33 -15 -11 -47 -22 -70 -26 -68 -10
-120 -42 -152 -93 -76 -119 -55 -289 46 -387 82 -80 187 -67 284 33 66 68 117
151 147 240 66 195 -27 325 -190 266z m117 -36 c31 -15 56 -65 56 -116 -1 -91
-96 -274 -181 -347 -43 -37 -102 -56 -144 -48 -15 2 -42 19 -59 37 -86 85
-105 241 -41 337 30 45 68 66 132 75 27 3 55 12 63 19 24 20 102 54 127 54 12
0 33 -5 47 -11z"/>
<path d="M342 413 c192 -2 504 -2 695 0 192 1 35 2 -347 2 -382 0 -539 -1
-348 -2z"/>
</g>
</svg>
