<?xml version="1.0" standalone="no"?>
<!DOCTYPE svg PUBLIC "-//W3C//DTD SVG 20010904//EN"
 "http://www.w3.org/TR/2001/REC-SVG-20010904/DTD/svg10.dtd">
<svg version="1.0" xmlns="http://www.w3.org/2000/svg"
 width="138.000000pt" height="166.000000pt" viewBox="0 0 138.000000 166.000000"
 preserveAspectRatio="xMidYMid meet">
<metadata>
Created by potrace 1.16, written by Peter Selinger 2001-2019
</metadata>
<g transform="translate(0.000000,166.000000) scale(0.100000,-0.100000)"
fill="#000000" stroke="none">
<path d="M342 1273 c192 -2 504 -2 695 0 192 1 35 2 -347 2 -382 0 -539 -1
-348 -2z"/>
<path d="M625 1120 c-27 -11 -66 -20 -85 -20 -99 0 -170 -127 -170 -303 1
-101 50 -185 132 -228 44 -23 118 -25 157 -5 28 15 94 83 122 126 l16 24 12
-22 c12 -23 35 -29 46 -12 4 6 -4 26 -16 46 -21 35 -22 37 -5 104 31 128 17
223 -41 277 -41 40 -90 43 -168 13z m138 -41 c15 -11 31 -38 38 -62 12 -44 6
-148 -11 -191 l-9 -24 -38 19 c-49 25 -65 24 -61 -3 2 -15 11 -24 24 -26 12
-2 30 -12 40 -23 15 -17 16 -22 3 -46 -8 -15 -34 -49 -59 -76 -41 -44 -51 -50
-95 -54 -41 -4 -56 0 -85 19 -89 60 -119 166 -86 298 21 81 42 116 61 100 10
-8 26 -2 70 25 103 66 164 79 208 44z"/>
<path d="M342 403 c192 -2 504 -2 695 0 192 1 35 2 -347 2 -382 0 -539 -1
-348 -2z"/>
</g>
</svg>
