<?xml version="1.0" standalone="no"?>
<!DOCTYPE svg PUBLIC "-//W3C//DTD SVG 20010904//EN"
 "http://www.w3.org/TR/2001/REC-SVG-20010904/DTD/svg10.dtd">
<svg version="1.0" xmlns="http://www.w3.org/2000/svg"
 width="138.000000pt" height="166.000000pt" viewBox="0 0 138.000000 166.000000"
 preserveAspectRatio="xMidYMid meet">
<metadata>
Created by potrace 1.16, written by Peter Selinger 2001-2019
</metadata>
<g transform="translate(0.000000,166.000000) scale(0.100000,-0.100000)"
fill="#000000" stroke="none">
<path d="M342 1273 c192 -2 504 -2 695 0 192 1 35 2 -347 2 -382 0 -539 -1
-348 -2z"/>
<path d="M620 1152 c-53 -24 -90 -81 -90 -139 0 -15 11 -73 24 -129 14 -55 25
-124 24 -153 0 -53 0 -53 -28 -47 -39 7 -60 -18 -29 -35 70 -37 307 60 356
146 28 49 28 71 4 111 -15 24 -31 34 -69 44 l-50 12 19 41 c10 23 19 50 19 59
0 31 -23 69 -51 84 -29 14 -102 18 -129 6z m104 -43 c32 -15 37 -29 25 -72
-12 -46 -46 -87 -70 -87 -16 0 -19 7 -19 50 0 28 -7 64 -15 79 -8 16 -11 31
-8 35 10 10 60 7 87 -5z m-118 -82 c18 -10 18 -77 0 -111 -13 -27 -14 -26 -25
39 -11 61 -5 133 7 95 3 -8 11 -19 18 -23z m227 -129 c30 -16 22 -75 -15 -111
-33 -30 -144 -87 -172 -87 -19 0 -25 54 -12 112 9 41 18 53 56 78 38 26 51 29
85 24 22 -3 48 -10 58 -16z"/>
<path d="M342 413 c192 -2 504 -2 695 0 192 1 35 2 -347 2 -382 0 -539 -1
-348 -2z"/>
</g>
</svg>
