<?xml version="1.0" standalone="no"?>
<!DOCTYPE svg PUBLIC "-//W3C//DTD SVG 20010904//EN"
 "http://www.w3.org/TR/2001/REC-SVG-20010904/DTD/svg10.dtd">
<svg version="1.0" xmlns="http://www.w3.org/2000/svg"
 width="138.000000pt" height="166.000000pt" viewBox="0 0 138.000000 166.000000"
 preserveAspectRatio="xMidYMid meet">
<metadata>
Created by potrace 1.16, written by Peter Selinger 2001-2019
</metadata>
<g transform="translate(0.000000,166.000000) scale(0.100000,-0.100000)"
fill="#000000" stroke="none">
<path d="M342 1263 c192 -2 504 -2 695 0 192 1 35 2 -347 2 -382 0 -539 -1
-348 -2z"/>
<path d="M666 1123 c-31 -31 -45 -140 -27 -203 10 -35 -22 -127 -67 -191 -37
-51 -104 -101 -118 -86 -4 4 -11 87 -15 183 -4 97 -10 178 -13 182 -3 3 -1 11
5 19 9 10 7 19 -6 39 -15 24 -19 25 -32 11 -13 -13 -14 -28 -4 -110 6 -53 11
-140 12 -194 0 -122 14 -167 51 -171 63 -7 143 63 193 169 l24 53 16 -39 c26
-66 42 -90 64 -93 16 -3 21 2 21 19 0 12 -6 27 -14 33 -8 6 -26 41 -40 78
l-25 67 22 103 c11 57 18 111 14 121 -6 17 -47 24 -61 10z"/>
<path d="M342 403 c192 -2 504 -2 695 0 192 1 35 2 -347 2 -382 0 -539 -1
-348 -2z"/>
</g>
</svg>
