<?xml version="1.0" standalone="no"?>
<!DOCTYPE svg PUBLIC "-//W3C//DTD SVG 20010904//EN"
 "http://www.w3.org/TR/2001/REC-SVG-20010904/DTD/svg10.dtd">
<svg version="1.0" xmlns="http://www.w3.org/2000/svg"
 width="138.000000pt" height="166.000000pt" viewBox="0 0 138.000000 166.000000"
 preserveAspectRatio="xMidYMid meet">
<metadata>
Created by potrace 1.16, written by Peter Selinger 2001-2019
</metadata>
<g transform="translate(0.000000,166.000000) scale(0.100000,-0.100000)"
fill="#000000" stroke="none">
<path d="M342 1263 c192 -2 504 -2 695 0 192 1 35 2 -347 2 -382 0 -539 -1
-348 -2z"/>
<path d="M961 1133 c-6 -21 -20 -101 -31 -178 -21 -135 -37 -185 -62 -185 -6
0 -32 21 -57 48 -33 34 -59 76 -92 152 -40 92 -48 105 -69 105 -31 0 -44 -25
-86 -173 -34 -116 -67 -187 -91 -196 -28 -11 -58 98 -67 249 -8 113 -14 134
-37 128 -17 -5 -19 -12 -14 -47 3 -22 10 -88 16 -145 12 -116 40 -206 71 -222
28 -15 68 4 96 46 22 34 41 88 82 233 12 39 25 72 30 72 6 0 10 -5 10 -12 0
-7 20 -53 45 -104 53 -110 119 -177 169 -172 49 5 71 49 91 185 9 65 23 146
31 181 17 78 18 72 -6 72 -14 0 -22 -10 -29 -37z"/>
<path d="M342 403 c192 -2 504 -2 695 0 192 1 35 2 -347 2 -382 0 -539 -1
-348 -2z"/>
</g>
</svg>
