<?xml version="1.0" standalone="no"?>
<!DOCTYPE svg PUBLIC "-//W3C//DTD SVG 20010904//EN"
 "http://www.w3.org/TR/2001/REC-SVG-20010904/DTD/svg10.dtd">
<svg version="1.0" xmlns="http://www.w3.org/2000/svg"
 width="138.000000pt" height="166.000000pt" viewBox="0 0 138.000000 166.000000"
 preserveAspectRatio="xMidYMid meet">
<metadata>
Created by potrace 1.16, written by Peter Selinger 2001-2019
</metadata>
<g transform="translate(0.000000,166.000000) scale(0.100000,-0.100000)"
fill="#000000" stroke="none">
<path d="M342 1263 c192 -2 504 -2 695 0 192 1 35 2 -347 2 -382 0 -539 -1
-348 -2z"/>
<path d="M388 1159 c-13 -7 -18 -22 -18 -49 0 -33 3 -40 20 -40 15 0 20 7 20
25 0 16 6 25 16 25 17 0 97 -78 153 -148 l33 -43 -78 -77 c-69 -67 -115 -103
-190 -148 -11 -7 -15 -16 -11 -28 12 -30 117 35 216 134 l86 85 65 -65 c77
-77 114 -100 133 -81 9 10 6 17 -16 34 -56 44 -129 112 -139 130 -8 15 -4 27
19 55 16 21 44 61 62 90 18 28 37 52 41 52 11 0 21 30 15 41 -13 20 -59 -20
-111 -98 -31 -45 -59 -83 -63 -83 -4 0 -35 33 -69 74 -82 98 -146 137 -184
115z"/>
<path d="M342 403 c192 -2 504 -2 695 0 192 1 35 2 -347 2 -382 0 -539 -1
-348 -2z"/>
</g>
</svg>
