<?xml version="1.0" standalone="no"?>
<!DOCTYPE svg PUBLIC "-//W3C//DTD SVG 20010904//EN"
 "http://www.w3.org/TR/2001/REC-SVG-20010904/DTD/svg10.dtd">
<svg version="1.0" xmlns="http://www.w3.org/2000/svg"
 width="138.000000pt" height="166.000000pt" viewBox="0 0 138.000000 166.000000"
 preserveAspectRatio="xMidYMid meet">
<metadata>
Created by potrace 1.16, written by Peter Selinger 2001-2019
</metadata>
<g transform="translate(0.000000,166.000000) scale(0.100000,-0.100000)"
fill="#000000" stroke="none">
<path d="M342 1263 c192 -2 504 -2 695 0 192 1 35 2 -347 2 -382 0 -539 -1
-348 -2z"/>
<path d="M477 1182 c-14 -16 -17 -43 -17 -167 0 -128 -3 -154 -20 -190 -12
-26 -21 -66 -22 -109 -3 -61 -1 -69 22 -86 49 -38 132 -17 197 52 48 50 66
100 53 147 -15 56 -47 74 -126 69 l-64 -4 0 118 c0 98 3 118 15 118 19 0 19 4
0 40 -18 35 -17 35 -38 12z m150 -330 c20 -13 31 -55 21 -82 -19 -51 -102
-120 -145 -120 -39 0 -47 16 -24 46 12 18 23 53 27 89 4 33 12 63 18 67 14 10
88 10 103 0z"/>
<path d="M342 403 c192 -2 504 -2 695 0 192 1 35 2 -347 2 -382 0 -539 -1
-348 -2z"/>
</g>
</svg>
