<?xml version="1.0" standalone="no"?>
<!DOCTYPE svg PUBLIC "-//W3C//DTD SVG 20010904//EN"
 "http://www.w3.org/TR/2001/REC-SVG-20010904/DTD/svg10.dtd">
<svg version="1.0" xmlns="http://www.w3.org/2000/svg"
 width="138.000000pt" height="166.000000pt" viewBox="0 0 138.000000 166.000000"
 preserveAspectRatio="xMidYMid meet">
<metadata>
Created by potrace 1.16, written by Peter Selinger 2001-2019
</metadata>
<g transform="translate(0.000000,166.000000) scale(0.100000,-0.100000)"
fill="#000000" stroke="none">
<path d="M655 1302 l-7 -32 -326 -2 -327 -3 324 -2 324 -3 -7 -77 c-3 -42 -6
-111 -6 -154 l0 -78 -29 10 c-42 15 -74 -9 -111 -84 -38 -77 -42 -169 -9 -211
32 -41 73 -33 135 26 l32 30 23 -41 c22 -39 42 -51 53 -32 3 5 -6 32 -21 60
l-26 51 17 93 c11 59 18 149 19 249 l2 158 335 2 335 3 -334 2 -335 3 -27 32
-26 33 -8 -33z m-50 -412 c4 -16 11 -30 16 -30 5 0 9 -19 9 -43 0 -35 -7 -51
-36 -85 -37 -44 -77 -56 -88 -26 -19 50 4 146 46 191 29 31 45 29 53 -7z"/>
<path d="M342 403 c192 -2 504 -2 695 0 192 1 35 2 -347 2 -382 0 -539 -1
-348 -2z"/>
</g>
</svg>
