<?xml version="1.0" standalone="no"?>
<!DOCTYPE svg PUBLIC "-//W3C//DTD SVG 20010904//EN"
 "http://www.w3.org/TR/2001/REC-SVG-20010904/DTD/svg10.dtd">
<svg version="1.0" xmlns="http://www.w3.org/2000/svg"
 width="138.000000pt" height="166.000000pt" viewBox="0 0 138.000000 166.000000"
 preserveAspectRatio="xMidYMid meet">
<metadata>
Created by potrace 1.16, written by Peter Selinger 2001-2019
</metadata>
<g transform="translate(0.000000,166.000000) scale(0.100000,-0.100000)"
fill="#000000" stroke="none">
<path d="M342 1273 c192 -2 504 -2 695 0 192 1 35 2 -347 2 -382 0 -539 -1
-348 -2z"/>
<path d="M587 1115 c-89 -52 -207 -160 -231 -209 -30 -63 -30 -92 -2 -149 37
-76 85 -102 186 -100 120 1 347 83 333 119 -7 18 -4 18 -133 -32 -74 -29 -113
-38 -179 -42 -97 -5 -135 8 -165 59 -52 88 7 183 189 301 99 64 146 75 178 38
24 -28 37 -25 37 10 0 37 -23 50 -87 50 -39 0 -63 -8 -126 -45z"/>
<path d="M342 413 c192 -2 504 -2 695 0 192 1 35 2 -347 2 -382 0 -539 -1
-348 -2z"/>
</g>
</svg>
