<?xml version="1.0" standalone="no"?>
<!DOCTYPE svg PUBLIC "-//W3C//DTD SVG 20010904//EN"
 "http://www.w3.org/TR/2001/REC-SVG-20010904/DTD/svg10.dtd">
<svg version="1.0" xmlns="http://www.w3.org/2000/svg"
 width="138.000000pt" height="166.000000pt" viewBox="0 0 138.000000 166.000000"
 preserveAspectRatio="xMidYMid meet">
<metadata>
Created by potrace 1.16, written by Peter Selinger 2001-2019
</metadata>
<g transform="translate(0.000000,166.000000) scale(0.100000,-0.100000)"
fill="#000000" stroke="none">
<path d="M342 1263 c192 -2 504 -2 695 0 192 1 35 2 -347 2 -382 0 -539 -1
-348 -2z"/>
<path d="M585 1060 c-30 -12 -95 -87 -116 -134 -43 -99 -33 -187 27 -233 31
-23 46 -27 103 -27 62 0 221 38 221 53 0 3 -4 12 -9 19 -7 11 -21 10 -76 -7
-81 -25 -181 -28 -212 -6 -13 9 -28 34 -35 57 -11 36 -10 42 7 54 10 8 28 14
39 14 29 1 98 33 149 70 76 54 94 115 41 139 -29 13 -109 14 -139 1z m123 -47
c9 -30 -148 -133 -183 -119 -26 10 -17 34 34 87 47 48 50 50 96 47 27 -2 50
-8 53 -15z"/>
<path d="M342 403 c192 -2 504 -2 695 0 192 1 35 2 -347 2 -382 0 -539 -1
-348 -2z"/>
</g>
</svg>
