<?xml version="1.0" standalone="no"?>
<!DOCTYPE svg PUBLIC "-//W3C//DTD SVG 20010904//EN"
 "http://www.w3.org/TR/2001/REC-SVG-20010904/DTD/svg10.dtd">
<svg version="1.0" xmlns="http://www.w3.org/2000/svg"
 width="138.000000pt" height="166.000000pt" viewBox="0 0 138.000000 166.000000"
 preserveAspectRatio="xMidYMid meet">
<metadata>
Created by potrace 1.16, written by Peter Selinger 2001-2019
</metadata>
<g transform="translate(0.000000,166.000000) scale(0.100000,-0.100000)"
fill="#000000" stroke="none">
<path d="M342 1263 c192 -2 504 -2 695 0 192 1 35 2 -347 2 -382 0 -539 -1
-348 -2z"/>
<path d="M711 1193 c-30 -25 -42 -84 -35 -170 l6 -72 -38 -10 c-22 -5 -61 -15
-89 -22 -39 -9 -135 -63 -135 -75 0 -1 59 13 132 32 73 18 133 32 134 31 1 -1
12 -82 24 -179 23 -188 20 -218 -21 -218 -11 0 -34 7 -51 16 -25 13 -32 14
-39 2 -14 -21 -11 -25 25 -42 50 -23 92 -20 121 9 31 30 31 43 5 254 -11 90
-19 166 -16 168 2 2 38 7 80 10 72 6 76 7 76 30 0 21 -3 23 -32 19 -18 -3 -57
-8 -85 -11 l-53 -6 0 95 c0 71 4 97 14 103 18 10 25 45 10 50 -6 2 -21 -4 -33
-14z"/>
<path d="M342 403 c192 -2 504 -2 695 0 192 1 35 2 -347 2 -382 0 -539 -1
-348 -2z"/>
</g>
</svg>
