<?xml version="1.0" standalone="no"?>
<!DOCTYPE svg PUBLIC "-//W3C//DTD SVG 20010904//EN"
 "http://www.w3.org/TR/2001/REC-SVG-20010904/DTD/svg10.dtd">
<svg version="1.0" xmlns="http://www.w3.org/2000/svg"
 width="138.000000pt" height="166.000000pt" viewBox="0 0 138.000000 166.000000"
 preserveAspectRatio="xMidYMid meet">
<metadata>
Created by potrace 1.16, written by Peter Selinger 2001-2019
</metadata>
<g transform="translate(0.000000,166.000000) scale(0.100000,-0.100000)"
fill="#000000" stroke="none">
<path d="M342 1273 c192 -2 504 -2 695 0 192 1 35 2 -347 2 -382 0 -539 -1
-348 -2z"/>
<path d="M607 1149 c-7 -26 -1 -39 18 -39 24 0 28 21 8 42 -20 20 -20 20 -26
-3z"/>
<path d="M586 974 c-8 -22 -7 -36 3 -53 8 -12 12 -12 25 -2 24 20 40 -23 44
-129 5 -118 -10 -164 -61 -185 -19 -8 -45 -11 -58 -8 -42 11 -94 51 -119 93
-27 43 -28 44 -49 31 -22 -14 29 -93 84 -129 94 -62 179 -48 223 38 18 36 22
61 22 135 0 109 -13 159 -50 197 -32 31 -55 36 -64 12z"/>
<path d="M342 413 c192 -2 504 -2 695 0 192 1 35 2 -347 2 -382 0 -539 -1
-348 -2z"/>
</g>
</svg>
