<?xml version="1.0" standalone="no"?>
<!DOCTYPE svg PUBLIC "-//W3C//DTD SVG 20010904//EN"
 "http://www.w3.org/TR/2001/REC-SVG-20010904/DTD/svg10.dtd">
<svg version="1.0" xmlns="http://www.w3.org/2000/svg"
 width="138.000000pt" height="166.000000pt" viewBox="0 0 138.000000 166.000000"
 preserveAspectRatio="xMidYMid meet">
<metadata>
Created by potrace 1.16, written by Peter Selinger 2001-2019
</metadata>
<g transform="translate(0.000000,166.000000) scale(0.100000,-0.100000)"
fill="#000000" stroke="none">
<path d="M342 1273 c192 -2 504 -2 695 0 192 1 35 2 -347 2 -382 0 -539 -1
-348 -2z"/>
<path d="M484 1144 c-4 -33 -2 -115 3 -184 6 -69 9 -159 7 -200 -1 -41 0 -88
3 -103 l5 -29 24 23 c14 13 24 34 24 49 l0 27 63 -14 c34 -8 87 -20 117 -28
53 -13 69 -9 70 17 0 9 -87 34 -150 43 -69 11 -110 31 -110 54 0 26 17 41 101
96 51 33 74 55 85 81 8 20 13 38 11 40 -2 2 -18 -1 -35 -7 -20 -7 -29 -15 -25
-24 6 -19 -129 -108 -138 -92 -4 7 -11 74 -17 150 -11 154 -26 194 -38 101z"/>
<path d="M342 413 c192 -2 504 -2 695 0 192 1 35 2 -347 2 -382 0 -539 -1
-348 -2z"/>
</g>
</svg>
