<?xml version="1.0" standalone="no"?>
<!DOCTYPE svg PUBLIC "-//W3C//DTD SVG 20010904//EN"
 "http://www.w3.org/TR/2001/REC-SVG-20010904/DTD/svg10.dtd">
<svg version="1.0" xmlns="http://www.w3.org/2000/svg"
 width="138.000000pt" height="166.000000pt" viewBox="0 0 138.000000 166.000000"
 preserveAspectRatio="xMidYMid meet">
<metadata>
Created by potrace 1.16, written by Peter Selinger 2001-2019
</metadata>
<g transform="translate(0.000000,166.000000) scale(0.100000,-0.100000)"
fill="#000000" stroke="none">
<path d="M342 1273 c192 -2 504 -2 695 0 192 1 35 2 -347 2 -382 0 -539 -1
-348 -2z"/>
<path d="M420 973 c-12 -9 -29 -32 -37 -52 l-16 -36 -12 35 c-8 23 -19 36 -33
38 -27 4 -26 8 -2 -63 11 -32 20 -79 20 -104 0 -81 11 -121 31 -121 16 0 19 8
19 48 0 101 41 246 60 211 4 -8 10 -32 14 -54 13 -75 47 -164 78 -202 17 -21
29 -31 26 -23 -23 66 -30 131 -18 174 15 54 60 112 82 104 8 -4 27 -43 41 -90
32 -102 56 -142 98 -163 26 -14 33 -15 40 -3 14 21 11 28 -16 40 -33 15 -58
57 -84 143 -12 38 -28 80 -37 92 -30 47 -105 18 -143 -55 l-18 -35 -12 51
c-16 64 -46 89 -81 65z"/>
<path d="M342 413 c192 -2 504 -2 695 0 192 1 35 2 -347 2 -382 0 -539 -1
-348 -2z"/>
</g>
</svg>
