<?xml version="1.0" standalone="no"?>
<!DOCTYPE svg PUBLIC "-//W3C//DTD SVG 20010904//EN"
 "http://www.w3.org/TR/2001/REC-SVG-20010904/DTD/svg10.dtd">
<svg version="1.0" xmlns="http://www.w3.org/2000/svg"
 width="138.000000pt" height="166.000000pt" viewBox="0 0 138.000000 166.000000"
 preserveAspectRatio="xMidYMid meet">
<metadata>
Created by potrace 1.16, written by Peter Selinger 2001-2019
</metadata>
<g transform="translate(0.000000,166.000000) scale(0.100000,-0.100000)"
fill="#000000" stroke="none">
<path d="M342 1273 c192 -2 504 -2 695 0 192 1 35 2 -347 2 -382 0 -539 -1
-348 -2z"/>
<path d="M445 1028 c-6 -47 -4 -60 10 -74 15 -15 16 -34 10 -168 -7 -134 -6
-153 9 -165 9 -8 19 -11 22 -8 3 3 10 53 14 111 6 68 16 122 29 151 33 74 47
61 95 -85 38 -112 70 -160 94 -137 11 12 10 20 -12 51 -14 21 -32 63 -41 94
-23 85 -46 131 -73 153 -25 19 -25 19 -57 0 l-32 -19 -13 42 c-7 22 -20 57
-30 76 l-18 35 -7 -57z"/>
<path d="M342 413 c192 -2 504 -2 695 0 192 1 35 2 -347 2 -382 0 -539 -1
-348 -2z"/>
</g>
</svg>
