<?xml version="1.0" standalone="no"?>
<!DOCTYPE svg PUBLIC "-//W3C//DTD SVG 20010904//EN"
 "http://www.w3.org/TR/2001/REC-SVG-20010904/DTD/svg10.dtd">
<svg version="1.0" xmlns="http://www.w3.org/2000/svg"
 width="138.000000pt" height="166.000000pt" viewBox="0 0 138.000000 166.000000"
 preserveAspectRatio="xMidYMid meet">
<metadata>
Created by potrace 1.16, written by Peter Selinger 2001-2019
</metadata>
<g transform="translate(0.000000,166.000000) scale(0.100000,-0.100000)"
fill="#000000" stroke="none">
<path d="M342 1273 c192 -2 504 -2 695 0 192 1 35 2 -347 2 -382 0 -539 -1
-348 -2z"/>
<path d="M641 1194 c-42 -35 -91 -138 -93 -196 -2 -38 3 -52 22 -73 45 -48
119 -23 178 60 14 19 27 34 28 32 2 -2 -10 -57 -27 -123 -35 -136 -49 -267
-29 -279 21 -13 31 10 34 81 2 38 22 139 44 224 61 236 63 272 13 241 -9 -6
-22 1 -43 25 -38 43 -82 46 -127 8z m85 -22 c17 -11 34 -48 34 -75 0 -30 -69
-128 -103 -146 -13 -7 -34 -10 -46 -6 -43 13 -18 130 43 203 27 31 50 39 72
24z"/>
<path d="M660 1071 c0 -6 5 -13 10 -16 6 -3 10 1 10 9 0 9 -4 16 -10 16 -5 0
-10 -4 -10 -9z"/>
<path d="M342 413 c192 -2 504 -2 695 0 192 1 35 2 -347 2 -382 0 -539 -1
-348 -2z"/>
</g>
</svg>
