<?xml version="1.0" standalone="no"?>
<!DOCTYPE svg PUBLIC "-//W3C//DTD SVG 20010904//EN"
 "http://www.w3.org/TR/2001/REC-SVG-20010904/DTD/svg10.dtd">
<svg version="1.0" xmlns="http://www.w3.org/2000/svg"
 width="138.000000pt" height="166.000000pt" viewBox="0 0 138.000000 166.000000"
 preserveAspectRatio="xMidYMid meet">
<metadata>
Created by potrace 1.16, written by Peter Selinger 2001-2019
</metadata>
<g transform="translate(0.000000,166.000000) scale(0.100000,-0.100000)"
fill="#000000" stroke="none">
<path d="M342 1273 c192 -2 504 -2 695 0 192 1 35 2 -347 2 -382 0 -539 -1
-348 -2z"/>
<path d="M680 1077 c-24 -12 -25 -18 -30 -117 -5 -105 -5 -105 -30 -102 -14 1
-42 10 -62 19 -37 15 -68 13 -68 -6 0 -12 79 -48 125 -57 31 -5 35 -10 35 -38
0 -53 19 -101 51 -132 27 -26 36 -29 92 -28 34 1 79 9 100 18 32 14 36 19 28
35 -10 18 -12 18 -68 -1 -99 -34 -148 -5 -160 91 l-5 48 45 6 c24 3 56 12 70
18 22 10 24 15 16 31 -7 13 -14 16 -27 9 -9 -5 -36 -12 -59 -16 l-43 -7 0 91
c0 79 2 92 20 104 13 9 18 20 14 31 -7 19 -11 20 -44 3z"/>
<path d="M342 413 c192 -2 504 -2 695 0 192 1 35 2 -347 2 -382 0 -539 -1
-348 -2z"/>
</g>
</svg>
