<?xml version="1.0" standalone="no"?>
<!DOCTYPE svg PUBLIC "-//W3C//DTD SVG 20010904//EN"
 "http://www.w3.org/TR/2001/REC-SVG-20010904/DTD/svg10.dtd">
<svg version="1.0" xmlns="http://www.w3.org/2000/svg"
 width="138.000000pt" height="166.000000pt" viewBox="0 0 138.000000 166.000000"
 preserveAspectRatio="xMidYMid meet">
<metadata>
Created by potrace 1.16, written by Peter Selinger 2001-2019
</metadata>
<g transform="translate(0.000000,166.000000) scale(0.100000,-0.100000)"
fill="#000000" stroke="none">
<path d="M342 1273 c192 -2 504 -2 695 0 192 1 35 2 -347 2 -382 0 -539 -1
-348 -2z"/>
<path d="M436 1067 c-17 -12 -17 -15 -2 -53 9 -21 23 -44 32 -50 10 -8 22 -55
34 -135 27 -175 67 -269 115 -269 21 0 54 35 59 62 21 111 81 342 98 378 24
52 29 80 15 80 -44 0 -90 -135 -153 -448 -7 -34 -26 -23 -52 29 -16 32 -30 96
-47 214 -21 149 -26 171 -47 187 -28 21 -29 21 -52 5z"/>
<path d="M342 413 c192 -2 504 -2 695 0 192 1 35 2 -347 2 -382 0 -539 -1
-348 -2z"/>
</g>
</svg>
