<?xml version="1.0" standalone="no"?>
<!DOCTYPE svg PUBLIC "-//W3C//DTD SVG 20010904//EN"
 "http://www.w3.org/TR/2001/REC-SVG-20010904/DTD/svg10.dtd">
<svg version="1.0" xmlns="http://www.w3.org/2000/svg"
 width="138.000000pt" height="166.000000pt" viewBox="0 0 138.000000 166.000000"
 preserveAspectRatio="xMidYMid meet">
<metadata>
Created by potrace 1.16, written by Peter Selinger 2001-2019
</metadata>
<g transform="translate(0.000000,166.000000) scale(0.100000,-0.100000)"
fill="#000000" stroke="none">
<path d="M342 1273 c192 -2 504 -2 695 0 192 1 35 2 -347 2 -382 0 -539 -1
-348 -2z"/>
<path d="M842 1118 c-5 -7 -20 -62 -31 -122 -23 -113 -44 -176 -59 -176 -19 0
-52 49 -81 120 -34 84 -71 124 -104 114 -46 -14 -74 -53 -107 -148 l-17 -51
-16 55 c-9 30 -21 85 -27 122 -11 62 -32 100 -47 84 -10 -10 15 -153 47 -265
17 -57 30 -110 30 -117 0 -8 8 -14 19 -14 15 0 19 10 25 54 9 77 43 181 70
213 29 33 51 26 72 -24 70 -159 88 -183 144 -183 34 0 65 66 90 193 11 56 13
58 30 42 12 -11 26 -14 39 -10 26 8 27 20 2 37 -10 8 -29 30 -41 51 -25 42
-24 41 -38 25z"/>
<path d="M342 413 c192 -2 504 -2 695 0 192 1 35 2 -347 2 -382 0 -539 -1
-348 -2z"/>
</g>
</svg>
