<?xml version="1.0" standalone="no"?>
<!DOCTYPE svg PUBLIC "-//W3C//DTD SVG 20010904//EN"
 "http://www.w3.org/TR/2001/REC-SVG-20010904/DTD/svg10.dtd">
<svg version="1.0" xmlns="http://www.w3.org/2000/svg"
 width="138.000000pt" height="166.000000pt" viewBox="0 0 138.000000 166.000000"
 preserveAspectRatio="xMidYMid meet">
<metadata>
Created by potrace 1.16, written by Peter Selinger 2001-2019
</metadata>
<g transform="translate(0.000000,166.000000) scale(0.100000,-0.100000)"
fill="#000000" stroke="none">
<path d="M342 1273 c192 -2 504 -2 695 0 192 1 35 2 -347 2 -382 0 -539 -1
-348 -2z"/>
<path d="M364 1108 c-12 -37 -14 -81 -17 -290 -2 -135 -6 -201 -14 -209 -9 -9
-8 -19 4 -43 l16 -31 14 22 c15 22 19 22 157 16 116 -5 145 -9 161 -24 19 -17
21 -17 48 7 50 43 28 50 -169 57 -97 4 -177 8 -178 9 -1 2 0 57 2 123 l3 120
126 0 c109 0 126 2 134 18 15 26 -9 31 -122 23 -84 -5 -101 -4 -105 9 -4 8
-12 15 -20 15 -10 0 -14 12 -14 38 0 34 17 112 24 112 2 0 20 -7 41 -16 28
-11 54 -14 104 -8 77 8 82 10 74 30 -4 11 -22 14 -82 13 -43 -2 -84 2 -92 7
-8 4 -24 7 -37 5 -13 -1 -29 3 -37 9 -10 9 -15 6 -21 -12z"/>
<path d="M342 413 c192 -2 504 -2 695 0 192 1 35 2 -347 2 -382 0 -539 -1
-348 -2z"/>
</g>
</svg>
