<?xml version="1.0" standalone="no"?>
<!DOCTYPE svg PUBLIC "-//W3C//DTD SVG 20010904//EN"
 "http://www.w3.org/TR/2001/REC-SVG-20010904/DTD/svg10.dtd">
<svg version="1.0" xmlns="http://www.w3.org/2000/svg"
 width="138.000000pt" height="166.000000pt" viewBox="0 0 138.000000 166.000000"
 preserveAspectRatio="xMidYMid meet">
<metadata>
Created by potrace 1.16, written by Peter Selinger 2001-2019
</metadata>
<g transform="translate(0.000000,166.000000) scale(0.100000,-0.100000)"
fill="#000000" stroke="none">
<path d="M342 1273 c192 -2 504 -2 695 0 192 1 35 2 -347 2 -382 0 -539 -1
-348 -2z"/>
<path d="M660 1060 c-94 -7 -171 -27 -140 -37 8 -3 39 -17 67 -30 32 -15 66
-23 85 -21 l33 3 -35 23 -35 22 51 0 c28 0 72 3 98 6 42 6 46 5 46 -14 0 -21
-68 -130 -96 -153 -14 -11 -22 -10 -54 9 -32 18 -40 19 -49 8 -9 -11 -5 -19
20 -39 l32 -25 -29 -26 c-16 -15 -57 -47 -91 -72 -77 -56 -81 -78 -20 -95 50
-13 214 -6 269 12 51 17 90 50 79 68 -7 11 -19 9 -64 -13 -44 -22 -75 -29
-150 -33 -54 -3 -97 -2 -100 4 -5 8 54 61 132 117 36 27 114 123 140 173 40
80 21 124 -52 121 -23 -1 -85 -4 -137 -8z"/>
<path d="M342 403 c192 -2 504 -2 695 0 192 1 35 2 -347 2 -382 0 -539 -1
-348 -2z"/>
</g>
</svg>
