<?xml version="1.0" standalone="no"?>
<!DOCTYPE svg PUBLIC "-//W3C//DTD SVG 20010904//EN"
 "http://www.w3.org/TR/2001/REC-SVG-20010904/DTD/svg10.dtd">
<svg version="1.0" xmlns="http://www.w3.org/2000/svg"
 width="138.000000pt" height="166.000000pt" viewBox="0 0 138.000000 166.000000"
 preserveAspectRatio="xMidYMid meet">
<metadata>
Created by potrace 1.16, written by Peter Selinger 2001-2019
</metadata>
<g transform="translate(0.000000,166.000000) scale(0.100000,-0.100000)"
fill="#000000" stroke="none">
<path d="M342 1263 c192 -2 504 -2 695 0 192 1 35 2 -347 2 -382 0 -539 -1
-348 -2z"/>
<path d="M538 1203 c-20 -5 -32 -35 -23 -62 11 -35 55 -41 147 -21 97 22 115
15 103 -39 -9 -44 -76 -124 -119 -145 -83 -39 -64 -93 50 -139 76 -30 105 -56
97 -87 -13 -50 -120 -103 -232 -116 -52 -6 -61 -9 -61 -27 0 -18 5 -19 63 -14
90 9 180 42 226 85 79 73 59 148 -50 186 -60 21 -99 42 -99 54 0 5 15 16 34
25 41 19 110 102 126 153 16 49 5 102 -25 116 -18 8 -41 7 -95 -6 -104 -23
-122 -22 -114 8 6 26 -2 35 -28 29z"/>
<path d="M342 403 c192 -2 504 -2 695 0 192 1 35 2 -347 2 -382 0 -539 -1
-348 -2z"/>
</g>
</svg>
