<?xml version="1.0" standalone="no"?>
<!DOCTYPE svg PUBLIC "-//W3C//DTD SVG 20010904//EN"
 "http://www.w3.org/TR/2001/REC-SVG-20010904/DTD/svg10.dtd">
<svg version="1.0" xmlns="http://www.w3.org/2000/svg"
 width="138.000000pt" height="166.000000pt" viewBox="0 0 138.000000 166.000000"
 preserveAspectRatio="xMidYMid meet">
<metadata>
Created by potrace 1.16, written by Peter Selinger 2001-2019
</metadata>
<g transform="translate(0.000000,166.000000) scale(0.100000,-0.100000)"
fill="#000000" stroke="none">
<path d="M342 1263 c192 -2 504 -2 695 0 192 1 35 2 -347 2 -382 0 -539 -1
-348 -2z"/>
<path d="M669 1117 c-15 -12 -34 -42 -43 -66 -25 -66 -67 -121 -144 -190 -56
-48 -69 -66 -65 -82 6 -21 10 -21 169 -17 l164 4 0 -88 c0 -81 2 -88 20 -88
18 0 20 7 20 89 l0 89 31 6 c17 3 43 6 56 6 18 0 24 5 21 18 -3 13 -14 17 -58
18 l-55 1 -8 44 c-4 24 -6 86 -5 136 2 73 0 94 -11 98 -8 3 -19 1 -24 -4 -11
-11 -13 -155 -3 -227 l7 -51 -68 -6 c-84 -8 -183 -9 -183 -1 0 3 27 30 59 60
42 39 71 78 99 132 32 63 59 142 49 142 -1 0 -14 -10 -28 -23z"/>
<path d="M342 403 c192 -2 504 -2 695 0 192 1 35 2 -347 2 -382 0 -539 -1
-348 -2z"/>
</g>
</svg>
