<?xml version="1.0" standalone="no"?>
<!DOCTYPE svg PUBLIC "-//W3C//DTD SVG 20010904//EN"
 "http://www.w3.org/TR/2001/REC-SVG-20010904/DTD/svg10.dtd">
<svg version="1.0" xmlns="http://www.w3.org/2000/svg"
 width="138.000000pt" height="166.000000pt" viewBox="0 0 138.000000 166.000000"
 preserveAspectRatio="xMidYMid meet">
<metadata>
Created by potrace 1.16, written by Peter Selinger 2001-2019
</metadata>
<g transform="translate(0.000000,166.000000) scale(0.100000,-0.100000)"
fill="#000000" stroke="none">
<path d="M342 1263 c192 -2 504 -2 695 0 192 1 35 2 -347 2 -382 0 -539 -1
-348 -2z"/>
<path d="M621 1161 c-24 -24 -35 -78 -28 -130 l5 -37 -81 -20 c-81 -19 -94
-28 -79 -52 7 -10 16 -10 48 1 21 8 55 17 76 21 35 6 37 5 48 -28 14 -43 73
-97 173 -159 42 -27 77 -54 77 -61 0 -26 -62 -41 -165 -41 -120 0 -166 17
-208 76 -24 34 -31 38 -48 28 -23 -12 -21 -17 40 -82 45 -47 108 -67 216 -67
141 0 228 42 210 100 -4 13 -48 49 -103 85 -98 63 -130 91 -151 132 -13 25
-10 28 44 37 79 14 145 36 145 51 0 22 -14 25 -61 11 -24 -7 -65 -16 -91 -20
-46 -7 -46 -7 -53 24 -12 52 2 99 31 106 16 4 24 12 22 23 -5 24 -44 25 -67 2z"/>
<path d="M342 403 c192 -2 504 -2 695 0 192 1 35 2 -347 2 -382 0 -539 -1
-348 -2z"/>
</g>
</svg>
