<?xml version="1.0" standalone="no"?>
<!DOCTYPE svg PUBLIC "-//W3C//DTD SVG 20010904//EN"
 "http://www.w3.org/TR/2001/REC-SVG-20010904/DTD/svg10.dtd">
<svg version="1.0" xmlns="http://www.w3.org/2000/svg"
 width="138.000000pt" height="166.000000pt" viewBox="0 0 138.000000 166.000000"
 preserveAspectRatio="xMidYMid meet">
<metadata>
Created by potrace 1.16, written by Peter Selinger 2001-2019
</metadata>
<g transform="translate(0.000000,166.000000) scale(0.100000,-0.100000)"
fill="#000000" stroke="none">
<path d="M342 1263 c192 -2 504 -2 695 0 192 1 35 2 -347 2 -382 0 -539 -1
-348 -2z"/>
<path d="M561 1143 c-19 -3 -43 -11 -54 -18 -18 -13 -17 -14 19 -24 22 -6 58
-14 82 -18 36 -5 42 -3 42 12 0 15 8 17 66 13 58 -4 70 -8 90 -32 17 -19 24
-39 24 -70 0 -62 -20 -110 -94 -228 -61 -96 -92 -165 -110 -243 l-8 -30 31 30
c17 16 36 45 41 65 5 20 35 77 65 126 96 153 110 188 110 275 0 86 -13 110
-72 135 -31 13 -150 17 -232 7z"/>
<path d="M342 403 c192 -2 504 -2 695 0 192 1 35 2 -347 2 -382 0 -539 -1
-348 -2z"/>
</g>
</svg>
