<?xml version="1.0" standalone="no"?>
<!DOCTYPE svg PUBLIC "-//W3C//DTD SVG 20010904//EN"
 "http://www.w3.org/TR/2001/REC-SVG-20010904/DTD/svg10.dtd">
<svg version="1.0" xmlns="http://www.w3.org/2000/svg"
 width="138.000000pt" height="166.000000pt" viewBox="0 0 138.000000 166.000000"
 preserveAspectRatio="xMidYMid meet">
<metadata>
Created by potrace 1.16, written by Peter Selinger 2001-2019
</metadata>
<g transform="translate(0.000000,166.000000) scale(0.100000,-0.100000)"
fill="#000000" stroke="none">
<path d="M342 1263 c192 -2 504 -2 695 0 192 1 35 2 -347 2 -382 0 -539 -1
-348 -2z"/>
<path d="M461 1098 c-9 -18 -10 -35 -1 -73 14 -65 35 -95 64 -95 28 0 44 17
61 67 23 65 -2 99 -85 118 -20 5 -29 1 -39 -17z m89 -68 c0 -49 -33 -69 -44
-27 -9 35 -7 45 12 50 23 5 32 -1 32 -23z"/>
<path d="M700 1046 c-18 -55 -104 -194 -201 -326 -21 -27 -22 -32 -7 -46 14
-14 22 -6 85 83 118 166 130 186 157 262 21 59 24 76 14 83 -22 14 -26 10 -48
-56z"/>
<path d="M631 751 c-13 -8 -12 -15 4 -50 32 -72 80 -86 133 -38 46 43 15 81
-61 75 -25 -2 -46 2 -52 9 -6 8 -15 9 -24 4z m99 -61 c0 -5 -9 -10 -20 -10
-11 0 -20 5 -20 10 0 6 9 10 20 10 11 0 20 -4 20 -10z"/>
<path d="M342 403 c192 -2 504 -2 695 0 192 1 35 2 -347 2 -382 0 -539 -1
-348 -2z"/>
</g>
</svg>
