<?xml version="1.0" standalone="no"?>
<!DOCTYPE svg PUBLIC "-//W3C//DTD SVG 20010904//EN"
 "http://www.w3.org/TR/2001/REC-SVG-20010904/DTD/svg10.dtd">
<svg version="1.0" xmlns="http://www.w3.org/2000/svg"
 width="138.000000pt" height="166.000000pt" viewBox="0 0 138.000000 166.000000"
 preserveAspectRatio="xMidYMid meet">
<metadata>
Created by potrace 1.16, written by Peter Selinger 2001-2019
</metadata>
<g transform="translate(0.000000,166.000000) scale(0.100000,-0.100000)"
fill="#000000" stroke="none">
<path d="M694 1305 l-32 -35 -334 -3 -333 -2 333 -3 c312 -2 333 -3 328 -19
-26 -87 -26 -215 1 -321 5 -23 4 -24 -18 -18 -13 4 -51 10 -84 12 -78 7 -100
-7 -99 -64 4 -122 148 -191 266 -128 l46 24 48 -24 c59 -30 124 -33 124 -5 0
14 -10 20 -46 25 -110 15 -134 67 -65 142 73 78 91 218 43 327 l-21 47 267 3
267 2 -268 3 -268 2 -33 35 c-44 46 -78 47 -122 0z m86 -20 c11 -13 7 -15 -25
-15 -32 0 -36 2 -25 15 7 8 18 15 25 15 7 0 18 -7 25 -15z m48 -77 c32 -63 38
-141 18 -209 -16 -57 -56 -110 -56 -76 0 10 -8 17 -20 17 -16 0 -20 -7 -20
-30 0 -43 -27 -39 -48 8 -21 46 -24 271 -4 315 11 26 16 28 59 25 46 -3 49 -5
71 -50z m-199 -348 c53 -16 70 -26 85 -51 21 -36 17 -41 -46 -60 -76 -24 -168
24 -168 89 0 16 3 32 7 35 11 12 54 8 122 -13z"/>
<path d="M342 403 c192 -2 504 -2 695 0 192 1 35 2 -347 2 -382 0 -539 -1
-348 -2z"/>
</g>
</svg>
