<?xml version="1.0" standalone="no"?>
<!DOCTYPE svg PUBLIC "-//W3C//DTD SVG 20010904//EN"
 "http://www.w3.org/TR/2001/REC-SVG-20010904/DTD/svg10.dtd">
<svg version="1.0" xmlns="http://www.w3.org/2000/svg"
 width="138.000000pt" height="166.000000pt" viewBox="0 0 138.000000 166.000000"
 preserveAspectRatio="xMidYMid meet">
<metadata>
Created by potrace 1.16, written by Peter Selinger 2001-2019
</metadata>
<g transform="translate(0.000000,166.000000) scale(0.100000,-0.100000)"
fill="#000000" stroke="none">
<path d="M342 1263 c192 -2 504 -2 695 0 192 1 35 2 -347 2 -382 0 -539 -1
-348 -2z"/>
<path d="M748 950 c-1 -55 -2 -108 -2 -117 -1 -27 30 -28 38 -1 3 13 6 67 6
121 0 90 -1 97 -20 97 -19 0 -20 -7 -22 -100z"/>
<path d="M342 403 c192 -2 504 -2 695 0 192 1 35 2 -347 2 -382 0 -539 -1
-348 -2z"/>
</g>
</svg>
