<?xml version="1.0" standalone="no"?>
<!DOCTYPE svg PUBLIC "-//W3C//DTD SVG 20010904//EN"
 "http://www.w3.org/TR/2001/REC-SVG-20010904/DTD/svg10.dtd">
<svg version="1.0" xmlns="http://www.w3.org/2000/svg"
 width="138.000000pt" height="166.000000pt" viewBox="0 0 138.000000 166.000000"
 preserveAspectRatio="xMidYMid meet">
<metadata>
Created by potrace 1.16, written by Peter Selinger 2001-2019
</metadata>
<g transform="translate(0.000000,166.000000) scale(0.100000,-0.100000)"
fill="#000000" stroke="none">
<path d="M342 1273 c192 -2 504 -2 695 0 192 1 35 2 -347 2 -382 0 -539 -1
-348 -2z"/>
<path d="M713 985 c-114 -16 -115 -16 -99 -37 12 -16 22 -17 97 -8 127 16 139
19 139 41 0 22 -3 22 -137 4z"/>
<path d="M702 853 c-71 -3 -83 -6 -78 -19 3 -9 6 -18 6 -20 0 -6 142 -5 194 2
36 5 46 11 44 23 -4 18 -28 20 -166 14z"/>
<path d="M342 413 c192 -2 504 -2 695 0 192 1 35 2 -347 2 -382 0 -539 -1
-348 -2z"/>
</g>
</svg>
