<?xml version="1.0" standalone="no"?>
<!DOCTYPE svg PUBLIC "-//W3C//DTD SVG 20010904//EN"
 "http://www.w3.org/TR/2001/REC-SVG-20010904/DTD/svg10.dtd">
<svg version="1.0" xmlns="http://www.w3.org/2000/svg"
 width="138.000000pt" height="166.000000pt" viewBox="0 0 138.000000 166.000000"
 preserveAspectRatio="xMidYMid meet">
<metadata>
Created by potrace 1.16, written by Peter Selinger 2001-2019
</metadata>
<g transform="translate(0.000000,166.000000) scale(0.100000,-0.100000)"
fill="#000000" stroke="none">
<path d="M342 1273 c192 -2 504 -2 695 0 192 1 35 2 -347 2 -382 0 -539 -1
-348 -2z"/>
<path d="M569 1091 c-20 -16 -22 -22 -11 -33 10 -10 16 -10 32 0 11 6 33 12
50 12 50 0 55 -25 35 -166 -14 -93 -16 -132 -8 -162 l11 -41 -45 -7 c-35 -5
-47 -3 -56 10 -15 20 -43 13 -57 -15 -14 -25 14 -39 79 -39 59 0 101 14 101
34 0 8 5 16 11 18 7 2 7 17 1 44 -5 24 -5 67 1 109 5 39 10 105 11 148 1 67
-2 81 -18 93 -29 21 -109 18 -137 -5z"/>
<path d="M342 403 c192 -2 504 -2 695 0 192 1 35 2 -347 2 -382 0 -539 -1
-348 -2z"/>
</g>
</svg>
