<?xml version="1.0" standalone="no"?>
<!DOCTYPE svg PUBLIC "-//W3C//DTD SVG 20010904//EN"
 "http://www.w3.org/TR/2001/REC-SVG-20010904/DTD/svg10.dtd">
<svg version="1.0" xmlns="http://www.w3.org/2000/svg"
 width="166.000000pt" height="166.000000pt" viewBox="0 0 166.000000 166.000000"
 preserveAspectRatio="xMidYMid meet">
<metadata>
Created by potrace 1.16, written by Peter Selinger 2001-2019
</metadata>
<g transform="translate(0.000000,166.000000) scale(0.100000,-0.100000)"
fill="#000000" stroke="none">
<path d="M638 1374 c-27 -8 -30 -36 -8 -105 35 -114 50 -283 34 -380 -5 -32
-9 -35 -32 -31 -24 5 -25 3 -19 -29 4 -19 16 -40 27 -48 11 -7 20 -21 20 -30
0 -9 3 -12 8 -6 4 6 33 11 65 11 105 2 277 110 277 174 0 44 -29 90 -76 119
-26 17 -52 32 -58 34 -6 3 3 20 22 39 83 88 50 177 -83 227 -57 21 -146 34
-177 25z m29 -76 c-3 -7 -5 -2 -5 12 0 14 2 19 5 13 2 -7 2 -19 0 -25z m156 5
c45 -18 77 -56 77 -91 0 -32 -80 -112 -113 -112 -12 0 -32 -3 -44 -6 -23 -6
-23 -6 -23 116 l0 122 33 -7 c17 -4 49 -14 70 -22z m74 -280 c24 -13 50 -37
59 -54 14 -28 14 -33 0 -54 -33 -50 -175 -125 -237 -125 -19 0 -20 4 -15 48 3
26 8 77 11 114 l7 68 41 19 c48 22 75 18 134 -16z"/>
</g>
</svg>
