<?xml version="1.0" standalone="no"?>
<!DOCTYPE svg PUBLIC "-//W3C//DTD SVG 20010904//EN"
 "http://www.w3.org/TR/2001/REC-SVG-20010904/DTD/svg10.dtd">
<svg version="1.0" xmlns="http://www.w3.org/2000/svg"
 width="166.000000pt" height="166.000000pt" viewBox="0 0 166.000000 166.000000"
 preserveAspectRatio="xMidYMid meet">
<metadata>
Created by potrace 1.16, written by Peter Selinger 2001-2019
</metadata>
<g transform="translate(0.000000,166.000000) scale(0.100000,-0.100000)"
fill="#000000" stroke="none">
<path d="M951 1273 c-6 -21 -11 -137 -11 -261 0 -218 0 -224 -25 -273 -30 -59
-87 -125 -126 -145 -61 -31 -129 -5 -129 51 0 55 97 130 185 142 35 4 45 10
45 24 0 41 -124 12 -197 -45 -68 -55 -89 -117 -58 -175 14 -28 25 -36 77 -51
59 -18 142 31 209 123 l28 38 6 -38 c19 -106 36 -138 72 -131 20 4 65 66 60
82 -8 23 -36 16 -51 -11 l-14 -28 -11 28 c-23 59 -25 190 -5 268 32 125 24
388 -12 424 -23 23 -32 18 -43 -22z m36 -175 c-3 -7 -5 -2 -5 12 0 14 2 19 5
13 2 -7 2 -19 0 -25z"/>
</g>
</svg>
