<?xml version="1.0" standalone="no"?>
<!DOCTYPE svg PUBLIC "-//W3C//DTD SVG 20010904//EN"
 "http://www.w3.org/TR/2001/REC-SVG-20010904/DTD/svg10.dtd">
<svg version="1.0" xmlns="http://www.w3.org/2000/svg"
 width="166.000000pt" height="166.000000pt" viewBox="0 0 166.000000 166.000000"
 preserveAspectRatio="xMidYMid meet">
<metadata>
Created by potrace 1.16, written by Peter Selinger 2001-2019
</metadata>
<g transform="translate(0.000000,166.000000) scale(0.100000,-0.100000)"
fill="#000000" stroke="none">
<path d="M1065 1286 c-51 -52 -78 -126 -96 -268 l-12 -90 -51 5 c-36 5 -55 13
-65 27 -8 12 -24 20 -43 20 l-29 0 22 -31 c26 -37 74 -59 129 -59 l40 0 0
-226 c0 -139 -4 -223 -9 -219 -12 7 -33 -29 -24 -39 13 -13 61 -6 67 10 3 9 6
119 6 246 l0 230 102 -3 c88 -3 103 -2 106 12 4 21 -35 29 -134 29 l-74 0 6
58 c9 86 31 178 54 221 21 42 67 84 81 75 25 -15 -12 -103 -52 -125 -15 -8
-17 -14 -9 -29 11 -20 11 -20 41 2 58 43 87 138 55 181 -23 30 -63 21 -111
-27z"/>
</g>
</svg>
