<?xml version="1.0" standalone="no"?>
<!DOCTYPE svg PUBLIC "-//W3C//DTD SVG 20010904//EN"
 "http://www.w3.org/TR/2001/REC-SVG-20010904/DTD/svg10.dtd">
<svg version="1.0" xmlns="http://www.w3.org/2000/svg"
 width="166.000000pt" height="166.000000pt" viewBox="0 0 166.000000 166.000000"
 preserveAspectRatio="xMidYMid meet">
<metadata>
Created by potrace 1.16, written by Peter Selinger 2001-2019
</metadata>
<g transform="translate(0.000000,166.000000) scale(0.100000,-0.100000)"
fill="#000000" stroke="none">
<path d="M807 1193 c-14 -13 -7 -43 11 -43 18 0 45 34 35 44 -8 8 -38 8 -46
-1z"/>
<path d="M799 941 c40 -78 74 -211 75 -293 1 -57 -2 -70 -22 -91 -37 -40 -74
-51 -117 -37 -37 12 -75 59 -75 93 0 10 -8 17 -20 17 -43 0 -15 -91 39 -129
93 -66 219 -11 236 103 8 54 -9 165 -41 264 -13 40 -24 79 -24 86 0 19 -34 46
-58 46 -22 0 -22 -1 7 -59z"/>
</g>
</svg>
