<?xml version="1.0" standalone="no"?>
<!DOCTYPE svg PUBLIC "-//W3C//DTD SVG 20010904//EN"
 "http://www.w3.org/TR/2001/REC-SVG-20010904/DTD/svg10.dtd">
<svg version="1.0" xmlns="http://www.w3.org/2000/svg"
 width="166.000000pt" height="166.000000pt" viewBox="0 0 166.000000 166.000000"
 preserveAspectRatio="xMidYMid meet">
<metadata>
Created by potrace 1.16, written by Peter Selinger 2001-2019
</metadata>
<g transform="translate(0.000000,166.000000) scale(0.100000,-0.100000)"
fill="#000000" stroke="none">
<path d="M697 1235 c-23 -173 -26 -287 -8 -308 8 -10 28 -17 47 -17 48 0 96
47 143 141 l40 79 6 -48 c3 -26 18 -105 32 -177 48 -250 41 -373 -28 -443 -55
-56 -110 -34 -157 65 -16 33 -35 42 -47 23 -9 -14 33 -94 65 -125 39 -37 91
-47 127 -25 44 26 79 74 98 131 23 68 16 216 -19 389 -13 69 -27 157 -31 195
-7 77 -22 128 -37 123 -13 -5 -29 -36 -69 -132 -35 -83 -93 -156 -124 -156
-17 0 -17 10 -12 148 4 81 3 174 -1 207 l-8 60 -17 -130z"/>
</g>
</svg>
