<?xml version="1.0" standalone="no"?>
<!DOCTYPE svg PUBLIC "-//W3C//DTD SVG 20010904//EN"
 "http://www.w3.org/TR/2001/REC-SVG-20010904/DTD/svg10.dtd">
<svg version="1.0" xmlns="http://www.w3.org/2000/svg"
 width="166.000000pt" height="166.000000pt" viewBox="0 0 166.000000 166.000000"
 preserveAspectRatio="xMidYMid meet">
<metadata>
Created by potrace 1.16, written by Peter Selinger 2001-2019
</metadata>
<g transform="translate(0.000000,166.000000) scale(0.100000,-0.100000)"
fill="#000000" stroke="none">
<path d="M941 1223 c-14 -12 -26 -40 -34 -81 -13 -62 -14 -64 -75 -102 -44
-28 -60 -44 -56 -55 8 -21 17 -19 72 15 59 36 62 36 62 8 1 -66 65 -143 193
-232 84 -59 125 -115 111 -154 -5 -14 -28 -39 -51 -56 -34 -24 -55 -30 -115
-34 -87 -5 -141 8 -196 48 -62 45 -91 103 -105 209 -9 77 -14 91 -29 91 -15 0
-18 -8 -18 -44 0 -110 32 -198 95 -261 51 -51 103 -76 178 -85 109 -12 209 19
262 82 23 27 26 39 22 74 -6 58 -36 96 -126 161 -134 98 -181 155 -181 222 0
44 37 53 235 58 200 5 215 7 209 30 -5 16 -20 18 -167 15 -149 -2 -224 -10
-270 -28 -16 -6 -17 -3 -12 22 13 58 17 64 41 70 15 4 24 13 24 25 0 25 -40
26 -69 2z"/>
</g>
</svg>
