<?xml version="1.0" standalone="no"?>
<!DOCTYPE svg PUBLIC "-//W3C//DTD SVG 20010904//EN"
 "http://www.w3.org/TR/2001/REC-SVG-20010904/DTD/svg10.dtd">
<svg version="1.0" xmlns="http://www.w3.org/2000/svg"
 width="166.000000pt" height="166.000000pt" viewBox="0 0 166.000000 166.000000"
 preserveAspectRatio="xMidYMid meet">
<metadata>
Created by potrace 1.16, written by Peter Selinger 2001-2019
</metadata>
<g transform="translate(0.000000,166.000000) scale(0.100000,-0.100000)"
fill="#000000" stroke="none">
<path d="M683 1385 c-3 -9 -2 -20 3 -25 8 -7 226 -30 284 -30 13 0 20 7 20 20
0 11 -6 20 -12 20 -29 0 -245 21 -266 25 -15 4 -25 0 -29 -10z"/>
<path d="M641 1307 c-8 -10 -5 -55 10 -173 14 -102 22 -222 22 -336 2 -180 7
-200 37 -163 10 12 12 58 6 203 -3 103 -10 207 -15 230 -9 44 -9 44 18 37 49
-13 200 -17 248 -7 82 18 102 28 96 51 -5 19 -7 19 -46 3 -30 -11 -79 -16
-172 -17 -71 0 -135 -4 -141 -7 -7 -5 -14 20 -20 72 -5 44 -6 80 -2 80 5 0 8
9 8 20 0 23 -31 27 -49 7z"/>
</g>
</svg>
