<?xml version="1.0" standalone="no"?>
<!DOCTYPE svg PUBLIC "-//W3C//DTD SVG 20010904//EN"
 "http://www.w3.org/TR/2001/REC-SVG-20010904/DTD/svg10.dtd">
<svg version="1.0" xmlns="http://www.w3.org/2000/svg"
 width="166.000000pt" height="166.000000pt" viewBox="0 0 166.000000 166.000000"
 preserveAspectRatio="xMidYMid meet">
<metadata>
Created by potrace 1.16, written by Peter Selinger 2001-2019
</metadata>
<g transform="translate(0.000000,166.000000) scale(0.100000,-0.100000)"
fill="#000000" stroke="none">
<path d="M900 1441 c-83 -44 -130 -159 -113 -277 l9 -63 -45 -17 c-55 -21
-126 -85 -153 -137 -24 -48 -26 -133 -4 -176 44 -84 198 -136 290 -97 18 7 42
25 53 40 l20 26 73 -95 c39 -52 76 -98 81 -101 6 -3 16 0 24 6 13 11 9 19 -23
59 -22 25 -62 79 -91 119 -50 68 -52 75 -46 115 4 23 18 71 31 106 13 35 22
66 20 68 -6 6 -69 -87 -82 -122 l-12 -30 -35 75 c-20 41 -39 87 -42 101 l-7
26 89 5 c71 3 97 9 126 27 118 73 103 280 -25 347 -37 19 -97 17 -138 -5z
m140 -47 c43 -37 60 -75 60 -135 0 -63 -27 -111 -73 -130 -18 -8 -67 -14 -112
-14 l-80 0 -3 85 c-2 72 1 92 20 130 44 86 128 114 188 64z m-216 -390 c10
-31 37 -93 61 -138 45 -87 46 -104 5 -141 -35 -32 -131 -28 -192 8 -27 15 -55
41 -63 57 -19 37 -19 103 -1 139 25 48 127 128 167 131 3 0 13 -25 23 -56z"/>
</g>
</svg>
