<?xml version="1.0" standalone="no"?>
<!DOCTYPE svg PUBLIC "-//W3C//DTD SVG 20010904//EN"
 "http://www.w3.org/TR/2001/REC-SVG-20010904/DTD/svg10.dtd">
<svg version="1.0" xmlns="http://www.w3.org/2000/svg"
 width="166.000000pt" height="166.000000pt" viewBox="0 0 166.000000 166.000000"
 preserveAspectRatio="xMidYMid meet">
<metadata>
Created by potrace 1.16, written by Peter Selinger 2001-2019
</metadata>
<g transform="translate(0.000000,166.000000) scale(0.100000,-0.100000)"
fill="#000000" stroke="none">
<path d="M775 1281 c-56 -25 -159 -141 -197 -220 -56 -118 -49 -248 17 -324
61 -69 188 -63 296 14 l29 20 0 -39 c0 -42 20 -68 45 -58 12 4 13 10 3 31 -15
34 5 126 38 164 25 30 32 71 13 71 -12 0 -44 -32 -106 -107 -76 -92 -196 -129
-269 -84 -74 45 -85 186 -23 302 40 75 126 170 173 193 46 22 84 8 92 -34 8
-39 44 -43 44 -4 0 36 -16 61 -50 79 -37 19 -56 19 -105 -4z"/>
</g>
</svg>
