<?xml version="1.0" standalone="no"?>
<!DOCTYPE svg PUBLIC "-//W3C//DTD SVG 20010904//EN"
 "http://www.w3.org/TR/2001/REC-SVG-20010904/DTD/svg10.dtd">
<svg version="1.0" xmlns="http://www.w3.org/2000/svg"
 width="166.000000pt" height="166.000000pt" viewBox="0 0 166.000000 166.000000"
 preserveAspectRatio="xMidYMid meet">
<metadata>
Created by potrace 1.16, written by Peter Selinger 2001-2019
</metadata>
<g transform="translate(0.000000,166.000000) scale(0.100000,-0.100000)"
fill="#000000" stroke="none">
<path d="M858 1008 c-9 -7 -21 -30 -28 -50 -6 -21 -15 -38 -20 -38 -4 0 -14
20 -21 45 -13 45 -22 52 -47 36 -11 -7 -11 -15 2 -45 13 -31 13 -36 0 -36 -7
0 -14 -9 -14 -20 0 -11 6 -20 13 -20 6 0 19 -4 27 -10 11 -7 6 -20 -33 -69
-43 -56 -45 -61 -28 -71 17 -8 25 -2 58 39 l39 49 37 -34 c66 -61 95 -34 32
29 -43 43 -44 54 -5 62 35 8 43 17 34 39 -4 11 -13 14 -24 11 -15 -5 -17 -2
-13 15 3 11 15 27 26 35 12 8 17 20 14 29 -8 19 -27 20 -49 4z"/>
</g>
</svg>
