<?xml version="1.0" standalone="no"?>
<!DOCTYPE svg PUBLIC "-//W3C//DTD SVG 20010904//EN"
 "http://www.w3.org/TR/2001/REC-SVG-20010904/DTD/svg10.dtd">
<svg version="1.0" xmlns="http://www.w3.org/2000/svg"
 width="166.000000pt" height="166.000000pt" viewBox="0 0 166.000000 166.000000"
 preserveAspectRatio="xMidYMid meet">
<metadata>
Created by potrace 1.16, written by Peter Selinger 2001-2019
</metadata>
<g transform="translate(0.000000,166.000000) scale(0.100000,-0.100000)"
fill="#000000" stroke="none">
<path d="M756 1221 c-3 -5 -6 -20 -6 -32 0 -97 -11 -260 -19 -289 -16 -50 -14
-66 12 -94 20 -22 32 -25 120 -29 87 -4 97 -2 97 13 0 22 -28 30 -111 30 -87
0 -94 8 -75 91 9 39 14 100 12 156 l-3 92 43 -6 c55 -7 74 0 67 26 -4 16 -11
19 -33 14 -22 -4 -29 -1 -35 16 -4 15 -15 21 -35 21 -16 0 -31 -4 -34 -9z"/>
</g>
</svg>
