<?xml version="1.0" standalone="no"?>
<!DOCTYPE svg PUBLIC "-//W3C//DTD SVG 20010904//EN"
 "http://www.w3.org/TR/2001/REC-SVG-20010904/DTD/svg10.dtd">
<svg version="1.0" xmlns="http://www.w3.org/2000/svg"
 width="166.000000pt" height="166.000000pt" viewBox="0 0 166.000000 166.000000"
 preserveAspectRatio="xMidYMid meet">
<metadata>
Created by potrace 1.16, written by Peter Selinger 2001-2019
</metadata>
<g transform="translate(0.000000,166.000000) scale(0.100000,-0.100000)"
fill="#000000" stroke="none">
<path d="M1052 1286 l-24 -13 26 -16 c14 -9 30 -17 36 -17 6 0 20 -20 31 -44
22 -52 15 -83 -28 -120 l-27 -24 31 -6 c29 -7 33 -12 38 -54 3 -26 10 -72 15
-104 11 -68 5 -96 -27 -126 -25 -25 -23 -42 5 -42 25 1 46 21 61 56 10 27 10
53 -5 160 -19 141 -19 141 -9 199 5 32 2 49 -19 85 -15 25 -29 53 -32 63 -7
20 -39 22 -72 3z"/>
</g>
</svg>
