<?xml version="1.0" standalone="no"?>
<!DOCTYPE svg PUBLIC "-//W3C//DTD SVG 20010904//EN"
 "http://www.w3.org/TR/2001/REC-SVG-20010904/DTD/svg10.dtd">
<svg version="1.0" xmlns="http://www.w3.org/2000/svg"
 width="166.000000pt" height="166.000000pt" viewBox="0 0 166.000000 166.000000"
 preserveAspectRatio="xMidYMid meet">
<metadata>
Created by potrace 1.16, written by Peter Selinger 2001-2019
</metadata>
<g transform="translate(0.000000,166.000000) scale(0.100000,-0.100000)"
fill="#000000" stroke="none">
<path d="M778 1400 c-56 -43 -144 -261 -187 -460 -12 -52 -21 -95 -21 -97 0
-2 11 -3 23 -3 33 0 69 70 98 185 12 50 30 106 39 125 10 19 22 52 28 73 8 30
8 37 -4 37 -19 0 -18 9 10 54 l23 39 6 -209 c7 -268 32 -364 92 -364 38 0 49
28 101 265 26 118 69 245 84 245 4 0 10 -71 13 -157 7 -184 23 -256 74 -331
46 -68 86 -98 103 -78 9 12 3 23 -30 56 -79 79 -110 195 -110 416 0 90 -13
154 -32 154 -59 0 -100 -98 -163 -385 -15 -66 -31 -124 -36 -129 -15 -16 -39
59 -49 156 -5 51 -10 161 -10 245 0 192 -3 202 -52 163z"/>
</g>
</svg>
