<?xml version="1.0" standalone="no"?>
<!DOCTYPE svg PUBLIC "-//W3C//DTD SVG 20010904//EN"
 "http://www.w3.org/TR/2001/REC-SVG-20010904/DTD/svg10.dtd">
<svg version="1.0" xmlns="http://www.w3.org/2000/svg"
 width="166.000000pt" height="166.000000pt" viewBox="0 0 166.000000 166.000000"
 preserveAspectRatio="xMidYMid meet">
<metadata>
Created by potrace 1.16, written by Peter Selinger 2001-2019
</metadata>
<g transform="translate(0.000000,166.000000) scale(0.100000,-0.100000)"
fill="#000000" stroke="none">
<path d="M799 1284 c-86 -36 -68 -88 67 -208 108 -94 189 -192 204 -246 38
-134 -34 -223 -180 -224 -103 0 -167 44 -194 136 -3 11 -12 15 -25 11 -18 -5
-19 -7 -6 -50 17 -55 44 -86 100 -112 93 -44 208 -36 283 19 81 58 97 165 42
277 -25 50 -57 87 -165 190 -74 70 -135 136 -135 145 0 25 58 38 168 38 85 0
92 1 92 20 0 19 -6 20 -107 19 -72 0 -120 -5 -144 -15z"/>
</g>
</svg>
