<?xml version="1.0" standalone="no"?>
<!DOCTYPE svg PUBLIC "-//W3C//DTD SVG 20010904//EN"
 "http://www.w3.org/TR/2001/REC-SVG-20010904/DTD/svg10.dtd">
<svg version="1.0" xmlns="http://www.w3.org/2000/svg"
 width="166.000000pt" height="166.000000pt" viewBox="0 0 166.000000 166.000000"
 preserveAspectRatio="xMidYMid meet">
<metadata>
Created by potrace 1.16, written by Peter Selinger 2001-2019
</metadata>
<g transform="translate(0.000000,166.000000) scale(0.100000,-0.100000)"
fill="#000000" stroke="none">
<path d="M618 1254 c-11 -11 5 -43 21 -41 9 1 54 -2 101 -6 221 -21 273 -76
207 -220 -35 -77 -155 -199 -266 -271 -77 -50 -89 -61 -81 -77 21 -38 157 -38
350 0 138 28 257 40 269 28 13 -13 57 -1 65 18 16 43 -120 40 -379 -11 -73
-14 -156 -24 -185 -22 l-53 3 54 34 c82 52 230 206 261 271 40 84 45 140 17
189 -32 58 -82 78 -237 96 -146 17 -137 17 -144 9z"/>
</g>
</svg>
