<?xml version="1.0" standalone="no"?>
<!DOCTYPE svg PUBLIC "-//W3C//DTD SVG 20010904//EN"
 "http://www.w3.org/TR/2001/REC-SVG-20010904/DTD/svg10.dtd">
<svg version="1.0" xmlns="http://www.w3.org/2000/svg"
 width="166.000000pt" height="166.000000pt" viewBox="0 0 166.000000 166.000000"
 preserveAspectRatio="xMidYMid meet">
<metadata>
Created by potrace 1.16, written by Peter Selinger 2001-2019
</metadata>
<g transform="translate(0.000000,166.000000) scale(0.100000,-0.100000)"
fill="#000000" stroke="none">
<path d="M806 1161 c-13 -24 -16 -67 -16 -221 0 -180 -1 -190 -19 -190 -14 0
-20 -9 -23 -37 -7 -56 2 -83 29 -94 87 -33 213 34 213 112 0 38 -30 53 -103
51 l-58 -1 2 199 c1 110 0 203 -4 206 -3 3 -13 -8 -21 -25z m144 -434 c0 -29
-71 -77 -115 -77 -23 0 -25 3 -19 28 14 56 21 62 79 62 39 0 55 -4 55 -13z"/>
</g>
</svg>
