<?xml version="1.0" standalone="no"?>
<!DOCTYPE svg PUBLIC "-//W3C//DTD SVG 20010904//EN"
 "http://www.w3.org/TR/2001/REC-SVG-20010904/DTD/svg10.dtd">
<svg version="1.0" xmlns="http://www.w3.org/2000/svg"
 width="166.000000pt" height="166.000000pt" viewBox="0 0 166.000000 166.000000"
 preserveAspectRatio="xMidYMid meet">
<metadata>
Created by potrace 1.16, written by Peter Selinger 2001-2019
</metadata>
<g transform="translate(0.000000,166.000000) scale(0.100000,-0.100000)"
fill="#000000" stroke="none">
<path d="M809 1093 c0 -20 -1 -28 -25 -216 -31 -248 9 -354 119 -318 19 7 52
27 73 46 31 27 37 36 27 46 -10 10 -18 9 -40 -8 -56 -41 -92 -54 -113 -43 -11
6 -20 12 -20 13 0 1 -5 29 -10 62 -7 44 -6 94 5 190 31 261 31 245 6 245 -13
0 -21 -6 -22 -17z"/>
</g>
</svg>
