<?xml version="1.0" standalone="no"?>
<!DOCTYPE svg PUBLIC "-//W3C//DTD SVG 20010904//EN"
 "http://www.w3.org/TR/2001/REC-SVG-20010904/DTD/svg10.dtd">
<svg version="1.0" xmlns="http://www.w3.org/2000/svg"
 width="166.000000pt" height="166.000000pt" viewBox="0 0 166.000000 166.000000"
 preserveAspectRatio="xMidYMid meet">
<metadata>
Created by potrace 1.16, written by Peter Selinger 2001-2019
</metadata>
<g transform="translate(0.000000,166.000000) scale(0.100000,-0.100000)"
fill="#000000" stroke="none">
<path d="M858 957 c-23 -22 -42 -58 -58 -108 -13 -41 -28 -78 -32 -84 -4 -5
-8 21 -8 58 0 123 -47 175 -102 112 -23 -26 -38 -25 -38 5 0 29 -17 33 -41 9
-19 -19 -20 -23 -5 -31 22 -13 21 -88 -4 -158 -11 -30 -19 -81 -20 -112 0 -52
2 -58 20 -58 26 0 38 31 54 145 12 85 26 125 61 169 8 11 18 16 22 12 11 -10
10 -262 -1 -311 l-8 -40 46 61 c32 42 55 89 76 154 33 101 61 154 87 164 9 4
17 5 19 3 2 -2 9 -39 14 -81 18 -141 40 -190 100 -221 37 -19 37 -19 43 5 3
11 1 20 -3 20 -5 0 -22 12 -39 26 -35 29 -47 65 -62 185 -5 46 -15 89 -21 96
-20 24 -65 15 -100 -20z"/>
</g>
</svg>
