<?xml version="1.0" standalone="no"?>
<!DOCTYPE svg PUBLIC "-//W3C//DTD SVG 20010904//EN"
 "http://www.w3.org/TR/2001/REC-SVG-20010904/DTD/svg10.dtd">
<svg version="1.0" xmlns="http://www.w3.org/2000/svg"
 width="166.000000pt" height="166.000000pt" viewBox="0 0 166.000000 166.000000"
 preserveAspectRatio="xMidYMid meet">
<metadata>
Created by potrace 1.16, written by Peter Selinger 2001-2019
</metadata>
<g transform="translate(0.000000,166.000000) scale(0.100000,-0.100000)"
fill="#000000" stroke="none">
<path d="M832 1093 c-39 -40 -72 -118 -72 -166 0 -35 40 -77 73 -77 37 0 86
38 152 118 45 55 61 68 63 54 3 -17 -19 -121 -79 -377 -22 -93 -23 -130 -8
-174 8 -21 17 -31 28 -29 16 4 17 16 5 74 -4 20 10 95 39 220 73 305 81 393
33 378 -11 -4 -21 -7 -22 -8 0 0 -35 -43 -78 -94 -85 -101 -127 -132 -152
-111 -39 32 36 189 89 189 11 0 34 -9 53 -20 30 -19 33 -20 42 -3 14 24 -28
54 -84 61 -42 4 -47 2 -82 -35z"/>
</g>
</svg>
