<?xml version="1.0" standalone="no"?>
<!DOCTYPE svg PUBLIC "-//W3C//DTD SVG 20010904//EN"
 "http://www.w3.org/TR/2001/REC-SVG-20010904/DTD/svg10.dtd">
<svg version="1.0" xmlns="http://www.w3.org/2000/svg"
 width="166.000000pt" height="166.000000pt" viewBox="0 0 166.000000 166.000000"
 preserveAspectRatio="xMidYMid meet">
<metadata>
Created by potrace 1.16, written by Peter Selinger 2001-2019
</metadata>
<g transform="translate(0.000000,166.000000) scale(0.100000,-0.100000)"
fill="#000000" stroke="none">
<path d="M713 1308 c-48 -13 -97 -69 -147 -172 -80 -160 -107 -332 -71 -452
21 -73 85 -156 156 -203 85 -57 120 -61 186 -25 29 15 53 34 53 41 0 24 -29
25 -61 2 -48 -34 -88 -30 -153 15 -165 113 -201 310 -100 548 31 75 88 167
117 190 30 24 73 23 80 -1 3 -14 11 -18 25 -14 18 4 19 9 10 33 -12 35 -50 50
-95 38z"/>
</g>
</svg>
