<?xml version="1.0" standalone="no"?>
<!DOCTYPE svg PUBLIC "-//W3C//DTD SVG 20010904//EN"
 "http://www.w3.org/TR/2001/REC-SVG-20010904/DTD/svg10.dtd">
<svg version="1.0" xmlns="http://www.w3.org/2000/svg"
 width="166.000000pt" height="166.000000pt" viewBox="0 0 166.000000 166.000000"
 preserveAspectRatio="xMidYMid meet">
<metadata>
Created by potrace 1.16, written by Peter Selinger 2001-2019
</metadata>
<g transform="translate(0.000000,166.000000) scale(0.100000,-0.100000)"
fill="#000000" stroke="none">
<path d="M835 1073 c-16 -9 -55 -41 -85 -72 -42 -43 -72 -63 -128 -84 -71 -28
-102 -49 -102 -68 0 -22 57 -60 151 -99 54 -23 111 -51 124 -62 25 -19 55 -19
55 1 0 19 -65 59 -152 94 -92 37 -135 62 -121 70 4 2 43 19 86 37 62 26 87 43
126 87 27 30 54 52 60 49 11 -7 26 35 19 53 -1 5 -16 3 -33 -6z"/>
</g>
</svg>
