<?xml version="1.0" standalone="no"?>
<!DOCTYPE svg PUBLIC "-//W3C//DTD SVG 20010904//EN"
 "http://www.w3.org/TR/2001/REC-SVG-20010904/DTD/svg10.dtd">
<svg version="1.0" xmlns="http://www.w3.org/2000/svg"
 width="166.000000pt" height="82.000000pt" viewBox="0 0 166.000000 82.000000"
 preserveAspectRatio="xMidYMid meet">
<metadata>
Created by potrace 1.16, written by Peter Selinger 2001-2019
</metadata>
<g transform="translate(0.000000,82.000000) scale(0.100000,-0.100000)"
fill="#000000" stroke="none">
<path d="M185 410 c0 -228 1 -322 2 -208 2 115 2 301 0 415 -1 115 -2 21 -2
-207z"/>
<path d="M1465 410 c0 -228 1 -322 2 -208 2 115 2 301 0 415 -1 115 -2 21 -2
-207z"/>
<path d="M1186 784 c-3 -9 -6 -26 -6 -39 0 -26 -105 -400 -143 -510 -28 -79
-86 -205 -96 -205 -3 0 -28 69 -54 153 -65 204 -110 298 -180 373 l-56 61 25
66 c28 73 38 76 75 21 13 -20 19 -24 19 -12 0 20 -58 80 -73 75 -24 -8 -188
-454 -232 -627 -14 -58 -28 -113 -31 -122 -3 -10 -1 -18 5 -18 6 0 15 19 21
43 62 240 179 575 188 534 2 -9 7 -15 12 -12 14 9 89 -85 120 -149 26 -56 89
-239 123 -361 10 -36 19 -51 34 -53 43 -6 142 258 243 643 24 92 32 155 21
155 -5 0 -12 -7 -15 -16z"/>
</g>
</svg>
