<?xml version="1.0" standalone="no"?>
<!DOCTYPE svg PUBLIC "-//W3C//DTD SVG 20010904//EN"
 "http://www.w3.org/TR/2001/REC-SVG-20010904/DTD/svg10.dtd">
<svg version="1.0" xmlns="http://www.w3.org/2000/svg"
 width="166.000000pt" height="82.000000pt" viewBox="0 0 166.000000 82.000000"
 preserveAspectRatio="xMidYMid meet">
<metadata>
Created by potrace 1.16, written by Peter Selinger 2001-2019
</metadata>
<g transform="translate(0.000000,82.000000) scale(0.100000,-0.100000)"
fill="#000000" stroke="none">
<path d="M185 410 c0 -228 1 -322 2 -208 2 115 2 301 0 415 -1 115 -2 21 -2
-207z"/>
<path d="M623 766 c-53 -58 -80 -125 -69 -170 8 -34 49 -60 170 -110 130 -54
159 -74 187 -133 21 -42 22 -52 12 -110 -14 -79 -44 -128 -95 -154 -54 -27
-208 -60 -290 -62 -40 -1 -66 -6 -64 -12 5 -15 120 -10 216 10 171 35 232 84
252 207 21 122 -27 198 -157 252 -154 63 -195 85 -207 110 -18 41 5 97 68 166
33 35 50 60 41 60 -8 0 -37 -24 -64 -54z"/>
<path d="M1010 790 c12 -16 26 -30 31 -30 6 0 2 14 -8 30 -9 17 -23 30 -31 30
-9 0 -7 -9 8 -30z"/>
<path d="M1465 410 c0 -228 1 -322 2 -208 2 115 2 301 0 415 -1 115 -2 21 -2
-207z"/>
</g>
</svg>
