<?xml version="1.0" standalone="no"?>
<!DOCTYPE svg PUBLIC "-//W3C//DTD SVG 20010904//EN"
 "http://www.w3.org/TR/2001/REC-SVG-20010904/DTD/svg10.dtd">
<svg version="1.0" xmlns="http://www.w3.org/2000/svg"
 width="166.000000pt" height="82.000000pt" viewBox="0 0 166.000000 82.000000"
 preserveAspectRatio="xMidYMid meet">
<metadata>
Created by potrace 1.16, written by Peter Selinger 2001-2019
</metadata>
<g transform="translate(0.000000,82.000000) scale(0.100000,-0.100000)"
fill="#000000" stroke="none">
<path d="M175 410 c0 -228 1 -322 2 -208 2 115 2 301 0 415 -1 115 -2 21 -2
-207z"/>
<path d="M1455 410 c0 -228 1 -322 2 -208 2 115 2 301 0 415 -1 115 -2 21 -2
-207z"/>
<path d="M923 259 c3 -138 8 -254 11 -257 16 -15 17 26 7 242 -6 129 -8 242
-5 251 4 8 1 15 -6 15 -10 0 -12 -52 -7 -251z"/>
</g>
</svg>
