<?xml version="1.0" standalone="no"?>
<!DOCTYPE svg PUBLIC "-//W3C//DTD SVG 20010904//EN"
 "http://www.w3.org/TR/2001/REC-SVG-20010904/DTD/svg10.dtd">
<svg version="1.0" xmlns="http://www.w3.org/2000/svg"
 width="166.000000pt" height="82.000000pt" viewBox="0 0 166.000000 82.000000"
 preserveAspectRatio="xMidYMid meet">
<metadata>
Created by potrace 1.16, written by Peter Selinger 2001-2019
</metadata>
<g transform="translate(0.000000,82.000000) scale(0.100000,-0.100000)"
fill="#000000" stroke="none">
<path d="M185 410 c0 -228 1 -322 2 -208 2 115 2 301 0 415 -1 115 -2 21 -2
-207z"/>
<path d="M1465 410 c0 -228 1 -322 2 -208 2 115 2 301 0 415 -1 115 -2 21 -2
-207z"/>
<path d="M942 725 c-44 -37 -89 -113 -133 -223 l-38 -97 0 125 c0 69 -3 134
-7 144 -4 11 -2 21 7 27 11 7 10 11 -6 23 -11 8 -21 13 -23 11 -2 -2 1 -50 7
-107 9 -97 6 -187 -15 -365 -8 -76 10 -88 20 -14 10 72 71 253 113 334 46 87
101 147 134 147 13 0 51 -12 84 -25 66 -27 75 -29 75 -16 0 13 -125 61 -159
61 -17 0 -42 -11 -59 -25z"/>
</g>
</svg>
