<?xml version="1.0" standalone="no"?>
<!DOCTYPE svg PUBLIC "-//W3C//DTD SVG 20010904//EN"
 "http://www.w3.org/TR/2001/REC-SVG-20010904/DTD/svg10.dtd">
<svg version="1.0" xmlns="http://www.w3.org/2000/svg"
 width="166.000000pt" height="82.000000pt" viewBox="0 0 166.000000 82.000000"
 preserveAspectRatio="xMidYMid meet">
<metadata>
Created by potrace 1.16, written by Peter Selinger 2001-2019
</metadata>
<g transform="translate(0.000000,82.000000) scale(0.100000,-0.100000)"
fill="#000000" stroke="none">
<path d="M185 410 c0 -228 1 -322 2 -208 2 115 2 301 0 415 -1 115 -2 21 -2
-207z"/>
<path d="M1465 410 c0 -228 1 -322 2 -208 2 115 2 301 0 415 -1 115 -2 21 -2
-207z"/>
<path d="M887 779 c-103 -24 -197 -103 -197 -166 0 -39 37 -77 95 -97 22 -8
71 -25 109 -38 44 -15 77 -34 89 -50 18 -24 18 -27 3 -56 -38 -73 -188 -132
-295 -116 -50 8 -86 37 -76 62 6 16 5 16 -10 1 -14 -14 -15 -21 -5 -39 50 -93
320 -46 397 69 50 74 16 117 -129 162 -103 32 -158 67 -158 101 0 51 76 114
170 142 99 29 160 16 180 -38 26 -70 29 -74 29 -45 1 44 -20 89 -50 104 -31
16 -93 18 -152 4z"/>
</g>
</svg>
