<?xml version="1.0" standalone="no"?>
<!DOCTYPE svg PUBLIC "-//W3C//DTD SVG 20010904//EN"
 "http://www.w3.org/TR/2001/REC-SVG-20010904/DTD/svg10.dtd">
<svg version="1.0" xmlns="http://www.w3.org/2000/svg"
 width="166.000000pt" height="82.000000pt" viewBox="0 0 166.000000 82.000000"
 preserveAspectRatio="xMidYMid meet">
<metadata>
Created by potrace 1.16, written by Peter Selinger 2001-2019
</metadata>
<g transform="translate(0.000000,82.000000) scale(0.100000,-0.100000)"
fill="#000000" stroke="none">
<path d="M175 410 c0 -228 1 -322 2 -208 2 115 2 301 0 415 -1 115 -2 21 -2
-207z"/>
<path d="M732 798 c-22 -47 -65 -353 -70 -501 -5 -158 10 -297 33 -297 9 0 9
13 -2 53 -42 152 15 697 78 750 l21 17 -24 0 c-16 0 -29 -8 -36 -22z"/>
<path d="M1033 792 c15 -15 39 -57 54 -92 24 -59 27 -77 27 -190 0 -69 -6
-154 -13 -190 -13 -68 -83 -257 -110 -299 -13 -21 -13 -23 -1 -20 31 10 108
207 129 329 29 168 21 300 -25 400 -29 63 -51 90 -72 90 -11 0 -8 -8 11 -28z"/>
<path d="M1465 410 c0 -228 1 -322 2 -208 2 115 2 301 0 415 -1 115 -2 21 -2
-207z"/>
</g>
</svg>
