<?xml version="1.0" standalone="no"?>
<!DOCTYPE svg PUBLIC "-//W3C//DTD SVG 20010904//EN"
 "http://www.w3.org/TR/2001/REC-SVG-20010904/DTD/svg10.dtd">
<svg version="1.0" xmlns="http://www.w3.org/2000/svg"
 width="166.000000pt" height="82.000000pt" viewBox="0 0 166.000000 82.000000"
 preserveAspectRatio="xMidYMid meet">
<metadata>
Created by potrace 1.16, written by Peter Selinger 2001-2019
</metadata>
<g transform="translate(0.000000,82.000000) scale(0.100000,-0.100000)"
fill="#000000" stroke="none">
<path d="M175 410 c0 -228 1 -322 2 -208 2 115 2 301 0 415 -1 115 -2 21 -2
-207z"/>
<path d="M708 762 c-10 -33 -51 -112 -99 -187 -130 -206 -148 -238 -151 -265
-3 -25 -3 -25 77 -25 44 1 131 5 194 10 l114 8 -7 -43 c-4 -24 -18 -90 -31
-146 -28 -116 -28 -114 -16 -114 9 0 54 172 67 258 l7 42 99 0 c115 0 168 16
168 51 0 20 -1 21 -12 6 -21 -27 -64 -37 -159 -37 -68 0 -89 3 -89 13 0 49 44
327 55 350 14 28 6 37 -14 14 -10 -13 -42 -190 -57 -319 l-6 -58 -62 0 c-33 0
-115 -7 -181 -15 -65 -7 -123 -11 -127 -9 -11 7 28 80 116 219 82 127 130 220
141 273 11 55 -9 35 -27 -26z"/>
<path d="M1455 410 c0 -228 1 -322 2 -208 2 115 2 301 0 415 -1 115 -2 21 -2
-207z"/>
</g>
</svg>
