<?xml version="1.0" standalone="no"?>
<!DOCTYPE svg PUBLIC "-//W3C//DTD SVG 20010904//EN"
 "http://www.w3.org/TR/2001/REC-SVG-20010904/DTD/svg10.dtd">
<svg version="1.0" xmlns="http://www.w3.org/2000/svg"
 width="166.000000pt" height="82.000000pt" viewBox="0 0 166.000000 82.000000"
 preserveAspectRatio="xMidYMid meet">
<metadata>
Created by potrace 1.16, written by Peter Selinger 2001-2019
</metadata>
<g transform="translate(0.000000,82.000000) scale(0.100000,-0.100000)"
fill="#000000" stroke="none">
<path d="M185 410 c0 -228 1 -322 2 -208 2 115 2 301 0 415 -1 115 -2 21 -2
-207z"/>
<path d="M616 804 c-62 -15 -89 -30 -80 -45 9 -15 64 -11 58 5 -7 19 83 36
227 43 125 6 187 0 195 -21 3 -7 -20 -71 -50 -142 -30 -71 -84 -223 -121 -339
-36 -116 -73 -229 -82 -253 -15 -41 -12 -65 6 -46 5 5 33 83 61 174 83 263
108 336 161 461 52 125 59 163 33 173 -32 12 -348 5 -408 -10z"/>
<path d="M1465 410 c0 -228 1 -322 2 -208 2 115 2 301 0 415 -1 115 -2 21 -2
-207z"/>
</g>
</svg>
