<?xml version="1.0" standalone="no"?>
<!DOCTYPE svg PUBLIC "-//W3C//DTD SVG 20010904//EN"
 "http://www.w3.org/TR/2001/REC-SVG-20010904/DTD/svg10.dtd">
<svg version="1.0" xmlns="http://www.w3.org/2000/svg"
 width="166.000000pt" height="82.000000pt" viewBox="0 0 166.000000 82.000000"
 preserveAspectRatio="xMidYMid meet">
<metadata>
Created by potrace 1.16, written by Peter Selinger 2001-2019
</metadata>
<g transform="translate(0.000000,82.000000) scale(0.100000,-0.100000)"
fill="#000000" stroke="none">
<path d="M175 410 c0 -228 1 -322 2 -208 2 115 2 301 0 415 -1 115 -2 21 -2
-207z"/>
<path d="M790 801 c-5 -11 -10 -44 -10 -73 0 -74 33 -137 125 -236 41 -44 75
-83 75 -86 0 -3 -27 -49 -60 -103 -33 -53 -69 -121 -80 -149 -23 -64 -37 -154
-22 -154 5 0 13 24 16 54 8 62 55 165 122 268 l46 72 19 -25 c39 -51 52 -103
47 -201 -2 -61 -10 -105 -21 -127 -17 -35 -17 -48 2 -37 19 12 41 109 41 180
0 85 -12 131 -45 180 -14 20 -25 42 -25 48 0 6 16 33 35 59 37 52 40 59 26 59
-5 0 -26 -23 -47 -52 l-37 -52 -77 81 c-43 45 -87 101 -99 125 -22 47 -28 119
-11 162 11 31 -4 36 -20 7z"/>
<path d="M1060 794 c15 -38 12 -146 -5 -194 -17 -48 -19 -69 -6 -55 45 50 55
275 11 275 -6 0 -6 -9 0 -26z"/>
<path d="M1455 410 c0 -228 1 -322 2 -208 2 115 2 301 0 415 -1 115 -2 21 -2
-207z"/>
</g>
</svg>
