<?xml version="1.0" standalone="no"?>
<!DOCTYPE svg PUBLIC "-//W3C//DTD SVG 20010904//EN"
 "http://www.w3.org/TR/2001/REC-SVG-20010904/DTD/svg10.dtd">
<svg version="1.0" xmlns="http://www.w3.org/2000/svg"
 width="166.000000pt" height="82.000000pt" viewBox="0 0 166.000000 82.000000"
 preserveAspectRatio="xMidYMid meet">
<metadata>
Created by potrace 1.16, written by Peter Selinger 2001-2019
</metadata>
<g transform="translate(0.000000,82.000000) scale(0.100000,-0.100000)"
fill="#000000" stroke="none">
<path d="M175 410 c0 -228 1 -322 2 -208 2 115 2 301 0 415 -1 115 -2 21 -2
-207z"/>
<path d="M906 798 c-48 -74 -106 -237 -106 -298 0 -90 46 -133 119 -112 51 16
100 53 217 164 53 51 94 84 90 73 -18 -46 -157 -617 -152 -623 3 -3 9 -3 12 1
3 3 41 144 84 314 42 169 84 322 92 338 8 17 18 48 22 70 4 22 9 52 12 68 3
15 1 27 -5 27 -6 0 -13 -24 -17 -52 -7 -52 -10 -56 -138 -184 -148 -146 -225
-197 -272 -176 -62 29 -53 147 23 302 26 52 49 98 51 103 9 18 -19 5 -32 -15z"/>
<path d="M1455 410 c0 -228 1 -322 2 -208 2 115 2 301 0 415 -1 115 -2 21 -2
-207z"/>
</g>
</svg>
