<?xml version="1.0" standalone="no"?>
<!DOCTYPE svg PUBLIC "-//W3C//DTD SVG 20010904//EN"
 "http://www.w3.org/TR/2001/REC-SVG-20010904/DTD/svg10.dtd">
<svg version="1.0" xmlns="http://www.w3.org/2000/svg"
 width="166.000000pt" height="82.000000pt" viewBox="0 0 166.000000 82.000000"
 preserveAspectRatio="xMidYMid meet">
<metadata>
Created by potrace 1.16, written by Peter Selinger 2001-2019
</metadata>
<g transform="translate(0.000000,82.000000) scale(0.100000,-0.100000)"
fill="#000000" stroke="none">
<path d="M175 410 c0 -228 1 -322 2 -208 2 115 2 301 0 415 -1 115 -2 21 -2
-207z"/>
<path d="M653 784 c-47 -39 -60 -68 -15 -35 62 47 87 71 72 71 -8 0 -34 -16
-57 -36z"/>
<path d="M695 699 c-77 -140 -107 -206 -96 -213 4 -3 20 21 35 52 15 31 53
104 84 162 69 128 66 120 54 120 -6 0 -40 -54 -77 -121z"/>
<path d="M927 728 c170 -178 212 -218 227 -218 8 0 -18 33 -57 73 -40 40 -107
110 -150 155 -44 45 -85 82 -93 82 -8 0 25 -41 73 -92z"/>
<path d="M1465 410 c0 -228 1 -322 2 -208 2 115 2 301 0 415 -1 115 -2 21 -2
-207z"/>
</g>
</svg>
