<?xml version="1.0" standalone="no"?>
<!DOCTYPE svg PUBLIC "-//W3C//DTD SVG 20010904//EN"
 "http://www.w3.org/TR/2001/REC-SVG-20010904/DTD/svg10.dtd">
<svg version="1.0" xmlns="http://www.w3.org/2000/svg"
 width="166.000000pt" height="82.000000pt" viewBox="0 0 166.000000 82.000000"
 preserveAspectRatio="xMidYMid meet">
<metadata>
Created by potrace 1.16, written by Peter Selinger 2001-2019
</metadata>
<g transform="translate(0.000000,82.000000) scale(0.100000,-0.100000)"
fill="#000000" stroke="none">
<path d="M175 410 c0 -228 1 -322 2 -208 2 115 2 301 0 415 -1 115 -2 21 -2
-207z"/>
<path d="M1465 410 c0 -228 1 -322 2 -208 2 115 2 301 0 415 -1 115 -2 21 -2
-207z"/>
<path d="M530 535 c0 -8 6 -15 13 -16 85 -3 191 -32 372 -99 72 -27 149 -54
173 -60 23 -6 42 -15 42 -20 0 -19 -56 -73 -132 -127 -126 -88 -273 -213 -252
-213 11 0 48 25 84 56 36 30 108 86 161 124 111 79 162 132 157 163 -2 17 -17
26 -63 41 -33 10 -119 41 -191 67 -104 38 -325 99 -358 99 -3 0 -6 -7 -6 -15z"/>
</g>
</svg>
