<?xml version="1.0" standalone="no"?>
<!DOCTYPE svg PUBLIC "-//W3C//DTD SVG 20010904//EN"
 "http://www.w3.org/TR/2001/REC-SVG-20010904/DTD/svg10.dtd">
<svg version="1.0" xmlns="http://www.w3.org/2000/svg"
 width="166.000000pt" height="82.000000pt" viewBox="0 0 166.000000 82.000000"
 preserveAspectRatio="xMidYMid meet">
<metadata>
Created by potrace 1.16, written by Peter Selinger 2001-2019
</metadata>
<g transform="translate(0.000000,82.000000) scale(0.100000,-0.100000)"
fill="#000000" stroke="none">
<path d="M175 410 c0 -228 1 -322 2 -208 2 115 2 301 0 415 -1 115 -2 21 -2
-207z"/>
<path d="M780 810 c0 -17 24 -65 61 -120 63 -96 82 -140 71 -165 -15 -34 -69
-70 -140 -95 -34 -13 -65 -27 -68 -31 -9 -16 42 -37 104 -42 121 -10 145 -47
150 -229 2 -71 8 -128 13 -128 15 0 10 211 -6 266 -20 69 -48 92 -126 105
-123 21 -120 19 -52 44 67 24 126 64 144 96 16 31 4 66 -62 169 -33 52 -62
105 -65 118 -6 21 -24 31 -24 12z"/>
<path d="M1455 410 c0 -228 1 -322 2 -208 2 115 2 301 0 415 -1 115 -2 21 -2
-207z"/>
</g>
</svg>
