<?xml version="1.0" standalone="no"?>
<!DOCTYPE svg PUBLIC "-//W3C//DTD SVG 20010904//EN"
 "http://www.w3.org/TR/2001/REC-SVG-20010904/DTD/svg10.dtd">
<svg version="1.0" xmlns="http://www.w3.org/2000/svg"
 width="166.000000pt" height="166.000000pt" viewBox="0 0 166.000000 166.000000"
 preserveAspectRatio="xMidYMid meet">
<metadata>
Created by potrace 1.16, written by Peter Selinger 2001-2019
</metadata>
<g transform="translate(0.000000,166.000000) scale(0.100000,-0.100000)"
fill="#000000" stroke="none">
<path d="M835 1256 c-68 -29 -128 -121 -184 -279 -64 -181 -62 -293 6 -368 69
-76 197 -89 312 -31 l59 29 31 -24 c30 -24 61 -25 61 -4 0 6 -13 20 -29 32
l-30 22 34 40 c95 111 113 244 50 372 -40 82 -94 136 -184 183 -90 47 -85 46
-126 28z m97 -68 c68 -16 136 -81 178 -170 51 -108 38 -210 -41 -309 -36 -46
-51 -48 -76 -13 -14 19 -26 25 -47 22 l-27 -3 35 -41 35 -41 -43 -20 c-95 -46
-189 -38 -254 22 l-37 34 0 98 c0 108 20 182 81 304 64 129 86 142 196 117z"/>
</g>
</svg>
