<?xml version="1.0" standalone="no"?>
<!DOCTYPE svg PUBLIC "-//W3C//DTD SVG 20010904//EN"
 "http://www.w3.org/TR/2001/REC-SVG-20010904/DTD/svg10.dtd">
<svg version="1.0" xmlns="http://www.w3.org/2000/svg"
 width="166.000000pt" height="166.000000pt" viewBox="0 0 166.000000 166.000000"
 preserveAspectRatio="xMidYMid meet">
<metadata>
Created by potrace 1.16, written by Peter Selinger 2001-2019
</metadata>
<g transform="translate(0.000000,166.000000) scale(0.100000,-0.100000)"
fill="#000000" stroke="none">
<path d="M872 1273 c-6 -16 -16 -57 -22 -93 -6 -36 -22 -121 -35 -190 -33
-178 -42 -292 -21 -309 31 -26 47 -9 71 72 12 42 30 86 40 97 19 20 50 26 72
12 18 -11 40 -69 59 -153 9 -41 23 -87 31 -102 16 -33 58 -56 74 -40 13 13 1
43 -17 43 -17 0 -29 28 -50 123 -24 106 -51 157 -91 174 -56 23 -102 -1 -134
-72 -27 -58 -24 -28 21 218 22 120 40 225 40 233 0 24 -27 15 -38 -13z"/>
</g>
</svg>
