<?xml version="1.0" standalone="no"?>
<!DOCTYPE svg PUBLIC "-//W3C//DTD SVG 20010904//EN"
 "http://www.w3.org/TR/2001/REC-SVG-20010904/DTD/svg10.dtd">
<svg version="1.0" xmlns="http://www.w3.org/2000/svg"
 width="166.000000pt" height="166.000000pt" viewBox="0 0 166.000000 166.000000"
 preserveAspectRatio="xMidYMid meet">
<metadata>
Created by potrace 1.16, written by Peter Selinger 2001-2019
</metadata>
<g transform="translate(0.000000,166.000000) scale(0.100000,-0.100000)"
fill="#000000" stroke="none">
<path d="M846 999 c-15 -12 -40 -46 -57 -77 l-30 -57 6 51 c4 42 2 53 -11 58
-9 4 -19 5 -21 3 -2 -3 -10 -62 -18 -133 -8 -71 -22 -154 -30 -184 -8 -30 -15
-56 -15 -57 0 -2 10 -3 23 -3 28 0 37 17 67 120 31 105 77 214 101 236 44 40
78 -24 78 -151 1 -103 14 -147 52 -179 38 -32 89 -36 89 -7 0 14 -8 21 -27 23
-48 6 -65 44 -73 170 -8 126 -27 184 -67 199 -33 12 -37 12 -67 -12z"/>
</g>
</svg>
