<?xml version="1.0" standalone="no"?>
<!DOCTYPE svg PUBLIC "-//W3C//DTD SVG 20010904//EN"
 "http://www.w3.org/TR/2001/REC-SVG-20010904/DTD/svg10.dtd">
<svg version="1.0" xmlns="http://www.w3.org/2000/svg"
 width="166.000000pt" height="166.000000pt" viewBox="0 0 166.000000 166.000000"
 preserveAspectRatio="xMidYMid meet">
<metadata>
Created by potrace 1.16, written by Peter Selinger 2001-2019
</metadata>
<g transform="translate(0.000000,166.000000) scale(0.100000,-0.100000)"
fill="#000000" stroke="none">
<path d="M710 1094 c-21 -6 -57 -62 -80 -123 -42 -110 -34 -230 18 -271 55
-44 156 -17 226 60 64 71 83 148 52 209 -20 38 -80 89 -114 97 -15 4 -36 13
-47 20 -20 14 -27 15 -55 8z m145 -109 c52 -51 57 -82 26 -144 -50 -97 -178
-156 -215 -98 -32 51 -27 152 13 242 l20 45 56 0 c52 0 58 -2 100 -45z"/>
</g>
</svg>
