<?xml version="1.0" standalone="no"?>
<!DOCTYPE svg PUBLIC "-//W3C//DTD SVG 20010904//EN"
 "http://www.w3.org/TR/2001/REC-SVG-20010904/DTD/svg10.dtd">
<svg version="1.0" xmlns="http://www.w3.org/2000/svg"
 width="166.000000pt" height="166.000000pt" viewBox="0 0 166.000000 166.000000"
 preserveAspectRatio="xMidYMid meet">
<metadata>
Created by potrace 1.16, written by Peter Selinger 2001-2019
</metadata>
<g transform="translate(0.000000,166.000000) scale(0.100000,-0.100000)"
fill="#000000" stroke="none">
<path d="M742 1290 c-18 -29 -15 -68 18 -248 32 -173 48 -223 82 -259 26 -27
69 -30 90 -5 20 22 51 118 83 257 14 61 32 126 40 146 13 35 13 37 -6 42 -27
7 -41 -27 -78 -191 -35 -153 -61 -226 -83 -230 -26 -5 -55 72 -83 226 -24 129
-28 164 -33 255 -2 32 -12 35 -30 7z"/>
</g>
</svg>
