<?xml version="1.0" standalone="no"?>
<!DOCTYPE svg PUBLIC "-//W3C//DTD SVG 20010904//EN"
 "http://www.w3.org/TR/2001/REC-SVG-20010904/DTD/svg10.dtd">
<svg version="1.0" xmlns="http://www.w3.org/2000/svg"
 width="166.000000pt" height="166.000000pt" viewBox="0 0 166.000000 166.000000"
 preserveAspectRatio="xMidYMid meet">
<metadata>
Created by potrace 1.16, written by Peter Selinger 2001-2019
</metadata>
<g transform="translate(0.000000,166.000000) scale(0.100000,-0.100000)"
fill="#000000" stroke="none">
<path d="M982 1283 c-10 -16 -38 -64 -60 -108 -23 -44 -61 -102 -84 -129 -38
-45 -226 -212 -260 -232 -8 -5 -20 -19 -26 -31 -11 -19 -9 -22 16 -27 15 -3
131 9 257 28 127 18 231 32 233 31 2 -2 -4 -77 -14 -167 -17 -163 -15 -218 9
-218 23 0 38 22 26 37 -8 9 -6 60 7 183 l18 170 30 5 c17 3 96 9 174 14 79 5
146 12 149 14 2 3 -17 11 -44 19 -38 11 -74 12 -171 5 -68 -5 -125 -7 -128 -5
-2 3 0 81 4 173 5 116 12 170 20 173 7 2 12 16 12 32 0 29 -22 56 -39 46 -19
-12 -33 -113 -38 -273 -3 -90 -9 -163 -12 -163 -3 0 -98 -14 -210 -30 -112
-17 -206 -29 -208 -27 -2 2 39 40 90 85 120 102 175 168 222 262 21 41 46 87
56 102 11 14 19 33 19 42 0 25 -27 19 -48 -11z"/>
</g>
</svg>
