<?xml version="1.0" standalone="no"?>
<!DOCTYPE svg PUBLIC "-//W3C//DTD SVG 20010904//EN"
 "http://www.w3.org/TR/2001/REC-SVG-20010904/DTD/svg10.dtd">
<svg version="1.0" xmlns="http://www.w3.org/2000/svg"
 width="166.000000pt" height="166.000000pt" viewBox="0 0 166.000000 166.000000"
 preserveAspectRatio="xMidYMid meet">
<metadata>
Created by potrace 1.16, written by Peter Selinger 2001-2019
</metadata>
<g transform="translate(0.000000,166.000000) scale(0.100000,-0.100000)"
fill="#000000" stroke="none">
<path d="M703 1391 c-51 -13 -122 -60 -138 -91 -19 -37 -19 -70 2 -143 13 -48
14 -60 3 -67 -16 -10 -6 -40 13 -40 8 0 25 -27 40 -60 14 -33 31 -59 38 -58 6
2 20 -10 30 -27 16 -27 16 -35 3 -85 -17 -65 -17 -92 -3 -143 16 -58 58 -100
100 -99 74 2 78 84 10 214 -22 44 -41 86 -41 94 0 8 20 55 45 105 114 225 126
317 51 374 -36 28 -102 39 -153 26z m137 -66 c42 -38 20 -137 -69 -314 l-42
-84 -49 82 c-51 85 -75 147 -86 218 -6 39 -4 45 26 73 60 56 172 69 220 25z
m-65 -577 c38 -79 44 -115 20 -125 -40 -15 -79 75 -68 155 3 23 7 42 10 42 2
0 19 -32 38 -72z"/>
</g>
</svg>
