<?xml version="1.0" standalone="no"?>
<!DOCTYPE svg PUBLIC "-//W3C//DTD SVG 20010904//EN"
 "http://www.w3.org/TR/2001/REC-SVG-20010904/DTD/svg10.dtd">
<svg version="1.0" xmlns="http://www.w3.org/2000/svg"
 width="166.000000pt" height="166.000000pt" viewBox="0 0 166.000000 166.000000"
 preserveAspectRatio="xMidYMid meet">
<metadata>
Created by potrace 1.16, written by Peter Selinger 2001-2019
</metadata>
<g transform="translate(0.000000,166.000000) scale(0.100000,-0.100000)"
fill="#000000" stroke="none">
<path d="M865 986 c-19 -14 -19 -15 5 -34 42 -34 94 -44 199 -37 76 5 100 4
115 -8 19 -14 19 -16 3 -41 -22 -33 -85 -79 -159 -117 -60 -30 -64 -35 -49
-57 7 -11 24 -5 84 27 132 73 196 144 176 198 -12 32 -64 44 -185 41 -102 -3
-111 -1 -131 20 -27 26 -33 27 -58 8z"/>
</g>
</svg>
