<?xml version="1.0" standalone="no"?>
<!DOCTYPE svg PUBLIC "-//W3C//DTD SVG 20010904//EN"
 "http://www.w3.org/TR/2001/REC-SVG-20010904/DTD/svg10.dtd">
<svg version="1.0" xmlns="http://www.w3.org/2000/svg"
 width="166.000000pt" height="166.000000pt" viewBox="0 0 166.000000 166.000000"
 preserveAspectRatio="xMidYMid meet">
<metadata>
Created by potrace 1.16, written by Peter Selinger 2001-2019
</metadata>
<g transform="translate(0.000000,166.000000) scale(0.100000,-0.100000)"
fill="#000000" stroke="none">
<path d="M841 1282 l-35 -4 48 -30 c35 -21 52 -26 59 -19 22 22 36 13 27 -16
-4 -16 -11 -98 -14 -183 -8 -204 -23 -359 -37 -376 -6 -7 -27 -16 -48 -20 -20
-4 -45 -11 -55 -17 -18 -9 -16 -11 14 -23 55 -24 248 -11 277 19 21 21 -8 43
-36 28 -11 -6 -41 -11 -66 -11 -40 0 -46 3 -41 17 11 27 26 204 35 389 7 154
10 176 28 196 44 50 39 57 -45 55 -42 0 -93 -3 -111 -5z"/>
</g>
</svg>
