<?xml version="1.0" standalone="no"?>
<!DOCTYPE svg PUBLIC "-//W3C//DTD SVG 20010904//EN"
 "http://www.w3.org/TR/2001/REC-SVG-20010904/DTD/svg10.dtd">
<svg version="1.0" xmlns="http://www.w3.org/2000/svg"
 width="166.000000pt" height="166.000000pt" viewBox="0 0 166.000000 166.000000"
 preserveAspectRatio="xMidYMid meet">
<metadata>
Created by potrace 1.16, written by Peter Selinger 2001-2019
</metadata>
<g transform="translate(0.000000,166.000000) scale(0.100000,-0.100000)"
fill="#000000" stroke="none">
<path d="M774 1273 c-15 -16 -33 -41 -41 -57 -12 -24 -13 -30 -1 -37 19 -12
25 -11 32 7 11 28 17 9 7 -22 -5 -16 -24 -75 -41 -132 -31 -97 -34 -102 -58
-100 -30 3 -39 -18 -41 -93 -1 -53 5 -62 31 -48 33 18 86 146 147 357 12 39
26 72 31 72 20 0 43 -125 60 -326 13 -156 23 -189 59 -189 37 0 91 108 157
315 31 96 63 187 70 202 13 24 12 27 -7 33 -11 4 -22 5 -23 3 -10 -12 -52
-134 -87 -248 -38 -127 -92 -250 -109 -250 -4 0 -11 42 -14 93 -17 227 -55
416 -90 439 -23 16 -58 7 -82 -19z"/>
</g>
</svg>
