<?xml version="1.0" standalone="no"?>
<!DOCTYPE svg PUBLIC "-//W3C//DTD SVG 20010904//EN"
 "http://www.w3.org/TR/2001/REC-SVG-20010904/DTD/svg10.dtd">
<svg version="1.0" xmlns="http://www.w3.org/2000/svg"
 width="166.000000pt" height="166.000000pt" viewBox="0 0 166.000000 166.000000"
 preserveAspectRatio="xMidYMid meet">
<metadata>
Created by potrace 1.16, written by Peter Selinger 2001-2019
</metadata>
<g transform="translate(0.000000,166.000000) scale(0.100000,-0.100000)"
fill="#000000" stroke="none">
<path d="M752 1337 c-28 -33 74 -146 186 -205 56 -30 61 -35 51 -53 -13 -26
-8 -75 9 -72 9 2 12 -23 12 -100 0 -152 14 -209 38 -159 5 9 6 88 3 175 l-6
158 48 62 c58 74 83 120 92 171 l8 38 -30 -15 c-31 -16 -59 -59 -49 -75 3 -5
-14 -38 -39 -71 l-45 -62 -62 33 c-34 18 -89 59 -122 91 -50 47 -58 60 -46 67
13 9 13 11 0 20 -20 13 -36 12 -48 -3z"/>
</g>
</svg>
