<?xml version="1.0" standalone="no"?>
<!DOCTYPE svg PUBLIC "-//W3C//DTD SVG 20010904//EN"
 "http://www.w3.org/TR/2001/REC-SVG-20010904/DTD/svg10.dtd">
<svg version="1.0" xmlns="http://www.w3.org/2000/svg"
 width="166.000000pt" height="166.000000pt" viewBox="0 0 166.000000 166.000000"
 preserveAspectRatio="xMidYMid meet">
<metadata>
Created by potrace 1.16, written by Peter Selinger 2001-2019
</metadata>
<g transform="translate(0.000000,166.000000) scale(0.100000,-0.100000)"
fill="#000000" stroke="none">
<path d="M1002 1325 c-84 -36 -226 -192 -281 -308 -66 -139 -63 -268 8 -338
92 -93 253 -73 420 50 94 70 117 96 101 115 -10 14 -20 9 -69 -33 -82 -71
-161 -118 -229 -137 -206 -57 -301 111 -188 333 37 75 113 170 178 224 63 52
100 68 121 50 10 -8 18 -7 31 2 14 10 15 15 4 28 -19 24 -59 30 -96 14z"/>
</g>
</svg>
