<?xml version="1.0" standalone="no"?>
<!DOCTYPE svg PUBLIC "-//W3C//DTD SVG 20010904//EN"
 "http://www.w3.org/TR/2001/REC-SVG-20010904/DTD/svg10.dtd">
<svg version="1.0" xmlns="http://www.w3.org/2000/svg"
 width="166.000000pt" height="166.000000pt" viewBox="0 0 166.000000 166.000000"
 preserveAspectRatio="xMidYMid meet">
<metadata>
Created by potrace 1.16, written by Peter Selinger 2001-2019
</metadata>
<g transform="translate(0.000000,166.000000) scale(0.100000,-0.100000)"
fill="#000000" stroke="none">
<path d="M930 1103 c-47 -17 -120 -126 -120 -181 0 -43 28 -92 61 -106 63 -27
118 9 170 111 l24 48 8 -70 c4 -38 7 -128 5 -200 -3 -115 -6 -136 -28 -180
-32 -64 -58 -70 -100 -23 -17 18 -36 48 -42 66 -13 35 -16 36 -37 23 -13 -8
-12 -16 5 -52 28 -63 77 -109 117 -109 46 0 71 21 96 81 31 72 40 170 30 344
-11 181 -15 209 -34 225 -12 10 -21 -3 -55 -76 -50 -108 -84 -154 -113 -154
-70 1 -82 82 -25 166 30 45 62 53 93 24 24 -22 45 -20 45 5 0 15 -60 66 -76
64 -5 0 -16 -3 -24 -6z"/>
</g>
</svg>
