<?xml version="1.0" standalone="no"?>
<!DOCTYPE svg PUBLIC "-//W3C//DTD SVG 20010904//EN"
 "http://www.w3.org/TR/2001/REC-SVG-20010904/DTD/svg10.dtd">
<svg version="1.0" xmlns="http://www.w3.org/2000/svg"
 width="166.000000pt" height="166.000000pt" viewBox="0 0 166.000000 166.000000"
 preserveAspectRatio="xMidYMid meet">
<metadata>
Created by potrace 1.16, written by Peter Selinger 2001-2019
</metadata>
<g transform="translate(0.000000,166.000000) scale(0.100000,-0.100000)"
fill="#000000" stroke="none">
<path d="M902 1222 c-9 -6 -10 -16 -1 -40 12 -35 11 -34 33 -26 23 9 22 74 -1
74 -10 0 -24 -4 -31 -8z"/>
<path d="M876 818 c-10 -46 -21 -109 -23 -140 -5 -54 -4 -58 16 -58 17 0 21 6
21 33 0 17 11 80 24 140 l23 107 -22 0 c-19 0 -24 -10 -39 -82z"/>
</g>
</svg>
