<?xml version="1.0" standalone="no"?>
<!DOCTYPE svg PUBLIC "-//W3C//DTD SVG 20010904//EN"
 "http://www.w3.org/TR/2001/REC-SVG-20010904/DTD/svg10.dtd">
<svg version="1.0" xmlns="http://www.w3.org/2000/svg"
 width="166.000000pt" height="166.000000pt" viewBox="0 0 166.000000 166.000000"
 preserveAspectRatio="xMidYMid meet">
<metadata>
Created by potrace 1.16, written by Peter Selinger 2001-2019
</metadata>
<g transform="translate(0.000000,166.000000) scale(0.100000,-0.100000)"
fill="#000000" stroke="none">
<path d="M807 1058 c-9 -40 -21 -113 -28 -163 -6 -49 -18 -107 -27 -128 -12
-31 -12 -43 -3 -64 11 -24 13 -25 28 -10 8 8 17 31 18 51 1 20 4 39 7 41 3 3
30 -6 60 -20 30 -14 106 -36 169 -50 63 -15 137 -37 166 -50 45 -20 52 -21 57
-8 4 9 1 21 -5 29 -14 17 -111 48 -225 73 -50 11 -108 27 -130 36 l-39 17 55
17 c69 22 95 35 146 77 47 38 54 55 42 100 -10 40 -31 48 -68 29 -36 -19 -31
-50 6 -41 43 11 29 -30 -23 -69 -42 -30 -70 -42 -176 -72 -17 -5 -18 0 -12 64
4 37 14 97 22 132 13 53 13 65 2 72 -23 15 -25 11 -42 -63z"/>
</g>
</svg>
