<?xml version="1.0" standalone="no"?>
<!DOCTYPE svg PUBLIC "-//W3C//DTD SVG 20010904//EN"
 "http://www.w3.org/TR/2001/REC-SVG-20010904/DTD/svg10.dtd">
<svg version="1.0" xmlns="http://www.w3.org/2000/svg"
 width="166.000000pt" height="166.000000pt" viewBox="0 0 166.000000 166.000000"
 preserveAspectRatio="xMidYMid meet">
<metadata>
Created by potrace 1.16, written by Peter Selinger 2001-2019
</metadata>
<g transform="translate(0.000000,166.000000) scale(0.100000,-0.100000)"
fill="#000000" stroke="none">
<path d="M565 1220 c3 -25 10 -58 15 -75 5 -16 11 -59 15 -95 19 -196 76 -276
124 -176 12 24 24 67 28 95 3 28 9 51 13 51 3 0 14 -26 24 -57 11 -35 31 -70
52 -91 29 -29 39 -34 67 -28 42 8 68 40 128 162 56 115 69 163 46 182 -18 15
-27 5 -32 -36 -8 -63 -110 -254 -142 -266 -33 -13 -70 46 -102 164 -37 134
-64 127 -86 -22 -8 -53 -20 -109 -26 -124 l-11 -29 -14 32 c-7 17 -18 73 -24
125 -16 137 -28 183 -57 209 l-25 24 7 -45z"/>
</g>
</svg>
