<?xml version="1.0" standalone="no"?>
<!DOCTYPE svg PUBLIC "-//W3C//DTD SVG 20010904//EN"
 "http://www.w3.org/TR/2001/REC-SVG-20010904/DTD/svg10.dtd">
<svg version="1.0" xmlns="http://www.w3.org/2000/svg"
 width="166.000000pt" height="166.000000pt" viewBox="0 0 166.000000 166.000000"
 preserveAspectRatio="xMidYMid meet">
<metadata>
Created by potrace 1.16, written by Peter Selinger 2001-2019
</metadata>
<g transform="translate(0.000000,166.000000) scale(0.100000,-0.100000)"
fill="#000000" stroke="none">
<path d="M883 1118 c-12 -6 -24 -17 -27 -25 -8 -19 18 -27 43 -14 25 14 151
14 185 1 15 -5 34 -25 43 -45 14 -30 15 -42 5 -86 -13 -56 -47 -119 -64 -119
-5 0 -22 9 -36 21 -25 19 -27 19 -33 2 -12 -29 -10 -43 5 -43 7 0 19 -6 25
-13 9 -11 -2 -26 -47 -70 -65 -61 -176 -137 -202 -137 -9 0 -26 -14 -38 -30
-13 -16 -21 -30 -20 -30 2 0 35 9 73 20 50 15 120 23 245 30 97 5 182 11 190
14 8 2 28 7 43 11 43 9 17 34 -31 30 -20 -2 -100 -6 -177 -11 l-140 -7 80 76
c74 72 82 77 114 71 23 -4 37 -1 42 8 13 20 11 25 -15 32 l-25 6 26 58 c51
111 37 208 -37 244 -40 20 -189 24 -227 6z"/>
</g>
</svg>
