<?xml version="1.0" standalone="no"?>
<!DOCTYPE svg PUBLIC "-//W3C//DTD SVG 20010904//EN"
 "http://www.w3.org/TR/2001/REC-SVG-20010904/DTD/svg10.dtd">
<svg version="1.0" xmlns="http://www.w3.org/2000/svg"
 width="166.000000pt" height="166.000000pt" viewBox="0 0 166.000000 166.000000"
 preserveAspectRatio="xMidYMid meet">
<metadata>
Created by potrace 1.16, written by Peter Selinger 2001-2019
</metadata>
<g transform="translate(0.000000,166.000000) scale(0.100000,-0.100000)"
fill="#000000" stroke="none">
<path d="M1007 1344 c-9 -27 -17 -65 -17 -85 0 -20 -3 -51 -6 -68 -6 -31 -7
-31 -70 -31 l-64 0 6 28 c3 15 12 50 19 79 11 45 11 52 -3 58 -23 8 -28 -2
-47 -87 l-17 -78 -88 0 c-67 0 -91 4 -100 15 -7 9 -27 26 -43 37 l-30 22 29
-55 c32 -60 50 -67 167 -68 31 -1 57 -2 57 -4 0 -9 -22 -125 -27 -141 -5 -17
-12 -18 -84 -12 -97 9 -119 3 -119 -31 0 -20 3 -24 18 -17 35 16 162 3 162
-17 0 -6 -14 -45 -31 -87 -24 -61 -28 -81 -20 -99 15 -33 47 -29 66 8 15 28
15 32 1 42 -14 11 -13 20 10 84 l26 71 57 4 c31 2 57 3 59 2 5 -3 -48 -137
-62 -159 -7 -11 -20 -44 -29 -73 l-15 -54 36 43 c44 50 65 79 59 79 -3 0 10
37 27 83 l32 82 70 7 c86 9 119 21 134 48 10 19 9 20 -12 15 -135 -30 -183
-33 -175 -10 4 8 12 41 19 75 9 45 16 60 29 60 51 0 67 34 22 44 l-28 6 3 88
c2 48 2 100 0 116 -3 28 -4 27 -21 -20z m-37 -240 c0 -3 -7 -37 -16 -74 l-17
-68 -54 -7 c-30 -4 -57 -4 -60 -1 -3 3 0 39 7 81 l13 75 63 0 c35 0 64 -3 64
-6z"/>
</g>
</svg>
