<?xml version="1.0" standalone="no"?>
<!DOCTYPE svg PUBLIC "-//W3C//DTD SVG 20010904//EN"
 "http://www.w3.org/TR/2001/REC-SVG-20010904/DTD/svg10.dtd">
<svg version="1.0" xmlns="http://www.w3.org/2000/svg"
 width="166.000000pt" height="166.000000pt" viewBox="0 0 166.000000 166.000000"
 preserveAspectRatio="xMidYMid meet">
<metadata>
Created by potrace 1.16, written by Peter Selinger 2001-2019
</metadata>
<g transform="translate(0.000000,166.000000) scale(0.100000,-0.100000)"
fill="#000000" stroke="none">
<path d="M820 1310 c-40 -10 -53 -25 -80 -97 -28 -75 -27 -147 2 -167 54 -38
141 3 182 86 26 51 35 129 18 154 -20 31 -59 38 -122 24z m80 -45 c32 -38 -15
-151 -74 -179 -45 -21 -66 -12 -66 29 0 36 24 110 42 133 10 12 14 11 24 -3
18 -24 48 -12 39 15 -8 24 16 28 35 5z"/>
<path d="M1069 1225 c-9 -16 -33 -75 -54 -130 -28 -72 -64 -139 -133 -240 -52
-77 -106 -153 -121 -170 -44 -48 -61 -77 -61 -108 0 -35 24 -45 50 -22 16 14
17 21 8 32 -9 11 -6 20 10 41 203 252 329 484 320 588 l-3 39 -16 -30z"/>
<path d="M1011 744 c-30 -8 -57 -16 -59 -19 -2 -2 -15 0 -28 5 -21 8 -24 7
-24 -15 0 -14 5 -25 11 -25 6 0 29 -13 52 -29 77 -52 125 -53 152 -1 16 31 20
76 8 83 -24 13 -64 14 -112 1z m79 -43 c0 -9 -27 -41 -35 -41 -12 0 -55 24
-55 31 0 9 25 16 63 18 15 0 27 -3 27 -8z"/>
</g>
</svg>
