<?xml version="1.0" standalone="no"?>
<!DOCTYPE svg PUBLIC "-//W3C//DTD SVG 20010904//EN"
 "http://www.w3.org/TR/2001/REC-SVG-20010904/DTD/svg10.dtd">
<svg version="1.0" xmlns="http://www.w3.org/2000/svg"
 width="166.000000pt" height="166.000000pt" viewBox="0 0 166.000000 166.000000"
 preserveAspectRatio="xMidYMid meet">
<metadata>
Created by potrace 1.16, written by Peter Selinger 2001-2019
</metadata>
<g transform="translate(0.000000,166.000000) scale(0.100000,-0.100000)"
fill="#000000" stroke="none">
<path d="M850 961 c0 -15 11 -19 73 -24 39 -3 79 -8 88 -12 15 -6 36 21 25 32
-10 10 -84 23 -133 23 -45 0 -53 -3 -53 -19z"/>
<path d="M791 824 c-12 -9 -34 -19 -49 -24 -18 -5 13 -9 93 -14 66 -3 140 -13
165 -21 37 -12 47 -12 58 -1 24 24 -31 47 -134 56 -51 4 -97 11 -102 14 -5 3
-19 -2 -31 -10z"/>
</g>
</svg>
