<?xml version="1.0" standalone="no"?>
<!DOCTYPE svg PUBLIC "-//W3C//DTD SVG 20010904//EN"
 "http://www.w3.org/TR/2001/REC-SVG-20010904/DTD/svg10.dtd">
<svg version="1.0" xmlns="http://www.w3.org/2000/svg"
 width="166.000000pt" height="166.000000pt" viewBox="0 0 166.000000 166.000000"
 preserveAspectRatio="xMidYMid meet">
<metadata>
Created by potrace 1.16, written by Peter Selinger 2001-2019
</metadata>
<g transform="translate(0.000000,166.000000) scale(0.100000,-0.100000)"
fill="#000000" stroke="none">
<path d="M962 1147 c-13 -17 -39 -59 -58 -92 -19 -33 -49 -74 -67 -91 -33 -31
-38 -54 -12 -54 25 0 80 57 110 112 15 29 41 71 56 94 21 31 25 44 16 53 -16
16 -19 14 -45 -22z"/>
<path d="M986 1094 c-8 -22 -8 -24 8 -24 16 0 92 -80 108 -115 12 -27 16 -29
37 -16 19 12 -23 84 -78 134 -44 40 -65 46 -75 21z"/>
</g>
</svg>
