<?xml version="1.0" standalone="no"?>
<!DOCTYPE svg PUBLIC "-//W3C//DTD SVG 20010904//EN"
 "http://www.w3.org/TR/2001/REC-SVG-20010904/DTD/svg10.dtd">
<svg version="1.0" xmlns="http://www.w3.org/2000/svg"
 width="166.000000pt" height="82.000000pt" viewBox="0 0 166.000000 82.000000"
 preserveAspectRatio="xMidYMid meet">
<metadata>
Created by potrace 1.16, written by Peter Selinger 2001-2019
</metadata>
<g transform="translate(0.000000,82.000000) scale(0.100000,-0.100000)"
fill="#000000" stroke="none">
<path d="M185 410 c0 -228 1 -322 2 -208 2 115 2 301 0 415 -1 115 -2 21 -2
-207z"/>
<path d="M1465 410 c0 -228 1 -322 2 -208 2 115 2 301 0 415 -1 115 -2 21 -2
-207z"/>
<path d="M808 564 c-74 -39 -215 -277 -243 -409 -17 -81 -19 -155 -5 -155 6 0
10 15 10 34 0 59 27 179 54 240 32 71 123 211 163 248 15 14 39 28 52 30 20 2
22 5 10 15 -11 9 -20 8 -41 -3z"/>
<path d="M885 541 c-70 -35 -47 -41 35 -10 45 17 61 19 90 10 125 -37 144
-257 41 -461 -27 -53 -36 -80 -27 -80 20 0 85 148 103 236 13 63 14 93 6 149
-14 99 -36 140 -87 165 -57 27 -90 25 -161 -9z"/>
</g>
</svg>
