<?xml version="1.0" standalone="no"?>
<!DOCTYPE svg PUBLIC "-//W3C//DTD SVG 20010904//EN"
 "http://www.w3.org/TR/2001/REC-SVG-20010904/DTD/svg10.dtd">
<svg version="1.0" xmlns="http://www.w3.org/2000/svg"
 width="166.000000pt" height="82.000000pt" viewBox="0 0 166.000000 82.000000"
 preserveAspectRatio="xMidYMid meet">
<metadata>
Created by potrace 1.16, written by Peter Selinger 2001-2019
</metadata>
<g transform="translate(0.000000,82.000000) scale(0.100000,-0.100000)"
fill="#000000" stroke="none">
<path d="M175 410 c0 -228 1 -322 2 -208 2 115 2 301 0 415 -1 115 -2 21 -2
-207z"/>
<path d="M826 598 c-39 -178 -53 -227 -70 -240 -17 -15 -19 -19 -7 -27 12 -8
9 -31 -22 -148 -20 -76 -39 -149 -43 -162 -6 -19 -4 -22 11 -19 15 2 26 31 52
138 52 214 49 207 85 219 45 16 192 14 233 -3 81 -34 62 -177 -42 -312 -27
-36 -30 -45 -16 -42 26 5 100 120 119 185 20 67 12 133 -20 170 -21 24 -31 27
-117 32 l-94 6 48 28 c63 37 153 127 203 202 63 93 115 195 101 195 -6 0 -30
-32 -52 -72 -63 -113 -150 -222 -218 -273 -66 -50 -156 -100 -164 -91 -3 3 16
94 42 203 25 109 48 206 50 216 2 11 -3 17 -14 17 -13 0 -25 -41 -65 -222z"/>
<path d="M1455 410 c0 -228 1 -322 2 -208 2 115 2 301 0 415 -1 115 -2 21 -2
-207z"/>
</g>
</svg>
