<?xml version="1.0" standalone="no"?>
<!DOCTYPE svg PUBLIC "-//W3C//DTD SVG 20010904//EN"
 "http://www.w3.org/TR/2001/REC-SVG-20010904/DTD/svg10.dtd">
<svg version="1.0" xmlns="http://www.w3.org/2000/svg"
 width="166.000000pt" height="82.000000pt" viewBox="0 0 166.000000 82.000000"
 preserveAspectRatio="xMidYMid meet">
<metadata>
Created by potrace 1.16, written by Peter Selinger 2001-2019
</metadata>
<g transform="translate(0.000000,82.000000) scale(0.100000,-0.100000)"
fill="#000000" stroke="none">
<path d="M175 410 c0 -228 1 -322 2 -208 2 115 2 301 0 415 -1 115 -2 21 -2
-207z"/>
<path d="M860 593 c1 -250 13 -467 31 -520 9 -27 16 -33 40 -33 39 0 75 49
154 215 75 155 128 304 156 435 11 52 23 103 25 113 3 9 1 17 -5 17 -6 0 -14
-17 -19 -37 -6 -21 -21 -86 -35 -144 -54 -224 -221 -579 -272 -579 -8 0 -19 8
-24 18 -18 33 -31 245 -31 495 0 158 -4 247 -10 247 -6 0 -10 -82 -10 -227z"/>
<path d="M1455 410 c0 -228 1 -322 2 -208 2 115 2 301 0 415 -1 115 -2 21 -2
-207z"/>
</g>
</svg>
