<?xml version="1.0" standalone="no"?>
<!DOCTYPE svg PUBLIC "-//W3C//DTD SVG 20010904//EN"
 "http://www.w3.org/TR/2001/REC-SVG-20010904/DTD/svg10.dtd">
<svg version="1.0" xmlns="http://www.w3.org/2000/svg"
 width="166.000000pt" height="82.000000pt" viewBox="0 0 166.000000 82.000000"
 preserveAspectRatio="xMidYMid meet">
<metadata>
Created by potrace 1.16, written by Peter Selinger 2001-2019
</metadata>
<g transform="translate(0.000000,82.000000) scale(0.100000,-0.100000)"
fill="#000000" stroke="none">
<path d="M175 410 c0 -228 1 -322 2 -208 2 115 2 301 0 415 -1 115 -2 21 -2
-207z"/>
<path d="M1455 410 c0 -228 1 -322 2 -208 2 115 2 301 0 415 -1 115 -2 21 -2
-207z"/>
<path d="M630 777 c-3 -3 -61 -7 -128 -8 -68 -2 -122 -7 -122 -12 0 -6 80 -7
208 -3 161 5 227 4 297 -8 332 -54 348 -60 353 -117 2 -24 -6 -52 -26 -90 -27
-50 -259 -389 -274 -399 -6 -5 -150 179 -172 220 -12 22 -70 62 -74 51 -2 -5
18 -31 44 -57 26 -27 72 -84 103 -127 31 -44 62 -88 70 -98 12 -18 10 -24 -29
-70 -56 -66 -41 -79 16 -14 l45 50 16 -23 c8 -12 19 -22 24 -22 15 0 10 23
-11 45 l-20 21 28 40 c101 142 214 307 241 352 54 93 57 154 9 186 -53 34
-576 107 -598 83z"/>
</g>
</svg>
