<?xml version="1.0" standalone="no"?>
<!DOCTYPE svg PUBLIC "-//W3C//DTD SVG 20010904//EN"
 "http://www.w3.org/TR/2001/REC-SVG-20010904/DTD/svg10.dtd">
<svg version="1.0" xmlns="http://www.w3.org/2000/svg"
 width="166.000000pt" height="82.000000pt" viewBox="0 0 166.000000 82.000000"
 preserveAspectRatio="xMidYMid meet">
<metadata>
Created by potrace 1.16, written by Peter Selinger 2001-2019
</metadata>
<g transform="translate(0.000000,82.000000) scale(0.100000,-0.100000)"
fill="#000000" stroke="none">
<path d="M175 410 c0 -228 1 -322 2 -208 2 115 2 301 0 415 -1 115 -2 21 -2
-207z"/>
<path d="M1465 410 c0 -228 1 -322 2 -208 2 115 2 301 0 415 -1 115 -2 21 -2
-207z"/>
<path d="M707 667 c-4 -72 -24 -207 -56 -376 -53 -274 -57 -301 -42 -285 8 9
30 112 86 419 26 141 41 340 26 349 -4 3 -11 -45 -14 -107z"/>
<path d="M855 264 c-21 -7 -53 -27 -72 -46 -60 -57 -167 -218 -145 -218 5 0
32 35 60 79 69 106 142 171 191 171 57 0 96 -46 95 -109 0 -29 -9 -65 -22 -90
-25 -47 -26 -51 -12 -51 5 0 18 17 29 38 42 82 36 155 -17 204 -35 33 -61 38
-107 22z"/>
</g>
</svg>
