<?xml version="1.0" standalone="no"?>
<!DOCTYPE svg PUBLIC "-//W3C//DTD SVG 20010904//EN"
 "http://www.w3.org/TR/2001/REC-SVG-20010904/DTD/svg10.dtd">
<svg version="1.0" xmlns="http://www.w3.org/2000/svg"
 width="166.000000pt" height="82.000000pt" viewBox="0 0 166.000000 82.000000"
 preserveAspectRatio="xMidYMid meet">
<metadata>
Created by potrace 1.16, written by Peter Selinger 2001-2019
</metadata>
<g transform="translate(0.000000,82.000000) scale(0.100000,-0.100000)"
fill="#000000" stroke="none">
<path d="M185 410 c0 -228 1 -322 2 -208 2 115 2 301 0 415 -1 115 -2 21 -2
-207z"/>
<path d="M1465 410 c0 -228 1 -322 2 -208 2 115 2 301 0 415 -1 115 -2 21 -2
-207z"/>
<path d="M730 795 c0 -10 64 -95 72 -95 15 0 8 15 -23 58 -26 36 -49 53 -49
37z"/>
<path d="M611 513 c-43 -24 -66 -32 -69 -24 -3 9 -7 9 -18 0 -8 -6 -14 -15
-14 -20 0 -20 52 -7 107 26 63 38 90 43 99 20 3 -8 -15 -120 -40 -250 -25
-129 -46 -242 -46 -250 0 -31 18 -14 24 23 4 20 25 133 48 250 33 173 39 217
30 237 -16 35 -45 32 -121 -12z"/>
<path d="M754 58 c-32 -34 -44 -53 -35 -56 13 -4 46 30 76 81 23 39 14 34 -41
-25z"/>
</g>
</svg>
