<?xml version="1.0" standalone="no"?>
<!DOCTYPE svg PUBLIC "-//W3C//DTD SVG 20010904//EN"
 "http://www.w3.org/TR/2001/REC-SVG-20010904/DTD/svg10.dtd">
<svg version="1.0" xmlns="http://www.w3.org/2000/svg"
 width="166.000000pt" height="82.000000pt" viewBox="0 0 166.000000 82.000000"
 preserveAspectRatio="xMidYMid meet">
<metadata>
Created by potrace 1.16, written by Peter Selinger 2001-2019
</metadata>
<g transform="translate(0.000000,82.000000) scale(0.100000,-0.100000)"
fill="#000000" stroke="none">
<path d="M175 410 c0 -228 1 -322 2 -208 2 115 2 301 0 415 -1 115 -2 21 -2
-207z"/>
<path d="M720 768 c-6 -29 -22 -123 -36 -208 -14 -85 -41 -243 -60 -351 -38
-220 -37 -209 -25 -209 10 0 15 21 87 455 30 182 57 338 60 348 3 9 1 17 -4
17 -6 0 -15 -24 -22 -52z"/>
<path d="M1455 410 c0 -228 1 -322 2 -208 2 115 2 301 0 415 -1 115 -2 21 -2
-207z"/>
<path d="M923 376 c-73 -39 -168 -110 -196 -148 -12 -16 -27 -28 -34 -28 -21
0 -15 -26 10 -39 12 -7 44 -46 72 -87 27 -41 56 -74 63 -74 15 0 16 -2 -55
102 -29 42 -57 78 -64 80 -24 8 120 126 205 168 47 23 86 46 86 51 0 15 -22 8
-87 -25z"/>
</g>
</svg>
