<?xml version="1.0" standalone="no"?>
<!DOCTYPE svg PUBLIC "-//W3C//DTD SVG 20010904//EN"
 "http://www.w3.org/TR/2001/REC-SVG-20010904/DTD/svg10.dtd">
<svg version="1.0" xmlns="http://www.w3.org/2000/svg"
 width="166.000000pt" height="82.000000pt" viewBox="0 0 166.000000 82.000000"
 preserveAspectRatio="xMidYMid meet">
<metadata>
Created by potrace 1.16, written by Peter Selinger 2001-2019
</metadata>
<g transform="translate(0.000000,82.000000) scale(0.100000,-0.100000)"
fill="#000000" stroke="none">
<path d="M185 410 c0 -228 1 -322 2 -208 2 115 2 301 0 415 -1 115 -2 21 -2
-207z"/>
<path d="M1465 410 c0 -228 1 -322 2 -208 2 115 2 301 0 415 -1 115 -2 21 -2
-207z"/>
<path d="M440 399 c0 -81 -15 -235 -29 -304 -18 -88 -19 -114 -1 -85 18 29 57
290 51 345 -2 24 -21 63 -21 44z"/>
<path d="M656 340 c-53 -34 -108 -107 -180 -241 -47 -88 -52 -99 -38 -99 4 0
25 33 47 73 73 137 165 257 196 257 14 0 11 -54 -12 -193 -19 -116 -20 -151
-3 -135 3 3 14 59 24 124 33 202 25 253 -34 214z"/>
</g>
</svg>
