<?xml version="1.0" standalone="no"?>
<!DOCTYPE svg PUBLIC "-//W3C//DTD SVG 20010904//EN"
 "http://www.w3.org/TR/2001/REC-SVG-20010904/DTD/svg10.dtd">
<svg version="1.0" xmlns="http://www.w3.org/2000/svg"
 width="166.000000pt" height="82.000000pt" viewBox="0 0 166.000000 82.000000"
 preserveAspectRatio="xMidYMid meet">
<metadata>
Created by potrace 1.16, written by Peter Selinger 2001-2019
</metadata>
<g transform="translate(0.000000,82.000000) scale(0.100000,-0.100000)"
fill="#000000" stroke="none">
<path d="M175 410 c0 -228 1 -322 2 -208 2 115 2 301 0 415 -1 115 -2 21 -2
-207z"/>
<path d="M1465 410 c0 -228 1 -322 2 -208 2 115 2 301 0 415 -1 115 -2 21 -2
-207z"/>
<path d="M890 709 c-19 -12 -61 -49 -93 -82 -120 -122 -189 -354 -111 -373 37
-9 94 32 222 164 61 64 112 113 112 110 0 -3 -7 -25 -16 -49 -22 -62 -124
-472 -118 -478 11 -12 24 25 59 174 44 186 77 297 112 378 27 61 24 87 -7 50
-15 -19 -19 -20 -24 -7 -3 9 -6 29 -6 45 0 17 -7 43 -15 59 -19 37 -63 40
-115 9z m101 -20 c6 -12 13 -47 16 -79 l6 -57 -119 -121 c-111 -112 -173 -162
-201 -162 -40 0 -13 154 44 248 86 142 220 233 254 171z"/>
<path d="M1044 18 l-19 -23 23 19 c21 18 27 26 19 26 -2 0 -12 -10 -23 -22z"/>
</g>
</svg>
