<?xml version="1.0" standalone="no"?>
<!DOCTYPE svg PUBLIC "-//W3C//DTD SVG 20010904//EN"
 "http://www.w3.org/TR/2001/REC-SVG-20010904/DTD/svg10.dtd">
<svg version="1.0" xmlns="http://www.w3.org/2000/svg"
 width="166.000000pt" height="82.000000pt" viewBox="0 0 166.000000 82.000000"
 preserveAspectRatio="xMidYMid meet">
<metadata>
Created by potrace 1.16, written by Peter Selinger 2001-2019
</metadata>
<g transform="translate(0.000000,82.000000) scale(0.100000,-0.100000)"
fill="#000000" stroke="none">
<path d="M175 410 c0 -228 1 -322 2 -208 2 115 2 301 0 415 -1 115 -2 21 -2
-207z"/>
<path d="M1455 410 c0 -228 1 -322 2 -208 2 115 2 301 0 415 -1 115 -2 21 -2
-207z"/>
<path d="M970 714 c-6 -14 -10 -32 -10 -40 0 -45 -121 -244 -198 -326 -32 -34
-61 -37 -64 -5 -1 12 -2 102 -2 199 -1 98 -5 178 -9 178 -11 0 -14 -368 -4
-397 11 -29 35 -36 63 -18 28 18 138 165 181 242 l33 58 0 -40 c0 -22 9 -83
20 -135 33 -155 41 -216 41 -326 0 -107 12 -140 22 -57 8 70 -10 236 -39 369
-22 101 -25 135 -21 222 3 56 4 102 1 102 -2 0 -9 -12 -14 -26z"/>
</g>
</svg>
