<?xml version="1.0" standalone="no"?>
<!DOCTYPE svg PUBLIC "-//W3C//DTD SVG 20010904//EN"
 "http://www.w3.org/TR/2001/REC-SVG-20010904/DTD/svg10.dtd">
<svg version="1.0" xmlns="http://www.w3.org/2000/svg"
 width="166.000000pt" height="82.000000pt" viewBox="0 0 166.000000 82.000000"
 preserveAspectRatio="xMidYMid meet">
<metadata>
Created by potrace 1.16, written by Peter Selinger 2001-2019
</metadata>
<g transform="translate(0.000000,82.000000) scale(0.100000,-0.100000)"
fill="#000000" stroke="none">
<path d="M185 410 c0 -228 1 -322 2 -208 2 115 2 301 0 415 -1 115 -2 21 -2
-207z"/>
<path d="M574 775 c-51 -52 -74 -119 -74 -211 0 -97 15 -163 68 -291 l25 -63
-31 -68 c-34 -77 -50 -142 -34 -142 5 0 13 15 16 33 3 17 19 59 34 92 l28 59
60 -92 c32 -50 65 -92 72 -92 7 0 -9 32 -36 73 -27 39 -56 86 -65 104 -17 31
-17 31 27 90 24 32 81 101 126 153 145 167 217 293 197 343 -9 23 -67 57 -97
56 -21 0 -17 -4 23 -25 26 -14 50 -31 53 -39 18 -45 -53 -160 -210 -343 -58
-67 -113 -133 -122 -147 -9 -14 -20 -25 -24 -25 -12 0 -50 96 -72 183 -42 165
-13 293 80 364 37 28 40 33 21 33 -14 0 -39 -18 -65 -45z"/>
<path d="M1465 410 c0 -228 1 -322 2 -208 2 115 2 301 0 415 -1 115 -2 21 -2
-207z"/>
<path d="M955 88 c-48 -45 -82 -84 -76 -86 11 -4 172 140 179 159 10 26 -26 0
-103 -73z"/>
</g>
</svg>
