<?xml version="1.0" standalone="no"?>
<!DOCTYPE svg PUBLIC "-//W3C//DTD SVG 20010904//EN"
 "http://www.w3.org/TR/2001/REC-SVG-20010904/DTD/svg10.dtd">
<svg version="1.0" xmlns="http://www.w3.org/2000/svg"
 width="166.000000pt" height="82.000000pt" viewBox="0 0 166.000000 82.000000"
 preserveAspectRatio="xMidYMid meet">
<metadata>
Created by potrace 1.16, written by Peter Selinger 2001-2019
</metadata>
<g transform="translate(0.000000,82.000000) scale(0.100000,-0.100000)"
fill="#000000" stroke="none">
<path d="M175 410 c0 -228 1 -322 2 -208 2 115 2 301 0 415 -1 115 -2 21 -2
-207z"/>
<path d="M686 809 c-3 -8 -7 -70 -9 -139 -6 -138 -27 -239 -96 -447 -47 -143
-58 -193 -42 -193 6 0 13 12 17 27 3 16 23 84 44 153 72 231 91 318 97 446 l6
121 48 -18 c27 -11 55 -19 62 -18 6 0 -10 9 -38 20 -27 11 -58 29 -67 40 -13
16 -19 18 -22 8z"/>
<path d="M1465 410 c0 -228 1 -322 2 -208 2 115 2 301 0 415 -1 115 -2 21 -2
-207z"/>
<path d="M1101 708 c-6 -35 -22 -103 -34 -153 l-23 -90 -45 -11 c-24 -7 -96
-22 -159 -34 -129 -24 -163 -37 -168 -64 -4 -17 -2 -16 25 3 19 14 79 30 182
51 85 16 155 29 157 27 4 -5 -93 -384 -104 -404 -15 -27 -15 -33 -1 -33 17 0
35 56 84 254 38 158 50 192 70 208 14 11 25 24 25 30 0 6 -6 5 -15 -2 -9 -7
-17 -11 -19 -9 -3 2 9 58 24 124 31 127 36 165 21 165 -5 0 -14 -28 -20 -62z"/>
</g>
</svg>
