<?xml version="1.0" standalone="no"?>
<!DOCTYPE svg PUBLIC "-//W3C//DTD SVG 20010904//EN"
 "http://www.w3.org/TR/2001/REC-SVG-20010904/DTD/svg10.dtd">
<svg version="1.0" xmlns="http://www.w3.org/2000/svg"
 width="166.000000pt" height="82.000000pt" viewBox="0 0 166.000000 82.000000"
 preserveAspectRatio="xMidYMid meet">
<metadata>
Created by potrace 1.16, written by Peter Selinger 2001-2019
</metadata>
<g transform="translate(0.000000,82.000000) scale(0.100000,-0.100000)"
fill="#000000" stroke="none">
<path d="M175 410 c0 -228 1 -322 2 -208 2 115 2 301 0 415 -1 115 -2 21 -2
-207z"/>
<path d="M1455 410 c0 -228 1 -322 2 -208 2 115 2 301 0 415 -1 115 -2 21 -2
-207z"/>
<path d="M700 589 c-208 -10 -282 -18 -275 -29 3 -4 26 -6 53 -4 26 2 148 8
272 14 123 6 229 15 234 20 11 11 -20 11 -284 -1z"/>
<path d="M928 256 c-12 -9 -73 -15 -180 -19 -90 -4 -196 -13 -237 -21 -40 -7
-81 -11 -91 -9 -23 6 -36 -15 -15 -23 9 -4 62 1 118 9 56 9 168 19 249 23 143
6 186 17 177 42 -3 7 -9 7 -21 -2z"/>
</g>
</svg>
