<?xml version="1.0" standalone="no"?>
<!DOCTYPE svg PUBLIC "-//W3C//DTD SVG 20010904//EN"
 "http://www.w3.org/TR/2001/REC-SVG-20010904/DTD/svg10.dtd">
<svg version="1.0" xmlns="http://www.w3.org/2000/svg"
 width="166.000000pt" height="82.000000pt" viewBox="0 0 166.000000 82.000000"
 preserveAspectRatio="xMidYMid meet">
<metadata>
Created by potrace 1.16, written by Peter Selinger 2001-2019
</metadata>
<g transform="translate(0.000000,82.000000) scale(0.100000,-0.100000)"
fill="#000000" stroke="none">
<path d="M185 410 c0 -228 1 -322 2 -208 2 115 2 301 0 415 -1 115 -2 21 -2
-207z"/>
<path d="M678 796 c-147 -52 -279 -149 -330 -243 -15 -26 -34 -86 -44 -133
-27 -128 -24 -420 4 -420 4 0 5 72 3 159 -5 230 22 350 99 443 45 54 165 131
266 169 84 31 97 33 214 33 107 0 132 -3 172 -21 83 -38 146 -157 135 -252
-16 -138 -160 -314 -274 -337 -46 -9 -56 17 -48 122 6 74 5 84 -9 84 -14 0
-16 16 -16 124 0 94 -3 125 -13 129 -24 9 -80 -26 -143 -88 -49 -48 -73 -84
-122 -186 -106 -214 -107 -300 -4 -274 15 4 78 57 144 122 64 63 121 112 126
109 6 -3 12 4 15 16 2 13 1 -13 -1 -58 -5 -95 5 -124 47 -124 85 0 223 115
282 235 59 120 46 251 -34 342 -55 62 -92 73 -257 73 -127 0 -153 -3 -212 -24z
m152 -294 l0 -128 -123 -121 c-120 -119 -165 -149 -190 -124 -25 25 50 219
136 354 35 54 139 147 165 147 9 0 12 -32 12 -128z"/>
<path d="M1465 410 c0 -228 1 -322 2 -208 2 115 2 301 0 415 -1 115 -2 21 -2
-207z"/>
</g>
</svg>
